<?xml version="1.0" encoding="utf-8"?>
<!-- Generator: Adobe Illustrator 28.0.0, SVG Export Plug-In . SVG Version: 6.00 Build 0)  -->
<svg version="1.1" id="Layer_1" xmlns="http://www.w3.org/2000/svg" xmlns:xlink="http://www.w3.org/1999/xlink" x="0px" y="0px"
	 viewBox="0 0 4000 4000" style="enable-background:new 0 0 4000 4000;" xml:space="preserve">
<style type="text/css">
	.st0{display:none;}
	.st1{display:inline;fill:#3AAAFF;}
	.st2{fill:#FFFFFF;}
	.st3{opacity:0.3;}
	.st4{fill:#232323;}
	.st5{fill:#020202;}
	.st6{opacity:0.35;}
	.st7{fill:#22A7F0;}
	.st8{opacity:0.5;}
</style>
<g>
	<g class="st0">
		<rect class="st1" width="4000" height="4000"/>
	</g>
	<g>
		<g>
			<g>
				<path class="st2" d="M1041.15,3405.59c0,6.52-13.37,12.21-33.35,15.34c-10.08,1.58-18.03,9.52-19.61,19.61
					c-3.13,19.97-8.82,33.35-15.34,33.35c-6.52,0-12.21-13.37-15.34-33.35c-1.58-10.09-9.53-18.03-19.61-19.61
					c-19.99-3.13-33.39-8.82-33.39-15.35c0-6.56,13.39-12.26,33.37-15.37c10.1-1.57,18.06-9.52,19.64-19.62
					c3.13-20,8.82-33.37,15.34-33.37c6.52,0,12.21,13.37,15.34,33.37c1.58,10.1,9.54,18.04,19.63,19.62
					C1027.79,3393.34,1041.15,3399.03,1041.15,3405.59z"/>
			</g>
			<g>
				<path class="st2" d="M914.69,1764.77c0,6.52-13.37,12.21-33.35,15.34c-10.08,1.58-18.03,9.52-19.61,19.61
					c-3.13,19.97-8.82,33.35-15.34,33.35c-6.52,0-12.21-13.37-15.34-33.35c-1.58-10.09-9.53-18.03-19.61-19.61
					c-19.99-3.13-33.39-8.82-33.39-15.35c0-6.56,13.39-12.26,33.37-15.37c10.1-1.57,18.06-9.52,19.64-19.62
					c3.13-20,8.82-33.37,15.34-33.37s12.21,13.37,15.34,33.37c1.58,10.1,9.54,18.04,19.63,19.62
					C901.33,1752.52,914.69,1758.21,914.69,1764.77z"/>
			</g>
			<g>
				<path class="st2" d="M3355.99,2452.42c0,6.52-13.37,12.21-33.35,15.34c-10.08,1.58-18.03,9.52-19.61,19.61
					c-3.13,19.97-8.82,33.35-15.34,33.35s-12.21-13.37-15.34-33.35c-1.58-10.09-9.53-18.03-19.61-19.61
					c-19.99-3.13-33.39-8.82-33.39-15.35c0-6.56,13.39-12.26,33.37-15.37c10.1-1.57,18.06-9.52,19.64-19.62
					c3.13-20,8.82-33.37,15.34-33.37c6.52,0,12.21,13.37,15.34,33.37c1.58,10.1,9.54,18.04,19.63,19.62
					C3342.63,2440.16,3355.99,2445.86,3355.99,2452.42z"/>
			</g>
			<g>
				<path class="st2" d="M2722.52,488.1c0,8.12-16.64,15.19-41.49,19.09c-12.55,1.97-22.43,11.85-24.39,24.39
					c-3.9,24.85-10.97,41.49-19.09,41.49s-15.19-16.64-19.09-41.48c-1.97-12.55-11.85-22.43-24.4-24.39
					c-24.87-3.9-41.54-10.97-41.54-19.09c0-8.16,16.66-15.25,41.51-19.12c12.56-1.96,22.46-11.84,24.43-24.4
					c3.9-24.88,10.97-41.51,19.09-41.51s15.19,16.63,19.09,41.51c1.97,12.56,11.87,22.45,24.43,24.4
					C2705.9,472.85,2722.52,479.94,2722.52,488.1z"/>
			</g>
			<g>
				<circle class="st2" cx="3515.84" cy="1080.59" r="21.88"/>
			</g>
			<g>
				<circle class="st2" cx="3524.19" cy="2836.3" r="21.88"/>
			</g>
			<g>
				<circle class="st2" cx="2849.88" cy="3200.45" r="21.88"/>
			</g>
			<g>
				<circle class="st2" cx="596.85" cy="1041.61" r="21.88"/>
			</g>
			<g>
				<circle class="st2" cx="2994.95" cy="751.45" r="21.88"/>
			</g>
			<g>
				<circle class="st2" cx="985.84" cy="836.82" r="21.88"/>
			</g>
			<g>
				<circle class="st2" cx="522.52" cy="3288.89" r="21.88"/>
			</g>
			<g>
				<circle class="st2" cx="3160.84" cy="1390.37" r="11.25"/>
			</g>
			<g>
				<circle class="st2" cx="3116.36" cy="3517.94" r="11.25"/>
			</g>
			<g>
				<circle class="st2" cx="1906.73" cy="3216.22" r="11.25"/>
			</g>
			<g>
				<circle class="st2" cx="689.69" cy="528.07" r="11.25"/>
			</g>
			<g>
				<circle class="st2" cx="409.3" cy="1466.32" r="11.25"/>
			</g>
			<g>
				<circle class="st2" cx="649.03" cy="2972.18" r="11.25"/>
			</g>
			<g>
				<circle class="st2" cx="3321.06" cy="3085.07" r="11.25"/>
			</g>
		</g>
		<g>
			<g>
				<path class="st2" d="M2737.37,1929.74c0,0,68.11,54.99,94.14,225.18s75.79,448.85,75.79,448.85s12.22,283.87-236.09,281.47
					s-203.8-226.67-203.8-226.67l71.66-542.92L2737.37,1929.74z"/>
			</g>
			<g class="st3">
				<path class="st4" d="M2737.37,1929.74c0,0,68.11,54.99,94.14,225.18s75.79,448.85,75.79,448.85s12.22,283.87-236.09,281.47
					s-203.8-226.67-203.8-226.67l71.66-542.92L2737.37,1929.74z"/>
			</g>
			<g>
				<path class="st4" d="M2674.33,2900.25c-1.09,0-2.17,0-3.27-0.01c-81.45-0.79-141.86-24.7-179.56-71.06
					c-56.67-69.71-40.56-164.25-38.91-173.01l71.61-542.49c1.08-8.22,8.67-13.98,16.84-12.91c8.21,1.08,13.99,8.62,12.91,16.84
					l-71.67,542.92c-0.04,0.32-0.1,0.64-0.16,0.96c-0.17,0.85-16.55,88.43,32.8,148.94c31.81,38.99,84.44,59.12,156.44,59.81
					c63.31,0.62,113.96-18.4,150.89-56.51c71.35-73.64,70.37-196.56,70.1-208.41c-3.43-19.27-50.71-285.05-75.65-448.12
					c-24.63-161.03-88.17-215.31-88.81-215.84c-6.35-5.26-7.3-14.69-2.08-21.08c5.21-6.39,14.58-7.39,21-2.21
					c2.96,2.39,72.94,60.64,99.55,234.59c25.71,168.06,75.22,445.69,75.72,448.48c0.12,0.66,0.19,1.32,0.22,1.99
					c0.25,5.87,5.23,144.91-78.37,231.35C2801.68,2878.12,2744.64,2900.25,2674.33,2900.25z"/>
			</g>
			<g>
				<path class="st2" d="M2918.3,2490.13c-44.04,21.42-89.55,36.92-136.73,45.77c-19.95,3.72-40.53,1.78-59.39-5.6
					c-22.36-8.75-49.49-19.59-43.62-18.49l-96.62-194.23l-72.63-146.06l192.82-99.92l65.46-24.72c19.38-7.28,41-5.45,58.86,4.98
					l27.02,15.87c23.78,13.93,40.85,36.97,47.24,63.78l14.77,62.27l0.16,0.52l47.5,200.05
					C2972.24,2432.84,2953.85,2472.85,2918.3,2490.13z"/>
			</g>
			<g class="st3">
				<path class="st4" d="M2918.3,2490.13c-44.04,21.42-89.55,36.92-136.73,45.77c-19.95,3.72-40.53,1.78-59.39-5.6
					c-22.36-8.75-49.49-19.59-43.62-18.49l-96.62-194.23c10.42-50.12,22.52-91.96,22.52-91.96
					c160.04,281.01,311.01-31.84,311.01-31.84l0.16,0.52l47.5,200.05C2972.24,2432.84,2953.85,2472.85,2918.3,2490.13z"/>
			</g>
			<g>
				<path class="st2" d="M2664.83,2420.27c53.89,304.21,23.51,586.73-144.9,833.96c-36.08,53-95.52,85.88-159.67,87.04
					c-48.44,0.89-97.56-7.54-147.31-25.45h-0.05c-27.7-9.95-55.67-22.83-83.84-38.7c-8.22-4.61-16.44-9.48-24.72-14.61
					c-15.81,160.82-188.84,211.67-245.55,53.26c-3.46-9.74-6.23-19.64-8.33-29.69c-7.54-36.55-5.92-74.62,3.82-110.92l48.23-180.04
					l3.67-13.67l-235.66,5.24l-52.37,45.4l-149.2,212.3c-19.9,28.33-50.22,48.02-84.42,53.15c-17.86,2.67-39.22,3.14-63.84-0.99
					c-48.81-8.17-93.16-33.52-126.52-70.07c-36.5-39.96-72.11-79.97-99.97-121.13c-58.29-86.04-82.64-176.79-10.21-281.01
					c0,0,90.81-108.19,244.4,7.02l94.26-111.12c-8.33,1.89-16.71,3.4-24.98,4.61c0,0-0.05-0.05-0.05,0
					c-98.24,14.19-190.88-19.95-213.45-111.96c-8.33-33.83-7.17-75.51,6.7-125.47c10.05-36.19,34.51-67.29,68.18-83.95
					c24.98-12.36,56.87-18.01,92.9-1.1c0,0,62.84-80.07,130.92,58.81c59.7,17.49,113.43,9.37,162.34-19.53
					c-86.77-169.31-143.17-326.78-28.8-417.64l922.67-354.32l292.74,121.86l9.64,4.03c0,0-52,224.08-237.02,375.95
					c11.31,37.39,21.63,74.47,30.84,111.33C2646.92,2329.1,2656.82,2374.92,2664.83,2420.27z"/>
			</g>
			<g class="st3">
				<path class="st4" d="M1763.06,2077.1c148.09,63.72,583.19,130.63,756.04-218.75c20.43-41.3,31.53-86.6,34.12-132.61L2560,1605
					l-247.61-69.55l-334.61,95.08L1763.06,2077.1z"/>
			</g>
			<g class="st3">
				<path class="st4" d="M2519.93,3254.23c-36.08,53-95.52,85.88-159.67,87.04c-48.44,0.89-97.56-7.54-147.31-25.45
					c100.76,9.69,22.83-100.97,22.83-100.97c-63.16-73.84-80.86-162.29-80.86-162.29c298.55,262.99,496.76-82.22,354.38-436.07
					c-44.51,74.05-127.52,103.74-127.52,103.74l-383.07,54.52l-83.53-61.32l749.65-293.16
					C2718.72,2724.47,2688.35,3007,2519.93,3254.23z"/>
			</g>
			<g>
				<g>
					<circle class="st2" cx="1886.98" cy="1341.98" r="747.54"/>
				</g>
				<g class="st3">
					<path class="st4" d="M2634.51,1341.97c0,412.85-334.69,747.54-747.54,747.54c-175.46,0-336.8-60.46-464.32-161.66
						c77,26.79,159.71,41.38,245.85,41.38c412.85,0,747.54-334.69,747.54-747.54c0-237.39-110.66-448.95-283.21-585.88
						C2424.92,737.5,2634.51,1015.27,2634.51,1341.97z"/>
				</g>
				<g>
					<path class="st4" d="M2498.27,1510.98c-98.93,480.28-745,594.38-1040.95,442.76c-51.47-18.71-110.72-89.37-160.24-161.4
						c-60.35-87.78-106.28-177.57-106.28-177.57c-51.37-272.8,32.5-492.7,245.69-647.23c151.3-109.71,341.88-148.61,526.05-116.64
						c152.2,26.42,275.92,83.29,364.65,172.81c42.33,42.7,76.63,92.91,102.26,150.72L2498.27,1510.98z"/>
				</g>
				<g>
					<path class="st5" d="M2498.27,1510.98c-98.93,480.28-745,594.38-1040.95,442.76c-51.47-18.71-110.72-89.37-160.24-161.4
						c7.82-15.91-22.15-33.23-22.15-33.23c226.67,233.22,1250.07,59.02,1052.26-735.4c42.33,42.7,76.63,92.91,102.26,150.72
						L2498.27,1510.98z"/>
				</g>
				<g>
					<path class="st4" d="M1886.98,2107.02c-421.85,0-765.04-343.2-765.04-765.04s343.19-765.04,765.04-765.04
						c421.84,0,765.03,343.19,765.03,765.04S2308.82,2107.02,1886.98,2107.02z M1886.98,611.94
						c-402.54,0-730.04,327.49-730.04,730.04s327.5,730.04,730.04,730.04s730.03-327.5,730.03-730.04S2289.52,611.94,1886.98,611.94
						z"/>
				</g>
				<g>
					<path class="st4" d="M1756.25,2030.27c-113.76,0-221.38-21.18-305.27-64.16c-6.83-3.5-9.53-11.87-6.03-18.7
						c3.5-6.83,11.87-9.53,18.7-6.03c176.62,90.51,463.89,79.92,683.06-25.15c127.99-61.36,290.14-181.43,337.37-405.29
						l-67.96-332.24c-75.39-168.94-228.8-274.61-455.98-314.1c-183.52-31.9-371.39,9.73-515.49,114.18
						c-209.87,152.13-290.69,365.24-240.21,633.42c1.42,7.54-3.54,14.8-11.08,16.23c-7.55,1.43-14.8-3.55-16.22-11.08
						c-26.03-138.23-17.85-264.56,24.3-375.47c42.16-110.93,118.5-207.02,226.9-285.59c150.15-108.84,345.71-152.23,536.56-119.06
						c237.51,41.28,398.08,152.84,477.24,331.58c0.41,0.91,0.71,1.87,0.91,2.84l68.84,336.54c0.38,1.84,0.38,3.74,0,5.59
						c-48.78,236.79-218.97,363.18-353.16,427.51C2035.72,2000.26,1891.64,2030.27,1756.25,2030.27z"/>
				</g>
				<g>
					<path class="st2" d="M2703.84,1300.54c10.35,126.74-49.6,232.74-133.92,236.76s-141.93-100.55-152.28-227.29
						c-10.35-126.74,30.46-227.67,114.78-231.68S2693.48,1173.8,2703.84,1300.54z"/>
				</g>
				<g class="st3">
					<path class="st4" d="M2703.81,1300.54c10.39,126.73-49.57,232.75-133.91,236.76c-67.34,3.2-117.68-62.89-140.46-154.28
						c21.72,20.43,47.3,31.64,76.01,30.25c84.34-4.01,144.31-110.04,133.92-236.76c-1.51-18.57-4.48-36.56-8.65-53.69
						C2669.65,1163.15,2697.79,1227.27,2703.81,1300.54z"/>
				</g>
				<g>
					<path class="st4" d="M2565.39,1554.91c-85.83,0-153.39-98.98-165.2-243.48c-7.34-89.89,10.41-166.44,48.72-210.04
						c21.96-24.99,50.55-39.02,82.68-40.55c93.59-4.48,178.6,102.44,189.7,238.27c6.68,81.74-14.63,159.33-57.01,207.57
						c-26.18,29.8-58.52,46.44-93.53,48.1C2568.96,1554.87,2567.16,1554.91,2565.39,1554.91z M2537.44,1095.71
						c-1.4,0-2.79,0.03-4.19,0.1c-22.75,1.08-42.28,10.73-58.05,28.69c-32.08,36.51-46.7,103.61-40.13,184.09
						c8.66,105.94,56.06,211.32,130.24,211.33c1.25,0,2.5-0.03,3.76-0.09c25.31-1.21,49.13-13.74,68.9-36.24
						c36.24-41.25,54.34-109.14,48.42-181.61C2677,1186.92,2610.66,1095.71,2537.44,1095.71z"/>
				</g>
				<g>
					<path class="st4" d="M2626.39,1530.6c-1.08,0-2.18-0.13-3.28-0.42c-65.57-16.76-114.1-102.86-123.64-219.34
						c-9.87-121.06,28.74-209.65,98.35-225.71c7.14-1.66,14.2,2.8,15.84,9.9c1.64,7.11-2.8,14.2-9.91,15.84
						c-56.1,12.94-86.7,90.58-77.95,197.81c8.47,103.46,50.21,182.18,103.85,195.9c7.07,1.81,11.34,9,9.53,16.07
						C2637.66,1526.63,2632.29,1530.6,2626.39,1530.6z"/>
				</g>
				<g class="st6">
					<path class="st2" d="M1371.6,1719.65c-41.66-375.78,122.98-620.79,524.8-715.42c11.51-2.71,12.38-18.62,1.25-22.62
						c-124.32-44.61-274.31-26.02-401.39,51.04c-168.17,101.98-259.27,297.18-229.07,491.52c11.39,73.26,39.56,140.9,83.01,203.43
						C1357.18,1737.64,1372.95,1731.8,1371.6,1719.65z"/>
				</g>
				<g class="st6">
					<path class="st2" d="M2304.84,1192.08l24.98,40.33c7.39,11.94,9.11,26.69,4.14,39.82c-11.62,30.7-35.1,51.06-71.9,59.83
						c-18.17,4.33-37.1-3.41-47.68-18.79l-28.01-40.73c-10.82-15.73-10.8-36.56,0.13-52.21c15.78-22.59,36.58-40.44,67.78-48.49
						C2273.75,1166.81,2294.26,1174.99,2304.84,1192.08z"/>
				</g>
				<g class="st6">
					<path class="st2" d="M2322.28,1404.04L2322.28,1404.04c40.87,1.44,73.01,36.22,70.3,77.03
						c-3.03,45.59-11.41,90.72-25.15,135.37c-10.67,34.65-45.79,55.61-81.19,47.76l0,0c-36.33-8.06-59.98-43.49-52.95-80.02
						c7.2-37.41,11.91-74.37,13.57-110.78C2248.69,1433.53,2282.39,1402.64,2322.28,1404.04z"/>
				</g>
				<g>
					<path class="st4" d="M1153.57,1211.96c-1.68,0-3.39-0.28-5.06-0.88c-7.88-2.8-12-11.45-9.2-19.33
						c50.62-142.59,135.1-255.71,251.09-336.22c103.21-71.63,229.65-114.65,365.65-124.4c309.77-22.17,612.22,125.75,735.35,359.83
						c3.89,7.4,1.05,16.55-6.35,20.44c-7.41,3.9-16.56,1.04-20.44-6.35c-117.69-223.76-408.12-365.1-706.39-343.73
						c-283.01,20.29-498.19,180.86-590.37,440.55C1165.64,1208.08,1159.8,1211.96,1153.57,1211.96z"/>
				</g>
				<g>
					<path class="st4" d="M1799.78,2098.32c-7.59,0-13.79-6.1-13.89-13.72c-0.1-7.67,6.04-13.97,13.71-14.07
						c385.26-5.01,659.24-206.17,732.91-538.09c1.66-7.5,9.11-12.2,16.58-10.55c7.49,1.66,12.21,9.08,10.55,16.57
						c-37.61,169.48-128.63,310.81-263.22,408.71c-132.49,96.38-304.16,148.65-496.45,151.15
						C1799.9,2098.32,1799.84,2098.32,1799.78,2098.32z"/>
				</g>
			</g>
			<g>
				<g>
					<path class="st2" d="M2911.13,1516.4c-7.86,10.47-13.2,22.62-15.08,35.61c-13.62,92.64-31.79,174.96-54.57,246.81
						c-59.44-8.95-114.37-23.41-164.12-44.3c-42.1-17.54-80.49-39.75-114.74-66.98c27.13-71.8,44.15-146,45.82-223.87
						c-59.8-61.95-23.98-150.14,27.49-162.34c6.91-32.99,22.83-58.7,48.65-76.41c22.31-15.34,49.59-21.47,76.56-19.69
						c38.8,2.62,70.7,11.31,96.46,24.35C2977.32,1289.9,2965.85,1443.34,2911.13,1516.4z"/>
				</g>
				<g>
					<path class="st4" d="M2841.48,1813.82c-0.74,0-1.49-0.06-2.25-0.17c-116.36-17.53-212.57-56.02-285.96-114.37
						c-5.1-4.06-7-10.94-4.7-17.04c27.86-73.74,42.5-143.45,44.7-212.9c-28-31.95-37.79-73.92-26.19-113.51
						c9.17-31.3,30.68-56.31,56.21-66.24c8.75-33.12,26.48-59.01,52.78-77.07c24.01-16.47,54.58-24.37,86.09-22.25
						c114.58,7.73,164.04,64.71,185.35,111.14c35.76,77.91,14.8,171.63-24.38,223.95c-6.55,8.75-10.8,18.71-12.28,28.81
						c-13.68,93.23-32.21,177.07-55.09,249.18C2853.77,1809.66,2847.93,1813.82,2841.48,1813.82z M2580.51,1682.42
						c66.11,49.95,148.28,82.61,250.49,99.55c20.64-67.77,37.51-145.79,50.19-232.16c2.2-15.03,8.41-29.7,17.94-42.43
						c33.04-44.11,51.67-126.9,21.13-193.45c-25.69-55.98-81.05-88.38-160.11-93.72c-24.79-1.67-48.62,4.38-67.09,17.05
						c-22.28,15.29-36.17,37.25-42.45,67.14c-1.19,5.69-5.56,10.17-11.22,11.51c-19.16,4.55-36.24,23.53-43.51,48.35
						c-9.26,31.57-0.75,64,23.35,88.98c2.77,2.88,4.29,6.74,4.2,10.73C2621.9,1535.59,2607.85,1607.15,2580.51,1682.42z"/>
				</g>
				<g>
					<path class="st4" d="M2634.88,1287.59c29.61-3.08,59.52,3.35,85.62,17.06c6.51,3.5,12.83,7.41,18.88,11.79
						c5.96,4.52,11.66,9.48,16.93,15c10.43,11.07,19.42,24.82,23,41.5c1.74,8.28,1.9,17.27-0.15,25.78
						c-1.88,8.45-6.11,16.55-10.76,22.67c-8.15,12.22-22.72,24.62-40.11,26.92c-8.62,1.41-17.23-0.25-24.81-2.92
						c-7.74-2.69-14.12-7.37-19.9-12.23c-11.08-10.33-18.9-22.92-23.58-36.24c-0.96-2.74,0.48-5.74,3.22-6.71
						c2.38-0.83,4.95,0.13,6.22,2.19l0.05,0.09c6.73,10.86,15.04,20.48,24.87,26.94c9.71,6.46,20.84,9.35,30,6.85
						c4.52-1.41,8.9-3.25,12.56-6.82c1.01-0.68,1.85-1.7,2.71-2.68l2.6-2.89c1.53-2.4,3.36-4.63,4.79-7
						c6.09-9.13,7.18-18.18,4.83-27.78c-2.46-9.55-8.84-18.94-16.83-27.11c-8.15-8.13-18-15.04-28.57-20.68
						c-21.3-11.09-45.58-17.04-69.46-16.27l-0.24,0.01c-7.6,0.24-13.96-5.72-14.21-13.32
						C2622.3,1294.48,2627.77,1288.35,2634.88,1287.59z"/>
				</g>
				<g>
					<path class="st4" d="M2769.01,1396.07c10.03,6.86,21.19,12.08,32.81,14.84c11.6,2.81,23.68,2.85,34.77-0.36
						c11.1-3.17,21.1-9.76,28.8-18.95c7.75-9.17,13.17-20.66,16.91-32.86l0.08-0.25c1.27-4.15,5.66-6.48,9.81-5.21
						c3.97,1.22,6.28,5.33,5.34,9.32c-3.32,14.02-8.67,28.06-17.74,40.34c-8.95,12.27-21.9,22.28-36.7,27.52
						c-14.76,5.33-30.81,6.18-45.83,3.57c-15.09-2.56-29.38-8.2-42.32-15.87c-6.23-3.68-8.3-11.71-4.62-17.94
						c3.68-6.23,11.71-8.3,17.94-4.62C2768.51,1395.74,2768.78,1395.92,2769.01,1396.07z"/>
				</g>
				<g class="st3">
					<path class="st4" d="M2911.13,1516.4c-7.86,10.47-13.2,22.62-15.08,35.61c-13.62,92.64-31.79,174.96-54.57,246.81
						c-59.44-8.95-114.37-23.41-164.12-44.3c2.57-2.36,5.34-4.61,8.33-6.76c129.61-94.26,104.74-280.17,104.74-280.17
						c-89.03,19.64-118.14-59.54-118.14-59.54c84.78,4.61,55.98-81.07,55.98-81.07l28.44,33.67
						c73.47,55.35,126.68-33.15,100.91-131.08C2977.32,1289.9,2965.85,1443.34,2911.13,1516.4z"/>
				</g>
			</g>
			<g>
				<path class="st4" d="M1972.36,3429.42c-46.52,0-101.46-27.92-130.03-107.77c-17-47.52-18.72-99.75-4.97-151.04l45.88-171.13
					l-206.02,4.58l-45.98,39.85l-148,210.56c-22.93,32.64-57.96,54.63-96.11,60.35c-22.15,3.33-45.48,2.98-69.33-1.02
					c-51.44-8.62-99.94-35.45-136.57-75.53c-102.8-112.48-230.73-252.46-111.59-423.9c0.3-0.43,0.62-0.85,0.96-1.26
					c0.99-1.18,97.81-113.09,254.88-5.4l53.55-63.12c-71.03,5.61-133.61-13.84-172.96-55.16c-31.6-33.18-62.8-95.98-32.05-206.7
					c11.62-41.85,39.79-76.47,77.29-95c31.47-15.56,64.6-17.57,96.54-6.03c11-9.53,30.79-22.14,56.24-19.47
					c33.35,3.51,63.92,31.8,90.92,84.11c45.06,11.65,86.79,7.72,126.88-11.99c-82.59-164.13-138.15-327.29-16.37-424.07
					c7.56-6.01,18.57-4.76,24.59,2.81c6.01,7.57,4.75,18.57-2.81,24.59c-99.93,79.41-58.89,215.72,33.49,395.95
					c4.22,8.24,1.3,18.33-6.67,23.05c-54.65,32.33-113.93,39.47-176.17,21.26c-4.72-1.38-8.63-4.68-10.8-9.1
					c-21.51-43.88-45.12-69.37-66.49-71.78c-19.86-2.32-34.88,15.98-35.02,16.17c-5.06,6.26-13.83,8.36-21.13,4.94
					c-25.79-12.11-51.93-11.8-77.7,0.93c-28.58,14.12-50.11,40.72-59.07,72.98c-20.87,75.13-12.69,135.02,23.67,173.2
					c39.34,41.32,109.39,55.47,187.38,37.87c7.35-1.64,14.93,1.56,18.82,8c3.9,6.44,3.25,14.65-1.62,20.39l-94.26,111.09
					c-6,7.05-16.44,8.23-23.84,2.68c-133.8-100.35-212.59-18.55-220.05-10.21c-94.73,137.19-10.59,248.43,109.23,379.53
					c31.38,34.34,72.76,57.29,116.52,64.62c20.21,3.39,39.85,3.69,58.35,0.93c28.72-4.31,55.21-21.03,72.67-45.87l149.24-212.32
					c0.82-1.17,1.78-2.23,2.86-3.16l52.37-45.39c3.08-2.67,7-4.18,11.07-4.27l235.66-5.23c5.62-0.18,10.76,2.35,14.16,6.69
					c3.4,4.34,4.57,10.01,3.14,15.34l-51.93,193.68c-11.9,44.38-10.48,89.4,4.11,130.19c20.85,58.26,60.7,89.7,106.82,83.97
					c44.73-5.52,96.62-49.51,104.82-133.04c0.59-6.02,4.25-11.3,9.67-13.98c5.42-2.67,11.84-2.37,16.98,0.83
					c83.65,51.96,166.62,77.37,246.39,76.13c57.97-1.05,112.37-30.73,145.52-79.39c188.83-277.22,215.72-626.51,82.2-1067.81
					c-2.05-6.77,0.18-14.11,5.64-18.59c178.37-146.41,230.61-364.19,231.12-366.37c2.19-9.41,11.57-15.28,21.01-13.09
					c9.41,2.19,15.27,11.59,13.09,21c-2.14,9.23-53.83,224.51-234.03,378.01c63.11,211.88,89.44,397.91,80.49,568.37
					c-10.24,195.2-66.04,364.69-170.59,518.19c-39.53,58.03-104.51,93.42-173.81,94.68c-79.35,1.52-161.06-21.43-242.99-68
					c-16.15,74.77-67.5,129.94-131.23,137.8C1981.83,3429.13,1977.14,3429.42,1972.36,3429.42z"/>
			</g>
			<g>
				<path class="st4" d="M1670.03,2143.59c6.79,31.29,14.43,62.51,22.73,93.41c8.37,30.87,17.49,61.54,28.25,91.19l0.02,0.06
					c2.6,7.16-1.1,15.06-8.25,17.66c-7.16,2.6-15.06-1.1-17.66-8.25c-0.14-0.38-0.26-0.78-0.37-1.16
					c-8.43-31.72-14.87-63.5-20.55-95.36c-5.6-31.88-10.47-63.75-14.51-95.83c-0.36-2.87,1.67-5.49,4.54-5.85
					c2.71-0.34,5.2,1.45,5.77,4.06L1670.03,2143.59z"/>
			</g>
			<g>
				<path class="st4" d="M1422.66,2734.02c-3.23,0-6.47-1.13-9.09-3.43c-5.71-5.02-6.26-13.73-1.24-19.43l21.35-24.25
					c24.48-27.82,56.49-46.99,92.57-55.45l220.63-51.73c7.42-1.75,14.81,2.86,16.55,10.26c1.74,7.4-2.86,14.81-10.26,16.55
					l-220.63,51.73c-30.47,7.15-57.5,23.34-78.18,46.84l-21.35,24.25C1430.27,2732.44,1426.47,2734.02,1422.66,2734.02z"/>
			</g>
			<g>
				<path class="st4" d="M1650.35,2630.26c-0.76,0-1.53-0.06-2.3-0.2c-7.5-1.26-12.55-8.36-11.28-15.86
					c17.3-102.63-4.32-167.43-4.54-168.07c-2.47-7.18,1.35-15.01,8.52-17.5c7.19-2.5,15,1.3,17.5,8.47
					c1,2.87,24.24,71.53,5.67,181.67C1662.77,2625.51,1656.95,2630.26,1650.35,2630.26z"/>
			</g>
			<g>
				<path class="st4" d="M1407.26,2473.74c3.72,5.3,7.18,10.85,10.18,16.78c3.04,6.02,5.68,11.8,7.39,19.75
					c1.28,7.66,0.96,15.89-1.55,23.64c-2.67,7.64-7.09,14.62-12.79,20.41c-5.77,5.73-12.95,9.95-20.75,12.71
					c-7.8,2.9-16.57,3.42-24.99,2.13c-4.28-0.56-8.28-2.05-12.28-3.56c-1.98-0.78-3.75-1.92-5.59-2.95l-2.72-1.6
					c-0.85-0.53-1.44-1.04-2.17-1.56l-8.34-6.25c-2.69-2.29-5.29-4.75-7.87-7.19c-10.05-10.11-18.89-22.83-23.23-37.6
					c-4.48-14.71-4.06-30.47-0.54-44.36c7.26-28.03,23.01-50.26,39.36-70.52c4.78-5.92,13.44-6.84,19.36-2.07
					c5.92,4.78,6.84,13.44,2.06,19.36l-0.05,0.06l-0.18,0.22c-15.06,18.44-28.56,38.61-33.8,59.45
					c-2.57,10.35-2.74,20.55,0.22,29.84c2.91,9.3,8.85,17.77,16.73,25.07l6.12,5.37l6.74,4.96c0.54,0.39,1.16,0.9,1.64,1.18
					l1.36,0.73c0.92,0.44,1.75,1.12,2.67,1.52c1.87,0.7,3.68,1.61,5.65,1.87c7.63,2.02,16.78-0.05,23.94-5.39
					c3.53-2.71,6.48-6.14,8.63-10.08c2.14-3.96,3.05-8.48,3.27-13.27c0.06-4.51-1.2-10.72-2.61-16.4
					c-1.49-5.78-3.25-11.64-5.2-17.52l-0.01-0.04c-0.92-2.78,0.59-5.77,3.36-6.68C1403.54,2471,1405.95,2471.88,1407.26,2473.74z"/>
			</g>
			<g>
				<path class="st4" d="M1397.15,2551.07c5.7,17.2,5.41,35.77,0.41,52.24c-4.98,16.52-14.31,31.32-26.86,42.7
					c-12.44,11.35-28.82,19.27-46.11,19.71c-8.57,0.27-17.12-1.34-24.87-4.45c-7.77-3.1-14.72-7.62-20.83-12.83
					c-2.2-1.88-2.47-5.18-0.59-7.39c1.77-2.08,4.82-2.43,7.01-0.88l0.08,0.06c11.51,8.2,25.13,12.56,38.14,10.79
					c13.02-1.57,24.95-8.75,33.85-18.57c8.96-9.81,15.11-22.19,17.62-34.89c2.55-12.72,1.28-25.7-3.65-36.82
					c-3.08-6.96,0.06-15.11,7.02-18.19c6.97-3.08,15.11,0.06,18.19,7.03c0.18,0.41,0.34,0.81,0.48,1.23L1397.15,2551.07z"/>
			</g>
			<g>
				<path class="st4" d="M1373.95,3312.52c-5.44,0-10.6-3.25-12.77-8.6c-2.85-7.05,0.55-15.07,7.6-17.93
					c32.33-13.09,49.96-32.9,53.87-60.54c16.2-114.21-199.12-322.18-225.03-342.97c-36.05-21.48-66.98-27.47-91.95-17.77
					c-36.49,14.17-49.93,58.12-50.06,58.55c-2.16,7.28-9.8,11.46-17.09,9.3c-7.28-2.14-11.46-9.76-9.34-17.04
					c0.68-2.32,17.15-57.14,66.27-76.39c33.5-13.12,72.85-6.36,116.97,20.11c2.54,1.53,249.29,221.54,238.26,363.09
					c-3.21,41.25-27.29,71.25-71.57,89.18C1377.42,3312.2,1375.67,3312.52,1373.95,3312.52z"/>
			</g>
			<g>
				<path class="st4" d="M1338.19,2819.97c17.2,16.9,31.57,35.79,44.02,55.44c12.44,19.68,22.99,40.19,32.4,61.03
					c1.3,2.88,0.02,6.26-2.86,7.56c-2.64,1.19-5.71,0.2-7.2-2.19c-11.94-19.02-24.83-37.33-39.06-54.2
					c-14.21-16.85-29.8-32.24-46.87-44.91c-6.67-4.95-8.06-14.37-3.1-21.04c4.95-6.67,14.37-8.06,21.04-3.11
					c0.54,0.4,1.04,0.83,1.51,1.28L1338.19,2819.97z"/>
			</g>
			<g>
				<path class="st4" d="M1615.27,3046.66c-4.94,0-9.34-3.51-10.28-8.54c-19.78-105.36-65.51-182.47-132.26-222.98
					c-50.34-30.55-95.62-29.88-96.06-29.93c-0.08,0-0.16,0-0.23,0c-5.67,0-10.34-4.53-10.48-10.22
					c-0.14-5.77,4.41-10.57,10.18-10.72c2.09-0.06,50.89-0.97,106.34,32.29c50.62,30.35,116.54,96.22,143.1,237.69
					c1.07,5.69-2.68,11.16-8.36,12.23C1616.56,3046.61,1615.91,3046.66,1615.27,3046.66z"/>
			</g>
			<g>
				<path class="st4" d="M1053.54,3042.66c-3.88,0-7.73-1.63-10.45-4.8c-4.95-5.77-4.29-14.46,1.48-19.41l167.48-143.65
					c5.77-4.95,14.46-4.29,19.41,1.48c4.95,5.77,4.29,14.46-1.48,19.41l-167.48,143.65
					C1059.9,3041.56,1056.71,3042.66,1053.54,3042.66z"/>
			</g>
			<g>
				<path class="st4" d="M1115.44,3148.49c-3.81,0-7.61-1.58-10.33-4.66c-5.03-5.7-4.49-14.4,1.21-19.43
					c0,0,46.58-41.11,93.31-82.22c23.37-20.56,46.78-41.12,64.42-56.53c33.66-29.4,33.62-29.43,39.76-29.01l-0.9,13.74l-10.38,9.04
					l10.38-9.04l8.02,11.16c-6.7,5.17-115.14,100.62-186.39,163.51C1121.93,3147.35,1118.68,3148.49,1115.44,3148.49z"/>
			</g>
			<g>
				<path class="st4" d="M1183.58,3228.61c-4.08,0-8.11-1.8-10.83-5.25c-4.7-5.97-3.67-14.63,2.3-19.34l180.68-142.24
					c5.98-4.7,14.63-3.67,19.34,2.3c4.7,5.97,3.67,14.63-2.3,19.34l-180.68,142.24C1189.56,3227.64,1186.56,3228.61,1183.58,3228.61
					z"/>
			</g>
			<g>
				<path class="st4" d="M1282.15,3299.95c-3.74,0-7.45-1.51-10.17-4.48c-5.13-5.61-4.74-14.32,0.87-19.45l140.52-128.41
					c5.62-5.14,14.33-4.74,19.45,0.87c5.13,5.61,4.74,14.32-0.87,19.45l-140.52,128.41
					C1288.79,3298.76,1285.46,3299.95,1282.15,3299.95z"/>
			</g>
			<g>
				<path class="st4" d="M1902.52,2881.17l26.37,16.84c9.24,4.82,18.01,10.31,27.26,14.89l14.05,6.49
					c4.69,2.12,9.26,4.46,14.12,6.17l14.36,5.54l7.16,2.76l7.37,2.2c9.83,2.87,19.49,6.16,29.54,8.12
					c9.94,2.33,19.79,4.85,29.89,6.47l15,3.03l15.19,2.19l15.22,2.17l15.36,1.21c41.03,3.25,82.67,0.78,123.96-4.91
					c41.3-5.88,82.31-15.17,122.79-26.75l0.04-0.01c2.78-0.8,5.68,0.81,6.48,3.6c0.76,2.65-0.68,5.41-3.22,6.35
					c-39.87,14.77-80.79,27.25-122.81,35.77c-41.97,8.69-85.11,13.17-128.55,12.2l-16.3-0.43l-16.27-1.49
					c-5.42-0.57-10.88-0.94-16.28-1.69l-16.15-2.89c-5.34-1.16-10.77-1.89-16.04-3.41l-15.75-4.67
					c-10.58-2.81-20.61-7.38-30.79-11.3c-40.41-16.64-77.49-40.73-108.58-70.35c-2.1-2-2.18-5.32-0.18-7.42
					c1.76-1.85,4.55-2.13,6.63-0.81L1902.52,2881.17z"/>
			</g>
			<g>
				<path class="st4" d="M1905.23,2998.81c-5.78,0-11.17-3.67-13.08-9.45c-2.38-7.22,1.54-15.01,8.76-17.39l107.63-35.51
					c7.27-2.36,15.01,1.55,17.39,8.76c2.38,7.22-1.54,15.01-8.76,17.39l-107.63,35.51
					C1908.12,2998.58,1906.66,2998.81,1905.23,2998.81z"/>
			</g>
			<g>
				<path class="st4" d="M2248.13,3241.78c-5-3.78-9.92-7.73-14.77-11.8c-2.44-2.02-4.89-4.05-7.23-6.18l-6.67-6.73
					c-4.31-4.61-8.97-9.02-13.02-13.9c-3.95-4.95-7.98-9.87-11.83-14.95c-15.17-20.42-27.45-43.03-36.31-66.83
					c-9.03-23.71-16.56-47.91-21.93-72.62c-5.36-24.78-8.87-49.65-9.56-75.56c-0.2-7.6,5.8-13.93,13.4-14.13
					c7.6-0.2,13.93,5.8,14.13,13.4v0.01l0.01,0.31c0.6,23.12,3.9,47.02,8.94,70.14c5.05,23.2,11.95,46.02,21.19,67.81l7.37,16.13
					c2.5,5.34,5.34,10.52,7.89,15.83c2.44,5.39,5.33,10.51,8.12,15.72c2.92,5.11,5.18,10.67,8.43,15.6
					c11.45,20.83,25.35,40.03,39.21,60.28l0.19,0.28c1.65,2.4,1.03,5.69-1.37,7.33C2252.38,3243.24,2249.89,3243.11,2248.13,3241.78
					z"/>
			</g>
			<g>
				<path class="st4" d="M2155.75,3301.78c-5.38,0-9.96-4.12-10.42-9.58c-8.38-97.12,45.45-129.79,47.75-131.13
					c4.99-2.94,11.41-1.25,14.33,3.75c2.91,4.97,1.26,11.35-3.69,14.29c-1.96,1.19-44.68,28.25-37.52,111.29
					c0.5,5.76-3.77,10.83-9.54,11.33C2156.36,3301.77,2156.05,3301.78,2155.75,3301.78z"/>
			</g>
			<g>
				<path class="st4" d="M2095.99,3274.96l-70.92-58.78c-2.44-2.02-2.78-5.64-0.76-8.08c1.77-2.13,4.76-2.66,7.11-1.4l81.27,43.34
					c7.35,3.92,10.13,13.05,6.21,20.4c-3.92,7.35-13.05,10.13-20.4,6.21C2097.62,3276.18,2096.74,3275.58,2095.99,3274.96z"/>
			</g>
			<g>
				<g>
					<path class="st2" d="M2433.68,2571.82c-23.25,29.85-49.33,53.36-78.87,69.23c-153.02,34.62-319.97,59.91-496.55,78.71
						c-39.01,4.19-75.51-20-87.04-57.55l-16.02-52.26l-64.41-209.84c-5.13-16.6-2.88-34.62,6.07-49.49l33.88-56.14
						c8.38-13.93,21.94-23.98,37.76-27.81c171.92-41.79,344.32-70.28,517.19-84.42c18.17-1.47,35.87,2.78,51.06,11.52
						c13.09,7.54,24.35,18.43,32.31,32c47.34,80.23,73.05,174.86,83.95,279.38C2455.47,2528.98,2448.4,2552.92,2433.68,2571.82z"/>
				</g>
				<g>
					<path class="st4" d="M1849.6,2735.25c-42.1,0-80.12-27.58-92.72-68.62l-80.45-262.11c-6.35-20.67-3.57-43.15,7.6-61.67
						l33.86-56.12c10.42-17.28,27.57-29.9,47.06-34.64c174.11-42.33,348.89-70.85,519.51-84.77c39.17-3.19,77.45,16.75,97.54,50.81
						c45.91,77.83,74.01,171.21,85.92,285.48c2.89,27.67-5.07,55.18-22.43,77.46c-25.2,32.34-53.32,56.97-83.58,73.22
						c-1.19,0.64-2.47,1.11-3.78,1.41c-145.66,32.95-308.65,58.79-498.26,79C1856.43,2735.07,1853,2735.25,1849.6,2735.25z
						 M2292.71,2196.98c-1.93,0-3.86,0.08-5.8,0.24c-169.06,13.79-342.28,42.06-514.86,84.02c-11.77,2.86-22.14,10.51-28.46,20.99
						l0,0l-33.86,56.12c-6.77,11.23-8.45,24.84-4.6,37.37l80.45,262.11c9.41,30.65,39.3,50.45,71.11,47.04
						c187.56-19.99,348.8-45.5,492.8-77.97c25.9-14.27,50.23-35.89,72.35-64.27c12.56-16.13,18.34-35.99,16.26-55.91
						c-11.46-109.9-38.25-199.31-81.92-273.34C2342.87,2210.83,2318.42,2196.98,2292.71,2196.98z M1730.74,2294.48h0.05H1730.74z"/>
				</g>
				<g>
					<path class="st4" d="M2340.22,2657.43c-1.22,0-2.46-0.17-3.69-0.53c-6.94-2.04-10.91-9.31-8.88-16.25
						c18.36-62.54-3.51-227.4-54.26-323.52c-8.83-16.74-26.79-26.94-45.65-25.98c-133.12,6.67-290.81,30.9-482.08,74.08
						c-12.62,4.34-21.26,11.52-26.41,21.94c-12.24,24.81-0.58,59.3-0.45,59.64c2.35,6.83-1.25,14.28-8.07,16.66
						c-6.8,2.37-14.26-1.21-16.66-8.03c-0.63-1.82-15.41-44.97,1.63-79.71c8.35-17.02,22.57-28.97,42.27-35.54
						c0.42-0.14,0.83-0.25,1.25-0.35c193.05-43.61,352.42-68.09,487.2-74.84c29.01-1.46,56.55,14.21,70.12,39.91
						c49.97,94.63,78.34,267.79,56.24,343.12C2351.1,2653.73,2345.88,2657.43,2340.22,2657.43z"/>
				</g>
				<g>
					<path class="st4" d="M2172.98,2689.41c-5.5,0-10.54-3.66-12.06-9.23L2122,2536.77c-2.19-8.1-8.97-14.16-17.26-15.43
						l-152.61-23.55c-17.3-2.67-31.86-15.2-37.08-31.92l-43.48-139.22c-2.06-6.59,1.62-13.6,8.21-15.66
						c6.58-2.04,13.6,1.62,15.66,8.21l43.48,139.22c2.4,7.68,9.08,13.44,17.03,14.66l152.61,23.55
						c18.05,2.79,32.79,15.97,37.57,33.59l38.93,143.41c1.81,6.67-2.13,13.53-8.79,15.34
						C2175.17,2689.27,2174.07,2689.41,2172.98,2689.41z"/>
				</g>
				<g class="st3">
					<path class="st4" d="M2433.68,2571.82c-23.25,29.85-49.33,53.36-78.87,69.23c-153.02,34.62-319.97,59.91-496.55,78.71
						c-39.01,4.19-75.51-20-87.04-57.55l-16.02-52.26c334.37,73.73,495.51-41.63,501.95-325.78l79.6-90.39
						c13.09,7.54,24.35,18.43,32.31,32c47.34,80.23,73.05,174.86,83.95,279.38C2455.47,2528.98,2448.4,2552.92,2433.68,2571.82z"/>
				</g>
				<g>
					<path class="st2" d="M2676.46,2447.13c-75.57,37.6-153.39,55.56-233.4,53.99c-15.71-0.26-29.43-10.63-33.73-25.71l-1.15-3.93
						L2405,2395c-5.92-20.53-6.16-41.86,15-45c66.14-9.69,120.88-34.78,179.43-55.57c8.48-2.98,16.91-6.13,25.19-9.43
						c20.11-7.91,42.58,3.72,47.6,24.77l23.15,97.25C2699.24,2423.15,2691.33,2439.75,2676.46,2447.13z"/>
				</g>
				<g>
					<path class="st4" d="M2466.15,2514.79c-35.38,0-66.52-23.21-76.27-57.22l-10.67-37.22c-6.16-21.47-2.9-44.65,8.96-63.58
						c11.92-19.03,31.47-32.17,53.65-36.04l0,0c53.64-9.35,103.69-22.06,148.76-37.75c21.09-7.34,44.39-5.41,63.96,5.3
						c19.54,10.7,33.71,29.27,38.87,50.96l9.78,41.05c8.85,37.17-10.23,75.35-45.37,90.78c-61.23,26.9-124.82,41.6-189.03,43.67
						C2467.9,2514.77,2467.02,2514.79,2466.15,2514.79z M2446.53,2347.87c-14.49,2.52-27.26,11.1-35.03,23.52
						c-7.83,12.5-9.9,27.2-5.83,41.38l10.67,37.22c6.51,22.71,27.75,37.98,51.54,37.25c60.68-1.96,120.85-15.88,178.85-41.36
						c22.94-10.08,35.42-34.98,29.65-59.19l-9.78-41.05c-3.41-14.33-12.4-26.11-25.31-33.18c-12.93-7.08-27.73-8.31-41.67-3.45
						C2553.15,2325.18,2501.64,2338.26,2446.53,2347.87L2446.53,2347.87z M2444.17,2334.3h0.05H2444.17z"/>
				</g>
				<g class="st3">
					<path class="st4" d="M2676.46,2447.13c-75.57,37.6-153.39,55.56-233.4,53.99c-15.71-0.26-29.43-10.63-33.73-25.71l-1.15-3.93
						c174.75-19.48,193.19-124.79,191.25-177.06c8.48-2.98,16.91-6.13,25.19-9.43c20.11-7.91,42.58,3.72,47.6,24.77l23.15,97.25
						C2699.24,2423.15,2691.33,2439.75,2676.46,2447.13z"/>
				</g>
				<g>
					<g>
						
							<ellipse transform="matrix(0.9243 -0.3816 0.3816 0.9243 -754.08 1010.5719)" class="st7" cx="2170.83" cy="2406.48" rx="53.58" ry="57.43"/>
					</g>
					<g class="st8">
						<path class="st2" d="M2138.47,2449.81c-12.11-29.32,0.25-62.24,27.61-73.53c18.35-7.58,38.77-3.45,53.89,8.92
							c-12.37-28.74-43.97-42.98-71.05-31.8c-27.35,11.29-39.71,44.22-27.61,73.53c3.98,9.64,10.14,17.65,17.55,23.72
							C2138.74,2450.36,2138.58,2450.1,2138.47,2449.81z"/>
					</g>
					<g>
						<path class="st4" d="M2173.57,2475.87c-26.66,0-52.51-16.78-63.82-44.17c-14.72-35.64,0.71-75.95,34.39-89.86
							c33.7-13.92,73.05,3.78,87.76,39.42l0,0c14.72,35.64-0.71,75.95-34.38,89.86C2189.72,2474.34,2181.61,2475.87,2173.57,2475.87
							z M2168.15,2362.09c-4.87,0-9.77,0.92-14.47,2.86c-20.94,8.65-30.28,34.31-20.83,57.21c9.46,22.9,34.18,34.5,55.12,25.85
							c20.93-8.65,30.27-34.31,20.82-57.21C2201.46,2373.05,2184.96,2362.09,2168.15,2362.09z"/>
					</g>
				</g>
			</g>
			<g>
				<path class="st4" d="M2609.84,2184.17l-55.52,14.43c-2.83,0.74-5.72-0.96-6.46-3.79c-0.6-2.3,0.42-4.65,2.35-5.84l48.83-30.12
					c6.55-4.04,15.12-2,19.16,4.54c4.04,6.55,2,15.12-4.54,19.16C2612.46,2183.28,2611.13,2183.82,2609.84,2184.17z"/>
			</g>
			<g>
				<path class="st4" d="M2761.57,2552.74c-15.3,0-30.51-2.85-44.89-8.48c-10.25-4.01-21.49-8.47-30.15-12.03
					c-16.31-6.7-27.08-11.13-23.2-24.61c1.9-6.59,8.7-12.32,18.02-10.56c2.68,0.51,5.06,1.7,6.99,3.37
					c4.1,1.82,14.28,6.1,39.28,15.9c16.25,6.37,33.95,8.03,51.16,4.81c44.66-8.35,89.39-23.33,132.94-44.51
					c28.83-14.02,44.31-47.16,36.8-78.8l-62.43-262.85c-5.4-22.73-20.06-42.53-40.22-54.34l-27.03-15.83
					c-14.01-8.2-30.77-9.63-45.97-3.9l-65.46,24.69c-7.76,2.93-16.4-0.99-19.33-8.74s0.99-16.4,8.74-19.33l65.46-24.69
					c23.71-8.95,49.85-6.72,71.71,6.07l27.03,15.83c27.19,15.93,46.97,42.64,54.25,73.3l62.43,262.85
					c10.73,45.2-11.5,92.6-52.87,112.71c-45.96,22.35-93.25,38.17-140.54,47.02C2776.76,2552.04,2769.15,2552.74,2761.57,2552.74z"
					/>
			</g>
			<g>
				<path class="st4" d="M2886.39,2119.93c-0.24-0.14-1.43-0.65-2.27-0.97c-0.94-0.37-1.91-0.72-2.92-1.04
					c-2-0.66-4.08-1.24-6.2-1.73c-4.24-0.96-8.59-1.69-13-2.01c-8.81-0.74-17.79-0.05-26.58,1.77c-2.21,0.42-4.4,0.94-6.56,1.61
					l-3.27,0.92l-3.49,1.25l-14.04,5.11l-28.1,10.23l-28.13,10.23c-1.15,0.43-2.41,0.85-3.45,1.28l-2.98,1.28
					c-2.01,0.83-3.85,1.98-5.75,3.01c-3.65,2.33-7.16,4.94-10.23,8.06c-12.4,12.33-18.69,31.02-15.5,48.83l45.45,236.48
					l-58.29-233.92c-5.12-21.64,1.21-45.73,16.41-62.59c3.76-4.26,8.12-7.95,12.77-11.25c2.4-1.51,4.78-3.13,7.34-4.38l3.84-1.91
					c1.25-0.59,2.35-1.02,3.53-1.53l27.87-11.89l27.9-11.9l13.96-5.95l3.53-1.48l3.91-1.35c2.59-0.95,5.24-1.74,7.93-2.41
					c10.71-2.84,21.89-4.32,33.13-4.01c5.62,0.1,11.24,0.71,16.85,1.67c2.81,0.5,5.6,1.1,8.42,1.86c1.4,0.36,2.82,0.78,4.25,1.25
					c1.52,0.51,2.69,0.88,4.74,1.75l0.5,0.21c6.67,2.83,9.79,10.53,6.96,17.21c-2.83,6.67-10.53,9.79-17.21,6.96
					C2887.25,2120.38,2886.81,2120.16,2886.39,2119.93z"/>
			</g>
			<g class="st3">
				<path class="st4" d="M2604.45,2171.52c11.31,37.39,21.63,74.47,30.84,111.33l-210.68,49.49l-23.36-42.21
					c154.85,9.9,63.05-145.69,63.05-145.69c189.47-119.66,261.42-378.88,261.42-378.88l106.1,25.98l9.64,4.03
					C2841.47,1795.57,2789.47,2019.65,2604.45,2171.52z"/>
			</g>
			<g class="st3">
				<path class="st4" d="M2129.06,3277.12c-8.22-4.61-16.44-9.48-24.72-14.61c-15.81,160.82-188.84,211.67-245.55,53.26
					c-3.46-9.74-6.23-19.64-8.33-29.69c0.05,0.05,0.05,0.05,0.1,0.1c127.62,142.39,193.4-64.2,193.4-64.2l26.81,18.01
					L2129.06,3277.12z"/>
			</g>
			<g class="st3">
				<path class="st4" d="M1891.51,3036.19c0,0,177.03-61.71,276.52,56.99l-27.53-115.21l-115.91-24.47l-39.85,13.78l-74.19,17.76
					L1891.51,3036.19z"/>
			</g>
			<g class="st3">
				<path class="st4" d="M2002.85,2945.83l-61.17,27.18l-39.17,22.1l3.67-13.67l-235.66,5.24l-52.37,45.4l-149.2,212.3
					c-19.9,28.33-50.22,48.02-84.42,53.15c-17.86,2.67-39.22,3.14-63.84-0.99c-48.81-8.17-93.16-33.52-126.52-70.07
					c-36.5-39.96-72.11-79.97-99.97-121.13c0.05,0.05,0.1,0.1,0.16,0.16c272.16,221.83,234.03-105.21,234.03-105.21
					s62.53,86.09,66.66,92.9c44.57,73.05,86.93-96.04,86.93-96.04l115.21-129.14l270.59-8.74l47.39,38.23L2002.85,2945.83z"/>
			</g>
			<g class="st3">
				<path class="st4" d="M1745.15,2577.27l-6.7,18.59l-246.29,62.68l-65.36,57.03c0,0-11.57,3.67-29.12,9.27c0,0-0.05-0.05-0.05,0
					c-98.24,14.19-190.88-19.95-213.45-111.96c133.07,73.73,151.29-83.79,151.29-83.79l59.28,21.31v53.36l146.63-18.54
					c162.34,1.73,176.53-96.62,176.53-96.62L1745.15,2577.27z"/>
			</g>
		</g>
	</g>
</g>
</svg>
