<?xml version="1.0" encoding="utf-8"?>
<!-- Generator: Adobe Illustrator 28.0.0, SVG Export Plug-In . SVG Version: 6.00 Build 0)  -->
<svg version="1.1" id="Layer_1" xmlns="http://www.w3.org/2000/svg" xmlns:xlink="http://www.w3.org/1999/xlink" x="0px" y="0px"
	 viewBox="0 0 4000 4000" style="enable-background:new 0 0 4000 4000;" xml:space="preserve">
<style type="text/css">
	.st0{display:none;}
	.st1{display:inline;fill:#0CCBFF;}
	.st2{fill-rule:evenodd;clip-rule:evenodd;fill:#FFFFFF;}
	.st3{fill:#381B49;}
	.st4{opacity:0.4;}
	.st5{fill-rule:evenodd;clip-rule:evenodd;fill:#381B49;}
	.st6{fill:#FFFFFF;}
	.st7{opacity:0.3;}
	.st8{fill:#606C7A;}
	.st9{opacity:0.6;}
	.st10{fill:#000072;}
	.st11{fill:#EDC329;}
	.st12{fill:#54BE50;}
	.st13{fill:#E5345D;}
	.st14{fill:#607EED;}
	.st15{fill:#D4D2D1;}
	.st16{fill-rule:evenodd;clip-rule:evenodd;fill:#7BA2FF;}
	.st17{opacity:0.5;}
	.st18{fill-rule:evenodd;clip-rule:evenodd;fill:#FEDA24;}
	.st19{opacity:0.44;}
	.st20{fill:#371A45;}
	.st21{opacity:0.35;}
	.st22{opacity:0.7;}
	.st23{fill:#111A28;}
</style>
<g>
	<g class="st0">
		<rect class="st1" width="4000" height="4000"/>
	</g>
	<g>
		<g>
			<path class="st2" d="M1475.8,2929.28c26.16,122.64,436.69,97.09,483.09-213.16c-21.1-0.58-42.48-1.17-64.13-1.77
				c-7.57-0.21-14.99-0.37-22.32-0.47c-5.66,0.52-11.41,0.78-17.21,0.78c-5.76,0-11.45-0.26-17.07-0.77
				C1675.53,2716.47,1572.89,2757.96,1475.8,2929.28z"/>
		</g>
		<g>
			<path class="st3" d="M1615.61,3012.76c-83.82,0-143.94-30.97-154.48-80.35c-0.76-3.59-0.19-7.33,1.62-10.53
				c103.81-183.17,216.17-220.47,375.18-223c0.52,0,1.06,0.01,1.59,0.06c10.59,0.97,21.15,0.94,31.56,0
				c0.52-0.05,1.06-0.06,1.58-0.06c7.4,0.11,14.89,0.26,22.53,0.47l64.11,1.77c4.29,0.12,8.33,2.07,11.08,5.36
				c2.76,3.29,3.97,7.61,3.34,11.85c-29.27,195.71-200.57,289.73-347.34,294.26C1622.76,3012.7,1619.16,3012.76,1615.61,3012.76z
				 M1491.92,2931.31c11.56,33,64.01,53.44,133.55,51.29c130.43-4.03,281.91-84.65,315.66-251.97l-46.77-1.29
				c-7.24-0.21-14.34-0.35-21.34-0.45c-11.7,1.03-23.54,1.03-35.38,0.01C1687.96,2731.38,1588.03,2764.69,1491.92,2931.31z"/>
		</g>
		<g>
			<path class="st3" d="M1828.92,2942.13c-1.08,0-2.18-0.14-3.28-0.44c-6.66-1.81-10.6-8.67-8.79-15.34
				c10.53-38.82,4.97-81.03-15.24-115.79c-20.2-34.79-54.12-60.51-93.06-70.59c-6.68-1.73-10.7-8.55-8.97-15.23
				c1.73-6.68,8.55-10.7,15.23-8.96c45.36,11.74,84.87,41.71,108.41,82.23c23.55,40.5,30.02,89.67,17.76,134.9
				C1839.47,2938.47,1834.43,2942.13,1828.92,2942.13z"/>
		</g>
		<g class="st4">
			<path class="st5" d="M1711.69,2727.88c70.82-6.63,135.68-6.89,194.56-0.75c-53.32,168.34-226.89,267.62-399.03,228.23
				C1446.69,2877.01,1572.28,2808.54,1711.69,2727.88L1711.69,2727.88z"/>
		</g>
		<g>
			<path class="st6" d="M3522.95,2995.69c-7.25,32.5-16.74,64.47-29.19,95.32c-4.14,10.27-8.61,20.39-13.48,30.41
				c-43.26,89.33-100.57,146.85-189.42,133.03c-1.07-0.49-2.19-0.97-3.26-1.56c-77.71-36.49-153.47-124.61-227.33-247.76
				c-65.4-108.99-166.94-192.44-288.15-230.59c-75.71-23.84-159.16-37.81-250.05-42.33h-494.65
				c-90.89,4.52-174.34,18.49-250.05,42.33c-121.21,38.15-222.75,121.59-288.15,230.59c-74.88,124.85-151.71,213.7-230.59,249.32
				c-12.75,1.99-24.82,2.48-36.3,1.61c-68.7-4.91-116.1-58.1-153.13-134.64c-19.37-40-33.04-82.38-42.67-125.73
				c-1.36-6.03-2.63-12.12-3.89-18.25c-4.91-23.79-9.24-48.12-12.94-72.89c-51.77-343.72,10.85-772.73,183.24-1067.25
				c30.51-52.06,83.69-86.85,143.54-94.54l305.71-39.07c23.7-3.02,47.68,1.85,68.27,13.82l16.98,9.88
				c13.72,7.98,29.39,12.21,45.25,12.21h1004.1c15.86,0,31.53-4.23,45.25-12.21l16.98-9.88c20.58-11.97,44.57-16.84,68.27-13.82
				l305.71,39.07c59.85,7.69,113.03,42.48,143.54,94.54C3544.55,2158.49,3601.97,2639.66,3522.95,2995.69z"/>
		</g>
		<g>
			<g class="st7">
				<path class="st3" d="M1020.35,2930.15c1.68,8.57,3.42,17.1,5.25,25.54c9.49,43.35,22.92,85.73,41.89,125.73
					c40.14,84.42,92.6,140.47,171.86,134.64c4.57-0.29,9.29-0.88,14.06-1.61c77.46-35.62,152.83-124.47,226.35-249.32
					c64.18-108.99,163.88-192.44,282.85-230.59c74.3-23.84,156.24-37.81,245.43-42.33h531.05c90.89,4.53,174.34,18.49,250.05,42.33
					c121.21,38.15,222.76,121.6,288.15,230.59c73.86,123.15,149.62,211.27,227.33,247.76c52.69-12.46,91.61-56.69,123-118.24
					c-22.65,8.02-47.87,10.52-76.19,6.29c-82.13-35.62-162.18-124.47-240.17-249.27c-68.12-108.99-173.9-192.44-300.17-230.64
					c-78.83-23.84-165.83-37.81-260.41-42.33h-515.28c-94.64,4.53-181.54,18.49-260.42,42.33c-15.91,4.82-31.53,10.36-46.81,16.64
					c-31.82,12.99-67.78-4.33-78.68-37.47c-4.38-13.33-7.78-28.37-9.2-44.96c-3.26-38.49,5.3-71.92,17.13-98.58
					c5.35-12.12-9.83-22.77-18.93-13.19c-38.49,40.48-79.51,102.18-77.17,180.03c0.1,4.09,0.39,8.13,0.78,12.07l-0.1-0.15
					c0.05,0.15,0.05,0.24,0.1,0.39c0.83,9.2,2.19,17.95,3.99,26.37c2.82,45.06-15.52,88.02-47.88,129.62l0.58-0.58
					c-15.96,19.12-30.75,39.27-43.99,60.43c-78,124.81-158.04,213.65-240.17,249.27c-90.99,13.58-150.21-41.75-194.97-128.5
					c-0.78-1.51-1.56-3.02-2.34-4.53c-6.27-12.37-11.86-25-17-37.81C1020.34,2930.12,1020.35,2930.14,1020.35,2930.15z"/>
			</g>
		</g>
		<g>
			<path class="st8" d="M2926.48,1706.15l2.28-18.57c5.61-45.69,47.1-78.25,92.82-72.85l160.28,18.95
				c49.22,5.82,86.3,47.54,86.3,97.11v27.47C3215.28,1737.01,3065.35,1721.93,2926.48,1706.15z"/>
		</g>
		<g>
			<path class="st8" d="M2926.48,1706.15l2.28-18.57c5.61-45.69,47.1-78.25,92.82-72.85l160.28,18.95
				c49.22,5.82,86.3,47.54,86.3,97.11v27.47C3215.28,1737.01,3065.35,1721.93,2926.48,1706.15z"/>
		</g>
		<g>
			<path class="st8" d="M2926.48,1706.15l2.28-18.57c5.61-45.69,47.1-78.25,92.82-72.85l160.28,18.95
				c49.22,5.82,86.3,47.54,86.3,97.11v27.47C3215.28,1737.01,3065.35,1721.93,2926.48,1706.15z"/>
		</g>
		<g class="st9">
			<path class="st6" d="M3038.61,1642.09l160.28,18.95c24.7,2.92,46.34,14.89,61.77,32.35c-13.2-31.82-42.7-55.44-78.8-59.7
				l-160.28-18.95c-45.72-5.41-87.2,27.16-92.82,72.85l-2.28,18.57c6.79,0.77,13.61,1.54,20.44,2.31
				C2955.48,1666.23,2995.09,1636.95,3038.61,1642.09z"/>
		</g>
		<g class="st7">
			<path class="st3" d="M3210.1,1641.51c5.08,10.39,8.41,21.83,9.53,33.96l0,0c1.21,13.11-10.24,23.87-23.23,21.74
				c-57.97-9.48-161.78-11.78-266.9-13.87c-0.25,1.41-0.56,2.8-0.74,4.24l-2.28,18.57c138.88,15.78,288.8,30.85,341.68,52.11v-27.47
				C3268.16,1691.3,3244.58,1656.85,3210.1,1641.51z"/>
		</g>
		<g>
			<path class="st3" d="M3268.16,1775.76c-2.2,0-4.42-0.42-6.52-1.26c-45.27-18.2-171.87-32.4-294.3-46.13
				c-14.32-1.61-28.63-3.21-42.83-4.83c-4.64-0.53-8.88-2.89-11.77-6.55c-2.89-3.67-4.2-8.33-3.63-12.97l2.28-18.57
				c6.77-55.09,57.11-94.6,112.24-88.09l160.28,18.95c58.01,6.86,101.75,56.07,101.75,114.49v27.47c0,5.81-2.89,11.25-7.7,14.5
				C3275.03,1774.75,3271.61,1775.76,3268.16,1775.76z M2946,1690.75c8.39,0.94,16.81,1.89,25.23,2.83
				c112.86,12.66,220.3,24.71,279.43,40.66v-3.45c0-40.68-30.46-74.96-70.86-79.73l-160.28-18.95
				c-36.04-4.24-68.97,21.58-73.39,57.6L2946,1690.75z"/>
		</g>
		<g>
			<path class="st3" d="M1232.86,3274.01c-73.43,0-132.33-47.7-179.43-144.98c-18.67-38.58-33.48-82.17-44-129.56
				c-83.71-377.13-14.46-858.67,168.4-1171c32.92-56.22,91.4-94.75,156.44-103.06l305.71-39.08c27.33-3.49,55.48,2.21,79.29,16.05
				l16.95,9.86c11.07,6.44,23.68,9.84,36.49,9.84h1004.05c12.8,0,25.42-3.4,36.48-9.83l16.96-9.86
				c23.81-13.84,51.96-19.56,79.28-16.05l305.71,39.08c65.04,8.31,123.53,46.84,156.44,103.06
				c182.86,312.33,252.11,793.87,168.4,1171c-10.52,47.39-25.32,90.98-44,129.56c-53.03,109.53-121.05,156.18-207.86,142.71
				c-1.56-0.24-3.08-0.7-4.52-1.35c-78.13-35.28-156.12-119.11-238.41-256.25c-64.53-107.54-163.41-186.71-278.43-222.93
				c-73.17-23.04-155.67-37.01-245.19-41.52h-493.82c-89.52,4.51-172.02,18.48-245.19,41.52
				c-115.02,36.22-213.9,115.39-278.42,222.93c-82.3,137.15-160.28,220.97-238.41,256.25c-1.44,0.65-2.96,1.1-4.52,1.35
				C1251.58,3273.26,1242.1,3274.01,1232.86,3274.01z M1655.83,1720.33c-3.81,0-7.61,0.24-11.4,0.72l-305.71,39.08
				c-54.36,6.95-103.21,39.11-130.68,86.03c-178.77,305.35-246.39,776.5-164.43,1145.73c9.93,44.75,23.84,85.76,41.33,121.89
				c45.55,94.09,99.18,133.47,168.65,123.73c69.79-32.49,144.01-113.68,220.63-241.36c68.93-114.88,174.73-199.51,297.92-238.31
				c76.14-23.97,161.73-38.48,254.39-43.12c0.29-0.01,0.58-0.02,0.87-0.02h494.68c0.29,0,0.58,0,0.87,0.02
				c92.67,4.64,178.26,19.15,254.39,43.12c123.19,38.8,228.99,123.43,297.92,238.31c76.61,127.68,150.83,208.87,220.62,241.36
				c69.45,9.75,123.1-29.64,168.64-123.73c17.5-36.14,31.4-77.14,41.33-121.88c81.96-369.24,14.34-840.38-164.43-1145.73
				c-27.47-46.92-76.32-79.08-130.68-86.03l-305.71-39.08c-19.72-2.51-40.06,1.59-57.26,11.59l-16.96,9.86
				c-16.4,9.54-35.1,14.58-54.07,14.58H1772.71c-18.97,0-37.68-5.04-54.08-14.58l-16.95-9.86
				C1687.79,1724.57,1671.84,1720.33,1655.83,1720.33z"/>
		</g>
		<g>
			<path class="st8" d="M2776.76,1739.58l-85.09,312.68c-19.21,70.58-83.3,119.56-156.45,119.56h-198.04h-124.89h-198.04
				c-73.15,0-137.24-48.98-156.45-119.56l-85.09-312.68H2776.76z"/>
		</g>
		<g class="st9">
			<path class="st6" d="M1772.71,1739.58l85.09,312.68c8.78,32.25,26.94,59.96,51.04,80.58c-0.67-3.69-2.19-9.21-5.95-14.86
				c-7.38-11.09-18.29-15.04-22.09-16.23c-16.82-91.94-33.65-183.88-50.47-275.82c-4.54-18.47,9.44-36.31,28.47-36.31h832.66
				c18.62,0,32.31,17.46,27.87,35.54c-17.06,92.44-34.13,184.89-51.19,277.33c-3.6,1.07-14.29,4.75-21.56,15.48
				c-3.85,5.68-5.33,11.26-5.95,14.86c24.1-20.62,42.26-48.33,51.04-80.58l85.09-312.68H1772.71z"/>
		</g>
		<g class="st7">
			<path class="st3" d="M2776.76,1739.58c-39.84,92.57-79.68,185.14-119.52,277.71c-17.61,66.81-76.35,113.17-143.4,113.17h-181.52
				h-114.47h-181.52c-67.05,0-125.8-46.36-143.4-113.17c-40.07-92.57-80.14-185.14-120.21-277.71l0,0l85.09,312.68
				c19.21,70.58,83.3,119.56,156.45,119.56h198.04h124.89h198.04c73.15,0,137.24-48.98,156.45-119.56
				C2720.04,1948.03,2748.4,1843.81,2776.76,1739.58z"/>
		</g>
		<g>
			<path class="st3" d="M2535.22,2189.32h-520.96c-80.83,0-152.11-54.47-173.33-132.47l-85.09-312.68
				c-1.43-5.26-0.33-10.89,2.98-15.22c3.31-4.33,8.45-6.88,13.9-6.88h1004.05c5.45,0,10.59,2.54,13.9,6.88
				c3.31,4.33,4.41,9.96,2.98,15.22l-85.09,312.68C2687.33,2134.85,2616.05,2189.32,2535.22,2189.32z M1795.61,1757.08l79.08,290.58
				c17.09,62.8,74.48,106.66,139.57,106.66h520.96c65.08,0,122.47-43.86,139.57-106.66l79.08-290.58H1795.61z"/>
		</g>
		<g>
			<g>
				<path class="st8" d="M1623,1706.15l-2.28-18.57c-5.61-45.69-47.1-78.25-92.82-72.85l-160.28,18.95
					c-49.22,5.82-86.3,47.54-86.3,97.11l0,27.47C1334.2,1737.01,1484.12,1721.93,1623,1706.15z"/>
			</g>
			<g class="st9">
				<path class="st6" d="M1510.87,1646.96l-160.28,18.95c-24.7,2.92-46.34,14.89-61.77,32.35c13.2-31.82,42.7-55.44,78.8-59.7
					l160.28-18.95c45.72-5.41,87.2,27.16,92.82,72.85l2.28,18.57c-6.79,0.77-13.61,1.54-20.44,2.31
					C1593.99,1671.1,1554.38,1641.81,1510.87,1646.96z"/>
			</g>
			<g class="st7">
				<path class="st10" d="M1339.37,1646.37c-5.08,10.39-8.41,21.83-9.53,33.96v0c-1.21,13.11,10.24,23.87,23.23,21.74
					c57.97-9.48,161.78-11.78,266.9-13.87c0.25,1.41,0.56,2.8,0.74,4.24l2.28,18.57c-138.88,15.78-288.8,30.85-341.68,52.11v-27.47
					C1281.31,1696.16,1304.9,1661.71,1339.37,1646.37z"/>
			</g>
			<g>
				<path class="st10" d="M1281.32,1778.26c-3.94,0-7.85-1.16-11.2-3.43c-5.5-3.72-8.8-9.93-8.8-16.57v-27.47
					c0-59.68,44.69-109.97,103.96-116.97l160.28-18.95c56.5-6.73,108.08,33.81,115.02,90.27l2.28,18.57
					c0.65,5.3-0.84,10.63-4.15,14.82c-3.31,4.19-8.15,6.88-13.45,7.49c-14.2,1.61-28.52,3.22-42.84,4.83
					c-122.26,13.72-248.69,27.9-293.64,45.97C1286.37,1777.79,1283.84,1778.26,1281.32,1778.26z M1537.73,1634.16
					c-2.48,0-4.97,0.14-7.49,0.44l-160.28,18.95c-39.14,4.63-68.65,37.84-68.65,77.25v0.21c60-15.6,165.71-27.46,276.64-39.9
					c7.58-0.85,15.15-1.7,22.71-2.55C1596.07,1657.16,1568.89,1634.16,1537.73,1634.16z"/>
			</g>
		</g>
		<g class="st7">
			<circle class="st3" cx="3152.47" cy="2067.21" r="80.15"/>
		</g>
		<g>
			<circle class="st11" cx="3133.54" cy="2028.28" r="69.74"/>
		</g>
		<g class="st9">
			<path class="st6" d="M3089.35,2056.26c0-38.52,31.22-69.74,69.74-69.74c13.51,0,26.08,3.9,36.76,10.55
				c-11.46-22.83-35.02-38.53-62.3-38.53c-38.52,0-69.74,31.22-69.74,69.74c0,25.01,13.21,46.88,32.98,59.19
				C3092.07,2078.07,3089.35,2067.5,3089.35,2056.26z"/>
		</g>
		<g>
			<path class="st3" d="M3133.54,2113.03c-46.73,0-84.74-38.02-84.74-84.75c0-46.73,38.01-84.74,84.74-84.74
				c46.73,0,84.74,38.01,84.74,84.74C3218.29,2075.01,3180.27,2113.03,3133.54,2113.03z M3133.54,1973.54
				c-30.19,0-54.74,24.56-54.74,54.74c0,30.19,24.56,54.75,54.74,54.75c30.19,0,54.74-24.56,54.74-54.75
				C3188.29,1998.1,3163.73,1973.54,3133.54,1973.54z"/>
		</g>
		<g class="st7">
			
				<ellipse transform="matrix(0.7071 -0.7071 0.7071 0.7071 -737.1052 2920.938)" class="st3" cx="3157.33" cy="2350.23" rx="80.15" ry="80.15"/>
		</g>
		<g>
			<circle class="st12" cx="3133.54" cy="2312.12" r="69.74"/>
		</g>
		<g class="st9">
			<path class="st6" d="M3089.35,2340.1c0-38.52,31.22-69.74,69.74-69.74c13.51,0,26.08,3.9,36.76,10.55
				c-11.46-22.83-35.02-38.53-62.3-38.53c-38.52,0-69.74,31.23-69.74,69.74c0,25.01,13.21,46.88,32.98,59.19
				C3092.07,2361.91,3089.35,2351.33,3089.35,2340.1z"/>
		</g>
		<g>
			<path class="st3" d="M3133.54,2396.86c-46.73,0-84.74-38.01-84.74-84.74s38.01-84.74,84.74-84.74
				c46.73,0,84.74,38.01,84.74,84.74S3180.27,2396.86,3133.54,2396.86z M3133.54,2257.38c-30.19,0-54.74,24.56-54.74,54.74
				s24.56,54.74,54.74,54.74c30.19,0,54.74-24.56,54.74-54.74S3163.73,2257.38,3133.54,2257.38z"/>
		</g>
		<g class="st7">
			
				<ellipse transform="matrix(0.7071 -0.7071 0.7071 0.7071 -599.0745 2977.6372)" class="st3" cx="3294.79" cy="2211.97" rx="80.15" ry="80.15"/>
		</g>
		<g>
			
				<ellipse transform="matrix(0.7071 -0.7071 0.7071 0.7071 -575.2037 2951.7375)" class="st13" cx="3275.46" cy="2170.2" rx="72.18" ry="72.18"/>
		</g>
		<g class="st9">
			<path class="st6" d="M3227.68,2195.75c0-38.52,31.22-69.74,69.74-69.74c13.51,0,26.08,3.9,36.76,10.55
				c-11.46-22.83-35.02-38.53-62.3-38.53c-38.52,0-69.74,31.22-69.74,69.74c0,25.01,13.21,46.88,32.98,59.19
				C3230.4,2217.56,3227.68,2206.98,3227.68,2195.75z"/>
		</g>
		<g>
			<path class="st3" d="M3275.46,2257.38c-48.07,0-87.18-39.11-87.18-87.18c0-48.07,39.11-87.17,87.18-87.17
				c48.07,0,87.18,39.11,87.18,87.17C3362.64,2218.27,3323.53,2257.38,3275.46,2257.38z M3275.46,2113.03
				c-31.53,0-57.18,25.65-57.18,57.17c0,31.53,25.65,57.18,57.18,57.18c31.53,0,57.18-25.65,57.18-57.18
				C3332.64,2138.68,3306.99,2113.03,3275.46,2113.03z"/>
		</g>
		<g class="st7">
			
				<ellipse transform="matrix(0.7071 -0.7071 0.7071 0.7071 -677.9359 2777.5171)" class="st3" cx="3013.79" cy="2207.1" rx="80.15" ry="80.15"/>
		</g>
		<g>
			
				<ellipse transform="matrix(0.7071 -0.7071 0.7071 0.7071 -658.3372 2751.0356)" class="st14" cx="2991.63" cy="2170.2" rx="72.18" ry="72.18"/>
		</g>
		<g class="st9">
			<path class="st6" d="M2945,2195.75c0-38.52,31.22-69.74,69.74-69.74c13.51,0,26.08,3.9,36.76,10.55
				c-11.46-22.83-35.02-38.53-62.3-38.53c-38.52,0-69.74,31.22-69.74,69.74c0,25.01,13.21,46.88,32.98,59.19
				C2947.72,2217.56,2945,2206.98,2945,2195.75z"/>
		</g>
		<g>
			<path class="st3" d="M2991.62,2257.38c-48.07,0-87.18-39.11-87.18-87.18c0-48.07,39.11-87.17,87.18-87.17
				c48.07,0,87.18,39.11,87.18,87.17C3078.8,2218.27,3039.69,2257.38,2991.62,2257.38z M2991.62,2113.03
				c-31.53,0-57.18,25.65-57.18,57.17c0,31.53,25.65,57.18,57.18,57.18s57.18-25.65,57.18-57.18
				C3048.8,2138.68,3023.15,2113.03,2991.62,2113.03z"/>
		</g>
		<g class="st7">
			<polygon class="st3" points="1436.92,2017.11 1436.92,2124.01 1385.62,2179.53 1330.06,2124.01 1330.06,2017.11 			"/>
		</g>
		<g>
			<polygon class="st8" points="1467.73,1991.16 1467.73,2098.06 1416.43,2153.58 1360.87,2098.06 1360.87,1991.16 			"/>
		</g>
		<g class="st7">
			<polygon class="st3" points="1429.38,2118.91 1373.82,2063.39 1373.82,1991.16 1360.87,1991.16 1360.87,2098.06 1416.43,2153.58 
				1467.73,2098.06 1467.73,2077.4 			"/>
		</g>
		<g class="st9">
			<polygon class="st6" points="1360.87,1991.16 1360.87,2016.7 1438.54,2016.7 1438.54,2123.61 1413.53,2150.67 1416.43,2153.58 
				1467.73,2098.06 1467.73,1991.16 			"/>
		</g>
		<g>
			<path class="st3" d="M1416.43,2168.58c-3.97,0-7.79-1.58-10.6-4.39l-55.56-55.52c-2.82-2.81-4.4-6.63-4.4-10.61v-106.9
				c0-8.28,6.72-15,15-15h106.86c8.28,0,15,6.72,15,15v106.9c0,3.77-1.42,7.41-3.98,10.18l-51.3,55.52c-2.77,3-6.64,4.74-10.72,4.81
				C1416.63,2168.58,1416.53,2168.58,1416.43,2168.58z M1375.88,2091.85l40.13,40.1l36.73-39.75v-86.04h-76.86V2091.85z"/>
		</g>
		<g class="st7">
			<polygon class="st3" points="1330.06,2428.2 1330.06,2321.29 1381.36,2265.78 1436.92,2321.29 1436.92,2428.2 			"/>
		</g>
		<g>
			<polygon class="st8" points="1360.87,2396.97 1360.87,2290.06 1412.17,2234.55 1467.73,2290.06 1467.73,2396.97 			"/>
		</g>
		<g class="st7">
			<polygon class="st3" points="1385.2,2383.18 1385.2,2276.28 1418.2,2240.57 1412.17,2234.55 1360.87,2290.06 1360.87,2396.97 
				1467.73,2396.97 1467.73,2383.18 			"/>
		</g>
		<g class="st9">
			<polygon class="st6" points="1412.17,2234.55 1389.78,2258.79 1437.83,2307.11 1437.83,2396.97 1467.73,2396.97 1467.73,2290.06 
							"/>
		</g>
		<g>
			<path class="st3" d="M1467.73,2411.97h-106.86c-8.28,0-15-6.71-15-15v-106.91c0-3.77,1.42-7.41,3.98-10.18l51.3-55.51
				c2.77-3,6.64-4.74,10.72-4.81c3.99-0.13,8.01,1.5,10.9,4.38l55.56,55.51c2.81,2.81,4.4,6.63,4.4,10.61v106.91
				C1482.73,2405.26,1476.02,2411.97,1467.73,2411.97z M1375.88,2381.97h76.86v-85.69l-40.13-40.09l-36.73,39.75V2381.97z"/>
		</g>
		<g class="st7">
			<polygon class="st3" points="1599.34,2278.68 1492.43,2278.68 1436.92,2227.38 1492.43,2171.82 1599.34,2171.82 			"/>
		</g>
		<g>
			<polygon class="st8" points="1617.21,2247.49 1510.31,2247.49 1454.79,2196.19 1510.31,2140.63 1617.21,2140.63 			"/>
		</g>
		<g class="st7">
			<polygon class="st3" points="1484.59,2179.75 1540.11,2235.31 1612.34,2235.31 1612.34,2248.25 1505.44,2248.25 1449.93,2192.69 
				1505.44,2141.39 1526.1,2141.39 			"/>
		</g>
		<g class="st9">
			<polygon class="st6" points="1612.34,2248.25 1586.8,2248.25 1586.8,2170.59 1479.89,2170.59 1452.83,2195.6 1449.93,2192.69 
				1505.44,2141.39 1612.34,2141.39 			"/>
		</g>
		<g>
			<path class="st3" d="M1617.21,2262.49H1510.3c-3.77,0-7.41-1.42-10.18-3.98l-55.51-51.3c-3-2.77-4.73-6.64-4.82-10.72
				c-0.08-4.08,1.5-8.01,4.39-10.9l55.51-55.56c2.81-2.82,6.63-4.4,10.61-4.4h106.91c8.28,0,15,6.71,15,15v106.86
				C1632.21,2255.78,1625.49,2262.49,1617.21,2262.49z M1516.17,2232.49h86.04v-76.86h-85.69l-40.09,40.13L1516.17,2232.49z"/>
		</g>
		<g class="st7">
			<polygon class="st3" points="1186.26,2181.12 1293.16,2181.12 1348.68,2232.42 1293.16,2287.98 1186.26,2287.98 			"/>
		</g>
		<g>
			<polygon class="st8" points="1211.4,2140.63 1318.3,2140.63 1373.82,2191.93 1318.3,2247.49 1211.4,2247.49 			"/>
		</g>
		<g class="st7">
			<polygon class="st3" points="1328.03,2221.54 1221.13,2221.54 1221.13,2140.63 1211.4,2140.63 1211.4,2247.49 1318.3,2247.49 
				1373.82,2191.93 1365.39,2184.15 			"/>
		</g>
		<g class="st9">
			<polygon class="st6" points="1302.08,2163.34 1354.23,2211.53 1373.82,2191.93 1318.3,2140.63 1211.4,2140.63 1211.4,2163.34 			
				"/>
		</g>
		<g>
			<path class="st3" d="M1318.3,2262.49h-106.9c-8.28,0-15-6.71-15-15v-106.86c0-8.29,6.72-15,15-15h106.9
				c3.77,0,7.41,1.42,10.18,3.98l55.52,51.3c3,2.77,4.73,6.64,4.82,10.72c0.08,4.08-1.5,8.01-4.39,10.9l-55.52,55.56
				C1326.1,2260.91,1322.28,2262.49,1318.3,2262.49z M1226.4,2232.49h85.69l40.1-40.13l-39.75-36.73h-86.04V2232.49z"/>
		</g>
		<g>
			<path class="st3" d="M2797.6,1985.04c-1.95,0-3.94-0.26-5.91-0.79c-11.99-3.26-19.07-15.62-15.82-27.61l27.83-102.48
				c3.26-11.99,15.62-19.05,27.61-15.82c11.99,3.26,19.07,15.62,15.82,27.61l-27.83,102.48
				C2816.57,1978.45,2807.5,1985.04,2797.6,1985.04z"/>
		</g>
		<g>
			<path class="st10" d="M1745.09,1985.04c-9.9,0-18.98-6.59-21.7-16.61l-27.83-102.48c-3.26-11.99,3.82-24.36,15.82-27.61
				c11.98-3.26,24.35,3.82,27.61,15.82l27.83,102.48c3.26,11.99-3.82,24.36-15.82,27.61
				C1749.03,1984.78,1747.05,1985.04,1745.09,1985.04z"/>
		</g>
		<g>
			
				<ellipse transform="matrix(0.7071 -0.7071 0.7071 0.7071 -981.6627 2202.3928)" class="st3" cx="2167.69" cy="2286.17" rx="34.06" ry="34.06"/>
		</g>
		<g>
			
				<ellipse transform="matrix(0.7071 -0.7071 0.7071 0.7071 -914.9183 2363.5278)" class="st3" cx="2395.57" cy="2286.17" rx="34.06" ry="34.06"/>
		</g>
		<g>
			<circle class="st15" cx="2651.83" cy="2548.92" r="201.93"/>
		</g>
		<g>
			
				<ellipse transform="matrix(0.7071 -0.7071 0.7071 0.7071 -1025.6533 2621.6907)" class="st3" cx="2651.83" cy="2548.92" rx="118.4" ry="118.4"/>
		</g>
		<g class="st7">
			<path class="st3" d="M2507.08,2606.09c0-111.52,90.41-201.93,201.93-201.93c41.14,0,79.38,12.33,111.3,33.46
				c-36.14-54.6-98.09-90.63-168.47-90.63c-111.52,0-201.93,90.41-201.93,201.93c0,70.38,36.03,132.33,90.63,168.47
				C2519.41,2685.47,2507.08,2647.23,2507.08,2606.09z"/>
		</g>
		<g>
			<circle class="st15" cx="1897.64" cy="2548.92" r="201.93"/>
		</g>
		<g>
			
				<ellipse transform="matrix(0.7071 -0.7071 0.7071 0.7071 -1246.5508 2088.3972)" class="st3" cx="1897.64" cy="2548.92" rx="118.4" ry="118.4"/>
		</g>
		<g class="st7">
			<path class="st3" d="M1771.43,2598.9c0-98.37,79.74-178.11,178.11-178.11c57.68,0,108.93,27.44,141.48,69.96
				c-24.98-83.16-102.09-143.76-193.38-143.76c-111.52,0-201.93,90.41-201.93,201.93c0,93.99,64.22,172.98,151.18,195.49
				C1801.26,2712.16,1771.43,2659.03,1771.43,2598.9z"/>
		</g>
		<g>
			<path class="st3" d="M2651.83,2768.35c-120.99,0-219.43-98.44-219.43-219.43s98.44-219.43,219.43-219.43
				s219.43,98.44,219.43,219.43S2772.83,2768.35,2651.83,2768.35z M2651.83,2364.49c-101.69,0-184.43,82.73-184.43,184.43
				s82.73,184.43,184.43,184.43c101.69,0,184.43-82.73,184.43-184.43S2753.53,2364.49,2651.83,2364.49z"/>
		</g>
		<g>
			<path class="st3" d="M2651.83,2687.32c-76.31,0-138.4-62.08-138.4-138.4s62.09-138.4,138.4-138.4
				c76.31,0,138.4,62.09,138.4,138.4S2728.15,2687.32,2651.83,2687.32z M2651.83,2450.52c-54.26,0-98.4,44.15-98.4,98.4
				s44.14,98.4,98.4,98.4c54.26,0,98.4-44.14,98.4-98.4S2706.09,2450.52,2651.83,2450.52z"/>
		</g>
		<g>
			<path class="st3" d="M1897.64,2768.35c-120.99,0-219.43-98.44-219.43-219.43s98.43-219.43,219.43-219.43
				s219.43,98.44,219.43,219.43S2018.64,2768.35,1897.64,2768.35z M1897.64,2364.49c-101.69,0-184.43,82.73-184.43,184.43
				s82.73,184.43,184.43,184.43s184.43-82.73,184.43-184.43S1999.34,2364.49,1897.64,2364.49z"/>
		</g>
		<g>
			<path class="st3" d="M1897.64,2687.32c-76.31,0-138.4-62.08-138.4-138.4s62.09-138.4,138.4-138.4s138.4,62.09,138.4,138.4
				S1973.96,2687.32,1897.64,2687.32z M1897.64,2450.52c-54.26,0-98.4,44.15-98.4,98.4s44.14,98.4,98.4,98.4s98.4-44.14,98.4-98.4
				S1951.9,2450.52,1897.64,2450.52z"/>
		</g>
		<g class="st7">
			<path class="st3" d="M1467.73,1728.84c102.1,2.48,199.6-33.05,227.98,54.53l89.66,247.69c14.71,40.64,40.25,76.74,74.58,102.99
				c35.07,26.8,71.66,40.35,109.05,47.07c-129.75-9.3-134.62-284.21-196.29-441.54l-96.49-34.83L1467.73,1728.84z"/>
		</g>
		<g class="st7">
			<path class="st3" d="M3013.79,1728.84c-86.11,2.48-168.34-33.05-192.28,54.53l-75.62,247.69
				c-12.41,40.64-33.94,76.74-62.9,102.99c-29.58,26.8-60.44,40.35-91.97,47.07c109.44-9.3,113.54-284.21,165.56-441.54l81.38-34.83
				L3013.79,1728.84z"/>
		</g>
		<g>
			<path class="st5" d="M1701.8,1961.06l-12.88,3.93c-8.62,2.63-13.51,11.83-10.88,20.45l29.3,96.02
				c2.62,8.62,11.82,13.51,20.45,10.88l12.88-3.93c8.63-2.62,13.53-11.82,10.89-20.45l-29.3-96.01
				C1719.62,1963.32,1710.43,1958.43,1701.8,1961.06L1701.8,1961.06z"/>
		</g>
		<g>
			<path class="st2" d="M1552.99,1777.06c-117.98,251.75,223.98,337.19,385.7,6.85c91.06-195.25-147.93-380.23-314.09-243.1
				c-552.33,288.72-828.47,433.07-828.47,433.07c-186.1,218.51-44.15,461.59,189.84,445.62c272.93-18.63,298.14-306.06,81.14-333.87
				c4.76-14.76,15.85-38.37,33.24-70.81C1179.32,1879.39,1326.86,1799.89,1552.99,1777.06z"/>
		</g>
		<g>
			<path class="st3" d="M964.43,2435.23c-106.64,0-198.26-52.41-242.5-140.22c-50.97-101.16-27.5-224.84,62.79-330.86
				c1.25-1.46,2.77-2.68,4.47-3.57l827.1-432.36c92.22-75.13,202.43-55.45,270.99-2.38c68.88,53.31,115.69,155.73,65.01,264.4
				c-95.08,194.22-258.96,258.79-362.54,209.18c-55.38-26.53-101.57-95.31-60.53-204.61c-205.13,25.26-341.29,99.76-415.77,227.33
				c-11.34,21.15-19.93,38.45-25.7,51.71c98.97,20.31,141.61,94.15,139.61,161.68c-2.61,88.09-78.95,187.92-240.37,198.93
				C979.41,2434.98,971.88,2435.23,964.43,2435.23z M805.69,1985.81c-80.66,96.01-101.99,206.37-56.97,295.7
				c41.81,82.97,132.33,130.13,236.24,123.02c142.77-9.75,210.2-94.89,212.42-169.89c2.1-70.93-49.78-123.58-132.17-134.14
				c-4.42-0.57-8.37-3.07-10.76-6.84c-2.39-3.77-2.98-8.4-1.61-12.65c5.08-15.77,16.3-39.74,34.3-73.3
				c0.09-0.16,0.17-0.31,0.26-0.46c82.65-141.77,234.46-221.95,464.09-245.13c5.37-0.57,10.62,1.84,13.75,6.25
				c3.12,4.41,3.64,10.15,1.34,15.04c-40.52,86.46-26.67,158.86,36.13,188.95c76.36,36.58,226.9,0.25,322.51-195.06
				c46.55-99.82-1.22-185.11-56.3-227.74c-55.08-42.62-149.61-67.46-234.76,2.81c-0.81,0.66-1.67,1.24-2.6,1.72L805.69,1985.81z"/>
		</g>
		<g>
			<path class="st2" d="M878.01,2407.29c42.62,14.77,94.75,16.66,156.37,5.67c-15.01,30.39-17.68,57.8-8.02,82.26
				c57.54,32.97,66.26,52.12,152.22,87.08c85.96,34.96,169.05,143.67,114.54,293.43c-19.04,52.37-72.71,84.18-128.44,84.86
				c-55.75,0.66-106.75-31.27-130.47-81.73C786.09,2850.79,682.25,2602.6,878.01,2407.29z"/>
		</g>
		<g>
			<path class="st3" d="M1163,2975.59c-57.93,0-111.3-32.11-138.57-82.83c-121.96-16.25-215-84.75-249.79-184.41
				c-36.05-103.29-2.24-216.89,92.77-311.68c4.06-4.05,10.09-5.43,15.51-3.55c39.97,13.85,90.05,15.56,148.83,5.07
				c5.56-0.99,11.23,1.24,14.63,5.76c3.4,4.53,3.96,10.58,1.45,15.65c-12.17,24.63-15.19,46.09-9.17,65.41
				c17.97,10.54,31.05,19.62,43.75,28.43c25.33,17.57,47.21,32.75,101.83,54.96c102.46,41.68,177.6,162.39,122.99,312.46
				c-20.32,55.86-77.52,93.94-142.35,94.73C1164.25,2975.59,1163.62,2975.59,1163,2975.59z M882.23,2424.4
				c-81.67,84.93-110.56,184.39-79.26,274.07c31.66,90.7,118.74,152.56,232.93,165.48c5.17,0.59,9.67,3.81,11.89,8.53
				c21.16,45,67.12,73.74,116.72,73.11c52.42-0.64,98.44-30.77,114.52-74.99c53.79-147.79-33.98-245.07-106.1-274.4
				c-57.69-23.46-81.95-40.29-107.63-58.11c-13.28-9.22-27.01-18.75-46.4-29.85c-2.95-1.69-5.24-4.34-6.49-7.5
				c-8.41-21.28-8.93-44.42-1.59-69.03C962.06,2437.76,918.94,2435.32,882.23,2424.4z"/>
		</g>
		<g>
			<path class="st3" d="M963.38,2472.35c7.58-0.91,15-1.01,22.4-0.8c7.38,0.31,14.73,0.91,22.06,2.09
				c7.32,1.18,14.73,2.55,21.99,5.31c3.64,1.37,7.28,2.95,10.92,5.2c3.65,2.19,7.34,4.7,11.13,9.2c5.08,6.03,4.31,15.05-1.72,20.13
				c-3.32,2.8-7.55,3.83-11.53,3.17l-7.03-1.19c-1.47-0.25-3.89-1.43-6.45-2.6c-2.57-1.15-5.36-2.53-8.21-3.96
				c-5.75-2.81-11.66-6.27-17.74-9.62c-6.07-3.37-12.26-6.88-18.45-10.57c-6.16-3.8-12.4-7.6-18.48-12.2
				c-1.02-0.76-1.23-2.21-0.47-3.23C962.19,2472.74,962.78,2472.42,963.38,2472.35z"/>
		</g>
		<g>
			<path class="st3" d="M872.96,2829.85c-4.97,0-9.68-2.99-11.62-7.9c-27.14-68.39-20.11-146.5,18.81-208.96
				c38.92-62.45,105.95-103.17,179.31-108.93c6.91-0.62,12.9,4.59,13.44,11.48c0.54,6.88-4.6,12.9-11.48,13.44
				c-65.48,5.14-125.31,41.49-160.05,97.23c-34.74,55.74-41.02,125.47-16.79,186.51c2.55,6.42-0.59,13.68-7.01,16.23
				C876.06,2829.56,874.5,2829.85,872.96,2829.85z"/>
		</g>
		<g>
			<path class="st3" d="M1064.38,2935.92c-3.49,0-7-1.21-9.84-3.69c-32.11-27.95-46.47-65.73-42.68-112.27
				c0.67-8.26,7.91-14.42,16.17-13.74c8.26,0.67,14.4,7.91,13.73,16.17c-3.02,37.04,7.61,65.56,32.48,87.21
				c6.25,5.44,6.9,14.91,1.46,21.16C1072.74,2934.17,1068.57,2935.92,1064.38,2935.92z"/>
		</g>
		<g>
			<path class="st3" d="M1110.59,2111.53c-24.21-7.82-49.71-11.25-75.32-10.52c-25.62,0.69-51.29,5.45-76.24,13.1l-18.6,6.25
				c-6.13,2.33-12.21,4.85-18.25,7.41c-11.98,5.47-23.66,11.57-35.45,17.54c-5.99,2.78-11.83,5.92-17.86,8.73
				c-2.98,1.48-6.04,2.8-9.08,4.19c-3.02,1.44-6.03,2.89-9.12,4.22c-12.38,5.31-24.71,10.9-38.39,14.81l-0.18,0.05
				c-2.77,0.79-5.65-0.81-6.44-3.58c-0.48-1.69-0.05-3.46,0.98-4.73c9.05-11.04,19.25-20.72,30.32-29.23
				c2.72-2.21,5.5-4.31,8.31-6.39c2.9-1.94,5.77-3.93,8.73-5.78c5.88-3.77,11.76-7.54,18.03-10.7
				c12.31-6.67,25.38-11.93,38.38-17.22l19.73-7.53l20.09-6.75c27.05-8.29,55.37-13.62,84.17-14.41
				c28.76-0.83,57.94,3.06,85.54,12.01c7.88,2.55,12.2,11.01,9.64,18.89c-2.55,7.88-11.01,12.2-18.89,9.64L1110.59,2111.53z"/>
		</g>
		<g>
			<path class="st3" d="M896.4,2424.89c-3.22,0-6.43-1.23-8.87-3.7c-90.28-90.99-77.73-199.66,37.29-322.99
				c4.71-5.05,12.62-5.32,17.67-0.62c5.05,4.71,5.32,12.62,0.62,17.67c-105.6,113.23-117.98,207.55-37.82,288.33
				c4.86,4.9,4.83,12.81-0.07,17.68C902.77,2423.69,899.58,2424.89,896.4,2424.89z"/>
		</g>
		<g>
			<path class="st16" d="M1483.68,1067.57c93.85,108.81,143.55,227.29,149.07,355.44c119.96,20.59,123.68-79.65,15.44-302.79
				C1597.31,1015.34,1543.88,997.11,1483.68,1067.57z"/>
		</g>
		<g class="st17">
			<path class="st2" d="M1643.19,1150.22c46.74,96.36,72.55,169.74,77.19,220.43c5.68-49.66-20.23-133-77.19-250.43
				c-50.88-104.88-104.31-123.11-164.51-52.65c4.54,5.27,8.89,10.58,13.23,15.89C1546.76,1030.34,1596.07,1053.09,1643.19,1150.22z"
				/>
		</g>
		<g>
			<path class="st3" d="M1660.68,1440.6c-9.38,0-19.54-0.94-30.47-2.81c-6.96-1.19-12.15-7.08-12.45-14.14
				c-5.34-124.07-54.27-240.58-145.44-346.29c-4.84-5.61-4.86-13.91-0.04-19.54c29.76-34.83,59.76-50.58,89.09-46.82
				c36.25,4.65,69.06,38.23,100.32,102.67c77.3,159.36,97.54,254.55,63.69,299.58C1711.7,1431.45,1690,1440.6,1660.68,1440.6z
				 M1647.05,1409.87c26.66,2.8,44.91-2.1,54.34-14.64c17.61-23.43,20.34-89.03-66.7-268.46c-26.13-53.85-52.08-82.79-77.15-86
				c-16.3-2.1-34.42,7.03-53.92,27.14C1590.84,1172.61,1639.04,1287.53,1647.05,1409.87z"/>
		</g>
		<g>
			<path class="st16" d="M505.18,1605.67c30.09,111.22,91.1,206.92,183.04,287.08c1.46,137.22-98.04,96.02-261.57-149.6
				C366.65,1653.07,405.96,1599.75,505.18,1605.67z"/>
		</g>
		<g class="st17">
			<path class="st2" d="M456.65,1768.15c-55.19-82.86-26.31-134.58,55.89-137.73c-2.61-8.17-5.1-16.4-7.35-24.75
				c-99.22-5.92-138.53,47.39-78.53,137.48c71.48,107.37,130.73,175.67,174.66,207.08C561.69,1913.08,512.97,1852.74,456.65,1768.15
				z"/>
		</g>
		<g>
			<path class="st3" d="M649.76,1985.42c-65.52,0-162.99-124.91-235.6-233.96c-40.04-60.12-33.95-97.97-21.79-119.14
				c17.34-30.19,57.74-44.96,113.7-41.62c6.43,0.38,11.9,4.83,13.59,11.06c29.16,107.79,89.19,201.89,178.42,279.69
				c3.23,2.81,5.1,6.87,5.14,11.15c0.55,51.96-12.85,82.52-39.85,90.84C659.02,1984.78,654.47,1985.42,649.76,1985.42z
				 M490.86,1620.23c-36.39,0-62.45,9.6-72.47,27.03c-11.22,19.53-3.85,50.63,20.75,87.57c116.75,175.36,189.02,228.05,215.4,219.93
				c11.48-3.54,18.18-23.54,18.67-55.25c-88.03-78.3-148.38-172.18-179.52-279.26C492.74,1620.24,491.8,1620.23,490.86,1620.23z"/>
		</g>
		<g>
			<path class="st18" d="M417.68,1728.67c-45.65,17.81-45.59,55.23-3.6,114.92c75.89,107.81,127.4,136.27,158.34,82.7
				c-39.81-37.07-88.93-97.76-145.77-183.14C423.36,1738.22,420.36,1733.39,417.68,1728.67z"/>
		</g>
		<g>
			<path class="st3" d="M535.19,1967.62c-35.56,0-78.03-36.77-133.37-115.4c-29.04-41.28-39.02-72.25-31.42-97.48
				c5.38-17.85,19.46-31.32,41.83-40.05c6.94-2.71,14.81,0.09,18.49,6.56c2.51,4.41,5.34,8.98,8.41,13.57
				c54.47,81.82,102.75,142.54,143.52,180.49c5.11,4.76,6.26,12.43,2.77,18.48c-12.45,21.55-28.58,32.91-47.94,33.78
				C536.71,1967.6,535.95,1967.62,535.19,1967.62z M411.97,1748.12c-6.83,4.29-11.06,9.35-12.85,15.29
				c-3.16,10.49-1.01,31.41,27.23,71.55c60.66,86.18,93.16,103.3,109.78,102.64c2.48-0.11,8.93-0.4,16.68-9.33
				c-40.37-39.76-86.95-99.16-138.65-176.8C413.42,1750.35,412.69,1749.24,411.97,1748.12z"/>
		</g>
		<g>
			<path class="st18" d="M1730.57,1138.25c-29.7-71.43-65.15-93.34-108.99-64.61c8.95,12.94,17.82,28.46,26.61,46.58
				c41.99,86.6,67.14,154.67,75.17,204.38C1781.79,1326.8,1783.3,1265.06,1730.57,1138.25z"/>
		</g>
		<g>
			<path class="st3" d="M1726.24,1339.65c-1.12,0-2.27-0.02-3.44-0.07c-7.14-0.27-13.1-5.54-14.24-12.6
				c-7.71-47.68-32.56-115.05-73.86-200.23c-8.4-17.32-16.97-32.32-25.45-44.59c-2.3-3.33-3.16-7.44-2.39-11.41
				c0.77-3.97,3.12-7.46,6.5-9.67c21.3-13.96,41.93-18.02,61.32-12.06c27.04,8.31,49.85,35.61,69.74,83.45
				c40.19,96.65,49.19,155.67,28.31,185.72C1765.84,1328.12,1752.23,1339.65,1726.24,1339.65z M1643.05,1079.21
				c6.28,10.32,12.52,21.85,18.64,34.46c39.51,81.48,63.82,145.52,74.01,195.1c7.22-1.57,10.47-4.92,12.39-7.68
				c7.93-11.42,14.4-47.02-31.37-157.08l0,0c-15.8-38-33.39-60.92-50.86-66.29C1658.84,1075.55,1651.3,1076.04,1643.05,1079.21z"/>
		</g>
		<g class="st19">
			<path class="st2" d="M1062.19,1029.94c204.65,25.61,358.42,85.75,461.3,180.44c-35.5-86.58-104.9-154.86-192.04-188.95
				C1244.32,987.36,1147.01,990.42,1062.19,1029.94L1062.19,1029.94z"/>
		</g>
		<g class="st19">
			<path class="st2" d="M647.94,1460.22c-31.41-7.31-66,25.97-77.27,74.34c-11.27,48.36,5.06,93.51,36.46,100.82
				c31.41,7.31,66-25.97,77.27-74.33C695.68,1512.69,679.34,1467.54,647.94,1460.22L647.94,1460.22z"/>
		</g>
		<g class="st19">
			<path class="st2" d="M730.44,1721.76c-4.72,20.02-33.53,30.38-64.37,23.11c-30.82-7.25-52-29.38-47.28-49.39
				c4.7-20.03,33.53-30.36,64.35-23.1C713.96,1679.64,735.14,1701.74,730.44,1721.76L730.44,1721.76z"/>
		</g>
		<g>
			<path class="st3" d="M1537.13,1776.28c14.42-20.86,31.71-39.43,50.64-55.69c18.95-16.28,39.52-30.3,60.89-42.55
				c5.35-3.04,10.79-5.91,16.18-8.87c5.42-2.88,10.95-5.52,16.35-8.45c10.94-5.51,21.84-11.19,33.24-15.6
				c22.83-8.69,46.73-14.62,72.03-13.93c2.91,0.08,5.21,2.5,5.13,5.42c-0.05,1.69-0.88,3.17-2.15,4.1l-0.07,0.05
				c-20.29,14.75-41.48,24.54-62.8,33.94c-10.71,4.54-21.56,8.7-32.16,13.43c-5.25,2.44-10.5,4.93-15.63,7.6l-15.2,8.33
				c-39.99,22.85-76.19,52.24-101.69,89.16l-0.08,0.12c-4.71,6.82-14.05,8.52-20.87,3.82
				C1534.13,1792.44,1532.42,1783.1,1537.13,1776.28L1537.13,1776.28z"/>
		</g>
		<g>
			<path class="st3" d="M1860.79,1912.65c-0.83,0-1.66-0.08-2.51-0.25c-6.76-1.38-11.13-7.98-9.75-14.74
				c10.88-53.43-5.41-108.6-43.56-147.6c-38.16-38.98-92.99-56.45-146.63-46.72c-6.8,1.23-13.3-3.28-14.53-10.07
				c-1.23-6.79,3.28-13.3,10.07-14.53c61.82-11.22,124.99,8.91,168.96,53.84c43.96,44.93,62.73,108.5,50.19,170.07
				C1871.82,1908.56,1866.61,1912.65,1860.79,1912.65z"/>
		</g>
		<g class="st7">
			<path class="st5" d="M1031.91,2414.1c-9.64,31.73-10.38,58.76-2.22,81.1c-197.65,38.03-211.12,127.76-40.49,269.16
				c22.71,12.44,50.74-2.59,84.13-45.11v0.01c13.25-13.41,17.78-9.1,13.61,12.92l0,0c-21.65,88.49,6.47,143.91,84.39,166.26
				c47.28,8.76,86.81-18.01,118.63-80.33c7.14,65.45-35.46,126.03-99.49,141.44c-64.03,15.41-129.52-19.15-152.93-80.7
				c-109.27-0.45-206.69-68.95-244.06-171.62c-37.37-102.68-6.78-217.77,76.62-288.35C953.28,2422.1,1007.21,2420.5,1031.91,2414.1
				L1031.91,2414.1z"/>
		</g>
		<g class="st7">
			<path class="st5" d="M1074.91,2401.6c88.89-34.81,129.8-86.44,122.66-154.84c-141.52,201.78-495.55,96.75-376.59-58.9
				c53.67-74.8,132.1-113.94,235.25-117.43c21.91-23.37,32.88-35.05,32.88-35.05c-189.6-44-284.38-66-284.38-66
				c-6.14,4.84-12,9.93-17.58,15.2c8,2.89,15.87,6.33,23.58,10.31c-81.6,124.41-81.5,241.73,0,351.92
				c-7.67,3.97-15.5,7.39-23.44,10.26C862.95,2428.66,977.17,2448.8,1074.91,2401.6L1074.91,2401.6z"/>
		</g>
		<g class="st7">
			<path class="st5" d="M1639.56,1536.86c0.59-7.37,0.51-13.57-0.2-18.64c1.79-0.95,3.6-1.86,5.41-2.76
				C1642.65,1522.44,1640.91,1529.58,1639.56,1536.86L1639.56,1536.86z M1957.43,1727.05c-121.64,246.99-245.83,322.68-372.6,227.04
				c314.92,1.37,367.57-306.2,197.33-337.94c-107.01,42.52-171.55,75.4-193.62,98.65c25.92-69.87,42.03-122.56,48.36-158.08v0.08
				c140.14-83.45,302.9,19.15,297.34,186.29C1942.46,1738.25,1950.17,1732.87,1957.43,1727.05z"/>
		</g>
		<g class="st4">
			<path class="st5" d="M695.15,1912.8c-44.25-29.84-74.44-58.06-90.58-84.67c-26.26,20.14-64.78,13.03-115.58-21.36
				c-37.35,16.1-65.33,18.31-83.93,6.63c52.55,119.88,111.09,159.97,175.54,120.27C634.41,1980.13,672.6,1973.19,695.15,1912.8
				L695.15,1912.8z"/>
		</g>
		<g class="st4">
			<path class="st5" d="M1680.17,1187.88c9.57,1.57,20.8,1.6,28.33-5c23.23-20.36-7.15-87.72-1.4-89.97
				c2.46-0.96,10.37,10.41,30.59,51.97c7.26,21.04,51.02,150.54,14.15,172.99c-6.16,3.75-16.32,5.59-34.02-1.44
				c18.51,65.74-6.04,105.25-73.63,118.53c-0.78-18.29-2.43-38.1-5.35-59.18c-4.17-30-10.15-57.02-16.72-80.71
				c8.79,0.45,27.43,0.01,43.06-12.2C1689.18,1264.12,1696.57,1225.04,1680.17,1187.88z"/>
		</g>
		<g>
			
				<ellipse transform="matrix(0.8363 -0.5482 0.5482 0.8363 -622.9572 815.3123)" class="st6" cx="1054.03" cy="1451" rx="558.75" ry="580.28"/>
			<path class="st20" d="M1074.49,2028.59c-31.6,0-63.49-2.68-95.39-8.1c-154.68-26.27-290.79-112.72-383.26-243.42
				c-185.94-262.8-131.67-622.89,120.97-802.69c119.16-84.8,265.53-117.79,412.14-92.89c154.68,26.27,290.79,112.72,383.26,243.42
				c185.94,262.8,131.67,622.89-120.97,802.69C1298.02,1993.96,1188.12,2028.59,1074.49,2028.59z M1033.58,880.6
				c-112.16,0-220.6,34.17-312.6,99.65c-249.42,177.51-302.92,533.11-119.27,792.68c91.36,129.13,225.82,214.53,378.6,240.48
				c144.72,24.6,289.18-7.96,406.77-91.66c249.42-177.51,302.92-533.11,119.27-792.68c-91.36-129.13-225.82-214.53-378.6-240.48
				C1096.26,883.24,1064.77,880.6,1033.58,880.6z"/>
		</g>
		<g class="st21">
			<path class="st20" d="M1458.53,1064.53c18.05,19.35,35.01,40.2,50.77,62.46c185.05,261.62,131.28,618.75-120.12,797.71
				c-251.45,178.9-605.3,111.9-790.41-149.68c-5.33-7.52-10.49-15.17-15.39-22.83c193.83,208.74,509.59,250.94,739.64,87.22
				C1567.19,1665.6,1624.92,1323.77,1458.53,1064.53z"/>
		</g>
		<g>
			<path class="st20" d="M1074.52,2040c-32.24,0-64.78-2.73-97.32-8.26c-157.69-26.78-296.43-114.89-390.67-248.07
				c-189.56-267.92-134.08-635.13,123.66-818.57c121.65-86.57,271.05-120.25,420.67-94.84c157.69,26.79,296.43,114.89,390.67,248.08
				l0,0c189.56,267.92,134.08,635.13-123.66,818.57C1302.68,2004.65,1190.5,2040,1074.52,2040z M1033.6,892
				c-109.81,0-215.96,33.45-306.01,97.54c-244.31,173.87-296.6,522.35-116.57,776.8c89.59,126.64,221.42,210.39,371.2,235.83
				c141.7,24.08,283.14-7.78,398.24-89.71c244.31-173.87,296.6-522.34,116.57-776.8c-89.59-126.64-221.42-210.39-371.2-235.83
				C1094.99,894.59,1064.15,892,1033.6,892z"/>
		</g>
		<g>
			<path class="st20" d="M1516.43,1140.2c66.92,91.72,100.45,197.91,102.96,304.34c1.88,79.79-81.39,283.1-266.22,421.74
				c-171.38,128.55-398.27,148.23-473.47,122.38c-100.31-34.49-191.03-98.61-257.95-190.33
				c-177.09-242.73-50.23-490.67,196.84-672.42C1065.66,944.16,1339.35,897.47,1516.43,1140.2z"/>
		</g>
		<g>
			<path class="st20" d="M959.7,2011.16c-35.33,0-64.41-3.92-84.06-10.68c-106.42-36.59-197.71-103.95-263.98-194.79
				c-86.26-118.24-107.24-242.92-62.33-370.59c39.31-111.76,129.86-222.16,261.87-319.26c162.19-119.31,320.13-171.24,456.66-150.15
				c102.25,15.78,189.29,72.02,258.69,167.14c66.27,90.83,102.7,198.52,105.36,311.42c1.84,78.33-75.83,285.47-271.22,432.03
				C1227.85,1975.9,1065.66,2011.16,959.7,2011.16z M1206.98,986.1c-116.28,0-246.69,51.1-380.98,149.88
				c-131.49,96.72-413.62,354.16-194.15,654.98c63.24,86.69,150.35,150.96,251.91,185.88c72.06,24.78,294.22,5.21,461.9-120.56
				c185.82-139.38,262.91-339.91,261.22-411.45c-2.53-107.78-37.3-210.57-100.56-297.27l0,0
				c-65.34-89.56-146.86-142.44-242.3-157.17C1245.45,987.53,1226.4,986.1,1206.98,986.1z"/>
		</g>
		<g class="st22">
			<path class="st23" d="M1264.22,977.76c94.33,14.11,181.06,64.95,252.2,162.43c66.93,91.74,100.45,197.94,102.98,304.35
				c1.86,79.8-81.42,283.11-266.23,421.77c-65.25,48.97-138.54,82.11-208.49,102.97c223.43-175.48,324.24-423.99,321.91-522.95
				c-3.17-135.08-45.75-269.87-130.68-386.25C1313.23,1028.95,1289.24,1001.62,1264.22,977.76z"/>
		</g>
		<g>
			<path class="st20" d="M504.45,1579.01c-0.2,0-0.4,0-0.6-0.01c-6.65-0.32-11.84-5.73-11.91-12.3
				c-9.1-178.22,93.35-359.63,281.14-497.78c186.28-137.02,387.48-182.73,552.31-125.53c6.04,1.11,10.31,6.56,9.99,12.9
				c-0.34,6.89-6.38,12.12-13.34,11.84c-0.19-0.01-0.47-0.03-0.66-0.05l-1.52-0.14l-1.44-0.51
				c-157.14-55.12-350.52-10.79-530.53,121.62C606.86,1222.23,508.09,1396,516.93,1565.81l0.03,0.62l-0.03,0.62
				C516.62,1573.74,511.09,1579.01,504.45,1579.01z"/>
		</g>
		<g class="st17">
			<path class="st6" d="M827.56,1868.82c0,0-246.89-186.35-192.58-372.93c54.31-186.58,232.89-317.36,237.41-302.38
				c0,0-161.09,194.96-119.77,414.27C784.49,1776.89,827.56,1868.82,827.56,1868.82z"/>
		</g>
		<g>
			<path class="st2" d="M485.02,1454.47c0-317.16,257.12-574.28,574.28-574.28c153.3,0,292.54,60.05,395.55,157.91
				c8.1,7.71,15.97,15.65,23.6,23.84c1.79,1.84,3.52,3.72,5.23,5.64c12.12-14.17,23.97-24.77,35.58-31.79
				c-121.91-137.29-298.3-213.65-481.85-208.57c-183.53,5.09-355.43,91.08-469.54,234.92c-121.01,154.16-160.81,356.95-107.08,545.4
				c13.02-2.19,27.87-2.85,44.39-1.86c-3.62-13.09-6.71-26.39-9.38-39.85C488.73,1529.81,485.02,1492.57,485.02,1454.47z"/>
		</g>
		<g>
			<path class="st3" d="M460.78,1620.04c-5.49,0-10.46-3.63-12.01-9.07c-54.66-191.71-13.81-399.76,109.27-556.55
				c116.74-147.15,291.32-234.5,479.03-239.7c187.64-5.17,366.86,72.34,491.54,212.76c2.47,2.78,3.57,6.51,3.01,10.18
				c-0.56,3.67-2.72,6.9-5.89,8.82c-10.37,6.27-21.32,16.1-32.55,29.22c-2.34,2.74-5.75,4.33-9.36,4.37
				c-3.8-0.03-7.05-1.48-9.46-4.16c-1.6-1.78-3.21-3.54-4.88-5.27c-7.49-8.03-15.25-15.87-23.25-23.49
				c-104.84-99.6-242.26-154.46-386.93-154.46c-309.77,0-561.78,252.01-561.78,561.78c0,36.68,3.55,73.34,10.55,108.95
				c2.68,13.51,5.76,26.62,9.16,38.92c1.07,3.89,0.21,8.06-2.33,11.2c-2.54,3.13-6.4,4.86-10.46,4.61
				c-15.36-0.92-29.35-0.35-41.58,1.71C462.16,1619.98,461.47,1620.04,460.78,1620.04z M1054.8,839.47
				c-5.68,0-11.34,0.08-17.04,0.24c-180.3,5-348,88.9-460.1,230.2c-115.89,147.63-155.82,342.69-107.71,523.81
				c6.06-0.6,12.39-0.93,18.97-0.98c-1.93-7.96-3.73-16.15-5.38-24.48c-7.31-37.21-11.02-75.49-11.02-113.78
				c0-323.55,263.23-586.78,586.78-586.78c151.11,0,294.64,57.3,404.16,161.35c6.91,6.58,13.65,13.32,20.1,20.08
				c5.66-5.85,11.31-11.01,16.91-15.44C1385.07,909.55,1224.18,839.47,1054.8,839.47z"/>
		</g>
		<g>
			<path class="st16" d="M629.88,1073.15c84.41-94.28,189.76-154.86,316.06-181.78c24.88-15.88,34.3-47.65,22.09-74.54
				c-56.36-124.17-357.16,97.93-413.49,166.85c-15.89,22.45-14.63,52.81,3.11,73.84C575.35,1078.56,605.06,1084.99,629.88,1073.15z"
				/>
		</g>
		<g class="st17">
			<path class="st2" d="M939.18,786.83c-94.22-44.51-334.86,135.96-384.64,196.86c-5.23,7.39-8.6,15.62-10.13,24.11
				c4.07,2.34,8.22,4.6,12.45,6.75C676.53,905.47,803.89,831.35,938.98,792.2C939.08,790.41,939.12,788.61,939.18,786.83
				L939.18,786.83z"/>
		</g>
		<g>
			<path class="st3" d="M603.9,1094.04c-21.73,0-43.03-9.4-57.72-26.86c-22.12-26.22-23.72-64.13-3.88-92.16
				c0.2-0.28,0.41-0.56,0.63-0.83c48.9-59.83,263.38-223.11,376.44-208.45c29.17,3.8,50.73,19.33,62.33,44.89
				c15.19,33.47,3.29,73.61-27.69,93.38c-1.51,0.97-3.19,1.65-4.94,2.03c-122.54,26.11-226.17,85.7-308.01,177.11
				c-1.32,1.48-2.92,2.68-4.71,3.53C625.95,1091.65,614.87,1094.04,603.9,1094.04z M629.88,1073.15h0.05H629.88z M566.5,992.76
				c-11.65,16.84-10.59,39.42,2.62,55.1c12.72,15.12,33.64,20.21,51.75,12.88c85.19-94.17,192.51-155.86,319.07-183.42
				c16.92-12.21,23.15-35.09,14.43-54.28c-7.4-16.3-19.76-25.05-38.89-27.54C816.52,782.62,610.66,939.23,566.5,992.76z"/>
		</g>
		<g class="st4">
			<path class="st5" d="M936.7,893.3c30.09-25.91,34.99-52.73,14.73-80.47c3.99,25.79-6.57,38.92-31.66,39.39
				c-125.33,15.77-239.5,80-318.05,178.91c-15.16,20.16-31.72,17.95-49.68-6.63c28.61,60.78,64.07,67.05,106.45,18.79
				C741.15,965.17,833.9,915.17,936.7,893.3L936.7,893.3z"/>
		</g>
		<g class="st17">
			
				<ellipse transform="matrix(0.8931 -0.45 0.45 0.8931 -409.6858 757.7722)" class="st6" cx="1389.21" cy="1240.7" rx="69.91" ry="100.08"/>
		</g>
		<g class="st17">
			
				<ellipse transform="matrix(0.9337 -0.3581 0.3581 0.9337 -424.5588 610.9794)" class="st6" cx="1437.16" cy="1451.65" rx="38.06" ry="45.86"/>
		</g>
	</g>
</g>
</svg>
