<?xml version="1.0" encoding="utf-8"?>
<!-- Generator: Adobe Illustrator 28.0.0, SVG Export Plug-In . SVG Version: 6.00 Build 0)  -->
<svg version="1.1" id="Layer_1" xmlns="http://www.w3.org/2000/svg" xmlns:xlink="http://www.w3.org/1999/xlink" x="0px" y="0px"
	 viewBox="0 0 4000 4000" style="enable-background:new 0 0 4000 4000;" xml:space="preserve">
<style type="text/css">
	.st0{display:none;}
	.st1{display:inline;fill:#81B1FF;}
	.st2{fill:#FFFFFF;}
	.st3{opacity:0.3;}
	.st4{fill:#232323;}
	.st5{fill:#A6AACC;}
	.st6{opacity:0.7;}
	.st7{fill:#22A7F0;}
	.st8{opacity:0.5;}
	.st9{fill:#020202;}
</style>
<g>
	<g class="st0">
		<rect class="st1" width="4000" height="4000"/>
	</g>
	<g>
		<g>
			<path class="st2" d="M2439.9,2825.44c216.46,10.76,204.36-244.7,204.36-244.7c36.3-30.92,44.69-138.86,44.69-138.86l37.3-422.77
				c-40.36-123.33-190.82-167.09-190.82-167.09l-66.65,57.76L2439.9,2825.44z"/>
		</g>
		<g class="st3">
			<path class="st4" d="M2704.93,2260.59l-15.97,181.29c0,0-8.39,107.94-44.69,138.86c0,0,12.1,255.46-204.36,244.7l24.74-783.9
				C2524.55,2113.88,2620.6,2218.81,2704.93,2260.59z"/>
		</g>
		<g>
			<path class="st4" d="M2453.02,2839.91c-4.54,0-9.14-0.11-13.82-0.35c-7.8-0.39-13.81-7.02-13.42-14.82
				c0.39-7.79,6.96-13.92,14.82-13.42c53.49,2.66,96.66-11.87,128.1-43.18c66.16-65.89,61.49-185.53,61.43-186.73
				c-0.2-4.37,1.63-8.59,4.96-11.42c26.06-22.2,37.54-100.79,39.77-129.2l37.05-419.98c-38.83-112.58-179.01-154.79-180.43-155.21
				c-7.49-2.19-11.79-10.04-9.61-17.53c2.19-7.49,10.04-11.79,17.52-9.62c6.44,1.87,158.11,47.33,200.31,176.26
				c0.6,1.82,0.82,3.74,0.65,5.64l-37.29,422.77c-0.85,10.99-9.19,105.63-44.5,143.49c0.22,27.75-3.44,135.28-69.77,201.46
				C2554.25,2822.5,2508.63,2839.91,2453.02,2839.91z"/>
		</g>
		<g>
			<path class="st2" d="M2878.21,2240.59l-110.52,139.94c-34.85,44.15-86.1,73.14-142.14,77.6
				c-119.5,9.41-202.11-85.51-267.77-228.3l114.28,279.66l0.54,1.34l-26.89,270.67l-17.91,390.82l10.76,221.84
				c27.97,19.63,43.56,40.71,51.31,62.71c14.04,39.9-10.49,83.47-51.68,93.04c-96.21,22.37-194.04,18.39-292.89-2.37
				c-32.21-6.78-56.15-34.2-57.71-67.06c-1.4-28.88-2.2-57.71-2.47-86.48c-0.59-51.9,0.65-103.63,3.66-155.1
				c1.67-28.45-2.9-56.85-13.45-83.31l-64.7-161.66c0,0,0,0,0-0.05l-13.07-32.64c-48.51,37.75-81.69,102.5-110.41,175.05
				c-8.82,22.27-13.23,46.04-13.12,69.97l1.18,261.85c-5.97,44.96-35.06,62.06-74.86,66.31h-319.08
				c-129.18-13.88-114.39-154.35-19.74-195.76c21.3-9.36,46.63-13.66,75.29-10.38c-7.8-254.33-2.9-496.17,30.82-709.9
				c-28.4-98.58,2.64-269.55,2.64-269.55l60.29-237.76c-3.39,0.86-6.72,1.67-10,2.42c-236.63,55.99-290.47-62.49-302.57-112.45
				c-3.07-12.64-3.44-20.87-3.44-20.87l451.75-247.39l722.1,169.19c122.46,63.46,143.75,184.63,143.75,184.63l39.69-24.85
				c6.56-65.02,25.71-124.02,57.76-176.83l2.04-39.64c18.55-76.31,109.6-41.68,102.18,52.44
				C2996.15,1952.86,2984.75,2108.83,2878.21,2240.59z"/>
		</g>
		<g class="st3">
			<path class="st4" d="M2438.18,3549.92c-96.21,22.37-194.04,18.39-292.89-2.37c-32.21-6.78-56.15-34.2-57.71-67.06
				c-1.4-28.88-2.2-57.71-2.47-86.48c1.34-0.21,2.04-0.32,2.04-0.32c28.72,130.9,270.62,122.83,239.81-65.4
				c0,0,4.03-228.57-12.85-432.93c-16.89-204.36,38.51-338.81,38.51-338.81l-59.27-24.42l-20.6,55.55
				c-5.25,9.64-10.62,18.46-16.06,26.53c-41.63,61.84-119.17,88.64-190.21,66.04l-388.92-123.71l-71.53-114.66l611.86,17.85
				l254.16,49.75l0.54,1.34l-26.89,270.67l-17.91,390.82l10.76,221.84c27.97,19.63,43.56,40.71,51.31,62.71
				C2503.9,3496.78,2479.38,3540.34,2438.18,3549.92z"/>
		</g>
		<g>
			<path class="st2" d="M2251.4,2309.3l251.69,65.28c10.15,54.02-0.82,99.09-30.48,136.24l-254.74-51.11
				c-11.68-2.34-20.02-12.87-19.4-24.76c2.07-39.81,9.6-77.32,24.59-111.7C2227.86,2312.28,2239.81,2306.3,2251.4,2309.3z"/>
		</g>
		<g>
			<path class="st4" d="M2472.6,2524.97c-0.92,0-1.86-0.09-2.78-0.28l-254.27-50.98c-0.22-0.04-0.43-0.09-0.65-0.15
				c-18.26-3.71-31.46-20.63-30.54-39.32c2.22-43.26,10.88-82.49,25.73-116.64c7.63-17.5,26.49-26.74,44.85-21.98l4.36,1.15
				l247.34,64.15c5.3,1.38,9.33,5.69,10.35,11.07c10.71,56.88-0.51,106.57-33.34,147.67
				C2480.93,2523.05,2476.85,2524.97,2472.6,2524.97z M2245.34,2322.68c-3.93,0-7.64,2.36-9.32,6.23
				c-13.68,31.44-21.34,66.37-23.41,106.77c-0.24,4.82,3.24,9.22,8.11,10.21c0.21,0.04,0.41,0.09,0.62,0.14l245.36,49.2
				c22.28-31.21,30.16-67.09,23.98-109.23l-242.86-63.01C2246.98,2322.78,2246.15,2322.68,2245.34,2322.68z"/>
		</g>
		<g>
			<path class="st2" d="M2878.21,2240.59l-110.52,139.94c-34.85,44.15-86.1,73.14-142.14,77.6c-4.95,0.38-9.9,0.59-14.68,0.59
				c-2.15,0.05-4.3,0.05-6.4,0h-0.59c-64.91-1.83-118.48-35.76-164.24-91.7c-0.05-0.05-0.05-0.05-0.05-0.05
				c-30.33-37.05-57.28-83.74-81.8-137.14l20.01-50.18l110.63-277.67c122.46,63.46,143.75,184.63,143.75,184.63l39.69-24.85
				c6.56-65.02,25.71-124.02,57.76-176.83l2.04-39.64c18.55-76.31,109.6-41.68,102.18,52.44c10.59,3.6,20.44,7.64,29.58,12.05
				l0.48,0.22C2994.21,1973.46,2977.7,2117.59,2878.21,2240.59z"/>
		</g>
		<g>
			<path class="st2" d="M2632.16,2086.64l-49.75,41.16c0,0-49.75,157.15,100.84,251.27L2632.16,2086.64z"/>
		</g>
		<g>
			<path class="st4" d="M2362.97,2227.45c12.12,20.44,23.94,40.89,36.86,60.47c6.23,9.95,13.05,19.42,19.65,29
				c3.26,4.82,7.01,9.25,10.41,13.94c3.48,4.62,6.88,9.31,10.68,13.62l11.03,13.22c3.92,4.15,7.75,8.36,11.55,12.6
				c3.7,4.36,7.86,8.15,11.82,12.18c3.95,4.05,7.89,8.1,12.2,11.66c4.28,3.59,8.27,7.64,12.79,10.88l13.52,9.79l14.31,8.35
				c2.34,1.5,4.88,2.54,7.39,3.65l7.51,3.35c20.21,8.46,41.83,12.93,63.79,13.45c22.11,0.48,43.92-3.2,64.65-10.62
				c20.62-7.61,39.98-18.79,56.88-33.01c8.43-7.13,16.28-14.96,23.44-23.37l5.34-6.47l5.53-7l11.06-14l88.5-112.05
				c14.77-18.42,28.37-36.62,39.96-56.49c11.54-19.72,21.56-40.32,28.63-61.72c3.64-10.67,6.32-21.55,8.5-32.46
				c1.84-10.94,3.15-21.94,3.22-32.87c-0.03-10.91-0.9-21.75-3.05-32.28c-2.29-10.48-5.69-20.62-10.21-30.24
				c-4.63-9.57-10.61-18.43-17.38-26.68c-6.83-8.23-14.96-15.41-23.46-22.15c-17.51-12.98-37.67-22.92-58.99-30.23l-0.06-0.02
				l-0.34-0.13c-6.43-2.4-10.25-8.73-9.79-15.25c1.02-14.02-0.22-27.96-4.44-40.59c-4.25-12.51-11.66-23.71-21.25-30.64
				c-9.6-6.98-20.71-8.7-28.9-4.35c-8.49,4.08-14.93,15.06-18.06,27.88l0.41-2.78l-2.02,39.66c-0.13,2.55-0.93,4.98-2.16,7.03
				c-15.64,25.72-28.18,53.26-37.42,81.94c-9.26,28.67-15.23,58.44-18.29,88.59c-0.48,4.76-3.21,8.82-6.96,11.2l-39.66,24.87
				c-7.02,4.4-16.27,2.28-20.67-4.74c-0.96-1.54-1.61-3.18-1.97-4.86l-0.1-0.52c-0.78-3.76-1.96-8.65-3.3-13.04
				c-1.25-4.52-2.85-9-4.37-13.49c-1.67-4.45-3.36-8.9-5.19-13.3c-1.98-4.33-3.75-8.77-5.9-13.03
				c-8.26-17.2-18.31-33.56-30.11-48.51c-11.71-14.99-24.78-28.98-39.6-40.9l-5.48-4.56c-1.79-1.57-3.67-3.02-5.67-4.32l-11.71-8.16
				c-3.79-2.89-8.06-5.05-12.17-7.47l-12.39-7.14l3.48,1.29l-722.09-169.2l10.63-1.45l-451.75,247.39l7.78-13.87
				c0.08,1.08,0.28,3.14,0.53,4.83c0.23,1.78,0.54,3.58,0.86,5.39c0.65,3.62,1.5,7.25,2.43,10.86c1.91,7.21,4.41,14.28,7.32,21.15
				c5.93,13.68,13.74,26.51,23.56,37.56c19.42,22.41,46.33,37.46,75.67,45.61c29.58,7.71,61.14,9.73,92.67,7.35
				c31.57-2.21,63.14-8,94.31-15.71l0.07-0.02c8.04-1.99,16.17,2.92,18.16,10.96c0.61,2.46,0.55,4.99-0.02,7.29l-31.67,124.94
				l-15.83,62.47l-7.92,31.24l-3.96,15.62c-0.81,2.94-0.98,4.29-1.46,7.19l-1.25,7.81c-6.5,41.9-10.63,84.39-12.01,126.62
				c-0.47,21.11-0.31,42.18,1.18,62.99c1.73,20.73,4.58,41.26,9.87,60.61l0.05,0.17c0.58,2.1,0.66,4.29,0.35,6.31
				c-18.21,116.38-27.21,234.29-31.26,352.34c-3.98,118.1-2.94,236.45,0.66,354.75c0.25,8.28-6.26,15.2-14.54,15.46
				c-0.66,0.02-1.3,0-1.94-0.07l-0.23-0.02c-26.94-2.83-54.4,1.03-77.4,14.08c-22.92,12.74-41.4,33.83-49.89,58.35
				c-8.63,24.25-7.06,51.92,7.86,71.15c7.21,9.69,17.24,17.36,28.9,22.69c11.66,5.36,24.77,8.43,38.26,10.08l-1.6-0.09h319.09
				l-1.59,0.08c16.52-1.79,32.2-6.17,42.81-15.15c5.33-4.45,9.52-9.95,12.6-16.45c3.09-6.49,5.04-13.94,6.16-21.79l-0.13,2.05
				l-0.61-135.7l-0.31-67.85l-0.15-33.93l-0.08-16.96l-0.02-8.56c0-3.05,0.08-6.1,0.21-9.15c0.54-12.19,2.2-24.33,4.94-36.24
				c1.36-5.95,3-11.85,4.91-17.66c1.87-5.78,4.18-11.66,6.29-16.8c8.57-21.23,17.64-42.38,28.05-63.11
				c10.47-20.68,21.88-41.13,35.78-60.33c6.77-9.69,14.46-18.89,22.49-27.8c8.17-8.83,17.11-17.07,26.66-24.69
				c6.41-5.12,15.76-4.08,20.88,2.33c0.92,1.15,1.64,2.4,2.17,3.69l0.09,0.24l52.4,131.01l26.24,65.68
				c9.16,23.64,13.88,48.97,13.96,74.29c-0.02,13.1-1.14,24.27-1.56,36.02c-0.58,11.67-1.02,23.33-1.42,35.01
				c-0.77,23.34-1.13,46.71-1.16,70.07c-0.02,23.36,0.3,46.73,1,70.08c0.36,11.68,0.76,23.35,1.31,35.02l0.2,4.38
				c0.06,1.5,0.13,2.96,0.26,4l0.31,3.47l0.62,3.42c0.99,4.51,2.28,9.01,4.39,13.16c3.98,8.39,10.12,15.78,17.63,21.34
				c3.79,2.71,7.79,5.21,12.15,6.91c2.13,0.96,4.38,1.64,6.61,2.33l3.41,0.87c1.14,0.3,2.76,0.57,4.11,0.86
				c22.66,4.68,45.46,8.52,68.36,11.27c45.78,5.51,91.98,6.82,137.66,2.68c22.83-2.06,45.52-5.47,67.9-10.29l8.39-1.8l6.8-1.98
				c4.31-1.71,8.56-3.63,12.37-6.31c7.66-5.2,14.26-12.2,18.59-20.49c4.36-8.25,6.73-17.49,6.78-26.71
				c-0.06-9.31-2.49-18.02-7.02-27.42c-8.75-18.23-23.98-33.55-41.85-46.07c-3.92-2.74-6.12-7.12-6.36-11.55l-10.76-221.84
				c-0.02-0.47-0.02-0.96,0-1.42l15.21-331.61l1.9-41.45c0.38-6.9,0.5-13.83,1.09-20.72l2.05-20.66l8.2-82.62l16.41-165.24
				c0.82-8.24,8.16-14.26,16.41-13.44c8.24,0.82,14.26,8.16,13.44,16.41l-16.37,164.76l-8.19,82.38l-2.05,20.6
				c-0.59,6.87-0.71,13.78-1.08,20.67l-1.9,41.37l-15.18,330.93v-1.41l10.75,221.84l-6.36-11.55c10.29,7.26,20.17,15.46,29.07,24.99
				c8.87,9.54,16.71,20.47,22.55,32.57c5.76,11.68,10.07,26.12,10,40.4c-0.04,14.31-3.7,28.47-10.35,40.98
				c-6.62,12.55-16.55,23.26-28.32,31.22c-5.85,4.06-12.34,7.1-18.98,9.64c-3.33,1.09-6.89,2.1-10.13,2.95l-8.85,1.91
				c-23.6,5.08-47.5,8.67-71.51,10.83c-48.03,4.35-96.37,2.96-143.96-2.77c-23.8-2.86-47.42-6.85-70.82-11.67
				c-1.52-0.32-2.81-0.52-4.52-0.94l-5.14-1.31c-3.38-1.02-6.77-2.09-10.01-3.52c-6.58-2.63-12.7-6.33-18.43-10.48
				c-11.39-8.43-20.72-19.66-26.83-32.51c-3.18-6.37-5.26-13.26-6.73-20.21l-0.93-5.26l-0.51-5.31c-0.19-1.88-0.25-3.36-0.31-4.8
				l-0.2-4.43c-0.55-11.82-0.96-23.65-1.32-35.48c-0.72-23.66-1.04-47.33-1.02-71c0.03-23.67,0.4-47.34,1.17-71.01
				c0.4-11.83,0.85-23.66,1.44-35.48c0.44-11.75,1.56-24.03,1.53-34.46c-0.07-21.7-4.11-43.38-11.95-63.6l-26.11-65.35l-52.4-131.01
				l23.14,6.26c-8.11,6.52-15.85,13.61-23.05,21.38c-7.08,7.89-13.96,16.06-20.14,24.92c-12.65,17.45-23.38,36.63-33.33,56.28
				c-9.9,19.7-18.69,40.16-27.04,60.87c-2.18,5.32-4,9.98-5.62,14.96c-1.62,4.94-3.01,9.95-4.17,15.02
				c-2.33,10.13-3.75,20.49-4.21,30.9c-0.11,2.6-0.18,5.21-0.18,7.81l0.02,8.4l0.08,16.96l0.15,33.92l0.31,67.85l0.62,135.7v0.11
				c0,0.63-0.05,1.33-0.13,1.94c-1.44,10.22-4.04,20.69-8.81,30.73c-4.7,10.02-11.79,19.43-20.55,26.66
				c-8.73,7.31-18.8,12.28-28.79,15.61c-10.03,3.35-20.1,5.19-29.98,6.27c-0.52,0.06-1.03,0.09-1.54,0.09h-0.05h-319.09h-0.18
				c-0.46,0-0.98-0.04-1.43-0.09c-16.03-1.94-32.24-5.61-47.66-12.68c-15.36-7-29.82-17.78-40.38-32.02
				c-10.64-14.14-17.08-31.39-18.56-48.65c-1.64-17.29,0.91-34.5,6.48-50.38c11.12-31.85,34.54-58.38,63.57-74.57
				c14.49-8.17,30.44-13.57,46.65-16.35c16.23-2.8,32.69-2.99,48.78-1.33l-16.71,15.36c-3.61-118.76-4.67-237.72-0.65-356.69
				c4.08-118.94,13.14-237.98,31.61-356l0.4,6.49c-11.96-44.54-13.13-88.95-12.21-132.76c1.44-43.84,5.67-87.21,12.36-130.4
				l1.31-8.13c0.38-2.41,1.06-6.38,1.74-8.62l3.97-15.68l7.95-31.37l15.9-62.73l31.8-125.47l18.21,18.23
				c-32.5,8.03-65.71,14.17-99.62,16.55c-33.84,2.51-68.66,0.54-102.64-8.35c-16.9-4.77-33.5-11.45-48.91-20.56
				c-15.41-9.09-29.53-20.68-41.4-34.24c-11.97-13.51-21.44-29.05-28.53-45.45c-3.5-8.23-6.47-16.67-8.76-25.32
				c-1.12-4.33-2.13-8.7-2.94-13.15c-0.4-2.23-0.78-4.47-1.08-6.76c-0.32-2.38-0.57-4.4-0.76-7.4c-0.39-5.84,2.72-11.1,7.53-13.74
				l0.25-0.13l451.75-247.39c3.37-1.85,7.16-2.26,10.63-1.45l722.09,169.2l0.53,0.12c1.04,0.24,2.06,0.66,2.94,1.16l13.77,7.9
				c4.56,2.68,9.27,5.12,13.53,8.31l13.04,9.09c2.22,1.46,4.31,3.08,6.32,4.82l6.13,5.08c16.52,13.33,31.13,28.92,44.15,45.6
				c13.12,16.65,24.25,34.78,33.42,53.84c2.37,4.72,4.36,9.64,6.55,14.46c2.03,4.89,3.92,9.84,5.77,14.81
				c1.71,5.04,3.48,10.04,4.93,15.21c1.56,5.24,2.81,10.12,4.04,16.22l-22.74-10.11l39.66-24.87l-6.95,11.2
				c3.25-32.05,9.63-63.94,19.59-94.78c9.93-30.84,23.47-60.59,40.33-88.31l-2.16,7.03l2.02-39.66l0-0.13
				c0.05-0.89,0.2-1.82,0.4-2.65c2.23-8.83,5.5-17.77,10.83-26.22c5.32-8.35,12.82-16.42,22.81-21.33c9.83-5,21.45-6.76,31.93-4.99
				c10.54,1.63,20.13,5.93,28.05,11.73c15.99,11.65,26.27,28.23,32.14,45.36c5.78,17.28,7.21,35.25,5.94,52.57l-10.13-15.38
				l0.07,0.03c23.64,8.11,46.71,19.31,67.43,34.71c10.15,7.98,19.91,16.65,28.3,26.74c8.34,10.09,15.72,21.09,21.46,32.96
				c5.63,11.9,9.81,24.42,12.58,37.19c2.61,12.8,3.66,25.76,3.67,38.63c-0.09,12.87-1.58,25.56-3.71,38.06
				c-2.45,12.41-5.51,24.67-9.54,36.52c-15.91,47.47-43,90.09-73.6,127.45l-88.42,111.94l-11.05,13.99l-5.52,6.99l-6.01,7.29
				c-8.25,9.69-17.29,18.72-27.03,26.94c-19.51,16.4-41.92,29.38-65.94,38.23c-24.06,8.67-49.87,12.98-75.38,12.42
				c-25.6-0.56-51.27-5.86-74.92-15.79l-8.78-3.92c-2.93-1.3-5.88-2.56-8.58-4.25l-16.57-9.53l-15.56-10.89
				c-5.21-3.61-9.8-7.88-14.72-11.81c-19.03-16.33-35.9-34.98-49.49-55.45c-13.94-20.24-26.28-41.31-36.76-63.13
				c-10.89-21.62-19.75-44.07-27.99-66.6c-1.09-2.97,0.44-6.25,3.41-7.34c2.63-0.96,5.51,0.13,6.89,2.45L2362.97,2227.45z"/>
		</g>
		<g>
			<path class="st4" d="M2641.18,2097.53l-49.75,41.16l4.47-6.63l0,0c-0.46,2.08-1.18,5.08-1.69,7.73l-1.56,8.31
				c-0.97,5.58-1.75,11.23-2.47,16.9c-1.31,11.34-2.1,22.8-1.95,34.26c0.23,22.93,4.17,45.8,11.8,67.48
				c7.62,21.68,19.15,42.09,33.9,60.2c14.85,18.02,32.52,34.04,52.17,47.56l0.02,0.02c2.45,1.68,3.07,5.03,1.38,7.48
				c-1.6,2.32-4.7,2.99-7.11,1.62c-21.44-12.27-41.64-27.34-59.09-45.55c-17.29-18.31-31.79-39.7-41.89-63.22
				c-10.05-23.51-16.11-48.78-18.03-74.34c-1.02-12.78-1.03-25.63,0.1-38.43c0.45-6.41,1.39-12.78,2.56-19.14
				c0.56-3.18,1.22-6.36,2.03-9.53c0.82-3.26,1.57-6.15,2.85-9.89l0-0.01c0.82-2.67,2.39-4.91,4.39-6.57l0.07-0.06l49.75-41.16
				c6.02-4.98,14.93-4.14,19.91,1.88C2648.04,2083.64,2647.19,2092.56,2641.18,2097.53z"/>
		</g>
		<g>
			<path class="st4" d="M2685.97,2061.68c-0.25,5.57-0.05,12.29,0.36,18.49c0.42,6.32,1.1,12.65,2.07,18.91
				c1.97,12.51,4.93,24.9,9.55,36.51c4.53,11.66,10.78,22.51,18.97,31.66c4.16,4.49,8.8,8.52,13.89,11.99
				c5.14,3.39,10.76,6.05,16.64,8.22l0.24,0.09c2.79,1.03,4.21,4.12,3.18,6.91c-0.96,2.6-3.71,4.01-6.33,3.36
				c-6.93-1.7-13.78-4.07-20.26-7.39c-6.41-3.4-12.44-7.56-17.94-12.34c-10.87-9.71-19.51-21.62-26.11-34.29
				c-6.71-12.67-11.51-26.09-15.21-39.72c-1.83-6.83-3.35-13.72-4.59-20.68c-1.22-7.08-2.22-13.72-2.75-21.53
				c-0.53-7.81,5.37-14.56,13.17-15.09s14.56,5.37,15.09,13.17c0.04,0.53,0.04,1.06,0.02,1.58L2685.97,2061.68z"/>
		</g>
		<g>
			<path class="st4" d="M2837.77,1911.3c-25.95,8.66-48.87,23.57-62.22,45.29c-13.41,21.5-17.22,49.03-11.14,75.04
				c5.79,26.08,20.55,50.56,41.5,68.25c20.94,17.79,48.23,28.2,77.12,30.02l0.03,0c2.97,0.19,5.23,2.75,5.04,5.72
				c-0.17,2.68-2.27,4.78-4.86,5.03c-15.47,1.51-31.38,0.25-46.86-3.54c-15.44-3.93-30.36-10.69-43.62-20
				c-26.66-18.52-46.56-46.74-55.5-78.63c-4.48-15.94-6.06-32.89-4.21-49.75c1.97-16.8,7.33-33.54,16.39-48.19
				c8.93-14.73,21.33-27.17,35.31-36.53c14.1-9.22,29.46-15.81,45.16-19.87c7.56-1.96,15.28,2.58,17.24,10.14
				c1.87,7.23-2.2,14.61-9.17,16.95L2837.77,1911.3z"/>
		</g>
		<g class="st3">
			<path class="st4" d="M2878.21,2240.59l-110.52,139.94c-34.85,44.15-86.1,73.14-142.14,77.6c-4.95,0.38-9.9,0.59-14.68,0.59
				h-10.59c-122.73,0.38-159.57-88.9-160.64-91.7c-0.05-0.05-0.05-0.05-0.05-0.05l-125.47-41.41
				c2.42-63.08,36.46-114.55,63.68-145.91c0.19-0.21,0.37-0.43,0.55-0.64c14.47-16.65,41.25-13.57,51.66,5.87
				c41.19,76.9,94.71,114.74,163.17,105.34l115.73-120.36c49.85-33.07,57.65-97.56,57.65-97.56
				c140.26,32.43,134.77-52.06,96.86-162.52l0.48,0.22C2994.21,1973.46,2977.7,2117.59,2878.21,2240.59z"/>
		</g>
		<g>
			<path class="st4" d="M1651.51,2029.06l91.82-135.61c2.5-3.69,7.52-4.66,11.21-2.16c3.52,2.38,4.55,7.07,2.48,10.7l-81.52,142.05
				c-3.89,6.78-12.54,9.12-19.32,5.23s-9.12-12.54-5.23-19.32C1651.12,2029.65,1651.32,2029.34,1651.51,2029.06z"/>
		</g>
		<g>
			<path class="st4" d="M1709.18,2747.58c6.61,8.79,15.55,17.45,24.87,24.64c2.26,1.92,4.67,3.68,7.14,5.36l7.23,5.23
				c5.09,3.15,10.05,6.44,15.22,9.43c20.75,11.84,42.98,21.12,65.83,28.42c22.75,7.69,46.48,12.23,69.93,17.67l35.72,6.35
				l36.15,4.32l0.38,0.04c5.87,0.67,10.49,4.87,12,10.22l27.51,98.15c2.11,7.52-2.28,15.32-9.8,17.43
				c-7.52,2.11-15.32-2.28-17.43-9.8l-27.51-98.15l12.38,10.27l-37.65-4.09c-12.52-1.82-25.04-3.82-37.52-6
				c-6.2-1.4-12.4-2.79-18.57-4.33c-6.17-1.53-12.37-2.88-18.42-4.99c-12.13-3.96-24.26-7.81-36.03-12.9
				c-11.94-4.48-23.4-10.34-34.87-15.94c-5.61-3.12-11.15-6.35-16.68-9.58c-5.43-3.42-10.7-7.13-16.03-10.67
				c-5.22-3.75-10.23-7.82-15.3-11.73c-4.78-4.36-9.79-8.35-14.18-13.14c-9.11-9.26-17.36-18.82-23.84-31.09
				c-1.38-2.61-0.38-5.85,2.23-7.23c2.36-1.25,5.23-0.55,6.78,1.51L1709.18,2747.58z"/>
		</g>
		<g>
			<path class="st4" d="M1543.52,3315.83l58.61,41.34c2.45,1.72,3.03,5.1,1.31,7.55c-1.46,2.07-4.12,2.81-6.38,1.93l-66.88-25.89
				c-7.34-2.84-10.98-11.09-8.14-18.43c2.84-7.34,11.09-10.98,18.43-8.14C1541.54,3314.6,1542.6,3315.19,1543.52,3315.83z"/>
		</g>
		<g>
			<path class="st4" d="M1723.12,3231.63c-72.3,0-151.16-17.5-197.98-56.21c-5.72-4.73-6.52-13.21-1.79-18.93
				c4.73-5.71,13.21-6.52,18.93-1.79c58.9,48.71,183.14,60.59,262.21,41.11c32.9-8.1,55.31-21.2,61.48-35.94
				c2.88-6.85,10.76-10.06,17.6-7.21c6.85,2.87,10.07,10.75,7.2,17.6c-9.78,23.34-37.39,41.21-79.85,51.66
				C1785.05,3228.29,1754.71,3231.63,1723.12,3231.63z"/>
		</g>
		<g>
			<path class="st4" d="M2262.64,3258.5c-69.39,0-143.22-14.96-183.94-47.76c-5.78-4.66-6.69-13.12-2.03-18.91
				c4.65-5.78,13.12-6.69,18.91-2.03c44.48,35.83,151.59,51.84,238.76,35.66c42.15-7.82,72.32-22.62,82.76-40.62
				c3.73-6.42,11.95-8.6,18.38-4.88c6.42,3.73,8.61,11.96,4.88,18.38c-18.71,32.24-65.31,46.92-101.11,53.56
				C2315.85,3256.24,2289.58,3258.5,2262.64,3258.5z"/>
		</g>
		<g>
			<path class="st4" d="M2432.04,3406.72c-3.17-1.71-7.57-3.82-11.66-5.45c-4.14-1.8-8.48-3.27-12.78-4.82
				c-4.37-1.37-8.75-2.77-13.2-3.96c-4.49-1.02-8.93-2.35-13.48-3.14c-18.11-3.65-36.78-5.28-55.39-4.18
				c-18.56,1.09-37.29,3.83-55.2,9.74c-9.17,2.34-17.76,6.34-26.59,9.81c-4.5,1.58-8.53,4.14-12.8,6.23l-12.69,6.59l-0.45,0.23
				c-2.63,1.36-5.87,0.34-7.24-2.29c-1.3-2.5-0.42-5.57,1.94-7.03l12.66-7.84c4.28-2.52,8.33-5.49,12.9-7.52
				c8.97-4.35,17.76-9.24,27.28-12.47c18.57-7.69,38.43-12.2,58.49-14.89c20.11-2.7,40.64-2.49,60.9,0.03
				c5.09,0.5,10.1,1.57,15.16,2.35c5.03,0.95,10.04,2.13,15.04,3.31c4.97,1.37,9.96,2.67,14.9,4.37c2.48,0.76,4.95,1.68,7.43,2.62
				c1.24,0.45,2.48,0.92,3.75,1.47c1.27,0.53,2.47,1.01,4.04,1.75c7.06,3.36,10.05,11.8,6.69,18.85
				c-3.36,7.06-11.8,10.05-18.85,6.69c-0.2-0.1-0.39-0.19-0.58-0.3L2432.04,3406.72z"/>
		</g>
		<g>
			<path class="st4" d="M1211.63,2050.69c-5.62,0-10.93-3.37-13.13-8.9c-2.9-7.26,0.63-15.48,7.89-18.37l1534.38-612.62
				c2.16-0.86,4.51-1.18,6.81-0.92l125.39,13.99c0.51,0.06,1.01,0.14,1.51,0.25c154.16,34.39,290.66,6.02,374.52-77.84
				c58.87-58.86,85.54-140.61,73.09-221.59l-231.05,102.97c-4.04,1.8-8.68,1.6-12.54-0.51l-127.72-69.91
				c-5.83-3.19-8.65-10.01-6.78-16.39l29.58-100.7c1.1-3.76,3.72-6.89,7.21-8.65l209.12-105.13v-50.39
				c-96.72-68.93-200.11-90.96-299.37-63.71c-114.69,31.49-216.33,128.39-271.9,259.21c-1.4,3.29-3.99,5.93-7.26,7.39
				l-1541.54,686.59c-7.15,3.17-15.49-0.03-18.67-7.17c-3.18-7.13,0.03-15.49,7.16-18.67l1536.49-684.35
				c59.4-136.1,166.81-236.94,288.23-270.28c109.87-30.17,223.77-5.15,329.36,72.36c3.63,2.66,5.78,6.9,5.78,11.4v66.33
				c0,5.34-3.01,10.23-7.79,12.63L2998.95,1054l-24.64,83.89l111.6,61.08l240.99-107.4c3.89-1.73,8.33-1.62,12.11,0.28
				c3.79,1.91,6.52,5.42,7.45,9.56c21.4,95.95-7.56,194.97-77.47,264.86c-90.71,90.7-236.44,121.89-399.92,85.62l-121.11-13.51
				l-1531.08,611.3C1215.15,2050.37,1213.37,2050.69,1211.63,2050.69z"/>
		</g>
		<g>
			<path class="st5" d="M2871.38,1437.92l-125.36-13.98l-1534.4,612.61l-147.57-284.01l1541.55-686.61
				c100.14-235.72,351.72-378.23,598.41-197.16v66.31l-216.9,109.07l-29.58,100.68l127.73,69.91l247.39-110.25
				C3377.02,1303.47,3196.85,1510.52,2871.38,1437.92z"/>
		</g>
		<g class="st3">
			<path class="st4" d="M2871.38,1437.92l-125.36-13.98l-1534.4,612.61l-147.57-284.01l45.39-20.22l102.18,196.67l1534.4-612.61
				l125.36,13.98c262.93,58.67,431.05-65.18,462.51-219.85C3373.36,1307.61,3193.57,1509.77,2871.38,1437.92z"/>
		</g>
		<g class="st6">
			<path class="st2" d="M2625.76,1091.47l-1541.55,686.61l133.11,256.21l-5.7,2.26l-147.57-284.01l1541.55-686.61
				c100.14-235.72,351.72-378.23,598.41-197.16v11.46C2963.88,721.09,2723.16,862.15,2625.76,1091.47z"/>
		</g>
		<g class="st6">
			<path class="st2" d="M3337.87,1136.7l-232.44,103.58l-127.73-69.91l3.66-12.48l103.9,56.85l247.39-110.25
				C3335.02,1115.19,3336.79,1125.94,3337.87,1136.7z"/>
		</g>
		<g>
			<path class="st4" d="M1211.63,2050.69c-5.62,0-10.93-3.37-13.13-8.9c-2.9-7.26,0.63-15.48,7.89-18.37l1534.38-612.62
				c2.16-0.86,4.51-1.18,6.81-0.92l125.39,13.99c0.51,0.06,1.01,0.14,1.51,0.25c154.16,34.39,290.66,6.02,374.52-77.84
				c58.87-58.86,85.54-140.61,73.09-221.59l-231.05,102.97c-4.04,1.8-8.68,1.6-12.54-0.51l-127.72-69.91
				c-5.83-3.19-8.65-10.01-6.78-16.39l29.58-100.7c1.1-3.76,3.72-6.89,7.21-8.65l209.12-105.13v-50.39
				c-96.72-68.93-200.11-90.96-299.37-63.71c-114.69,31.49-216.33,128.39-271.9,259.21c-1.4,3.29-3.99,5.93-7.26,7.39
				l-1541.54,686.59c-7.15,3.17-15.49-0.03-18.67-7.17c-3.18-7.13,0.03-15.49,7.16-18.67l1536.49-684.35
				c59.4-136.1,166.81-236.94,288.23-270.28c109.87-30.17,223.77-5.15,329.36,72.36c3.63,2.66,5.78,6.9,5.78,11.4v66.33
				c0,5.34-3.01,10.23-7.79,12.63L2998.95,1054l-24.64,83.89l111.6,61.08l240.99-107.4c3.89-1.73,8.33-1.62,12.11,0.28
				c3.79,1.91,6.52,5.42,7.45,9.56c21.4,95.95-7.56,194.97-77.47,264.86c-90.71,90.7-236.44,121.89-399.92,85.62l-121.11-13.51
				l-1531.08,611.3C1215.15,2050.37,1213.37,2050.69,1211.63,2050.69z"/>
		</g>
		<g>
			<path class="st4" d="M2957.52,1158.96c-2.05,0-4.12-0.45-6.09-1.39l-41.01-19.6c-6.2-2.96-9.38-9.96-7.51-16.58l40.82-145.32
				c1.13-4.03,3.99-7.35,7.8-9.07l246.68-111.15c7.15-3.21,15.5-0.03,18.7,7.08c3.21,7.12,0.04,15.49-7.08,18.7l-240.67,108.43
				l-35.81,127.52l30.28,14.47c7.05,3.37,10.02,11.81,6.66,18.86C2967.87,1156,2962.8,1158.96,2957.52,1158.96z"/>
		</g>
		<g class="st6">
			<path class="st2" d="M1982.61,1648.58l-626.65,248.89c-28.18,11.19-60.18-1.83-72.55-29.47c-4.14-9.3-5.59-19.09-4.62-28.56
				c15.17,18.66,41.2,26.08,64.64,16.78l613.15-243.57L1982.61,1648.58z"/>
		</g>
		<g class="st3">
			<polygon class="st4" points="3204.01,868.77 3204.01,935.08 2987.11,1044.14 2957.53,1144.82 2916.5,1125.24 2957.32,979.87 			
				"/>
		</g>
		<g>
			<path class="st4" d="M1322.45,1879.08c-26.82,0-52.2-15.5-63.82-41.48l0,0c-7.75-17.31-8.19-36.57-1.25-54.22
				c6.94-17.65,20.38-31.45,37.85-38.86l592.14-250.96c5.76-2.45,12.45-0.58,16.13,4.48l77.44,106.76
				c2.44,3.36,3.18,7.66,2.03,11.65c-1.16,3.98-4.09,7.21-7.95,8.75l-626.61,248.88
				C1339.88,1877.47,1331.09,1879.08,1322.45,1879.08z M1888,1522.49l-582.29,246.78c-10.76,4.56-19.04,13.06-23.32,23.94
				c-4.27,10.87-4,22.73,0.77,33.4c0,0,0,0,0,0c9.46,21.16,33.74,31.04,55.3,22.48l610.53-242.5L1888,1522.49z"/>
		</g>
		<g class="st3">
			<path class="st4" d="M1970.02,1612.7l-5.16,2.04l-52.92-72.93l-592.17,250.94c-23.93,10.16-37.16,34.8-33.99,59.27
				c-6.18-5.27-11.35-11.99-14.9-19.9c-12.91-28.93,0.43-62.87,29.58-75.24l592.12-250.94L1970.02,1612.7z"/>
		</g>
		<g>
			<path class="st5" d="M678.16,2245.52c232.36,202.27,698.56-13.23,474.05-395.02c-61.45-104.51-176.07-167.96-297.07-160.47
				c-150.63,9.33-302.99,104.19-285.07,310.27c0.8,9.17,10.83,14.46,18.91,10.05c51.29-27.97,203.91-100.06,203.91-100.06
				l154.17,53.78l-25.1,139.83L678.16,2245.52z"/>
		</g>
		<g class="st3">
			<path class="st4" d="M796.92,1917.44c0,0-152.63,72.12-203.93,100.08c-8.07,4.41-18.07-0.86-18.88-10.06
				c-1.72-19.74-1.88-38.45-0.65-56.15c51.02-25.41,151.87-68.9,192.69-86.35c11.45-4.89,24.26-5.46,36.09-1.6l129.41,42.19
				c24.87,8.11,33.05,39.19,15.4,58.5l0,0L796.92,1917.44z"/>
		</g>
		<g class="st3">
			<path class="st4" d="M691.08,2256.18c242.71,102.56,592.01-105.73,391.79-446.27c-21.89-37.27-50.55-69.27-83.79-94.71
				c63.03,27,117.19,74.11,153.11,135.31C1372.64,2225.37,927.23,2439.9,691.08,2256.18z"/>
		</g>
		<g class="st6">
			<path class="st2" d="M606.75,2000.94c-6.78,3.5-12.75,6.67-17.8,9.41c-8.07,4.41-18.07-0.86-18.88-10.06
				c-17.91-206.09,134.45-300.95,285.03-310.26c53.78-3.33,106.27,7.31,153.38,29.36c-36.79-11.89-75.88-17.1-115.73-14.63
				C745.67,1713.92,596.86,1804.65,606.75,2000.94z"/>
		</g>
		<g class="st6">
			<path class="st2" d="M946.8,1965.61L946.8,1965.61c21.84,7.62,34.91,29.99,30.82,52.75l-18.02,100.3l-243.79,141.6
				c22.05,19.2,46.14,34.58,71.58,46.47c-39.31-12.58-76.58-32.75-109.23-61.2l243.79-141.66L946.8,1965.61z"/>
		</g>
		<g>
			<path class="st4" d="M893.08,2337.13c-84.71,0-164.06-28.59-224.21-80.95c-3.44-2.99-5.22-7.47-4.79-12.01
				c0.43-4.54,3.03-8.59,6.97-10.88l238.15-138.33l21.81-121.51l-137.3-47.9c-27.21,12.9-152.94,72.67-197.96,97.22
				c-8.03,4.38-17.63,4.41-25.7,0.08c-8.02-4.3-13.28-12.27-14.06-21.32c-7.64-87.89,13.57-161.57,63.05-219.01
				c53.22-61.78,138.96-100.63,235.23-106.6c126-7.81,244.82,56.34,310.13,167.41c94.05,159.95,79.19,314.41-39.75,413.19
				c-59.55,49.45-141.06,78.8-223.65,80.53C898.36,2337.11,895.71,2337.13,893.08,2337.13z M702.96,2247.46
				c125.93,95.33,304.57,69.55,403.62-12.7c108.96-90.49,121.15-227.93,33.44-377.1c-58.97-100.3-170.39-160.51-284.01-153.52
				c-88.72,5.5-167.29,40.79-215.56,96.83c-43.92,50.99-62.92,116.93-56.47,196.01c52.6-28.45,196.69-96.56,202.87-99.48
				c3.36-1.58,7.19-1.78,10.7-0.56l154.17,53.78c6.56,2.29,10.49,9.01,9.26,15.85l-25.1,139.83c-0.73,4.08-3.22,7.64-6.81,9.73
				L702.96,2247.46z"/>
		</g>
		<g>
			<g>
				<path class="st2" d="M1521.66,1548.72c53.95-24.03,18.82-107.08-33.21-75.84c-27.48,11.31-56.73,13.66-87.39,8.96
					c-132.21-15.89-193.43,106.37-168.13,195.48l45.56-20.29c62.07,51.58,197.32-10.11,191.73-85.4
					C1470.21,1571.63,1526.23,1546.68,1521.66,1548.72z"/>
			</g>
			<g class="st3">
				<path class="st4" d="M1521.93,1548.6c-0.05,0-0.16,0.05-0.22,0.11c-0.22,0.05-51.52,22.91-51.52,22.91
					c5.59,75.29-129.66,136.98-191.73,85.4l-45.55,20.28c-4.41-15.54-6.19-32.11-5.43-48.78l30.92-13.77
					c62.06,51.57,197.32-10.11,191.73-85.4c0,0,51.31-22.86,51.52-22.91c0.16-0.11,0.22-0.11,0.22-0.11
					c17.1-7.74,25.22-21.51,26.51-35.6C1553.44,1485.68,1559.57,1531.55,1521.93,1548.6z"/>
			</g>
			<g>
				<path class="st4" d="M1232.92,1691.46c-2.05,0-4.09-0.44-5.99-1.33c-3.72-1.74-6.49-5-7.61-8.95
					c-15.32-53.95-1.42-116.67,35.41-159.79c35.65-41.75,88.2-60.79,148.01-53.59c29.63,4.54,55.47,2.01,79.41-7.63
					c18.3-10.59,37.87-11.1,53.85-1.37c17.34,10.56,28.07,32.18,26.68,53.79c-1.39,21.73-14.16,39.55-35.03,48.94l0,0
					c-0.02,0.01-0.05,0.02-0.07,0.03c-0.05,0.02-0.11,0.05-0.17,0.08v0c-0.54,0.23-1.08,0.42-1.64,0.58
					c-2.04,1.06-4.16,2.01-6.18,2.91l-35.23,15.69c-2.22,34.51-28.26,68.22-70.21,89.83c-40.89,21.07-97.84,29.25-137.48,2.67
					l-38,16.92C1236.85,1691.05,1234.88,1691.46,1232.92,1691.46z M1278.48,1642.89c3.24,0,6.45,1.12,9.04,3.27
					c29.71,24.69,78.51,17.47,113.68-0.66c28.08-14.47,57.26-41.2,54.91-72.82c-0.44-5.95,2.9-11.53,8.35-13.96
					c0,0,46.88-20.88,51.35-22.87c0.03-0.01,0.06-0.03,0.09-0.04c14.42-6.43,18.05-17.15,18.55-25.02
					c0.72-11.23-4.69-22.67-13.16-27.83c-7.3-4.45-15.9-3.76-25.58,2.05c-0.61,0.37-1.24,0.69-1.89,0.95
					c-28.69,11.8-60.62,15.12-94.92,9.86c-63.75-7.67-101.94,19.66-122.68,43.94c-27.24,31.89-39.52,76.53-33.21,117.59l29.71-13.23
					C1274.58,1643.29,1276.53,1642.89,1278.48,1642.89z"/>
			</g>
			<g>
				<path class="st4" d="M1266.68,1664.82l-13.09-35.71c-1.05-2.87,0.42-6.04,3.29-7.09c2.03-0.74,4.21-0.22,5.69,1.16l27.71,26.05
					c5.85,5.5,6.13,14.69,0.63,20.54c-5.5,5.85-14.69,6.13-20.54,0.63C1268.68,1668.82,1267.44,1666.86,1266.68,1664.82z"/>
			</g>
			<g>
				<path class="st4" d="M1456.21,1573.61l2.7-43.51c0.19-3.02,2.79-5.33,5.82-5.14c2.26,0.14,4.11,1.63,4.83,3.64l14.65,41.06
					c2.68,7.51-1.24,15.77-8.75,18.44c-7.51,2.68-15.77-1.24-18.44-8.74C1456.36,1577.48,1456.11,1575.48,1456.21,1573.61z"/>
			</g>
		</g>
		<g>
			<path class="st2" d="M2269.15,2256.67l-63.08,252.28c-8.01,32.11-30.17,59.53-60.99,71.58c-15.38,6.02-31.46,7.91-48.03,6.94
				c-26.19-6.02-52.06-12.1-77.55-18.34c-154.46-37.54-295.74-78.95-413.46-127.24c-24.58-10.06-39.96-34.74-38.29-61.2
				c1.61-25.65,4.25-51.09,7.91-76.37c12.32-84.65,36.3-167.04,72.6-247.17c11.83-26.03,40.07-40.39,68.09-35.06
				c152.14,28.93,298.16,63.57,435.89,105.73h0.05c7.05,2.15,14.09,4.36,21.14,6.56c11.08,4.14,20.92,8.01,29.74,11.83h0.05
				c47.43,20.44,63.94,37.22,68.46,67.76C2273.83,2228.16,2272.64,2242.74,2269.15,2256.67z"/>
		</g>
		<g>
			<ellipse class="st7" cx="2006.83" cy="2232.21" rx="56.78" ry="60.05"/>
		</g>
		<g class="st8">
			<path class="st2" d="M1965.05,2257.21c0-33.17,25.42-60.05,56.78-60.05c15.11,0,28.8,6.28,38.97,16.46
				c-7.41-24.06-28.75-41.46-53.97-41.46c-31.36,0-56.78,26.89-56.78,60.05c0,17.19,6.87,32.65,17.81,43.6
				C1966.05,2269.95,1965.05,2263.71,1965.05,2257.21z"/>
		</g>
		<g class="st3">
			<path class="st4" d="M2269.15,2256.67l-13.45,53.78l-4.3-1.13c-11.62-3.01-23.55,2.96-28.34,13.93
				c-14.95,34.37-22.53,71.9-24.58,111.7c-0.59,11.89,7.74,22.43,19.41,24.79l0.43,0.11l-12.26,49.1
				c-8.01,32.11-30.17,59.53-60.99,71.58c-15.38,6.02-31.46,7.91-48.03,6.94c-26.19-6.02-52.06-12.1-77.55-18.34
				c-154.46-37.54-295.74-78.95-413.46-127.24c-24.58-10.06-39.96-34.74-38.29-61.2c1.61-25.65,4.25-51.09,7.91-76.37
				c158.49,184.63,525.75,105.36,607.66-150.21l19.84-7.91h0.05c47.43,20.44,63.94,37.22,68.46,67.76
				C2273.83,2228.16,2272.64,2242.74,2269.15,2256.67z"/>
		</g>
		<g>
			<path class="st4" d="M2105.26,2602.71c-2.98,0-6.01-0.09-9.08-0.27c-0.83-0.05-1.67-0.17-2.48-0.36
				c-211.41-48.5-368.17-95-493.34-146.33c-30.53-12.49-49.65-43.04-47.57-76.02c7.16-114.23,34.68-224.85,81.82-328.79
				c14.7-32.35,49.48-50.27,84.55-43.6c170.31,32.4,320.37,69.27,458.76,112.71c0.26,0.08,0.52,0.17,0.77,0.26
				c69.02,25.87,100.97,45.22,107.83,91.44c2.34,15.43,1.4,31.78-2.81,48.54l-13.45,53.78c-0.97,3.89-3.46,7.23-6.91,9.27
				c-3.46,2.05-7.59,2.62-11.46,1.6l-4.3-1.13c-4.35-1.14-8.91,1.15-10.78,5.42c-13.63,31.35-21.27,66.18-23.34,106.47
				c-0.22,4.4,2.97,8.42,7.42,9.32c0.22,0.04,0.44,0.1,0.65,0.15c8.04,2.01,13.35,10.25,11.34,18.29l-12.26,49.1
				c-9.44,37.83-35.64,68.46-70.08,81.92C2136.48,2600,2121.59,2602.71,2105.26,2602.71z M2099.15,2572.56
				c15.05,0.72,28.28-1.23,40.46-6c25.41-9.93,44.81-32.83,51.9-61.25l9.2-36.84c-10.97-7.49-17.9-20.41-17.21-34.28
				c2.23-43.36,10.91-82.7,25.8-116.94c6.32-14.48,20.17-23.43,35.17-23.73l10.13-40.5c0,0,0-0.01,0-0.01
				c3.24-12.9,3.99-25.28,2.25-36.8c-4.01-26.96-17.97-41.25-88.31-67.66c-137.16-43.04-286.01-79.59-455-111.74
				c-21.47-4.09-42.68,6.83-51.63,26.53c-45.62,100.6-72.27,207.69-79.19,318.27c-1.26,20.13,10.39,38.76,29,46.38
				C1733.42,2477.9,1892.86,2525.19,2099.15,2572.56z"/>
		</g>
		<g class="st3">
			<path class="st4" d="M2501.59,2453.93c-5.49,20.76-15.22,39.69-28.99,56.9l-254.7-51.09c-11.67-2.37-20.01-12.91-19.41-24.79
				c2.04-39.8,9.63-77.34,24.58-111.7c1.56-3.55,3.87-6.61,6.72-8.98c-7.1,24.74-11.08,50.82-12.48,77.98
				c-0.59,11.89,7.74,22.43,19.41,24.74l254.7,51.14C2495.08,2463.51,2498.52,2458.77,2501.59,2453.93z"/>
		</g>
		<g>
			<path class="st4" d="M1852.5,2540c-1.1,0-2.22-0.15-3.33-0.45c-6.65-1.84-10.56-8.73-8.72-15.38l39.11-141.56
				c6.88-25.3,0.28-51.88-17.67-71.06l-44.28-47.34c-18.26-19.53-25.46-46.71-19.25-72.72l34.86-146.04
				c1.61-6.72,8.37-10.87,15.06-9.26c6.72,1.6,10.86,8.34,9.26,15.06l-34.86,146.04c-4.25,17.83,0.68,36.46,13.2,49.84l44.28,47.34
				c23.9,25.56,32.7,60.98,23.52,94.75l-39.12,141.61C1863.02,2536.37,1857.99,2540,1852.5,2540z"/>
		</g>
		<g>
			<path class="st4" d="M2030.13,2580.59c-3.95,0-7.95-0.25-12-0.77c-5.89-0.75-10.06-6.13-9.31-12.03
				c0.75-5.89,6.17-10.06,12.03-9.31c9.82,1.26,19.21,0.54,27.91-2.11c17.8-5.43,32.37-19.92,38.97-38.75
				c38.24-109.15,66.65-223.94,84.43-341.18c2.54-16.8-7.29-32.97-23.38-38.46c-5.62-1.91-8.63-8.03-6.71-13.65
				c1.91-5.62,8.02-8.62,13.65-6.71c25.96,8.84,41.82,34.93,37.71,62.04c-17.98,118.56-46.71,234.65-85.4,345.06
				c-8.86,25.28-28.67,44.8-53,52.22C2047.06,2579.38,2038.73,2580.59,2030.13,2580.59z"/>
		</g>
		<g>
			<path class="st4" d="M2006.83,2304.76c-38.2,0-69.28-32.55-69.28-72.55s31.08-72.55,69.28-72.55c38.2,0,69.28,32.55,69.28,72.55
				S2045.03,2304.76,2006.83,2304.76z M2006.83,2184.66c-24.42,0-44.28,21.33-44.28,47.55s19.86,47.55,44.28,47.55
				c24.41,0,44.28-21.33,44.28-47.55S2031.25,2184.66,2006.83,2184.66z"/>
		</g>
		<g class="st3">
			<path class="st4" d="M1733.98,1923.61l-70.51,97.4l-42.86,92.45c0,0,0,0-0.05,0.05c-236.63,55.99-290.47-62.49-302.57-112.45
				l152.2-77.44C1473.74,2047.14,1579.96,2020.41,1733.98,1923.61z"/>
		</g>
		<g class="st3">
			<path class="st4" d="M2011,2989.47c0,0-0.11,1.56-0.38,4.41l-13.07-32.64c-48.51,37.75-81.69,102.5-110.41,175.05
				c-8.82,22.27-13.23,46.04-13.12,69.97l1.18,261.85c-5.97,44.96-35.06,62.06-74.86,66.31h-319.08
				c-129.18-13.88-114.39-154.35-19.74-195.76c1.24,2.04,2.47,4.19,3.6,6.4c96.8,186.24,282.35,74.65,268.85-127.14
				c-13.5-201.73,33.24-411.9,33.24-411.9l118.75,44.96l84.06,21.51L2011,2989.47z"/>
		</g>
		<g>
			<path class="st4" d="M2579.78,2601.89c-40.25,0-89.45-8.35-121.37-42.79c-5.31-5.72-4.97-14.67,0.76-19.98
				c5.73-5.3,14.67-4.97,19.98,0.76c49.4,53.31,160.68,27.39,161.81,27.12c7.57-1.85,15.22,2.85,17.05,10.44
				s-2.84,15.22-10.42,17.05C2645.11,2595.09,2616.08,2601.89,2579.78,2601.89z"/>
		</g>
		<g>
			<g>
				<path class="st2" d="M1495.11,1333.52c15.02,114.95,59.2,226.83,132.34,324.19c14.93,19.85,30.98,39.06,48.25,57.57
					c8.38,9.03,17.13,17.89,26.12,26.65c27.21,26.26,56.01,49.89,86.14,70.92c25.92,18.19,52.85,34.4,80.46,48.7
					c33.34,17.28,67.78,31.69,102.93,43.32c12.83,4.2,25.73,8.05,38.71,11.56c237.58,63.68,501.45,2.51,685.1-182.75
					c270.58-272.86,264.5-711.56-13.47-979.88c-53.57-51.64-113.33-93.33-176.85-124.77c-7.39-3.74-14.92-7.29-22.51-10.68
					c-20.24-9.19-40.81-17.39-61.64-24.57c-48.18-16.59-97.81-27.83-147.84-33.76c-50.01-5.98-100.57-6.64-150.59-1.99
					c-15.9,1.47-31.76,3.45-47.58,6.01c-23.7,3.84-47.21,8.82-70.54,15.11c-116.18,30.98-225.66,91.98-315.78,182.9
					C1532.7,919.01,1468.63,1130.82,1495.11,1333.52z"/>
				<path class="st4" d="M2194.69,1942.58c-61.7,0-123.93-7.99-185.11-24.38c-12.98-3.51-26.03-7.41-38.8-11.58
					c-35.62-11.79-70.34-26.4-103.2-43.44c-28.1-14.55-55.23-30.97-80.67-48.82c-30.41-21.23-59.46-45.15-86.35-71.1
					c-9.88-9.64-18.45-18.38-26.19-26.73c-16.98-18.19-33.26-37.6-48.37-57.71c-71.45-95.1-117.33-207.5-132.69-325.05
					c-27.71-212.05,42.91-420.89,193.75-572.98c87.22-87.99,196.7-151.4,316.61-183.37c22.72-6.13,46.52-11.22,70.71-15.14
					c15.55-2.51,31.6-4.54,47.71-6.03c50.15-4.65,100.94-3.98,150.97,2c50.51,5.98,100.38,17.37,148.22,33.84
					c20.83,7.18,41.62,15.47,61.8,24.63c8.1,3.61,15.49,7.12,22.58,10.71c64.81,32.08,124.47,74.17,177.29,125.08
					c135.33,130.63,210.99,305.18,213.02,491.49c2.02,184.83-68.84,359.2-199.53,490.98
					C2563.09,1869.5,2381.3,1942.58,2194.69,1942.58z M2188.12,556.82c-21.94,0-43.88,1.01-65.7,3.04
					c-16.03,1.48-31.99,3.49-47.46,5.99c-24.07,3.9-47.74,8.97-70.35,15.07c-119.29,31.81-228.2,94.89-314.97,182.42
					c-150.04,151.29-220.29,359.02-192.72,569.94c15.28,116.93,60.92,228.74,131.99,323.34c15.04,20,31.24,39.32,48.13,57.42
					c7.71,8.31,16.23,17,26.05,26.59c26.75,25.81,55.65,49.61,85.9,70.74c25.31,17.76,52.31,34.1,80.26,48.57
					c32.69,16.95,67.23,31.49,102.66,43.21c12.7,4.16,25.69,8.03,38.61,11.53c244.99,65.66,506.8-4.19,683.33-182.28
					c130-131.09,200.48-304.53,198.47-488.38c-2.03-185.32-77.28-358.96-211.91-488.91c-52.55-50.65-111.9-92.52-176.4-124.45
					c-7.05-3.57-14.39-7.05-22.45-10.65c-20.09-9.12-40.77-17.37-61.49-24.51c-47.59-16.39-97.2-27.72-147.46-33.67
					C2244.62,558.5,2216.36,556.82,2188.12,556.82z"/>
			</g>
			<g class="st3">
				<path class="st4" d="M2695.15,1733.67c-183.63,185.3-447.54,246.46-685.11,182.75c-12.98-3.49-25.87-7.34-38.68-11.54
					c-35.16-11.62-69.59-26.05-102.93-43.31c-27.6-14.32-54.56-30.52-80.46-48.69c-30.15-21.03-58.93-44.66-86.17-70.93
					c-8.95-8.79-17.71-17.62-26.12-26.64c-17.27-18.52-33.29-37.77-48.23-57.6c-73.14-97.36-117.34-209.22-132.35-324.2
					c-8.26-63.15-7.73-127.23,1.63-190.23c16.87,109.39,60.31,215.46,130.08,308.35c14.9,19.88,30.96,39.08,48.23,57.6
					c8.36,9.02,17.13,17.85,26.12,26.64c27.24,26.27,56.02,49.9,86.12,70.93c25.95,18.17,52.85,34.37,80.46,48.69
					c33.34,17.25,67.82,31.69,102.93,43.31c12.85,4.2,25.75,8.05,38.73,11.54c237.57,63.71,501.43,2.55,685.11-182.75
					c107.18-108.06,170.9-242.16,191.55-381.34C2918.19,1353.78,2854.88,1572.63,2695.15,1733.67z"/>
			</g>
			<g>
				<path class="st4" d="M2194.67,1954.78c-62.76,0-126.02-8.12-188.25-24.8c-13.21-3.57-26.47-7.53-39.44-11.77
					c-36.27-12-71.59-26.87-105.02-44.2c-28.57-14.8-56.19-31.51-82.07-49.67c-30.91-21.58-60.46-45.91-87.81-72.31
					c-10.07-9.82-18.78-18.71-26.67-27.21c-17.24-18.47-33.8-38.22-49.17-58.67c-72.71-96.78-119.4-211.18-135.04-330.81l0,0
					c-28.2-215.81,43.67-428.36,197.19-583.15c88.74-89.52,200.13-154.04,322.13-186.57c23.09-6.23,47.3-11.41,71.9-15.4
					c15.83-2.56,32.15-4.62,48.54-6.13c50.99-4.74,102.66-4.05,153.54,2.03c51.36,6.08,102.08,17.67,150.74,34.42
					c21.19,7.31,42.34,15.74,62.87,25.06c8.21,3.66,15.78,7.25,23.05,10.94c65.83,32.58,126.52,75.39,180.24,127.18
					c137.71,132.92,214.68,310.54,216.76,500.14c2.06,188.12-70.06,365.59-203.07,499.7
					C2569.44,1880.42,2384.49,1954.77,2194.67,1954.78z M2188.12,569.03c-21.57,0-43.13,1-64.57,2.99
					c-15.76,1.45-31.45,3.44-46.64,5.89c-23.66,3.84-46.91,8.82-69.12,14.8c-117.24,31.26-224.24,93.23-309.48,179.23
					c-147.37,148.59-216.36,352.62-189.29,559.78l0,0c15,114.85,59.83,224.67,129.64,317.59c14.78,19.66,30.69,38.64,47.29,56.42
					c7.59,8.19,15.98,16.74,25.66,26.18c26.24,25.32,54.64,48.71,84.37,69.47c24.88,17.46,51.42,33.52,78.88,47.74
					c32.12,16.65,66.06,30.94,100.88,42.46c12.46,4.08,25.25,7.9,37.96,11.34c240.7,64.51,498.03-4.1,671.47-179.09
					c127.68-128.75,196.91-299.09,194.94-479.65c-1.99-182.04-75.92-352.6-208.18-480.26c-51.64-49.78-109.96-90.92-173.33-122.29
					c-6.97-3.54-14.13-6.93-22-10.44c-19.81-9-40.14-17.1-60.49-24.12c-46.77-16.1-95.53-27.24-144.92-33.09
					C2243.65,570.67,2215.88,569.03,2188.12,569.03z"/>
			</g>
			<g>
				<path class="st4" d="M2194.67,1958.85c-63.11,0-126.72-8.16-189.3-24.94c-13.29-3.59-26.62-7.57-39.65-11.84
					c-36.49-12.08-72.01-27.03-105.62-44.46c-28.73-14.88-56.5-31.68-82.53-49.95c-31.07-21.69-60.8-46.17-88.31-72.71
					c-10.14-9.89-18.89-18.82-26.82-27.37c-17.33-18.57-33.98-38.43-49.45-59c-73.13-97.34-120.09-212.4-135.82-332.72l0,0
					c-28.36-217.07,43.93-430.85,198.33-586.55c89.24-90.03,201.27-154.92,323.96-187.63c23.22-6.26,47.56-11.47,72.3-15.49
					c15.92-2.57,32.33-4.65,48.81-6.16c51.27-4.77,103.22-4.07,154.39,2.04c51.65,6.12,102.65,17.77,151.58,34.61
					c21.31,7.35,42.58,15.83,63.23,25.21c8.25,3.68,15.88,7.3,23.21,11.01c66.18,32.75,127.2,75.8,181.23,127.88
					c138.5,133.69,215.92,312.33,218,503.02c2.07,189.22-70.47,367.71-204.24,502.61
					C2571.56,1884.06,2385.56,1958.84,2194.67,1958.85z M2188.12,573.09c-21.45,0-42.88,0.99-64.19,2.97
					c-15.67,1.45-31.27,3.42-46.37,5.85c-23.52,3.81-46.64,8.76-68.72,14.71c-116.55,31.08-222.91,92.68-307.65,178.16
					c-146.48,147.69-215.05,350.49-188.14,556.38l0,0c14.91,114.15,59.47,223.31,128.86,315.67c14.69,19.54,30.51,38.41,47.01,56.09
					c7.55,8.15,15.89,16.65,25.53,26.05c26.07,25.16,54.31,48.41,83.86,69.05c24.74,17.36,51.12,33.33,78.42,47.46
					c31.94,16.56,65.68,30.76,100.29,42.22c12.38,4.05,25.1,7.85,37.74,11.27c59.46,15.94,119.97,23.7,179.93,23.7
					c181.37,0.01,358.01-71,487.6-201.73c126.91-127.97,195.72-297.29,193.75-476.75c-1.98-180.94-75.47-350.48-206.94-477.38
					c-51.34-49.48-109.32-90.39-172.31-121.57c-6.95-3.52-14.05-6.89-21.86-10.37c-19.73-8.96-39.93-17.01-60.17-23.99
					c-46.49-16.01-94.97-27.08-144.07-32.9C2243.33,574.73,2215.72,573.09,2188.12,573.09z"/>
			</g>
			<g>
				<path class="st4" d="M1540.84,1505.49c280.48,412.17,876.56,425.24,1082.74-20.04c140.27-302.94-52.84-673.85-357.14-789.63
					c-221.47-84.26-474.55-71.15-699.32,231.48c0,0-78.44,149.24-76.18,269.6c2.26,120.37,25.05,237.16,25.05,237.16
					L1540.84,1505.49z"/>
			</g>
			<g>
				<path class="st9" d="M2623.57,1485.45c-206.16,445.27-802.26,432.19-1082.74,20.05l-5.02-14.49
					c393.4,237.13,911.95,150.44,1128.92-295.9C2678.42,1292.01,2666.84,1391.96,2623.57,1485.45z"/>
			</g>
			<g>
				<path class="st4" d="M2111.08,1904.92c-111.33,0-224.97-26.03-330.3-77.35l-2.2-1.29c-31.04-21.67-60.69-46.08-88.13-72.57
					c-10.11-9.86-18.84-18.77-26.75-27.3c-17.3-18.53-33.91-38.34-49.34-58.86c-72.95-97.1-119.8-211.89-135.49-331.91l0,0
					c-28.3-216.54,43.82-429.8,197.85-585.11c89.03-89.82,200.79-154.55,323.19-187.18l1.63-0.43l1.68-0.09
					c92.29-5.19,190.59,11.78,292.03,50.37c182.52,69.44,337.12,222.95,413.55,410.63c68.81,168.95,67.71,346.21-3.11,499.12
					c-77.11,166.5-204.7,285.4-368.96,343.84C2265.04,1892.29,2188.62,1904.92,2111.08,1904.92z M1796.28,1798.7
					c170.55,82.72,363.46,96.31,529.48,37.23c155.79-55.43,276.89-168.42,350.23-326.76c66.95-144.58,67.84-312.57,2.5-473.02
					c-73.08-179.42-220.69-326.1-394.87-392.38c-96.49-36.71-189.67-52.97-276.88-48.37c-116.16,31.28-222.2,92.86-306.75,178.17
					c-146.86,148.07-215.61,351.39-188.63,557.82l0,0c14.95,114.45,59.62,223.88,129.19,316.48c14.73,19.59,30.59,38.51,47.13,56.23
					c7.57,8.16,15.93,16.69,25.58,26.1C1739.09,1755.15,1767.04,1778.2,1796.28,1798.7z"/>
			</g>
			<g>
				<path class="st4" d="M2106.65,1835.15c-225.6,0-444.43-119.16-580.76-319.48l-1.34-1.98l-26.29-76.16
					c-0.94-4.83-23.12-119.73-25.39-240.28c-2.32-123.59,74.97-272.09,78.26-278.36l1.49-2.37
					c196.6-264.71,438.95-344.65,720.27-237.6c163.28,62.12,301.58,199.42,369.95,367.27c61.59,151.22,60.59,309.92-2.82,446.87
					c-91.91,198.49-267.29,322.4-481.17,339.96C2141.43,1834.45,2124.01,1835.15,2106.65,1835.15z M1557.14,1497.28
					c139.63,203.78,368.86,318.55,598.74,299.68c200.53-16.47,365.02-132.78,451.3-319.1c59.15-127.74,59.91-276.2,2.15-418.02
					c-64.65-158.73-195.23-288.49-349.3-347.11c-263.95-100.42-491.88-24.99-677.49,224.18c-7.25,14.19-75.54,150.94-73.5,259.65
					c2.08,110.81,22.09,220.08,24.49,232.81L1557.14,1497.28z"/>
			</g>
			<g>
				<path class="st2" d="M2925.34,1569.12c-41.86,130.08-154.94,214.35-252.58,188.2c-97.64-26.15-142.85-152.81-100.99-282.89
					c0.25-0.82,0.55-1.68,0.84-2.49c42.47-128.67,154.79-211.69,251.74-185.71c75.43,20.2,119.57,100.38,116.46,195.77
					C2939.88,1510.09,2934.86,1539.54,2925.34,1569.12z"/>
				<path class="st4" d="M2709.05,1765.5c-12.53,0-24.98-1.57-37.19-4.84c-39.07-10.47-71.01-36.7-92.34-75.87
					c-31.13-57.13-35.25-136.16-11.04-211.41c0.24-0.81,0.56-1.73,0.88-2.6c42.86-129.87,157.67-214.19,255.88-187.87
					c74.42,19.93,122.25,99.99,119.02,199.22c-0.97,29.19-6.23,58.81-15.64,88.06l0,0
					C2891.48,1685.58,2798.33,1765.5,2709.05,1765.5z M2788.13,1284.97c-85.54,0-175.58,76.98-212.25,188.05
					c-0.3,0.84-0.58,1.63-0.81,2.39c-23.68,73.55-19.74,150.56,10.5,206.07c20.42,37.46,50.87,62.53,88.07,72.5
					c95.71,25.65,207.15-57.78,248.4-185.92l0,0c9.21-28.63,14.36-57.62,15.31-86.17c3.12-95.95-42.65-173.24-113.9-192.33
					C2811.88,1286.47,2800.04,1284.97,2788.13,1284.97z"/>
			</g>
			<g class="st3">
				<path class="st4" d="M2925.34,1569.12c-41.86,130.08-154.94,214.35-252.58,188.2c-97.64-26.15-142.85-152.81-100.99-282.89
					c0.25-0.82,0.55-1.68,0.84-2.49c6.44,16.22,18.91,33.84,42.98,35.48c42.15,2.84,140.22-61.75,140.22-61.75
					s80.33,15.24,185.01,36.34C2939.88,1510.09,2934.86,1539.54,2925.34,1569.12z"/>
			</g>
			<g>
				<path class="st4" d="M2708.76,1780.08c-13.7,0-27.32-1.72-40.68-5.3c-43.04-11.53-78.11-40.23-101.41-83.01
					c-33.5-61.49-37.92-142.73-12.11-222.9c44.71-138.91,167.84-228.7,274.5-200.11c43.04,11.53,78.11,40.23,101.41,83
					c33.5,61.49,37.92,142.73,12.11,222.9l0,0C2903.47,1696.17,2804.36,1780.08,2708.76,1780.08z M2787.55,1299.53
					c-79.97,0-164.31,74.01-198.55,180.43c-22.45,69.74-18.92,142.45,9.44,194.51c18.45,33.86,45.77,56.46,79,65.37
					c88.33,23.67,191.81-55.41,230.69-176.24c22.45-69.74,18.92-142.46-9.44-194.51c-18.45-33.86-45.77-56.46-79-65.36
					C2809.15,1300.89,2798.38,1299.53,2787.55,1299.53z M2925.36,1569.13h0.05H2925.36z"/>
			</g>
			<g>
				
					<ellipse transform="matrix(0.3962 -0.9182 0.9182 0.3962 258.0047 3510.8374)" class="st2" cx="2798.32" cy="1559.26" rx="196.7" ry="148.7"/>
				<path class="st4" d="M2766.2,1751.15c-31.88,0-60.47-11.84-83.17-34.58c-60.34-60.42-57.89-180.15,5.47-266.88
					c35.32-48.34,83.34-78.21,131.75-81.94c36.03-2.78,68.27,9.05,93.37,34.18c60.34,60.42,57.88,180.15-5.48,266.88l0,0
					c-35.32,48.34-83.34,78.21-131.75,81.94C2772.96,1751.02,2769.56,1751.15,2766.2,1751.15z M2830.42,1371.15
					c-3.26,0-6.55,0.13-9.88,0.38c-47.3,3.64-94.32,32.95-128.98,80.4c-62.31,85.29-64.94,202.81-5.85,261.97
					c24.29,24.32,55.48,35.76,90.4,33.08c47.3-3.65,94.32-32.95,128.98-80.4l0,0c62.31-85.29,64.94-202.81,5.86-261.97
					C2888.97,1382.61,2861.29,1371.15,2830.42,1371.15z"/>
			</g>
			<g class="st3">
				<path class="st4" d="M2638.88,1595.98c2.29-37.18,14.93-73.82,34.53-105.77c2.02,85.25,62.83,139.09,141.92,122.06
					c51.11-10.98,98.09-49.08,128.4-98.54c0.16,5.38,0.02,10.93-0.31,16.57c-5.88,94.67-78.81,186.13-162.92,204.26
					C2696.39,1752.68,2633.01,1690.6,2638.88,1595.98z"/>
			</g>
			<g>
				<path class="st4" d="M2762.49,1765.85c-9.64,0-19.18-1.17-28.54-3.6c-31.61-8.2-57.5-29.31-74.87-61.05
					c-26.92-49.19-29.84-118.86-7.82-186.38c37.13-113.83,134.09-189.1,216.04-167.83c31.61,8.2,57.5,29.31,74.87,61.05
					c26.92,49.18,29.84,118.86,7.82,186.38l0,0C2917.1,1695.24,2837.28,1765.85,2762.49,1765.85z M2837.76,1375.99
					c-60.58,0-126.89,61.69-155.37,148.98c-19.28,59.09-17.26,119.09,5.41,160.5c12.92,23.62,31.73,39.2,54.37,45.08
					c65.62,17.03,144.82-48.62,176.68-146.3l0,0c19.28-59.09,17.26-119.09-5.41-160.5c-12.92-23.62-31.73-39.2-54.37-45.08
					C2852.1,1376.86,2844.97,1375.99,2837.76,1375.99z"/>
			</g>
			<g class="st8">
				<path class="st2" d="M2376.65,888.86c0,0-294.55-91.35-515.71,11.44c-0.23,0.11-0.46,0.22-0.7,0.32
					c-46.53,21.67-86.21,55.42-115.12,97.38c-38.24,55.49-56.33,99.3-70.73,138.48c-43.77,119.17-41.63,183.21-41.63,183.21
					c-45.72-87.88-58.27-173.4-22.81-273.02c3.52-9.81,7.52-19.8,11.95-29.92c1.01-2.34,2.07-4.63,3.17-6.92
					c-0.04-0.04,0-0.09,0.09-0.13c10.45-19.87,25.17-45.47,44.24-72.96c57.45-82.95,154.12-183.28,291.12-196.5
					C2216.69,715.52,2391.19,880.02,2376.65,888.86z"/>
				<path class="st4" d="M1636.68,1334.74l-7-13.45c-49.75-95.62-56.84-180.67-23-275.78c3.5-9.74,7.54-19.88,12.04-30.15
					c0.95-2.18,1.93-4.34,2.96-6.49l0.2-1.37l0.7-0.37c13.16-24.94,27.94-49.28,43.96-72.37c57.43-82.93,155-184.59,293.62-197.97
					c128.51-12.4,232.39,22.88,296.96,54.66c73.59,36.22,118.71,79.03,123.3,92.82c1.58,4.74-0.87,6.84-1.99,7.52l-1.33,0.81
					l-1.48-0.46c-2.94-0.91-295.84-89.77-513.24,11.28l-0.69,0.32c-45.71,21.29-85.04,54.56-113.75,96.21
					c-38.96,56.54-56.74,100.73-70.34,137.71c-42.96,116.99-41.44,181.27-41.42,181.91L1636.68,1334.74z M1627.95,1011.79
					c-1,2.09-1.96,4.19-2.89,6.33c-4.44,10.14-8.43,20.13-11.88,29.72c-31.71,89.11-26.7,169.27,16.53,258.16
					c1.63-24.8,9.03-82.5,41.42-170.7c13.75-37.38,31.71-82.05,71.14-139.25c29.4-42.66,69.69-76.74,116.51-98.55l0.71-0.33
					c204.27-94.94,473.8-24.25,513.29-13.03c-2.22-3.79-7.78-10.97-20.06-22.03c-58.2-52.42-206.26-136.35-391.88-118.43
					c-135.99,13.12-232.01,113.3-288.61,195.03c-16.05,23.15-30.87,47.58-44.02,72.6L1627.95,1011.79z"/>
			</g>
			<g class="st8">
				
					<ellipse transform="matrix(0.0786 -0.9969 0.9969 0.0786 1044.4313 3636.6326)" class="st2" cx="2489.55" cy="1253.3" rx="107.89" ry="93.32"/>
				<path class="st4" d="M2487.43,1364.55c-2.51,0-5.02-0.11-7.54-0.34c-53.13-4.77-92.04-58.4-86.72-119.55l0,0
					c2.79-32.14,17.54-61.58,40.46-80.78c19.04-15.95,42.31-23.58,65.58-21.5c53.14,4.77,92.04,58.4,86.72,119.55
					c-2.79,32.14-17.54,61.58-40.46,80.78C2528.48,1356.94,2508.12,1364.55,2487.43,1364.55z M2491.67,1148.94
					c-19.08,0-37.9,7.05-53.63,20.23c-21.53,18.03-35.39,45.77-38.02,76.1l0,0c-5,57.38,31.11,107.67,80.48,112.1
					c21.41,1.92,42.92-5.15,60.54-19.92c21.53-18.03,35.39-45.77,38.02-76.1c5-57.38-31.11-107.67-80.48-112.1
					C2496.28,1149.04,2493.97,1148.94,2491.67,1148.94z"/>
			</g>
			<g class="st8">
				
					<ellipse transform="matrix(0.9999 -0.0148 0.0148 0.9999 -21.1903 36.799)" class="st2" cx="2473.16" cy="1448.64" rx="38.77" ry="44.57"/>
				<path class="st4" d="M2473.33,1496.66c-0.08,0-0.16,0-0.23,0c-23.27-0.14-42.18-21.79-42.16-48.26
					c0.01-13.81,5.26-26.93,14.39-36c7.66-7.6,17.48-11.78,27.67-11.78c0.08,0,0.16,0,0.23,0c23.27,0.14,42.18,21.79,42.16,48.26
					c-0.01,13.81-5.26,26.93-14.39,36C2493.34,1492.48,2483.52,1496.66,2473.33,1496.66z M2434.39,1448.41l3.45,0
					c-0.02,22.68,15.81,41.23,35.29,41.35c8.34,0.03,16.6-3.42,23-9.77c7.84-7.78,12.34-19.12,12.35-31.11
					c0.02-22.68-15.81-41.23-35.29-41.35c-8.56-0.02-16.6,3.42-23,9.77c-7.84,7.78-12.34,19.12-12.35,31.11L2434.39,1448.41z"/>
			</g>
		</g>
	</g>
</g>
</svg>
