<?xml version="1.0" encoding="utf-8"?>
<!-- Generator: Adobe Illustrator 28.0.0, SVG Export Plug-In . SVG Version: 6.00 Build 0)  -->
<svg version="1.1" id="Layer_1" xmlns="http://www.w3.org/2000/svg" xmlns:xlink="http://www.w3.org/1999/xlink" x="0px" y="0px"
	 viewBox="0 0 4000 4000" style="enable-background:new 0 0 4000 4000;" xml:space="preserve">
<style type="text/css">
	.st0{display:none;}
	.st1{display:inline;fill:#B276FF;}
	.st2{opacity:0.2;}
	.st3{fill:#371A45;}
	.st4{fill:#99A4C4;}
	.st5{fill:#FFD243;}
	.st6{opacity:0.7;}
	.st7{fill:#FFFFFF;}
	.st8{fill:#FF9D33;}
	.st9{opacity:0.26;}
	.st10{opacity:0.35;}
	.st11{fill:#127DDD;}
	.st12{fill:#22A7F0;}
	.st13{opacity:0.2;enable-background:new    ;}
	.st14{fill:#090942;}
	.st15{opacity:0.25;}
	.st16{fill:#293856;}
	.st17{fill:#21102B;}
	.st18{opacity:0.5;}
</style>
<g>
	<g class="st0">
		<rect class="st1" width="4000" height="4000"/>
	</g>
	<g>
		<g>
			<g>
				<g class="st2">
					<g>
						<path class="st3" d="M3437.27,796.3c4.33,0.5,8.74,0.91,13.2,1.27C3446.01,797.23,3441.6,796.82,3437.27,796.3z"/>
					</g>
				</g>
				<g class="st2">
					<g>
						<path class="st3" d="M3483.13,798.53c-11.11,0.17-22.05-0.17-32.66-0.96C3461.06,798.36,3472.03,798.67,3483.13,798.53z"/>
					</g>
				</g>
				<g class="st2">
					<g>
						<path class="st3" d="M3483.13,798.53c6.97-0.08,14.03-0.36,21.08-0.8C3497.16,798.17,3490.13,798.45,3483.13,798.53z"/>
					</g>
				</g>
				<g>
					<g>
						<path class="st4" d="M3463.25,789.78c-2.12,19.48-5.46,38.95-9.94,58.31c-10.32,44.45-26.91,88.24-50.21,130.13
							c-134.29,241.68-439.04,328.71-680.71,194.42c-192.42-106.92-286.81-321.93-249.5-527.12
							c9.56-52.51,27.73-104.34,55.07-153.59c12.76-22.95,27.07-44.49,42.71-64.59c36.69-47.23,80.76-86.44,129.63-116.87
							c11.2-7.02,22.69-13.56,34.37-19.6c62.93-32.65,132.23-51.67,203.07-55.63c0.64-0.02,1.26-0.08,1.88-0.1
							c4.34-0.24,8.66-0.42,13.04-0.52c8.64-0.24,17.28-0.24,25.95-0.04c58.77,1.48,117.93,13.38,174.68,36.47
							c18.74,7.58,37.27,16.42,55.39,26.49c3.9,2.2,7.76,4.38,11.58,6.66c2.32,1.34,4.6,2.74,6.86,4.16
							c27.63,16.88,53.05,36.09,76.2,57.21C3422.16,473.93,3480.43,632.78,3463.25,789.78z"/>
					</g>
				</g>
				<g>
					<g>
						<path class="st5" d="M3463.25,789.78c-2.12,19.48-5.46,38.95-9.94,58.31c-10.32,44.45-26.91,88.24-50.21,130.13
							c-134.29,241.68-439.04,328.71-680.71,194.42c-192.42-106.92-286.81-321.93-249.5-527.12
							c9.56-52.51,27.73-104.34,55.07-153.59c12.76-22.95,27.07-44.49,42.71-64.59c36.69-47.23,80.76-86.44,129.63-116.87
							c11.2-7.02,22.69-13.56,34.37-19.6c62.93-32.65,132.23-51.67,203.07-55.63c0.64-0.02,1.26-0.08,1.88-0.1
							c4.34-0.24,8.66-0.42,13.04-0.52c8.64-0.24,17.28-0.24,25.95-0.04c58.77,1.48,117.93,13.38,174.68,36.47
							c18.74,7.58,37.27,16.42,55.39,26.49c3.9,2.2,7.76,4.38,11.58,6.66c2.32,1.34,4.6,2.74,6.86,4.16
							c27.63,16.88,53.05,36.09,76.2,57.21C3422.16,473.93,3480.43,632.78,3463.25,789.78z"/>
					</g>
				</g>
				<g class="st6">
					<g>
						<path class="st7" d="M3399.57,564.99c-25.76-47.37-59.48-90.86-100.49-128.26c-22.86-20.86-47.96-39.81-75.25-56.49
							c-2.22-1.4-4.49-2.79-6.77-4.11c-3.78-2.26-7.59-4.41-11.44-6.58c-17.91-9.94-36.19-18.67-54.71-26.15
							c-56.04-22.8-114.45-34.56-172.49-36.02c-8.56-0.21-17.1-0.21-25.63,0.04c-4.34,0.09-8.6,0.28-12.88,0.5
							c-0.62,0.04-1.23,0.09-1.87,0.11c-69.95,3.91-138.38,22.69-200.53,54.94c-11.53,5.96-22.88,12.43-33.94,19.36
							c-48.26,30.04-91.78,68.77-128,115.4c-15.46,19.85-29.59,41.12-42.19,63.8c-0.77,1.38-1.53,2.77-2.28,4.15
							c8.5-24.08,19.12-47.76,31.94-70.82c11.74-21.1,24.9-40.94,39.27-59.42c33.76-43.44,74.28-79.5,119.24-107.48
							c10.3-6.47,20.86-12.49,31.61-18.04c57.89-30.04,121.63-47.53,186.77-51.18c0.6-0.02,1.16-0.07,1.74-0.07
							c3.98-0.22,7.96-0.39,11.98-0.49c7.96-0.22,15.91-0.22,23.87-0.04c54.06,1.36,108.47,12.3,160.66,33.53
							c17.25,6.97,34.28,15.12,50.95,24.37c3.59,2.02,7.14,4.02,10.65,6.11c2.13,1.23,4.22,2.52,6.32,3.83
							c25.4,15.53,48.79,33.2,70.08,52.62C3333.03,430.44,3374.79,494.82,3399.57,564.99z"/>
					</g>
				</g>
				<g>
					<g>
						<path class="st8" d="M3417.62,866.82c-9.46,30.18-22.09,59.84-38.07,88.57c-127.07,228.67-415.42,311.03-644.09,183.96
							c-110.48-61.39-186.81-160.44-221.85-272.23c44.22,50.16,97.59,93.74,159.37,128.09
							C2925.25,1135.38,3234.61,1075.12,3417.62,866.82z"/>
					</g>
				</g>
				<g>
					<g>
						<path class="st8" d="M3270.04,789.96c-13.67,61,5.05,110.37,41.8,110.27c36.75-0.09,80.94-48.05,94.61-109.04
							c13.67-61-8.37-111.93-45.12-111.84C3324.58,679.45,3283.71,728.97,3270.04,789.96z"/>
					</g>
				</g>
				<g>
					<g>
						<path class="st3" d="M3243.05,749.71c-6.59,15.89-10.43,31.84-11.76,48.05c-1.33,16.17-0.27,32.48,3.04,48.29
							c3.34,15.78,8.89,31.14,17.25,44.62c8.27,13.56,19.67,24.88,35.37,30.75l0.12,0.05c1.93,0.72,2.9,2.87,2.18,4.8
							c-0.54,1.45-1.89,2.36-3.34,2.42c-9.62,0.38-19.44-2.49-28.13-7.14c-8.69-4.75-16.24-11.31-22.55-18.72
							c-12.59-14.94-20.6-32.96-24.85-51.54c-4.25-18.61-4.64-38.13-0.59-56.81c3.99-18.6,12.49-36.58,25.74-49.9
							c1.8-1.81,4.73-1.82,6.54-0.01c1.37,1.36,1.71,3.37,1.01,5.05L3243.05,749.71z"/>
					</g>
				</g>
				<g>
					<g>
						
							<ellipse transform="matrix(0.998 -0.064 0.064 0.998 -22.2703 176.0162)" class="st8" cx="2738.26" cy="435.87" rx="49.75" ry="42.44"/>
					</g>
				</g>
				<g>
					<g>
						
							<ellipse transform="matrix(0.9378 -0.3471 0.3471 0.9378 14.7129 982.3914)" class="st5" cx="2749.29" cy="450.13" rx="37.38" ry="30.16"/>
					</g>
				</g>
				<g>
					<g>
						<path class="st3" d="M2739.88,484.76c-11.16,2.3-23.36,0.94-34.55-3.95c-5.52-2.58-10.81-6.01-15.46-10.4
							c-4.56-4.46-8.55-9.81-11.18-15.99c-5.52-12.31-5.05-27.24,0.52-39.56c5.62-12.37,15.66-21.74,26.95-27.61
							c5.7-2.86,11.72-4.98,17.88-6.22c6.18-1.16,12.43-1.52,18.65-1.14c12.43,0.95,24.74,5.23,34.67,13.05
							c10.07,7.49,17.44,19.14,19.31,31.65c1.98,12.48-2.06,25.24-9.71,33.77c-1.37,1.53-3.72,1.66-5.25,0.29
							c-1.2-1.07-1.53-2.75-0.97-4.16l0.02-0.06c3.67-9.05,4.09-18.44,0.97-26.37c-2.86-7.92-8.73-14.29-15.96-18.5
							c-14.43-8.5-33.9-8.35-48.26-0.59c-7.13,3.89-13.17,9.52-16.49,16.18c-3.31,6.58-4.2,14.19-2.03,21.44
							c2.18,7.21,7.39,14.2,14.62,19.22c7.17,5.21,16.17,8.38,25.9,9.84l0.13,0.02c2.52,0.38,4.25,2.73,3.87,5.24
							C2743.21,482.9,2741.71,484.38,2739.88,484.76z"/>
					</g>
				</g>
				<g>
					<g>
						<path class="st3" d="M2804.39,404.48c7.87,7.97,13.13,18.99,14.83,30.79c1.64,11.82-0.56,24.33-5.87,35.21
							c-5.19,11.01-13.47,20.21-23.03,27.25c-9.62,7.02-20.62,11.93-32.07,14.52c-22.77,5.18-47.67,1.75-67.34-11.14
							c-9.82-6.28-18.27-14.87-23.87-25.07c-5.48-10.24-8.1-21.97-6.72-32.99c0.25-2.03,2.11-3.48,4.14-3.22
							c1.59,0.2,2.82,1.37,3.16,2.85l0.03,0.14c2.17,9.49,6.32,17.86,12.14,24.71c5.75,6.92,13.23,12.09,21.14,15.98
							c16.01,7.6,34.7,9.02,51.75,4.87c8.5-2.09,16.6-5.56,23.73-10.35c7.17-4.72,13.4-10.8,17.84-17.93l1.65-2.69
							c0.51-0.92,0.91-1.88,1.39-2.82c1.05-1.86,1.62-3.86,2.38-5.84c0.8-1.98,1.08-4.07,1.71-6.14c0.23-2.11,0.63-4.24,0.76-6.41
							c0.66-8.7-1.3-17.7-5.2-26.51l-0.04-0.1c-1.03-2.33,0.02-5.06,2.35-6.09C2801.03,402.71,2803.08,403.16,2804.39,404.48z"/>
					</g>
				</g>
				<g>
					<g>
						<path class="st3" d="M2603.8,548.51c30.38,1.81,59.78,21.44,75.26,49.09c8,13.69,12.62,29.14,14.61,44.72
							c1.81,15.64,0.72,31.53-2.94,46.71c-7.19,30.43-24.66,57.94-48.62,77.39c-11.85,9.87-25.67,17.19-40.08,22.14
							c-14.46,4.83-29.91,6.65-44.75,5.04c-2.02-0.22-3.49-2.04-3.27-4.06c0.19-1.73,1.54-3.05,3.2-3.26l0.08-0.01
							c27.64-3.52,52.43-16.55,71.43-35.04c9.4-9.35,17.62-19.81,24.06-31.3c6.41-11.5,11.21-23.85,14.09-36.53
							c2.88-12.68,3.94-25.74,2.81-38.58c-0.93-12.88-4.37-25.45-9.78-37.08c-2.7-5.82-6.05-11.35-9.94-16.46
							c-2.01-2.5-3.79-5.27-6.16-7.46c-2.28-2.28-4.38-4.83-7.01-6.75c-4.81-4.44-10.38-8.01-16.08-11.51
							c-5.81-3.28-12.05-5.94-18.57-8.11l-0.04-0.01c-2.4-0.8-3.7-3.39-2.91-5.8C2599.85,549.62,2601.78,548.39,2603.8,548.51z"/>
					</g>
				</g>
				<g>
					<g>
						
							<ellipse transform="matrix(0.1745 -0.9847 0.9847 0.1745 1462.2155 3083.3989)" class="st8" cx="2570.11" cy="669.6" rx="81.43" ry="71.54"/>
					</g>
				</g>
				<g>
					<g>
						<path class="st5" d="M2568.71,744.09c25.45,0.3,51.33-17.02,64.62-46.13c17.68-38.76,6.35-83.77-25.31-100.55
							c-4.47-2.37-9.11-4.05-13.83-5.06c-18.68,7.61-35.43,23.6-45.58,45.81C2530.65,677.54,2539.84,722.77,2568.71,744.09z"/>
					</g>
				</g>
				<g>
					<g>
						<path class="st3" d="M2499.91,637.89c5.82-16.17,16.91-30.81,31.57-41.41c7.4-5.19,15.68-9.37,24.61-12.12
							c8.95-2.66,18.56-3.75,28.19-3c19.38,1.17,38.25,11.49,50.71,26.79c12.35,15.52,18.02,35.12,17.7,54.01
							c-0.26,9.47-1.82,18.82-4.64,27.72c-2.92,8.87-6.95,17.29-12.07,25c-10.17,15.45-24.79,28.01-41.84,35.29
							c-16.92,7.36-36.78,9.06-54.41,3.14c-17.55-5.83-32.06-19.16-38.75-35.14c-0.92-2.2,0.11-4.72,2.31-5.65
							c1.84-0.77,3.92-0.16,5.08,1.35c9.31,12.03,22.22,19.91,35.93,22.15c13.63,2.47,27.62-0.75,39.67-7.18
							c24.07-13.26,40.02-40.44,40.11-67.06c0.03-13.24-3.76-26.25-11.25-36.28c-3.77-4.99-8.43-9.16-13.79-12.4
							c-5.31-3.45-11.25-5.51-17.68-6.62c-6.36-1.13-13.06-0.97-19.74,0.25c-6.7,1.13-13.37,3.43-19.65,6.73
							c-12.76,6.38-23.79,16.7-32.61,29.21l-0.08,0.11c-1.7,2.41-5.04,2.99-7.45,1.29C2499.85,642.65,2499.12,640.1,2499.91,637.89z
							"/>
					</g>
				</g>
				<g>
					<g>
						<path class="st3" d="M3165.85,646.98c2.13,9.7,3.06,19.72,2.95,29.8c0.09,5.06-0.64,10.04-1.22,15.08l-0.9,7.57l-1.67,7.45
							l-1.81,7.46c-0.67,2.47-1.66,4.84-2.48,7.27l-2.61,7.26c-0.84,2.44-2.14,4.67-3.2,7.03c-2.24,4.65-4.51,9.32-7.45,13.58
							c-2.78,4.37-5.48,8.83-8.87,12.77c-12.67,16.49-29.15,30.05-47.55,39.88c-18.45,9.78-38.88,15.77-59.6,17.63
							c-41.57,4.02-83.57-8.83-116.35-33.05c-16.4-12.15-30.32-27.32-41.33-44.11c-10.72-17-18.41-35.8-21.89-55.17
							c-0.42-2.34,1.13-4.57,3.47-4.99c2.02-0.36,3.97,0.75,4.73,2.57l0.04,0.09c7.18,17.2,16.48,33.11,28.1,46.96
							c11.64,13.83,25.32,25.64,40.25,35.17c15.15,9.21,31.44,16.3,48.47,20.42c4.27,0.96,8.58,1.72,12.86,2.51l12.98,1.52
							c4.34,0.21,8.68,0.17,13.01,0.35c4.33,0.08,8.64-0.54,12.95-0.74c34.39-3.36,67.2-19.39,90.4-45.21
							c3.12-3.05,5.6-6.61,8.22-10.09c1.25-1.78,2.78-3.39,3.81-5.31c1.12-1.87,2.21-3.75,3.39-5.6c1.1-1.88,2.46-3.65,3.37-5.64
							l2.87-5.93c0.92-2,2.02-3.93,2.82-5.99l2.23-6.25l2.35-6.26l1.68-6.48c1.16-4.33,2.33-8.7,3.05-13.16
							c1.57-8.9,2.28-18.02,2.37-27.26l0-0.05c0.03-2.95,2.45-5.31,5.4-5.28C3163.22,642.81,3165.33,644.6,3165.85,646.98z"/>
					</g>
				</g>
				<g>
					<g>
						
							<ellipse transform="matrix(0.9626 -0.2709 0.2709 0.9626 -64.1612 837.5607)" class="st8" cx="3002.04" cy="651.21" rx="97.71" ry="100.35"/>
					</g>
				</g>
				<g>
					<g>
						<path class="st5" d="M2915.89,682.24c9.33,34.3,40.18,61.75,80.53,67.31c53.72,7.38,103.96-26.84,112.22-76.45
							c1.17-7,1.44-13.94,0.86-20.72c-16.35-21.88-42.1-37.62-72.89-41.87C2982.04,603.02,2930.72,634.47,2915.89,682.24z"/>
					</g>
				</g>
				<g>
					<g>
						<path class="st3" d="M3018.49,545.82c23.15,1.47,46.02,11.5,64.19,27.35c18.15,15.89,31.54,38.09,36.43,62.81
							c2.59,12.21,2.97,25.29,0.8,37.81c-1.94,12.58-6.06,25.09-12.62,36.27c-13,22.42-34.39,39.85-58.83,47.84
							c-12.19,4.01-24.98,6.01-37.68,5.85l-9.49-0.45l-9.36-1.33c-6.22-0.98-12.28-2.69-18.22-4.67
							c-23.82-7.98-44.54-23.77-58.88-43.75c-14.39-19.96-22.19-44.62-21.12-68.87c1.05-24.1,10.9-47.68,27.64-63.7
							c2.16-2.07,5.59-1.99,7.65,0.17c1.75,1.83,1.96,4.58,0.67,6.63l-0.02,0.03c-10.95,17.33-15.47,37.34-13.47,56.44
							c1.71,19.09,10.07,36.91,22.25,50.98c12.11,14.18,28.25,24.53,45.7,29.56c4.37,1.24,8.81,2.2,13.29,2.77l6.71,0.77l6.71,0.09
							c8.91-0.26,17.71-1.66,26.01-4.53c16.64-5.68,30.86-17.15,40-31.83c4.72-7.29,7.74-15.6,9.58-24.25
							c2.08-8.67,2.35-17.6,1.22-26.65c-2.09-17.99-10.15-35.69-22.67-50.2c-12.42-14.68-29.47-25.68-48.88-32.03l-0.13-0.04
							c-3.52-1.15-5.45-4.95-4.29-8.47C3012.66,547.46,3015.51,545.63,3018.49,545.82z"/>
					</g>
				</g>
				<g>
					<g>
						<path class="st5" d="M2722.59,935.64c-23.55,12.4-41.94,30.49-52.22,53.59c-18.63,41.85-5.43,88.1,28.64,128.82
							c22.35,26.71,54.08,49.98,92.63,65.6c97.31,39.43,201.19,15.2,232.04-54.11c11.48-25.79,11.23-54.19,1.37-81.72
							c-16.63-46.45-61.54-87.95-122.64-112.7L2722.59,935.64z"/>
					</g>
				</g>
				<g>
					<g>
						<path class="st3" d="M2674.53,991.08c-3.94,11.14-5.91,22.73-5.71,34.23c0.19,11.5,2.45,22.87,6.35,33.69
							c3.78,10.87,9.2,21.2,15.65,30.88c6.38,9.7,13.78,18.94,21.88,27.31c16.2,16.82,35.23,30.99,55.92,42.11
							c20.58,11.36,42.91,19.6,65.74,25.02c22.85,5.48,46.48,7.38,69.73,5.82c23.24-1.58,46.14-7.45,66.45-18.02
							c10.07-5.41,19.35-12.15,27.47-20.06c8.01-8.02,14.7-17.32,19.64-27.66c9.45-20.66,12.42-45.35,6.24-68.25l-0.01-0.04
							c-0.53-1.96,0.63-3.97,2.59-4.5c1.8-0.49,3.65,0.46,4.35,2.14c2.46,5.93,4.35,12.14,5.66,18.49
							c1.23,6.37,1.86,12.87,1.88,19.39c0.06,13.08-2.16,26-6.7,38.65c-4.61,12.44-11.82,23.94-20.51,34.05
							c-8.77,10.08-19.33,18.44-30.63,25.32c-22.75,13.67-48.56,20.95-74.4,23.58c-25.91,2.73-52.04,0.47-77.25-5.08
							c-25.22-5.69-49.42-15.22-71.99-27.78c-11.21-6.43-21.99-13.64-32.08-21.75c-10.12-8.07-19.66-16.95-28.15-26.81
							c-16.99-19.5-30.95-42.23-37.88-67.79c-3.32-12.74-4.81-26.1-3.64-39.27c1.2-13.15,4.97-25.99,11.06-37.39
							c1.19-2.22,3.95-3.06,6.17-1.87c2.02,1.08,2.89,3.45,2.15,5.54L2674.53,991.08z"/>
					</g>
				</g>
				<g>
					<g>
						
							<ellipse transform="matrix(0.2558 -0.9667 0.9667 0.2558 1095.5963 3540.1675)" class="st8" cx="2847.07" cy="1058.52" rx="104.95" ry="144.41"/>
					</g>
				</g>
				<g>
					<g>
						
							<ellipse transform="matrix(0.1763 -0.9843 0.9843 0.1763 1277.969 3706.8828)" class="st5" cx="2853.96" cy="1089.82" rx="77.19" ry="122.41"/>
					</g>
				</g>
				<g>
					<g>
						<path class="st3" d="M2938.74,1147.37c10.54-7.09,19.62-15.74,25.93-25.76c3.04-5.06,5.81-10.23,7.33-15.82l1.17-4.14
							c0.41-1.37,0.84-2.72,0.94-4.17c0.28-2.85,0.96-5.6,0.99-8.45c0.71-11.29-1.41-22.76-6-33.47
							c-4.43-10.76-10.87-20.87-18.62-29.99c-7.71-9.16-16.81-17.33-26.67-24.48c-4.82-3.73-10.15-6.79-15.35-9.99
							c-2.63-1.56-5.44-2.83-8.15-4.27l-4.09-2.1c-1.38-0.67-2.83-1.21-4.22-1.86l-8.43-3.73l-8.68-3.11l-4.34-1.56l-4.44-1.22
							c-2.96-0.79-5.9-1.69-8.87-2.41c-11.96-2.7-24.09-4.09-36.18-4.65c-12.08-0.18-24.08,0.86-35.59,3.45
							c-11.51,2.59-22.24,7.14-31.75,12.94c-19.06,11.64-31.29,31.22-32.02,53.36c-0.46,11.06,2.05,22.55,6.51,33.6
							c4.46,11.08,11.07,21.57,18.82,31.37c7.68,9.93,17.23,18.45,27.17,26.61l7.73,5.84c2.63,1.89,5.43,3.52,8.13,5.35
							c5.32,3.83,11.28,6.53,16.94,9.98l0.42,0.26c2.54,1.55,3.34,4.85,1.79,7.39c-1.32,2.17-3.94,3.07-6.25,2.32
							c-13.18-4.29-26.28-9.53-38.46-16.75c-3.17-1.6-6.03-3.7-9.02-5.62c-2.96-1.97-5.97-3.89-8.71-6.18
							c-2.8-2.22-5.66-4.38-8.42-6.69l-7.95-7.35c-10.24-10.24-19.25-22.03-26.26-35.36c-7.09-13.26-11.51-28.51-12.14-44.45
							c-0.65-15.89,2.85-32.48,10.71-46.74c7.71-14.37,19.21-26.38,32.18-35.3c12.98-8.99,27.47-15.11,42.19-18.72
							c14.74-3.62,29.72-5.15,44.59-5.16c14.87,0.2,29.54,2.41,43.87,5.73c3.56,0.9,7.07,1.99,10.6,2.98l5.29,1.53l5.16,1.89
							l10.3,3.83l10.02,4.54c3.38,1.42,6.58,3.23,9.77,5.06c3.18,1.84,6.45,3.52,9.54,5.51c6.14,4.07,12.33,8.03,18.03,12.77
							c5.93,4.37,11.24,9.62,16.65,14.67c2.56,2.71,5.06,5.47,7.55,8.23c2.5,2.74,4.63,5.88,6.95,8.8
							c8.86,12.05,16.32,25.41,21,40.06c4.63,14.61,6.14,30.62,3.6,46.1c-0.51,3.87-1.85,7.63-2.78,11.39
							c-0.43,1.9-1.2,3.7-1.97,5.49l-2.28,5.36c-3.07,7.09-7.37,13.59-12.3,19.36c-9.92,11.57-22.46,20.07-35.73,25.54
							c-3.42,1.41-7.34-0.22-8.75-3.64c-1.23-3-0.14-6.37,2.45-8.11L2938.74,1147.37z"/>
					</g>
				</g>
				<g>
					<g>
						<path class="st5" d="M3156.25,460.37c17.57-11.56,30.64-27.2,36.95-46.15c11.43-34.35-2.5-69.71-32.42-99.11
							c-19.63-19.29-46.37-35.15-77.89-44.48c-79.55-23.53-159.39,3.5-178.33,60.38c-7.05,21.17-4.66,43.48,5.2,64.37
							c16.65,35.25,55.15,64.44,105.11,79.21L3156.25,460.37z"/>
					</g>
				</g>
				<g>
					<g>
						<path class="st3" d="M3188.17,412.54c3.12-15.7,1.42-31.3-4.55-45.32c-5.76-14.11-15.26-26.63-26.21-37.74
							c-22.25-22-50.85-37.16-81.25-45.84c-30.37-8.62-62.89-10.84-93.58-4.03c-15.25,3.5-30.09,9.1-43.02,17.8
							c-13.01,8.56-23.78,20.4-30.92,34.97l-0.03,0.06c-1.05,2.14-3.63,3.02-5.76,1.97c-1.8-0.88-2.71-2.86-2.32-4.74
							c3.65-17.72,14.2-34.08,27.87-46.43c13.83-12.3,30.46-21.1,47.89-26.59c34.97-11.09,72.77-10.24,107.63-0.61
							c34.8,9.57,67.97,28.47,91.79,56.62c11.9,13.87,21.64,30.25,26.54,48.47c4.85,18.15,3.82,38.21-3.98,54.76
							c-1.26,2.67-4.44,3.82-7.12,2.56c-2.27-1.07-3.43-3.52-2.97-5.87L3188.17,412.54z"/>
					</g>
				</g>
				<g>
					<g>
						
							<ellipse transform="matrix(0.1606 -0.987 0.987 0.1606 2190.9365 3322.7251)" class="st8" cx="3048.92" cy="373.29" rx="82.93" ry="114.11"/>
					</g>
				</g>
				<g>
					<g>
						
							<ellipse transform="matrix(0.0798 -0.9968 0.9968 0.0798 2448.8938 3354.3413)" class="st5" cx="3041.25" cy="350.78" rx="60.99" ry="96.73"/>
					</g>
				</g>
				<g>
					<g>
						<path class="st3" d="M2970.02,310.49c-7.74,6.39-14.2,13.89-18.39,22.25c-2,4.21-3.78,8.48-4.53,12.99
							c-0.29,2.26-1.02,4.42-1.02,6.69c0,2.26-0.32,4.47-0.13,6.71c0.31,8.92,2.86,17.77,7.3,25.82
							c4.31,8.11,10.14,15.56,16.94,22.13c6.76,6.61,14.57,12.3,22.88,17.12c4.09,2.52,8.48,4.57,12.82,6.69
							c2.18,1.04,4.49,1.82,6.72,2.76c2.23,0.93,4.49,1.8,6.83,2.49c9.13,3.36,18.74,5.12,28.26,6.71
							c9.59,1.22,19.23,1.48,28.77,0.93c9.5-0.81,18.82-2.63,27.68-5.48c8.85-2.87,16.95-7.23,23.97-12.53
							c14.08-10.6,22.17-26.9,21.06-44.34c-1.01-17.54-11.17-35.1-24.87-49.11c-6.79-7.22-14.95-13.19-23.39-18.84l-6.53-4
							c-2.21-1.29-4.54-2.35-6.8-3.58c-4.48-2.61-9.37-4.28-14.08-6.56l-0.3-0.15c-2.13-1.03-3.02-3.59-1.99-5.73
							c0.87-1.8,2.84-2.72,4.72-2.33c21.49,4.4,42.49,13.55,60.37,27.91c8.85,7.27,16.84,15.85,23.39,25.8
							c6.6,9.89,11.26,21.55,12.98,34.05c1.73,12.46,0.26,25.79-4.83,37.62c-4.96,11.91-13.1,22.25-22.62,30.27
							c-9.54,8.06-20.45,14.04-31.75,18.05c-11.31,4.05-23.01,6.33-34.72,7.46c-11.72,0.92-23.44,0.4-34.98-1.09
							c-2.87-0.43-5.72-0.99-8.58-1.52l-4.28-0.82l-4.21-1.1l-8.4-2.25l-8.22-2.83c-10.86-4.03-21.45-8.99-31.21-15.44
							c-5-3-9.57-6.74-14.2-10.32l-6.56-5.91c-2.18-1.97-4.1-4.27-6.14-6.39c-7.9-8.8-14.79-18.74-19.6-29.92
							c-4.76-11.15-7.18-23.64-6.37-36.01c0.11-3.08,0.87-6.14,1.32-9.18c0.45-3.05,1.68-5.93,2.52-8.86
							c1.87-5.82,4.76-11.26,8.2-16.18c6.92-9.86,16.14-17.52,26.16-22.83c2.6-1.38,5.83-0.39,7.21,2.21
							c1.21,2.28,0.6,5.03-1.31,6.61L2970.02,310.49z"/>
					</g>
				</g>
				<g>
					<g>
						
							<ellipse transform="matrix(0.3213 -0.947 0.947 0.3213 1511.2313 3681.0977)" class="st5" cx="3323.72" cy="786.24" rx="97.15" ry="50.64"/>
					</g>
				</g>
				<g>
					<g>
						<path class="st3" d="M3399.17,712.62c-5.21-7.49-11.7-13.63-19.08-17.03c-7.36-3.46-15.48-4.13-23.27-2.65
							c-7.86,1.39-15.55,5.05-22.55,9.95c-7.02,4.88-13.66,10.7-19.37,17.55c-11.43,13.6-20.72,29.43-26.99,46.43
							c-3.46,8.39-5.62,17.22-7.75,25.96c-1.69,8.82-2.95,17.71-3.17,26.55c-0.17,8.81,0.44,17.56,2.11,25.88
							c1.8,8.25,4.72,16.02,8.79,22.49c8.09,13.09,21.74,19.21,37.35,16.19c7.76-1.45,15.56-5.11,23.01-9.73
							c3.77-2.26,7.25-5.1,10.81-7.87c3.34-3.06,6.77-6.06,9.9-9.46c12.99-13.18,23.02-29.53,31.58-46.78l0.08-0.16
							c1.05-2.12,3.63-2.99,5.75-1.94c1.86,0.92,2.76,3.02,2.24,4.95c-2.6,9.74-5.67,19.52-10.15,28.75
							c-1.95,4.77-4.68,9.15-7.12,13.71c-2.81,4.35-5.44,8.85-8.68,12.97c-6.2,8.44-13.52,16.23-22.1,22.96
							c-8.5,6.78-18.44,12.38-29.81,15.56c-11.27,3.16-24.45,3.44-36.36-1.13c-11.98-4.37-22.01-13.01-28.86-22.78
							c-6.99-9.8-11.17-20.71-13.84-31.57c-2.58-10.9-3.34-21.87-3.27-32.69c0.08-10.85,1.73-21.46,3.78-31.93
							c2.48-10.35,5.42-20.58,9.58-30.33c8-19.59,19.49-37.95,34.65-53.29c7.53-7.69,16.22-14.49,25.86-19.97
							c9.7-5.33,20.63-9.32,32.35-10.12c5.85-0.31,11.82,0.18,17.52,1.68c2.83,0.9,5.7,1.54,8.36,2.81c2.68,1.2,5.25,2.62,7.65,4.26
							c9.67,6.56,16.38,15.98,20.39,25.78c1.11,2.73-0.19,5.84-2.92,6.96c-2.36,0.96-5,0.12-6.4-1.89L3399.17,712.62z"/>
					</g>
				</g>
				<g>
					<g>
						<path class="st3" d="M2964.64,1250c-84.58,0-170.25-20.83-249.28-64.74c-193.02-107.25-296.17-325.19-256.67-542.31
							c10.06-55.3,29.12-108.46,56.64-158.02c42.43-76.31,103.75-140.88,177.33-186.71c11.4-7.14,23.3-13.93,35.35-20.17
							c64.34-33.38,136.58-53.17,208.9-57.23l2.07-0.11c4.31-0.23,8.79-0.42,13.3-0.53c8.64-0.24,17.61-0.24,26.64-0.03
							c61.93,1.56,122.41,14.18,179.78,37.52c19.37,7.83,38.55,17,56.97,27.25c4.06,2.27,8.05,4.52,11.98,6.88
							c2.3,1.34,4.69,2.81,7.06,4.28c169.1,103.41,264.46,297.84,242.87,495.26c-2.18,19.98-5.63,40.17-10.24,60
							c-10.82,46.68-28.2,91.73-51.65,133.89C3321.68,1154.43,3145.74,1250,2964.64,1250z M2966.01,248.85
							c-4.38,0-8.71,0.06-12.97,0.17c-4.27,0.1-8.46,0.28-12.66,0.5l-2.04,0.11c-68.07,3.82-136.27,22.5-197.03,54.03
							c-11.36,5.89-22.58,12.29-33.35,19.03c-69.47,43.27-127.35,104.21-167.4,176.25c-25.98,46.79-43.98,96.98-53.47,149.17
							c-37.28,204.95,60.09,410.68,242.3,511.93c234.33,130.19,530.89,45.49,661.1-188.82c22.14-39.81,38.54-82.33,48.76-126.4
							c4.35-18.73,7.6-37.77,9.66-56.62v0c20.39-186.37-69.63-369.9-229.32-467.56c-2.23-1.39-4.41-2.72-6.61-4.01
							c-3.83-2.29-7.58-4.4-11.35-6.52c-17.35-9.65-35.45-18.3-53.76-25.7c-54.15-22.03-111.22-33.95-169.64-35.42
							C2974.13,248.9,2970.05,248.85,2966.01,248.85z"/>
					</g>
				</g>
			</g>
			<g>
				<g>
					<path class="st7" d="M1730.06,2862c-32.5,20.5-65,41.5-98,62.5c-85.5,54.5-188.5,73-287.5,51.5c-9-2-18-4-27-6
						c-76-18-135-77.5-153.5-153.5c-31.5-131.5-56-263.5-73-395.5c-1-7-2-14-2.5-20.5c-8.5-68.5,23-136,81.5-173
						c17.5-11,34.5-21.5,51-31.5c94-57.5,180-105,280-163.5c58-34,127-42.5,191.5-23.5c0.5,0,1.5,0.5,2,0.5
						c83,24,140.5,99,142.5,185.5c3.5,142,4.5,295,10,443.5C1850.56,2728.5,1806.06,2814,1730.06,2862z"/>
				</g>
				<g>
					<path class="st3" d="M1426,3004.84c-28.67,0-57.53-3.08-86.19-9.3l-27.1-6.03c-83.64-19.8-148.14-84.27-168.59-168.29
						c-32.77-137.55-58.31-278.41-75.91-418.75c-9.95-75.7,25.63-151.26,90.65-192.39c79.55-50.15,150.94-91.08,226.54-134.42
						c33.86-19.41,68.87-39.48,105.56-60.94c62.08-36.39,137.17-45.74,206.19-25.73c0.78,0.17,1.45,0.36,1.98,0.53
						c0.33,0.08,0.66,0.16,0.98,0.26c91.66,26.5,154.73,108.58,156.94,204.25c0.91,42.8,1.63,86.66,2.37,131.14
						c1.69,102.55,3.44,208.6,7.62,312.02c3.78,97.12-44.8,189.73-126.77,241.69c-19.89,12.55-39.74,25.26-59.71,38.04
						c-12.7,8.13-25.44,16.29-38.26,24.45C1576.63,2983.23,1502,3004.84,1426,3004.84z M1624.19,2018.68
						c-39.38,0-78.56,10.38-113.02,30.58c-0.01,0-0.01,0-0.02,0.01c-36.84,21.54-71.92,41.66-105.85,61.11
						c-75.21,43.12-146.26,83.86-225.07,133.54c-51.87,32.81-80.28,93.06-72.34,153.47c17.44,139.02,42.71,278.43,75.13,414.48
						c16.85,69.24,69.99,122.41,138.65,138.67l26.72,5.94c94.15,20.44,190.93,3.11,272.42-48.84c12.8-8.14,25.51-16.28,38.18-24.39
						c20.04-12.83,39.97-25.59,59.9-38.15c69.94-44.35,111.41-123.4,108.18-206.31c-4.19-103.87-5.95-210.16-7.65-312.94
						c-0.73-44.42-1.46-88.21-2.36-130.91c-1.8-77.74-52.83-144.51-127.1-166.43c-0.78-0.17-1.44-0.36-1.97-0.52
						c-0.36-0.09-0.73-0.18-1.09-0.29C1666.41,2021.65,1645.28,2018.68,1624.19,2018.68z M1501.05,2032h0.05H1501.05z"/>
				</g>
				<g>
					<g>
						<path class="st3" d="M1117.56,2274.5c50.5,11.5,98,31.5,140,59.5c3.5,2.5,4.5,7,2,10.5c-2,3-6,4-9.5,2.5
							c-44.5-19.5-91.5-31-138.5-33c-11-0.5-19.5-10-19-21c0.5-11,10-19.5,21-19C1115.56,2274,1116.56,2274,1117.56,2274.5
							L1117.56,2274.5z"/>
					</g>
				</g>
				<g class="st9">
					<path class="st3" d="M1730.06,2862c-32.5,20.5-65,41.5-98,62.5c-85.5,54.5-188.5,73-287.5,51.5c-9-2-18-4-27-6
						c-76-18-135-77.5-153.5-153.5c-31.5-131.5-56-263.5-73-395.5c2.5,5.5,5.5,11,9,16c19,30.5,51.5,55,87.5,55
						c49,0,87-44,108.5-88.5c21.5-44,36-94,71.5-128c-51-15.5-104.5-43-146-80c94-57.5,180-105,280-163.5c58-34,127-42.5,191.5-23.5
						c0.5,0,1.5,0.5,2,0.5c83,24,140.5,99,142.5,185.5c3.5,142,4.5,295,10,443.5C1850.56,2728.5,1806.06,2814,1730.06,2862z"/>
				</g>
			</g>
			<g>
				<path class="st7" d="M2747.56,1436.5c-12,10-26.5,15-41,20c11.5,0,22,12.5,23,25.5s-6,26-16,34c-10,8.5-23,13-35.5,16
					s-26,4-38.5,7c-0.5,31-23,60.5-53.5,73c-40,222-155.5,436-322,599.5c-0.5,0.5-1.5,1.5-2,2c30,92,43.5,189,42.5,286.5
					c-0.5,26-1.5,51.5-4,77.5c-5,57-15.5,114-30.5,169.5c-34.5,128.5-94.5,251-177.5,356.5c-35,44.5-74.5,87-122.5,116.5
					c-48,30-106.5,46-162.5,36.5c-39,44-25,126-67,177.5c-30,36.5-87,47.5-128.5,25c-41.5-22.5-63-76-49-121
					c-59,25-124.5,45-191,49.5c-13.5,41.5-27.5,94-53.5,141c-26,47-65.5,88.5-116.5,105.5c-41.5,14.5-90.5,9-125.5-16
					c-8-5.5-15-12-21-19.5c-37-45.5-31.5-112-19-169.5c14-62,34-122.5,60-180.5c15-33,43-58.5,77-71c29-10.5,57-24,84-40
					c50-29.5,95.5-67.5,131-113.5c17.5-22.5,32-46.5,44.5-72c2-3.5,3.5-7.5,5-11c2-4.5,4-9.5,6-14c1-2.5,2.5-5.5,3.5-8.5
					c1.5-3.5,2.5-6.5,3.5-10c0,0,0,0,0-0.5c0.5-2,1.5-3.5,2-5.5c0.5-2,1.5-4,2-6c0.5-2,1.5-3.5,2-5.5c0.5-1.5,1-3.5,1.5-5
					c0.5-2,1-4,1.5-6c0.5-2,1-4,1.5-5.5c0.5-2.5,1.5-5,2-7c0.5-1,0.5-1.5,0.5-2.5c1-3.5,1.5-6.5,2.5-10c1-3,1.5-6.5,2-9.5
					c0.5-2,1-4.5,1.5-6.5c0.5-2.5,1-5.5,1.5-8.5c1-6.5,2-13,2.5-19c0-1,0-2,0.5-3.5c1-7,1.5-14,1.5-20.5c0.5-4,0.5-7.5,0.5-11.5
					c0-1,0-1.5,0-2.5c0-3.5,0-7,0-11v-1.5c0-3.5,0-7,0-10c0-3.5,0-7.5-0.5-11c-0.5-6.5-1-13-1.5-19.5c-7.5,9-15,17.5-23,26.5
					c-0.5,0.5-1,1.5-2,2c-3.5,4-7,7.5-10,11c-3.5,4-7,7.5-10.5,11c-7,7.5-14,14.5-21.5,21.5c-6.5,6.5-13.5,13-20.5,19.5
					c-4.5,4-9,8-13,12c-3.5,3.5-7.5,6.5-11,10c-4.5,4-9,8-13.5,11.5c-2.5,2-5,4.5-7.5,6.5c-9.5,8-19.5,16-29.5,23.5
					c-2,1.5-4.5,3.5-6.5,5c-3.5,2.5-6.5,5-10,7.5c-0.5,0-1,0.5-1,1c-3.5,2.5-6.5,4.5-10,7c-2.5,1.5-4.5,3-7,5c-3.5,2.5-6.5,4.5-10,7
					c-1,0.5-1.5,1-2.5,1.5c-4,2.5-7.5,5-11.5,7.5c-1,0.5-1.5,1-2,1.5c-4,2.5-8,5-12,7.5l0,0c-4,2.5-8.5,5-13,7.5c-0.5,0-1,0.5-1,0.5
					c-4,2.5-8.5,5-12.5,7c-4.5,2.5-9,5-13.5,7.5c-4.5,2.5-8.5,4.5-13,6.5c-5,2.5-9.5,5-14.5,7.5c-4,2-7.5,3.5-11.5,5.5
					c-5.5,2.5-11,5-16.5,7.5c-4.5,2-8.5,3.5-13,5.5c-4,1.5-8,3-12,5c-5.5,2-11,4-16.5,6c-5,1.5-9.5,3.5-14.5,5c-9,3-17.5,5.5-26.5,8
					c-1.5,0.5-3.5,1-5,1.5c-4,1-8.5,2-12.5,3.5c-37.5,9.5-83,13.5-105-25c-9-15.5-11-34.5-7-52c3.5-15.5,9.5-29.5,17-42.5
					c23.5-41,64-71,100.5-102c78.5-67,146-147,198.5-236.5c19.5-33,37-67.5,55.5-101.5c12.5-23.5,25.5-46.5,40-68.5
					c12.5-19,25.5-37,40.5-54.5c22-25.5,47-48,74-68c95.5-70.5,216.5-108,332.5-142.5c82.5-24.5,157-66.5,222-120
					c106-87,188.5-204.5,244-327c55.5-87.5,113-177,170-267c36-56,72-112.5,120-159.5c14-14,30-25.5,47-35.5c15-8.5,32-16,49.5-13
					l0,0c6.5,1,13,4,18,8c18.5,16.5,11,43.5-1.5,62c-11.5,16.5-14.5,23.5-33,50c21.5-22,52-35,83.5-36.5c14.5-0.5,29.5,1.5,41,11.5
					c4.5,4,7.5,9,9,15c4,17.5-9.5,30.5-23.5,38.5c-11.5,6.5-24.5,12-32.5,23c12.5-3.5,25.5-3.5,37.5,1.5c12,5,22,15,24.5,27.5
					C2767.56,1411,2759.56,1426.5,2747.56,1436.5z"/>
			</g>
			<g class="st9">
				<path class="st3" d="M1583.56,2725.5c31-82,52-176,38-265c0,0-247,318-337.5,367c-112.5,61-232.5,115.5-324,76
					c-7.5,13-13.5,27-17,42.5c-4,17.5-2,36.5,7,52c22.5,38.5,67.5,34,105,25c158.5-40,297-141,405.5-260.5c0.5-0.5,1.5-1.5,2-2
					c8-8.5,15.5-17.5,23-26.5c0.5,6.5,1,13,1.5,19.5c0.5,5.5,0.5,10.5,0.5,16c0,1,0,2,0,3c0,5.5,0,11,0,16.5
					c-2,60.5-17,121-43.5,175.5c10-5.5,16-8.5,16-8.5s40-53.5,80.5-133.5c68,20,134.5,9,191.5-10c0,0,25.5,81.5,104.5,75.5
					c62-5,321-104,444.5-127.5c15-55.5,25.5-112.5,30.5-169.5c2.5-26,4-51.5,4-77.5C2136.56,2565.5,1774.06,2670.5,1583.56,2725.5z"
					/>
			</g>
			<g>
				<path class="st3" d="M1164.59,3674.58c-44.82,0-87.59-18.18-114.09-51.02c-34.2-42.52-41.7-103.51-22.94-186.47
					c14.37-63.67,34.98-125.66,61.26-184.28c17.05-37.5,49.24-67.21,88.35-81.59c83.48-30.86,156.68-83.06,206.08-146.96
					c52.92-68.28,82.58-153.42,84.38-239.38c-92.36,99.8-230.53,213.46-407.68,258c-23.39,5.62-93.92,22.54-127.15-34.3
					c-11.15-19.21-14.51-43.45-9.23-66.54c14.28-64.01,63.69-105.27,107.28-141.68c5.62-4.69,11.22-9.37,16.73-14.07
					c76.68-65.03,142.02-142.89,194.26-231.46c13.43-22.79,26.25-46.82,38.65-70.05c28.74-53.85,58.45-109.54,99.39-157.3
					c107.75-124.82,278.68-175.47,416.01-216.16l0,0c189.34-56.1,354.05-215.17,451.89-436.41c0.41-0.93,0.9-1.83,1.45-2.69
					c36.44-56.93,73.3-114.93,110.31-173.15c19.86-31.25,39.76-62.56,59.67-93.81c36.02-56.53,73.26-114.98,122.95-163.12
					c13.82-13.82,30.5-26.45,50.77-38.37c17.66-10.01,38.71-19.53,62.93-15.49c10.8,1.66,20.6,6.12,28.09,12.86
					c19.97,17.34,23.48,45.65,10.15,73.61c8.02-1.74,16.23-2.82,24.51-3.22c23.55-0.83,41.46,4.55,55.08,16.39
					c7.71,6.85,12.8,15.3,15.28,25.25c5.07,19.72-2.9,38.74-22.02,53.45c14.79,8.65,25.11,22.36,28.23,37.97
					c4.22,21.12-4.9,44.03-23.81,59.79c-4.91,4.27-10.25,7.78-15.77,10.75c2.69,5.49,4.42,11.54,4.91,17.86
					c1.41,18.35-7.18,37.34-22.99,50.77c-14.62,12.43-32.09,17.51-43.96,20.25c-6.99,1.68-14.04,2.77-20.86,3.83
					c-1.3,0.2-2.59,0.4-3.86,0.6c-5.84,28.8-26.11,55.24-53.99,69.9c-41.74,219.53-154.6,429.41-319.03,593.32
					c44.18,143.57,51.53,302.07,21.2,459.27c-30.93,160.29-99.47,311.55-198.22,437.43c-44.67,56.79-84.05,94.16-127.71,121.16
					c-53.05,32.82-110.83,47.16-164.12,41.01c-10.89,17.4-15.77,41.34-20.9,66.47c-6.9,33.81-14.72,72.13-39.57,102.25
					c-36.49,43.67-103.87,56.74-153.46,29.85c-38.59-20.92-62.72-63.89-63.68-107.4c-52.53,19.63-103.39,32.05-151.73,37.05
					c-0.85,2.73-1.72,5.51-2.59,8.31c-12.03,38.65-25.67,82.46-48.46,123.64c-32.35,56.77-77.57,97.43-127.45,114.72
					C1201.23,3671.6,1182.74,3674.58,1164.59,3674.58z M1485.56,2714.5c1.98,0,3.97,0.29,5.92,0.9c7.66,2.37,13.15,9.08,13.97,17.06
					c11.5,111.9-21.51,227.19-90.59,316.3c-53.91,69.74-133.42,126.57-223.87,160c-29.17,10.72-53.12,32.78-65.73,60.52
					c-25.14,56.09-44.91,115.55-58.7,176.63c-15.89,70.29-10.96,120.19,15.07,152.56c26.4,32.69,78.71,44.97,124.37,29.14
					c40.72-14.11,78.24-48.38,105.67-96.51c20.68-37.39,33.68-79.13,45.14-115.95c2.28-7.31,4.49-14.42,6.69-21.27
					c2.49-7.75,9.43-13.21,17.54-13.82c57.67-4.34,119.81-20.48,184.69-47.97c7.17-3.04,15.45-1.64,21.23,3.59
					c5.77,5.22,7.99,13.33,5.67,20.77c-11.17,35.9,6.52,79.63,39.44,97.48c32.91,17.85,79.39,8.76,103.62-20.24
					c18.43-22.32,24.6-52.62,31.15-84.69c6.78-33.24,13.8-67.61,36.15-93.15c4.62-5.28,11.67-7.76,18.57-6.52
					c46.93,8.36,99.66-3.64,148.46-33.82c39.5-24.43,75.68-58.93,117.3-111.86c192.98-246.01,258.42-588.1,166.69-871.48
					c-2.34-7.23-0.38-15.16,5.06-20.47c165.88-161.92,278.91-371.71,318.29-590.73c1.23-6.83,5.91-12.53,12.36-15.07
					c23.65-9.31,40.82-32.18,40.82-54.39c0-9.31,6.43-17.39,15.5-19.49c7.08-1.64,13.9-2.7,20.5-3.72c6.3-0.98,12.26-1.9,17.83-3.24
					c12.55-2.9,21.15-6.63,27.21-11.79c5.99-5.09,9.44-11.69,9.01-17.23c-0.24-3.19-2.51-6.22-3.83-7.05
					c-9.43-0.36-17.38-7.3-18.95-16.68c-1.62-9.64,3.97-19.03,13.21-22.21l1.18-0.41c12.84-4.42,24.96-8.6,33.22-15.78
					c7.72-6.44,11.82-14.96,10.51-21.48c-1.01-5.03-5.8-10.03-12.25-12.82c-9.27-3.37-18.95-2.22-25.47-0.65
					c-8.14,1.95-16.65-1.37-21.3-8.34c-4.65-6.97-4.47-16.09,0.46-22.87c8.68-11.94,20.25-18.29,30.46-23.89
					c2.63-1.44,5.26-2.88,7.81-4.43c0.16-0.1,0.31-0.19,0.47-0.28c3.73-2.13,15.74-9.58,14.05-16.15c-0.56-2.24-1.42-3.71-2.92-5.03
					c-5.53-4.8-14.21-6.9-27.02-6.46c-26.63,1.27-52.2,12.39-69.89,30.49c-7.25,7.42-18.97,8.07-26.99,1.48
					c-8.02-6.58-9.68-18.2-3.81-26.76c9.68-14.13,14.98-22.45,19.65-29.79c4.21-6.6,7.84-12.31,13.44-20.34
					c0.74-1.06,17.15-24.73,4.79-35.46c-1.9-1.7-4.69-2.83-7.92-3.33c-12.16-2.01-24.75,3.92-36.6,10.63
					c-17.03,10.02-31.1,20.62-42.71,32.24c-46.55,45.09-82.5,101.53-117.28,156.1c-19.9,31.24-39.79,62.54-59.65,93.78
					c-36.76,57.82-73.36,115.42-109.55,171.98c-102.67,231.27-276.27,397.86-476.49,457.18c-132.32,39.2-297,88-397.04,203.9
					c-38.04,44.38-65.43,95.7-94.42,150.04c-12.6,23.6-25.62,48.01-39.49,71.54c-54.52,92.43-122.75,173.72-202.79,241.6
					c-5.57,4.75-11.28,9.52-17.01,14.31c-42.46,35.46-82.57,68.96-93.91,119.79c-3.07,13.43-1.32,27.1,4.78,37.6
					c12.76,21.83,37.61,26.5,83.04,15.6c189.33-47.61,332.87-179.9,419.92-282.49C1474.17,2717.01,1479.78,2714.5,1485.56,2714.5z
					 M1801.56,2130.5h0.05H1801.56z"/>
			</g>
			<g>
				<path class="st7" d="M1267.56,2895c-21.5,27.5-52,46-83,61.5c-4,29.5-19,58-41,79c-7,6.5-15,13-24.5,16s-20.5,2.5-28-3.5
					c-12-9-13-27-12-42c1.5-20.5,5.5-41,11.5-60.5c6.5-22,15-43,26-62.5l169.5-85.5c2,5,3.5,9.5,4.5,14.5
					C1295.56,2840.5,1285.56,2871.5,1267.56,2895z"/>
			</g>
			<g>
				<g>
					<path class="st3" d="M1125.56,2887.5c-4,12.5-8,25-11.5,37.5c-3.5,12.5-6.5,25-9.5,37.5c-2.5,12.5-4.5,25-5.5,37.5
						c0,3-0.5,6.5-0.5,9.5c0,3,0,5.5,0,8c0,5,1.5,9.5,2.5,11.5c1.5,2.5,2,2.5,3.5,3c1.5,0.5,4.5,0.5,7.5,0c3-1,6.5-3,10.5-6
						c4-3,8-7,12-11.5c7.5-8.5,14.5-18,19.5-28.5s8.5-21.5,11-32.5l0,0c1-6.5,5-11.5,10-14.5l0.5-0.5c14.5-9,28.5-17,41.5-26
						c13-9,25-18.5,35-30c9.5-11,17.5-24,22.5-38s6.5-29.5,3.5-44.5v-0.5c-1-4.5,2-9,6.5-10c3.5-0.5,7,1,9,4
						c10.5,16.5,14,38,11.5,57.5c-2.5,20-10,39-21.5,55.5c-5.5,8-12,15.5-19,22.5c-7,6.5-14.5,13-22,18.5
						c-15.5,11-32,19.5-48.5,26.5l11-15l0,0c-2,15.5-6.5,31-13,45c-6.5,14-15.5,27-26,38.5c-5.5,5.5-10.5,11-17.5,16.5
						c-7,5-15,10-25.5,12.5c-10,2.5-21.5,2.5-32.5-1.5c-5.5-2-11-5.5-15.5-10c-4.5-4.5-8-9.5-10-14.5c-4.5-10-5.5-19.5-6-28
						c0-4,0-8,0.5-12c0.5-4,1-7.5,1-11c2-14.5,4.5-28.5,8.5-42.5c8-27.5,20-54,38-76.5c4-4.5,10.5-5.5,15.5-1.5
						C1125.56,2878.5,1126.56,2883,1125.56,2887.5L1125.56,2887.5z"/>
				</g>
			</g>
			<g>
				<g>
					<path class="st3" d="M2604.06,1643c-18,3.5-37.5,6-56.5,4.5c-19-1.5-37.5-7-54-14c-4-2-6-6.5-4-10.5c1.5-3.5,5-5.5,9-4.5l0,0
						c16.5,3,33,4,48.5,1.5c15.5-2.5,30.5-8,45-14.5c10-4.5,22,0,26.5,10c4.5,10,0,22-10,26.5
						C2607.56,1642,2606.06,1642.5,2604.06,1643L2604.06,1643z"/>
				</g>
			</g>
			<g>
				<g>
					<path class="st3" d="M2717.06,1489c-21-4-41-9-60.5-12.5c-19.5-3.5-39.5-6-59.5-6.5l0,0c-4.5,0-8-4-8-8.5c0-4,3-7.5,6.5-8
						c20.5-4,42-5.5,63-5.5s42,1,61.5,0.5c11,0,20,8.5,20.5,20c0,11-8.5,20-20,20.5C2719.56,1489.5,2718.06,1489.5,2717.06,1489
						L2717.06,1489z"/>
				</g>
			</g>
			<g>
				<g>
					<path class="st3" d="M2724.06,1397.5c-13.5,4-27.5,11-41.5,18c-3.5,2-8,0-10-3.5c-1-2.5-1-5,0.5-7.5l0,0c8.5-13,17-27,28.5-40
						l1-1c7.5-8.5,21-9.5,29.5-2c8.5,7.5,9.5,21,2,29.5C2731.06,1394.5,2727.56,1396.5,2724.06,1397.5z"/>
				</g>
			</g>
			<g>
				<g>
					<path class="st3" d="M2652.56,1342.5c-9,6.5-17.5,13.5-25,22c-8,8.5-15.5,17.5-22.5,27l0,0c-2,2.5-5.5,3-8,1c-2-1.5-2.5-4-2-6
						c3-11.5,6.5-23.5,11-35.5c4.5-12,10.5-24,17-35l0.5-0.5c6-9.5,18.5-12.5,28-7c9.5,6,12.5,18.5,7,28
						C2656.56,1338.5,2654.56,1341,2652.56,1342.5z"/>
				</g>
			</g>
			<g>
				<g>
					<path class="st3" d="M2258.56,2243c-7-22-14-44-22.5-64.5c-8.5-21-19-41-32-59.5l0,0c-2.5-3.5-1.5-8,2-10c3-2,7-1.5,9.5,1
						c17,17,32,36,45,56.5c13,20,24.5,41.5,35.5,62l0,0c5,10,1.5,22-8.5,27s-22,1.5-27-8.5
						C2259.06,2245.5,2258.56,2244,2258.56,2243z"/>
				</g>
			</g>
			<g>
				<g>
					<path class="st3" d="M1447.06,2748c13.5-19.5,27-39,40-58.5c13-19.5,26-39.5,38.5-59.5s25-40,37.5-60.5l37-61
						c2.5-4.5,8.5-6,13-3c4,2.5,5.5,7.5,4,11.5c-8.5,22.5-18.5,44.5-28.5,66c-10.5,21.5-21,43-33,64.5c-11.5,21-23.5,42-36,62.5
						s-25.5,41-39.5,60.5c-6.5,9-19,11.5-28,5C1443.06,2769.5,1440.56,2757,1447.06,2748z"/>
				</g>
			</g>
			<g>
				<g>
					<path class="st3" d="M1389.06,3418c-15,4-30.5,5.5-46,5c-15.5-0.5-31-3-45.5-7c-15-4-29-9.5-42.5-17c-13.5-7-25.5-16-36.5-26.5
						c-4.5-4.5-5-11.5-0.5-16.5c3.5-4,9-4.5,13.5-2.5l0,0c12,6,24,11,36.5,15.5c12.5,4,25,7,37.5,9c12.5,2,25.5,3,38,3
						s25-1,37.5-2.5h0.5c11-1.5,21,6.5,22,17.5C1405.06,3406,1398.56,3415.5,1389.06,3418z"/>
				</g>
			</g>
			<g>
				<g>
					<path class="st3" d="M1550.56,3340c54.5-29.5,105-67,150.5-110c45.5-43,86-91,121-143l0,0c3-4.5,8-7.5,13-8.5h1
						c18.5-3.5,37-7.5,55.5-12c18.5-5,36.5-10.5,54-17c18-6.5,35.5-14,53-22.5c17.5-8,34.5-17.5,52-27l0,0c3.5-2,7.5-0.5,9.5,3
						c1.5,2.5,1,5.5-1,8c-13,16-28.5,30-45,42.5c-16.5,12.5-34.5,23.5-53.5,32.5c-19,9-38.5,16.5-58.5,22c-20,5.5-41,9.5-62,10.5
						l14-8.5l0,0c-36.5,54.5-79,105-126.5,150s-101,84.5-159,116c-9.5,5.5-22,1.5-27-8C1537.06,3357,1540.56,3345,1550.56,3340
						L1550.56,3340z"/>
				</g>
			</g>
			<g>
				<path class="st3" d="M1961.52,3229.96c-14.43,0-29.42-1.77-44.46-5.37c-30.73-7.68-54.81-21.16-71.7-40.1
					c-20.93-23.47-29.28-55.24-21.78-82.91c2.17-8,10.41-12.72,18.4-10.56c8,2.16,12.72,10.4,10.56,18.4
					c-4.8,17.72,1.17,39.35,15.22,55.09c12.63,14.17,32.15,24.86,56.44,30.93c28.92,6.91,69.78,7.5,97.27-11.74
					c6.78-4.75,16.14-3.1,20.89,3.69c4.75,6.79,3.1,16.14-3.69,20.89C2018.31,3222.53,1991.1,3229.95,1961.52,3229.96z"/>
			</g>
			<g>
				<g>
					<path class="st3" d="M1809.06,3286.5c-5.5-5-11.5-9.5-17.5-14.5c-6-4.5-13-9.5-19.5-15.5c-4-3.5-4-9.5-0.5-13.5
						c2.5-3,6-3.5,9.5-3h0.5c7,2,14.5,3,22.5,4.5c8,1.5,16.5,3.5,24.5,6h0.5c11,3,17.5,14.5,14,25.5c-3,11-14.5,17.5-25.5,14
						C1814.06,3290,1811.56,3288.5,1809.06,3286.5z"/>
				</g>
			</g>
			<g>
				<path class="st7" d="M2342.06,2559c-7.5,1.5-15,3-22.5,4c1.5-34,2.5-68,1.5-101.5c0.5,0,1.5,0,2-0.5c27-5,53.5,12.5,58.5,39.5
					C2387.06,2528,2369.56,2554,2342.06,2559z"/>
			</g>
			<g>
				<path class="st3" d="M2303.78,2580.24l0.79-17.9c1.32-30.02,2.54-65.43,1.49-100.39l-0.46-15.45h13.36l1.36-0.25
					c16.97-3.13,34.24,0.42,48.59,10.04c14.51,9.73,24.24,24.46,27.39,41.48c3.43,17.13-0.04,34.6-9.81,48.98
					c-9.68,14.25-24.46,23.83-41.62,26.98c-7.57,1.51-15.4,3.08-23.34,4.14L2303.78,2580.24z M2336.36,2475.37
					c0.33,24.07-0.24,47.87-1.05,69.68c1.26-0.25,2.53-0.5,3.81-0.76l0.26-0.05c9.24-1.68,17.16-6.78,22.31-14.35
					c5.21-7.67,7.04-17.06,5.16-26.45c-1.71-9.22-6.89-17.04-14.64-22.24C2347.39,2477.98,2341.97,2476.01,2336.36,2475.37z"/>
			</g>
			<g>
				<path class="st3" d="M1652.45,3284.4c-58.98,0-118.24-16.55-169.19-47.58c-57.56-35.38-103.38-89.21-129.07-151.6
					c-3.15-7.66,0.5-16.43,8.16-19.58c7.64-3.14,16.42,0.5,19.58,8.16c23.3,56.58,64.84,105.39,116.98,137.44
					c52.56,32.01,114.9,47.06,175.48,42.32c8.25-0.6,15.48,5.53,16.12,13.79c0.65,8.26-5.53,15.48-13.78,16.12
					C1668.65,3284.09,1660.55,3284.4,1652.45,3284.4z"/>
			</g>
			<g class="st9">
				<path class="st3" d="M2311.56,2595.6c-17.5,188.5-89.5,374.5-208,526c-35,44.5-74.5,87-122.5,116.5c-47,29-103,45-157.5,37
					c-72.5-39.5-128,69-139.5,128.5c-4.5,24.5-4.5,52.5,12,71.5c2.5,3,5.5,5.5,8.5,8c-26.5,8.5-57,7-81.5-6.5
					c-41.5-22.5-63-76-49-121c-51.5,21.5-107.5,39.5-165,47c0,0-0.5,0-1,0c-8.5,1-17,2-25.5,2.5c0,0,0,0,0,0.5
					c-43.5,2.5-133.5-2-205-69.5c0,0-95.5,223.5,7,252.5c62,17.5,130.5-53.5,175.5-112.5c-8.5,23.5-18,47.5-31,70.5
					c-26,47-65.5,88.5-116.5,105.5c-50.5,17.5-113,6-146.5-35.5c0-0.5-0.5-0.5-1-1c-4-3.5-8-7.5-11.5-12c-37-45.5-31.5-112-19-169.5
					c14-62,34-122.5,60-180.5c15-33,43-58.5,77-71c29-10.5,57-24,84-40c50-29.5,95.5-67.5,131-113.5c17.5-22.5,32-46.5,44.5-72
					c2-3.5,3.5-7.5,5-11c2-4.5,4-9.5,6-14c1-2.5,2.5-5.5,3.5-8.5c1.5-3.5,2.5-6.5,3.5-10c0,0,0,0,0-0.5
					c11.15-7.78,31.12-24.22,42.86-52.03c4.18-9.91,6.45-19.2,7.69-27.11c-26.35,133.9-68.62,199.21-103.55,234.14
					c-5.72,5.72-23.4,30.67-48.5,62.5c-76.5,97-15.5,168,44,173c161.5,13.5,262.5-138.5,313-206.5c23.5-31.5,61-48.5,100-46.5
					c56.5,2.5,146-6,249-60C2219.56,2904.1,2276.06,2737.1,2311.56,2595.6z"/>
			</g>
			<g>
				<path class="st3" d="M1457.31,2700.64c-33.99,0-67.76-8.02-98.58-23.78c-47.49-24.29-84.63-64.67-104.57-113.71
					c-3.12-7.68,0.57-16.43,8.25-19.55c7.68-3.11,16.43,0.57,19.55,8.25c17.23,42.37,49.35,77.29,90.43,98.3
					c40.36,20.63,88.6,25.86,132.35,14.35c8.03-2.11,16.22,2.68,18.33,10.69c2.11,8.01-2.68,16.22-10.69,18.33
					C1494.25,2698.28,1475.74,2700.64,1457.31,2700.64z"/>
			</g>
			<g>
				<path class="st3" d="M2472.57,1970c-5.39,0-10.6-2.91-13.28-8.01c-46.9-89.01-132.16-159.53-228.09-188.64
					c-7.93-2.4-12.4-10.78-10-18.71c2.4-7.93,10.79-12.41,18.71-10c104.97,31.86,194.61,105.98,245.92,203.36
					c3.86,7.33,1.05,16.4-6.28,20.26C2477.32,1969.45,2474.93,1970,2472.57,1970z"/>
			</g>
			<g>
				<g>
					<path class="st7" d="M2283.81,2724.74l-380.3,90.78c-45.01,10.76-90.67-17.28-101.44-62.35l-48.3-202.38
						c-9.42-39.46,10.93-79.34,46.38-95.87c5.01-2.38,10.36-4.22,15.97-5.57l380.25-90.77c45.07-10.77,90.72,17.27,101.44,62.35
						l38.29,160.28l10.06,42.09C2356.93,2668.37,2328.82,2713.98,2283.81,2724.74z"/>
				</g>
				<g class="st9">
					<path class="st3" d="M2283.82,2724.74l-380.3,90.78c-45.01,10.76-90.67-17.28-101.44-62.35l-48.3-202.38
						c-9.42-39.46,10.93-79.34,46.38-95.87c25.02,9.19,40.92,15.09,40.92,15.09c57.3,158.03,122.89,227.99,325.4,183.13
						c87.41-19.39,139.2-45.79,169.62-71.93l10.06,42.09C2356.93,2668.37,2328.83,2713.98,2283.82,2724.74z"/>
				</g>
				<g>
					<path class="st3" d="M1876.35,2832.46c-39.06,0-74.56-26.71-84.02-66.32l-53.11-222.48c-11.06-46.32,17.63-93.01,63.96-104.07
						l400.33-95.58c46.33-11.05,93.02,17.63,104.07,63.96l53.11,222.47c5.34,22.36,1.61,45.53-10.5,65.23s-31.1,33.5-53.46,38.84
						l-400.33,95.58C1889.7,2831.69,1882.97,2832.46,1876.35,2832.46z M1893.51,2817.93h0.05H1893.51z M2223.57,2366.65
						c-4.7,0-9.48,0.55-14.25,1.68l-400.33,95.58c-32.92,7.86-53.31,41.04-45.45,73.95l53.11,222.48
						c7.86,32.92,41.04,53.29,73.96,45.44l400.33-95.58c15.87-3.79,29.35-13.59,37.96-27.61c8.61-14.01,11.27-30.47,7.49-46.34
						l-53.11-222.47C2276.56,2385.63,2251.33,2366.65,2223.57,2366.65z"/>
				</g>
				<g>
					<path class="st7" d="M2298.72,2719.6c-4.68,2.2-9.63,3.91-14.91,5.14l-380.3,90.78c-32.99,7.86-66.3-5.05-85.99-30.34
						c-7.17-9.18-12.54-19.99-15.39-32.02l-21.5-89.9l-7.09-29.66l-19.77-82.81c-10.77-45.07,17.34-90.68,62.35-101.44l82.18-19.6
						c-36.17,16.18-57.05,56.45-47.55,96.32l26.06,109.33l22.24,93.11c10.76,45.01,56.43,73.1,101.44,62.35L2298.72,2719.6z"/>
				</g>
				<g class="st10">
					<path class="st3" d="M2298.72,2719.6c-4.68,2.2-9.63,3.91-14.91,5.14l-380.3,90.78c-45.01,10.76-90.67-17.28-101.38-62.36
						l-28.59-119.56c14.61,18.84,37.98,40.67,66.13,36.83c15.45-2.07,27.71-16.47,37.14-35.03l22.24,93.11
						c10.76,45.01,56.43,73.1,101.44,62.35L2298.72,2719.6z"/>
				</g>
				<g>
					<path class="st3" d="M1883.96,2830.36c-17.64,0-35.04-4.89-50.53-14.41c-22.07-13.56-37.51-34.82-43.47-59.86l-48.32-202.4
						c-12.4-51.82,19.71-104.1,71.58-116.51l82.15-19.59l8.01,23.56c-31.44,14.09-48.45,48.6-40.47,82.05l48.32,202.41
						c4.41,18.54,15.86,34.29,32.24,44.36c16.37,10.06,35.59,13.16,54.09,8.74l298.27-71.24l8.13,23.51
						c-5.55,2.56-11.38,4.56-17.33,5.94l-380.23,90.79C1898.97,2829.48,1891.44,2830.36,1883.96,2830.36z M1851.76,2453.69
						l-32.72,7.81c-38.46,9.21-62.27,47.96-53.08,86.39l48.32,202.42c4.41,18.54,15.86,34.28,32.24,44.35
						c16.37,10.06,35.58,13.17,54.09,8.74l36.01-8.6c-2.11-1.09-4.18-2.27-6.23-3.53c-22.07-13.56-37.51-34.82-43.47-59.86
						L1838.6,2529C1832.26,2502.42,1837.61,2475.34,1851.76,2453.69z"/>
				</g>
				<g>
					<path class="st11" d="M2025.25,2593.15c1.74,7.49,5.28,70.44,5.28,70.44s-19.16,4.46-42.7,9.93
						c-29.4,6.84-60.32-18.06-69.05-55.61c-8.74-37.55,8.01-73.54,37.41-80.38c19.84-4.62,42.7-9.93,42.7-9.93
						S2022.41,2580.94,2025.25,2593.15z"/>
				</g>
				<g>
					<path class="st3" d="M1978.1,2684.64c-30.73,0-60.23-26.52-69.06-64.46c-4.73-20.33-2.93-41,5.08-58.19
						c8.39-18.03,22.53-30.17,39.81-34.19l29.81-6.94c12.21-2.82,24.67,3.45,29.64,14.96c12.7,29.47,19.97,48,21.61,55.06
						c0.4,1.71,1.61,6.93,4.74,58.74c0.76,12.62-7.63,23.87-19.97,26.74l-29.66,6.9C1986.11,2684.19,1982.09,2684.64,1978.1,2684.64
						z M1989.61,2540.19c-0.44,0-0.89,0.05-1.34,0.16l-29.81,6.94c-11.16,2.59-20.47,10.82-26.21,23.15
						c-6.13,13.16-7.45,29.22-3.73,45.22c7.48,32.11,33.04,53.73,57.05,48.13l29.66-6.9c2.8-0.65,4.71-3.2,4.54-6.05
						c-2.22-36.69-3.68-52.79-4.26-55.42c-1.3-5.58-8.96-24.89-20.5-51.67C1994.06,2541.55,1991.92,2540.19,1989.61,2540.19z"/>
				</g>
				<g>
					
						<ellipse transform="matrix(0.974 -0.2266 0.2266 0.974 -535.7947 524.0994)" class="st12" cx="2014.71" cy="2595.6" rx="54.66" ry="69.81"/>
				</g>
				<g class="st6">
					<path class="st7" d="M2070.06,2597.45c-12.24-29.7-39.01-47.88-64.64-41.9c-25.73,5.99-41.74,34.22-39.53,66.33
						c-1.82-4.38-3.3-9.03-4.43-13.89c-8.69-37.56,8.06-73.54,37.46-80.38c29.4-6.83,60.29,18.03,69.04,55.58
						C2069.08,2588.01,2069.77,2592.78,2070.06,2597.45z"/>
				</g>
				<g>
					<path class="st11" d="M2030.55,2663.57c-29.39,6.88-60.35-18.02-69.09-55.57c-1.99-8.63-2.66-17.15-2.13-25.3
						c13.6,23.74,37.22,37.32,59.86,32.02c22.65-5.3,37.8-27.81,39.54-55.06c4.07,7.01,7.25,14.97,9.23,23.55
						C2076.7,2620.76,2059.95,2656.74,2030.55,2663.57z"/>
				</g>
				<g>
					<path class="st3" d="M2020.56,2674.74c-13.36,0-26.72-4.97-38.58-14.51c-14.78-11.9-25.52-29.65-30.24-49.98
						c-4.73-20.33-2.93-40.99,5.08-58.19c8.39-18.03,22.53-30.17,39.81-34.19c34.73-8.08,71.08,20.22,81.06,63.08
						c4.73,20.33,2.93,40.99-5.08,58.19c-8.39,18.03-22.53,30.17-39.81,34.19C2028.75,2674.27,2024.66,2674.74,2020.56,2674.74z
						 M2008.83,2536.47c-2.56,0-5.12,0.28-7.67,0.88c-11.16,2.6-20.47,10.82-26.21,23.15c-6.13,13.16-7.45,29.22-3.73,45.22
						s12,29.82,23.31,38.93c10.6,8.54,22.58,11.8,33.74,9.2c11.16-2.6,20.47-10.82,26.21-23.15c6.13-13.17,7.45-29.22,3.73-45.22
						C2051.53,2556.77,2030.37,2536.47,2008.83,2536.47z"/>
				</g>
				<g>
					<path class="st3" d="M2165.24,2761.5c-4.62,0-8.76-3.21-9.77-7.91l-22.02-102.95c-5.82-27.21,2.33-55.32,21.8-75.2
						c15.13-15.44,21.21-37.22,16.26-58.26l-33.96-144.46c-1.26-5.38,2.07-10.76,7.45-12.03c5.38-1.27,10.76,2.07,12.02,7.45
						l33.96,144.46c6.52,27.75-1.49,56.47-21.44,76.83c-14.77,15.07-20.95,36.39-16.54,57.03l22.02,102.95
						c1.16,5.4-2.29,10.71-7.69,11.87C2166.63,2761.44,2165.93,2761.5,2165.24,2761.5z"/>
				</g>
			</g>
			<g>
				<path class="st7" d="M1807.06,2702.5c-90.5,43.5-190,66.5-290.5,66.5c-11,0-22.5-0.5-33.5-1c-8.5-0.5-16-3-23-7
					c9.5-11.5,18.5-23,27.5-34.5c14-18.5,26.5-38,38.5-57.5c82-1.5,163.5-20.5,237.5-56.5c13.5-6.5,28-6.5,41-1
					c11,4.5,20.5,13,26,24.5C1842.56,2660.5,1832.06,2690.5,1807.06,2702.5z"/>
			</g>
			<g>
				<path class="st3" d="M1516.56,2783.5c-11.04,0-22.47-0.48-34.18-1.02c-10.62-0.62-20.29-3.55-29.76-8.96l-15.65-8.94
					l11.63-13.77c23.52-27.84,45.25-58.3,64.59-90.53l4.27-7.13l8.31-0.15c80.32-1.47,160.28-20.49,231.21-54.99
					c15.78-7.58,33.4-8.54,49.69-2.78c16.25,5.76,29.36,17.57,36.89,33.28c7.85,16.02,8.94,34.07,3.02,50.71
					c-5.78,16.23-17.55,29.14-33.15,36.35C1720.95,2760.01,1618.29,2783.5,1516.56,2783.5z M1485.87,2752.61
					c10.5,0.47,20.88,0.89,30.69,0.89c97.3,0,195.51-22.49,284-65.02l0.23-0.11c8.25-3.8,14.48-10.62,17.54-19.21
					c3.19-8.96,2.57-18.75-1.75-27.56c-4.13-8.61-11.19-15-19.91-18.09c-8.72-3.1-18.17-2.55-26.63,1.51
					c-72.32,35.18-153.57,55.1-235.42,57.76C1519.61,2707.19,1503.28,2730.58,1485.87,2752.61z"/>
			</g>
			<g class="st9">
				<path class="st3" d="M2775.56,1421.95c-1-1.5-2.5-2.5-4-3.5c-19.5-13-50-2.5-65.5,11.5c-4.5,4-8.5,9-8.5,15
					c-0.5,8.5,7.5,15,15.5,17.5c2.5,1,5,1.5,7.5,1.5c-0.5,0-1,0.5-1.5,0.5c11.5,0,22,12.5,23,25.5s-6,26-16,34
					c-10,8-22.5,13-35.5,16c-12.5,3-26,4-38.5,7c-0.5,31-23,60.5-53.5,73c-40,222-155.5,436-322,599.5
					c-98-214.5-123.5-55.5-319.5,42.5c-189,94-389,35-487,6.5c95.5-70.5,217-108,332.5-142.5c82.5-24.5,157-66.5,222-120l109-41.5
					c203,0,334-181.5,378.5-254.5c9-15,6.5-34.5-6.5-46c-28.5-25.5-32-56-32-56c70-9.5,119.5-25.5,123.5-46.5c2-10-4.5-19-11-25
					c-5-5-3-13.5,4-15l44-11.5c15.5-4,16-25.5,0.5-30c-35.5-10.5-75-14.5-75-14.5c0-80.5,35.5-178.5,69-215.5c12.5-13.5,21-30,27-45
					c6.5,1,13,4,18,8c18.5,16.5,11,43.5-1.5,62c-11.5,16.5-14.5,23.5-33,50c21.5-22,52-35,83.5-36.5c14.5-0.5,29.5,1.5,41,11.5
					c3,2.5,5,5.5,7,9c-21.5-3-52.5,0.5-61.5,4c-25,8.5-47,26-61,48.5c-5.5,8.5-10,18.5-9,28.5c0.5,10,8,20.5,18,21.5
					c12,1.5,21.5-9,30.5-17.5c10-9.5,21.5-18,34-24c-2,1.5-3.5,3.5-5,5.5c12.5-3.5,25.5-3.5,37.5,1.5c12,5,22,15,24.5,27.5
					C2778.06,1410.45,2777.06,1416.45,2775.56,1421.95z"/>
			</g>
			<g class="st13">
				<path class="st14" d="M1267.56,2895c-21.5,27.5-52,46-83,61.5c-4,29.5-19,58-41,79c-7,6.5-15,13-24.5,16s-20.5,2.5-28-3.5
					c-12-9-13-27-12-42c1.5-20.5,5.5-41,11.5-60.5c19.5,7,44,0,60-14.5c20-17.5,30.5-43,40-67.5c24.5-4.5,49.5-9,71.5-21
					c14-7.5,20.5-20,28.5-30.5C1295.56,2840.5,1285.56,2871.5,1267.56,2895z"/>
			</g>
			<g class="st13">
				<path class="st14" d="M1460.06,2761c0,0,1-0.5,3-1c-0.5,0.5-1,1.5-2,2L1460.06,2761z"/>
			</g>
			<g class="st9">
				<path class="st3" d="M1807.06,2702.5c-90.5,43.5-190,66.5-290.5,66.5c-11,0-22.5-0.5-33.5-1c-8.5-0.5-16-3-23-7
					c9.5-11.5,18.5-23,27.5-34.5c85.5-5.5,170.5-20.5,251-49.5c21.5-8,44-17.5,57.5-36c8-10.5,9-20,8.5-30c11,4.5,20.5,13,26,24.5
					C1842.56,2660.5,1832.06,2690.5,1807.06,2702.5z"/>
			</g>
			<g>
				<g>
					<g>
						<path class="st7" d="M2248.31,1845.38c-200.52,704.69-1188.87,461.21-1069.93-234.28
							C1366.53,884.88,2387.93,1137.52,2248.31,1845.38z"/>
					</g>
					<g>
						<path class="st7" d="M2248.31,1845.38c-200.52,704.69-1188.87,461.21-1069.93-234.28
							C1366.53,884.88,2387.93,1137.52,2248.31,1845.38z"/>
					</g>
					<g>
						<path class="st7" d="M2248.31,1845.38c-200.52,704.69-1188.87,461.21-1069.93-234.28
							C1366.53,884.88,2387.93,1137.52,2248.31,1845.38z"/>
					</g>
					<g>
						<path class="st3" d="M1723.88,2279.67c-43.11,0-86.75-4.87-130.12-14.72c-137.04-31.12-255.97-108.17-334.89-216.95
							c-88.23-121.62-119.92-273.36-91.62-438.8l0.2-0.93c44.25-170.82,137.74-300.71,270.34-375.63
							c117.6-66.44,259.05-85.55,398.32-53.8c139.55,31.81,259.87,110.48,338.78,221.51c88.44,124.44,117.66,279.08,84.5,447.22
							l-0.22,0.91c-47.22,165.96-141.5,292.03-272.64,364.59C1906.95,2257.1,1816.66,2279.67,1723.88,2279.67z M1189.44,1613.47
							c-60.46,354.88,169.75,575.04,409.32,629.44c245.22,55.69,537.69-46.48,638.55-400.18
							c71.01-361.19-160.74-585.92-406.22-641.87C1588.01,1145.46,1283.6,1250.96,1189.44,1613.47z M2248.32,1845.38h0.05H2248.32z"
							/>
					</g>
					<g class="st15">
						<path class="st3" d="M2248.31,1845.37c-162.59,611.68-1006.51,534.18-1078.54-69.85c85.16,179.17,152.3,169.41,277.23,238.96
							c388.82,233.84,806.18-124.95,765.46-521.93C2264.1,1604.54,2275.26,1728.92,2248.31,1845.37z"/>
					</g>
					<g>
						<path class="st16" d="M1723.88,2284.22c-43.44,0-87.43-4.91-131.13-14.83c-138.12-31.36-258-109.04-337.56-218.71
							c-88.97-122.64-120.93-275.56-92.43-442.24l0.28-1.3c44.57-172.04,138.8-302.9,272.51-378.45
							c118.59-67,261.2-86.28,401.57-54.28c140.64,32.06,261.92,111.36,341.48,223.31c89.18,125.48,118.66,281.34,85.25,450.74
							l-0.31,1.27c-47.56,167.15-142.59,294.17-274.81,367.33C1908.47,2261.46,1817.43,2284.22,1723.88,2284.22z M1193.9,1614.43
							c-59.85,351.85,168.37,570.11,405.88,624.05c243.07,55.19,533.02-46.13,633.12-396.81c70.3-358.1-159.45-580.9-402.81-636.37
							C1589.09,1150.37,1287.35,1255.01,1193.9,1614.43z M2248.32,1845.38h0.05H2248.32z"/>
					</g>
					<g>
						<path class="st3" d="M1723.88,2284.22c-43.44,0-87.43-4.91-131.13-14.83c-138.12-31.36-258-109.04-337.56-218.71
							c-88.97-122.64-120.93-275.56-92.43-442.24l0.28-1.3c44.57-172.04,138.8-302.9,272.51-378.45
							c118.59-67,261.2-86.28,401.57-54.28c140.64,32.06,261.92,111.36,341.48,223.31c89.18,125.48,118.66,281.34,85.25,450.74
							l-0.31,1.27c-47.56,167.15-142.59,294.17-274.81,367.33C1908.47,2261.46,1817.43,2284.22,1723.88,2284.22z M1193.9,1614.43
							c-59.85,351.85,168.37,570.11,405.88,624.05c243.07,55.19,533.02-46.13,633.12-396.81c70.3-358.1-159.45-580.9-402.81-636.37
							C1589.09,1150.37,1287.35,1255.01,1193.9,1614.43z M2248.32,1845.38h0.05H2248.32z"/>
					</g>
					<g>
						<path class="st3" d="M2199.42,1976.93c-424.78,483.06-1072.92,15.04-790.25-472.09
							C1758.93,978.45,2478.1,1384.88,2199.42,1976.93z"/>
					</g>
					<g>
						<path class="st17" d="M2221.61,1568.81c183.22,551.77-591.89,856.53-842.19,379.57
							C1729.98,2162.88,2161.07,1884.66,2221.61,1568.81z"/>
					</g>
					<g>
						<path class="st3" d="M1785.15,2252.96c-24.81,0-49.85-1.83-74.91-5.54c-122.08-18.06-233.86-77.82-314.76-168.28
							c-89.25-99.8-133.27-227.65-127.29-369.71c9.99-147.28,86.32-289.04,209.44-389.33c123.54-100.63,278.72-146.83,425.78-126.71
							l2.62,0.59c288.84,91.18,418.13,412.41,357.67,655.23l-0.03,0.12c-37.63,146.4-114.36,260.43-221.88,329.75
							C1966.52,2227.61,1877.44,2252.96,1785.15,2252.96z M1835.08,1220.47c-118.49,0-238.57,43.67-337.44,124.21
							c-116.34,94.76-188.44,228.34-197.81,366.49c-12.16,289.23,199.58,473.03,415.05,504.9
							c187.42,27.71,435.57-53.74,518.07-374.56c56.87-228.48-64.27-530.53-335.18-616.89
							C1877.01,1221.84,1856.07,1220.47,1835.08,1220.47z M2248.32,1845.38h0.05H2248.32z"/>
					</g>
					<g>
						<path class="st3" d="M1791.66,2192.57c-99.02,0-195.67-30.91-276.93-89.37c-89.05-64.05-151.47-155.81-175.76-258.39
							c-26.84-113.31-6.3-233.04,59.39-346.25l0.4-0.64c82.49-124.14,191.23-205.75,314.47-236.01c110.76-27.2,227.07-11,327.5,45.6
							c102.77,57.92,178.4,152.04,212.96,265.01c38.63,126.29,23.78,267.98-42.95,409.74l-0.75,1.6l-1.17,1.33
							c-103.74,117.97-228.74,188.55-361.49,204.13C1828.74,2191.49,1810.16,2192.57,1791.66,2192.57z M1419.79,1511.44
							c-139.21,240.23-45.32,460.09,109.54,571.47c170.52,122.64,440.4,135.16,659.53-112.91
							c139.99-299.2,15.14-541.78-160.42-640.72C1851.93,1229.8,1595.31,1247.59,1419.79,1511.44z M2199.42,1976.93h0.05H2199.42z"
							/>
					</g>
					<g>
						<path class="st7" d="M1159.7,2021.63c112.91,232.36,355.29,138.76,269.86-93.94
							C1320.17,1679.82,1061.06,1779.85,1159.7,2021.63z"/>
					</g>
					<g class="st10">
						<path class="st3" d="M1371.85,2148.9c72.86-27.52,98.12-135.07,52.59-233.17c-12.67,121.92-181.31-19.26-205.27-67.43
							C1043.99,1956.62,1239.11,2202.32,1371.85,2148.9z"/>
					</g>
					<g>
						<path class="st3" d="M1329.36,2171.74c-61.73,0-134.16-40.8-183.91-143.18l-0.42-0.94c-53.41-130.92-6.24-220.91,60.2-249.11
							c73.59-31.24,179.25,7.78,238.83,142.79l0.38,0.94c46.53,126.75,1.39,211.54-63.99,239.34
							C1364.93,2168.17,1347.6,2171.74,1329.36,2171.74z M1174.18,2015.18c55.4,113.62,139.29,140.45,193.86,117.24
							c51.5-21.9,85.9-91.84,46.82-198.78c-51.33-115.87-138.04-151.08-197.25-125.95
							C1165.11,1829.97,1129.17,1904.39,1174.18,2015.18z"/>
					</g>
					<g>
						<path class="st7" d="M1154.42,2038.25c91.69,188.2,274.46,121.15,205.4-67.07
							C1271.11,1767.64,1072.57,1840.73,1154.42,2038.25z"/>
					</g>
					<g>
						<path class="st3" d="M1290.73,2166.04c-49.25,0-108.49-34.52-150.55-120.85l-0.39-0.87c-44.72-107.91-9.47-180.7,42.21-202.67
							c58.12-24.71,142.87,9.68,192.35,123.2l0.35,0.87c37.97,103.47,4.22,171.39-46.07,192.8
							C1317.14,2163.41,1304.31,2166.04,1290.73,2166.04z M1168.88,2031.74c44.59,91.18,107.6,114.54,147.34,97.62
							c36.43-15.51,59.44-68.6,28.89-152.28c-41.25-94.29-107.01-124.84-150.71-106.26
							C1156.7,1886.84,1132.68,1944.01,1168.88,2031.74z"/>
					</g>
					<g class="st18">
						<path class="st7" d="M1443.58,1806.47c59.6,90.98,164.05,24.84,125.78-62.49C1514.89,1636.57,1390.52,1712.53,1443.58,1806.47
							z"/>
					</g>
					<g class="st18">
						<path class="st7" d="M1553.53,1944.15c24.8,33.48,71.04,5.44,47.46-33.43C1576.2,1877.25,1529.96,1905.29,1553.53,1944.15z"/>
					</g>
					<g class="st18">
						<path class="st7" d="M2169.77,1633.71c-52.86-405.2-467.55-332.87-563.57-214.02
							C1867.56,1358.86,2029.31,1482.2,2169.77,1633.71z"/>
					</g>
					<g class="st15">
						<path class="st3" d="M1383.55,2012.96c-5-29.02-17.97-56.78-35.94-80.28c5.78,144.6-146.91,126.88-207.57,40.49
							C1171.06,2180.13,1400.55,2210.84,1383.55,2012.96z"/>
					</g>
				</g>
			</g>
		</g>
		<g>
			<g>
				<path class="st7" d="M768.76,3406.77c0.48,5-9.36,10.34-24.45,14.2c-7.62,1.95-13.13,8.62-13.61,16.47
					c-0.94,15.55-4.33,26.22-9.33,26.7c-5,0.48-10.34-9.36-14.2-24.45c-1.95-7.62-8.62-13.13-16.47-13.61
					c-15.56-0.94-26.26-4.33-26.73-9.33c-0.48-5.03,9.38-10.38,24.47-14.22c7.63-1.94,13.15-8.62,13.63-16.48
					c0.94-15.56,4.33-26.23,9.33-26.71c5-0.48,10.34,9.36,14.21,24.47c1.95,7.63,8.63,13.14,16.49,13.61
					C757.62,3398.35,768.28,3401.74,768.76,3406.77z"/>
			</g>
			<g>
				<path class="st7" d="M845.41,1803.49c0.29,5.21-10.13,10.36-25.95,13.76c-7.99,1.72-13.97,8.42-14.78,16.55
					c-1.6,16.1-5.54,27.04-10.76,27.34c-5.21,0.29-10.36-10.13-13.76-25.95c-1.72-7.99-8.42-13.97-16.55-14.78
					c-16.11-1.6-27.08-5.54-27.37-10.75c-0.3-5.24,10.15-10.4,25.97-13.78c8-1.71,14-8.42,14.8-16.56
					c1.6-16.12,5.54-27.06,10.75-27.35c5.21-0.29,10.36,10.13,13.76,25.97c1.72,7.99,8.43,13.99,16.57,14.79
					C834.18,1794.31,845.11,1798.25,845.41,1803.49z"/>
			</g>
			<g>
				<circle class="st7" cx="3023.53" cy="2087.9" r="18.55"/>
			</g>
			<g>
				
					<ellipse transform="matrix(0.9952 -0.0979 0.0979 0.9952 -229.5244 281.6318)" class="st7" cx="2755.18" cy="2479.76" rx="18.5" ry="18.5"/>
			</g>
			<g>
				<circle class="st7" cx="2650.45" cy="3386.5" r="21.99"/>
			</g>
			<g>
				
					<ellipse transform="matrix(0.721 -0.6929 0.6929 0.721 -502.8912 966.6565)" class="st7" cx="948.98" cy="1107.83" rx="23.08" ry="23.08"/>
			</g>
			<g>
				<circle class="st7" cx="3449.71" cy="1462.57" r="18.55"/>
			</g>
			<g>
				
					<ellipse transform="matrix(0.7071 -0.7071 0.7071 0.7071 14.6904 915.5959)" class="st7" cx="1112.57" cy="440.07" rx="23.08" ry="23.08"/>
			</g>
			<g>
				
					<ellipse transform="matrix(0.6428 -0.766 0.766 0.6428 -2102.3901 1405.9696)" class="st7" cx="456.34" cy="2957.26" rx="20.83" ry="20.83"/>
			</g>
			<g>
				
					<ellipse transform="matrix(0.1602 -0.9871 0.9871 0.1602 1954.6987 4465.9209)" class="st7" cx="3601.88" cy="1084.22" rx="9.54" ry="9.54"/>
			</g>
			<g>
				<path class="st7" d="M2984.79,3076.8c0.35,6.24-4.42,11.58-10.66,11.93s-11.58-4.42-11.93-10.66s4.42-11.58,10.66-11.93
					S2984.43,3070.56,2984.79,3076.8z"/>
			</g>
			<g>
				<path class="st7" d="M1645.81,573.43c0.09,6.56-5.15,11.94-11.7,12.04c-6.56,0.09-11.94-5.15-12.04-11.7
					c-0.09-6.56,5.15-11.94,11.7-12.04C1640.32,561.63,1645.71,566.87,1645.81,573.43z"/>
			</g>
			<g>
				<path class="st7" d="M700.54,2648.99c0.56,5.89-3.76,11.12-9.65,11.68c-5.89,0.56-11.12-3.76-11.68-9.65s3.76-11.12,9.65-11.68
					C694.74,2638.78,699.97,2643.1,700.54,2648.99z"/>
			</g>
			<g>
				
					<ellipse transform="matrix(0.1832 -0.9831 0.9831 0.1832 -1691.401 2291.7791)" class="st7" cx="533.4" cy="2163.71" rx="20.83" ry="20.83"/>
			</g>
		</g>
	</g>
</g>
</svg>
