<?xml version="1.0" encoding="utf-8"?>
<!-- Generator: Adobe Illustrator 28.0.0, SVG Export Plug-In . SVG Version: 6.00 Build 0)  -->
<svg version="1.1" id="Layer_1" xmlns="http://www.w3.org/2000/svg" xmlns:xlink="http://www.w3.org/1999/xlink" x="0px" y="0px"
	 viewBox="0 0 4000 4000" style="enable-background:new 0 0 4000 4000;" xml:space="preserve">
<style type="text/css">
	.st0{display:none;}
	.st1{display:inline;fill:#7DD4FF;}
	.st2{fill:#371A45;}
	.st3{fill:#FFFFFF;}
	.st4{opacity:0.3;}
	.st5{clip-path:url(#SVGID_00000101070984981845754410000005277761710587614342_);}
	.st6{fill:#29B8FF;}
	.st7{opacity:0.5;clip-path:url(#SVGID_00000101070984981845754410000005277761710587614342_);}
	.st8{fill:#2276FC;}
	.st9{opacity:0.25;}
	.st10{fill:#0C26BC;}
	.st11{opacity:0.45;}
	.st12{fill:#293856;}
	.st13{fill:#6BD6F0;}
	.st14{fill:#FF9100;}
	.st15{fill:#FFB200;}
	.st16{fill:#D66B09;}
	.st17{fill:#FFD766;}
	.st18{fill:#FFAA39;}
	.st19{fill:#FFCF6E;}
	.st20{fill:#FFEC90;}
	.st21{opacity:0.5;}
	.st22{fill:#BD89E5;}
	.st23{fill:#945CC6;}
	.st24{opacity:0.41;}
	.st25{fill:#00E8E2;}
	.st26{fill:#14BDC6;}
	.st27{fill:#B5B5B5;}
	.st28{fill:none;stroke:#371A45;stroke-width:0;stroke-miterlimit:10;}
	.st29{fill:#C1C1C1;}
	.st30{opacity:0.35;}
	.st31{fill:#6B184E;}
	.st32{fill:#22A7F0;}
	.st33{opacity:0.7;}
	.st34{fill:#111A28;}
</style>
<g>
	<g class="st0">
		<rect class="st1" width="4000" height="4000"/>
	</g>
	<g>
		<g>
			<path class="st2" d="M2371.77,2909.49c-1.02,0-2.05-0.2-3.05-0.6c-4.12-1.68-6.1-6.39-4.42-10.51l372-910.95
				c1.68-4.12,6.39-6.1,10.52-4.42c4.12,1.68,6.1,6.39,4.42,10.52l-372,910.94C2377.96,2907.6,2374.94,2909.49,2371.77,2909.49z"/>
		</g>
		<g>
			<path class="st3" d="M2279.57,2109.98v399.23c0,75.69-61.93,137.65-137.65,137.65h-420.94c-75.69,0-137.65-61.96-137.65-137.65
				v-399.23c0-21.81,5.13-42.5,14.29-60.88c6.74-13.61,15.71-25.95,26.39-36.59c23.39-23.26,55.06-38.23,90.02-40
				c2.32-0.12,4.64-0.19,6.96-0.19h420.94c0.03,0,0.03,0,0.06,0c55.4,0.03,103.38,33.19,125.16,80.64
				c2.44,5.32,4.55,10.8,6.31,16.46C2277.44,2082.26,2279.57,2095.87,2279.57,2109.98z"/>
		</g>
		<g>
			<path class="st2" d="M2141.93,1972.31c75.71,0,137.65,61.95,137.65,137.65v399.22c0,75.71-61.94,137.65-137.65,137.65h-420.95
				c-75.71,0-137.65-61.94-137.65-137.65v-399.22c0-75.71,61.94-137.65,137.65-137.65H2141.93L2141.93,1972.31z M2141.93,1947.31
				h-420.95c-89.69,0-162.65,72.97-162.65,162.65v399.22c0,89.69,72.97,162.65,162.65,162.65h420.95
				c89.69,0,162.65-72.97,162.65-162.65v-399.22C2304.58,2020.28,2231.62,1947.31,2141.93,1947.31L2141.93,1947.31z"/>
		</g>
		<g>
			<path class="st3" d="M2989.08,3000.81c0,183.78-181.7,332.8-405.77,332.8c-14.44,0-28.7-0.59-42.72-1.84
				c-73.98,81.05-192.04,133.51-325.02,133.51c-79.8,0-154.13-18.9-216.88-51.46c-74.39,71.12-184.79,116.16-308.03,116.16
				c-166.19,0-309.1-82-371.78-199.35c-17.65,1.96-35.71,2.97-54.01,2.97c-224.13,0-405.83-149.02-405.83-332.8
				c0-173.38,161.74-315.87,368.28-331.38c39.04-82.06,128.52-139.46,232.74-139.46c38.56,0,75.11,7.9,107.85,21.98
				c67.02-108.08,203.92-182.12,361.92-182.12c148.31,0,277.96,65.24,348.79,162.63c7.9-0.59,15.92-0.89,24-0.89
				c105.94,0,199.77,53.95,257.7,136.96c7.61-0.36,15.27-0.54,23-0.54C2807.38,2668,2989.08,2817.02,2989.08,3000.81z"/>
		</g>
		<g>
			<g class="st4">
				<path class="st2" d="M1264.86,3293.61c18.3,0,36.37-1.01,54.03-2.98c62.69,117.37,205.58,199.37,371.77,199.37
					c123.25,0,233.65-45.04,308.03-116.16c62.73,32.54,137.08,51.44,216.87,51.44c132.97,0,251.06-52.45,325-133.53
					c14.03,1.25,28.3,1.85,42.74,1.85c216.8,0,393.88-139.48,405.17-314.97c-1.57-25.4-6.56-50.07-14.73-73.65
					c-4.01,192.59-122.67,282.45-284.9,275.34c-66.83-2.93-134.26-33.99-148.29-35.24c-55.17,94.55-104.31,176.63-313.65,175.63
					c31.26-19.42,51.27-49.07,51.27-82.32c0-0.07,0-0.14,0-0.21c-0.02-6.4-8.16-9.29-12.28-4.39
					c-21.71,25.77-69.9,43.67-125.89,43.67c-30.71,0-59-5.43-81.95-14.55c10.8-9.33,19.91-19.83,26.9-31.25
					c10.37-16.85,16.15-35.69,16.15-55.52c0-2.74-0.1-5.48-0.35-8.17c-0.06-0.76-0.12-1.53-0.2-2.29c-0.48-4.84-6.73-6.27-9.43-2.23
					c-0.03,0.04-0.06,0.09-0.09,0.13c-8.37,12.56-21.68,23.82-38.63,33.15c-31,17.1-74.27,27.66-122.12,27.66
					c-74.17,0-137.33-25.42-160.94-60.99c-2.64-3.98-8.86-2.65-9.36,2.1c-0.37,3.51-0.56,7.06-0.56,10.64
					c0,64.61,61.17,118.27,141.55,128.93c-60.91,39.38-132.32,68.79-209.19,68.79c-151.74,0-284.98-93.86-354.73-199.49
					c94.94-12.47,167.41-78.11,167.41-157.28c0-0.27,0-0.53,0-0.8c-0.06-9.46-12-13.27-17.97-5.94
					c-31.55,38.68-101.28,65.56-182.22,65.56c-80.95,0-150.71-26.88-182.26-65.56c-5.98-7.33-17.92-3.52-17.97,5.94
					c0,0.27,0,0.54,0,0.81c0,70.18,56.97,129.72,136.06,151.03c-135.88,17.46-354.68-41.68-365.74-263.09
					c-8.17,23.58-13.15,48.23-14.73,73.62C870.94,3154.13,1048.02,3293.61,1264.86,3293.61z"/>
			</g>
		</g>
		<g>
			<path class="st2" d="M1690.66,3546.12c-162.8,0-310.87-77.52-380.72-198.37c-14.89,1.32-30.01,2-45.07,2
				c-232.67,0-421.96-156.53-421.96-348.94c0-88.17,39.8-172.3,112.07-236.91c68.92-61.62,161.65-100.42,261.97-109.78
				c44.86-85.51,139.21-140.27,243.12-140.27c35.2,0,69.29,6.12,101.54,18.2c74.67-110.34,214.35-178.33,368.23-178.33
				c146.09,0,278.6,60.44,356.5,162.13c5.41-0.26,10.86-0.39,16.29-0.39c103.9,0,202.59,50.91,265.75,136.65
				c4.94-0.15,9.94-0.22,14.95-0.22c232.63,0,421.9,156.53,421.9,348.93s-189.26,348.94-421.9,348.94
				c-12.31,0-24.47-0.43-36.24-1.27c-80.53,84.59-200.84,132.94-331.5,132.94c-75.59,0-149.36-16.62-214.12-48.14
				C1921.65,3505.12,1809.11,3546.12,1690.66,3546.12z M1318.89,3314.51c5.9,0,11.39,3.24,14.22,8.53
				c61.92,115.92,202.27,190.82,357.56,190.82c114.43,0,222.64-40.71,296.88-111.69c4.99-4.77,12.45-5.83,18.57-2.66
				c62.59,32.48,135.02,49.64,209.45,49.64c122.75,0,239.8-47.95,313.11-128.26c3.39-3.71,8.32-5.64,13.34-5.19
				c13.26,1.18,27.16,1.78,41.29,1.78c214.85,0,389.64-142.06,389.64-316.68c0-174.61-174.79-316.67-389.64-316.67
				c-7.5,0-14.98,0.18-22.23,0.52c-5.57,0.28-10.82-2.33-13.99-6.88c-56.84-81.44-148.23-130.06-244.47-130.06
				c-7.64,0-15.31,0.28-22.81,0.84c-5.56,0.4-10.96-2.08-14.24-6.6c-69.98-96.22-198.63-155.99-335.74-155.99
				c-148.04,0-281.47,66.86-348.22,174.49c-4.2,6.78-12.74,9.47-20.08,6.31c-31.89-13.72-66.04-20.67-101.47-20.67
				c-94.9,0-180.53,51.13-218.18,130.26c-2.49,5.22-7.58,8.72-13.35,9.16c-201.45,15.12-353.36,150.67-353.36,315.29
				c0,174.62,174.82,316.68,389.7,316.68c17.51,0,35.08-0.97,52.23-2.88C1317.7,3314.55,1318.29,3314.51,1318.89,3314.51z"/>
		</g>
		<g>
			<g>
				<defs>
					<ellipse id="SVGID_1_" cx="1923.85" cy="945.14" rx="481.15" ry="475.14"/>
				</defs>
				<clipPath id="SVGID_00000054236259044711136670000013634516489552969372_">
					<use xlink:href="#SVGID_1_"  style="overflow:visible;"/>
				</clipPath>
				<g style="clip-path:url(#SVGID_00000054236259044711136670000013634516489552969372_);">
					<rect x="1442.7" y="470" class="st6" width="962.3" height="950.29"/>
				</g>
				<g style="clip-path:url(#SVGID_00000054236259044711136670000013634516489552969372_);">
					<rect x="1442.7" y="470" class="st6" width="962.3" height="950.29"/>
				</g>
				<g style="opacity:0.5;clip-path:url(#SVGID_00000054236259044711136670000013634516489552969372_);">
					<g>
						<path class="st3" d="M2391.47,908.74c0.03-0.4,0.05-0.81,0.08-1.21C2372.33,662.67,2167.59,470,1917.85,470
							c-249.77,0-454.48,192.67-473.7,437.54c0.03,0.4,0.05,0.8,0.08,1.2c19.59-215.14,224.13-384.35,473.62-384.35
							C2167.3,524.39,2371.88,693.6,2391.47,908.74z"/>
					</g>
				</g>
				<g style="clip-path:url(#SVGID_00000054236259044711136670000013634516489552969372_);">
					<path class="st8" d="M2469.56,983.17c11.64,136.13-69.32,85.18-178.86,73.29c-41.52-4.51-93.31,23.14-152.49,13.19
						c-70.85-11.9-38.54,6.79-1.5,18.03c92.54,28.07,104.72,11.76,149.23,17.24c84.86,10.45,126.32,49.61,163.91,25.61
						C2674.66,986.98,2469.56,983.17,2469.56,983.17z"/>
				</g>
				<g style="clip-path:url(#SVGID_00000054236259044711136670000013634516489552969372_);">
					<path class="st8" d="M1372.1,708.94c55,49.58,149.89,73.94,240.77,79.43c57.46,3.47,142.13-15.87,128.19-7.45
						c-9.29,5.61-117.87,74.86-263.13,44.55c-112.72-23.52-171.98-16.72-176.21-16.72S1317.1,659.36,1372.1,708.94z"/>
				</g>
				<g style="clip-path:url(#SVGID_00000054236259044711136670000013634516489552969372_);">
					<path class="st8" d="M1377.43,1274.85c94.19-29.3,211.29-49.75,319.64-37.75c87.03,9.64,119.56,73.89,254.57,27.31
						c112.72-38.89,212.79-40.24,308.01,4.3c95.23,44.54,248.09,56.92,248.09,56.92v-233.86c0,0-117.78,90.33-265.64,90.33
						c-147.85,0-220.11-114.66-379.66-90.33c-108.98,16.62-166.65,74.24-304.48,60.63c-137.83-13.61-201.73-100.23-201.73-100.23
						S1302.22,1298.25,1377.43,1274.85z"/>
				</g>
				<g style="clip-path:url(#SVGID_00000054236259044711136670000013634516489552969372_);">
					<path class="st8" d="M1358.49,945.14c29.7,94.04,180.69,107.03,320.19,76.2c93.33-20.62,181.27-53.62,270.23-20.21
						c160.95,60.44,205.6-22.89,310.74-16.09c127.39,8.25,185.03,85.38,248.09,56.92c63.07-28.46,0-233.86,0-233.86
						s-117.78,90.33-265.64,90.33c-147.85,0-220.11-114.66-379.66-90.33c-108.98,16.62-178.72,103.99-303.23,105.18
						c-138.51,1.32-202.99-116.31-202.99-116.31S1335.1,871.08,1358.49,945.14z"/>
				</g>
				<g style="clip-path:url(#SVGID_00000054236259044711136670000013634516489552969372_);">
					<path class="st8" d="M1380.68,734.17c45.11,59.77,83.87-39.01,221.99-17.74c91.05,14.02,190.46,39.6,346.24,2.58
						c127.93-30.39,208.28-5.59,294.45,38.66c93.97,48.26,169.15,58.16,274.41,3.71c61.42-31.77-10.02-235.4-10.02-235.4
						s-117.78,90.33-265.64,90.33c-147.85,0-243.96-44.08-384.04-45.48c-110.27-1.1-203.61,51.66-298.84,60.33
						c-137.93,12.55-202.99-116.31-202.99-116.31S1333.73,671.97,1380.68,734.17z"/>
				</g>
			</g>
			<g>
				<path class="st6" d="M1757.54,907.4c40.5-28.74,77.81-53.09,118.36-56.18c32.66-2.48,45.6-1.14,113.14,32.14
					c54.61,26.91,128.83,52.73,93.02,75.77c-30.05,19.33-83.87-26.91-159.59-24.56c-81.24,2.52-117.65,22.31-154.21,18.81
					C1714.68,948.26,1717.05,936.14,1757.54,907.4z"/>
			</g>
			<g class="st9">
				<path class="st10" d="M2349.63,761.59c42.06,232.58-107.06,429.5-338.86,498.81c-231.78,69.31-464.52-13.41-557.07-230.9
					c-2.47-13.68-4.31-27.36-5.54-41c103.27,193.34,370.53,154.57,524.16,121.12c193.51-42.12,379.25-167.05,359.43-385.35
					C2338.21,736.35,2344.18,748.8,2349.63,761.59z"/>
			</g>
			<g class="st11">
				<path class="st10" d="M2367.68,811.64c74.45,248.95-67.02,511.13-316,585.58c-248.95,74.45-511.15-67.02-585.59-315.97
					c-5.15-17.21-9.27-34.48-12.39-51.74c92.55,217.48,325.29,300.21,557.07,230.9c231.8-69.32,380.92-266.23,338.86-498.81
					C2356.5,777.73,2362.53,794.43,2367.68,811.64z"/>
			</g>
			<g>
				<path class="st2" d="M1917.85,1436.43c-270.89,0-491.28-220.39-491.28-491.28c0-8.3,0.22-16.85,0.66-26.14
					c13.76-260.86,229.27-465.15,490.62-465.15s476.85,204.28,490.61,465.07c0.45,9.37,0.67,17.91,0.67,26.21
					C2409.13,1216.04,2188.75,1436.43,1917.85,1436.43z M1917.85,486.13c-244.19,0-445.55,190.86-458.4,434.51
					c-0.42,8.69-0.62,16.74-0.62,24.51c0,253.11,205.92,459.02,459.02,459.02s459.02-205.92,459.02-459.02
					c0-7.78-0.21-15.82-0.62-24.59C2363.4,676.99,2162.05,486.13,1917.85,486.13z"/>
			</g>
		</g>
		<g>
			<g class="st4">
				<path class="st12" d="M2505.73,1536.42l-18.07,30.12c-7.42,12.36,1.33,28.12,15.75,28.36l49.01,0.82
					c14.42,0.24,23.69-15.22,16.69-27.82l-17.05-30.71C2542.06,1519.19,2516.32,1518.76,2505.73,1536.42z"/>
			</g>
			<g>
				<path class="st13" d="M2505.73,1536.42l-18.07,30.12c-7.42,12.36,1.33,28.12,15.75,28.36l49.01,0.82
					c14.42,0.24,23.69-15.22,16.69-27.82l-17.05-30.71C2542.06,1519.19,2516.32,1518.76,2505.73,1536.42z"/>
			</g>
			<g>
				<path class="st14" d="M2505.73,1536.42l-18.07,30.12c-7.42,12.36,1.33,28.12,15.75,28.36l49.01,0.82
					c14.42,0.24,23.69-15.22,16.69-27.82l-17.05-30.71C2542.06,1519.19,2516.32,1518.76,2505.73,1536.42z"/>
			</g>
			<g>
				<path class="st2" d="M2552.76,1611.85c-0.21,0-0.41,0-0.61,0l-49-0.82c-12.6-0.21-23.78-6.92-29.9-17.93
					c-6.12-11.02-5.9-24.05,0.58-34.85l18.07-30.12c7.97-13.29,22.06-21.11,37.48-20.82c15.5,0.26,29.25,8.5,36.77,22.06
					l17.05,30.71c6.12,11.02,5.9,24.05-0.58,34.86C2576.25,1605.56,2565.12,1611.85,2552.76,1611.85z M2528.68,1539.56
					c-1.94,0-6.35,0.55-9.12,5.16l-18.07,30.12c-0.19,0.32-0.77,1.29-0.04,2.6c0.73,1.32,1.86,1.34,2.24,1.34l49,0.82
					c0.36,0.01,1.5,0.03,2.28-1.26c0.77-1.29,0.22-2.28,0.04-2.61l-17.05-30.7c-2.69-4.84-7.27-5.43-9.11-5.46
					C2528.79,1539.56,2528.74,1539.56,2528.68,1539.56z M2505.73,1536.42h0.05H2505.73z"/>
			</g>
			<g>
				<path class="st15" d="M2893.36,945.36c6.3,17.17,11.46,34.49,15.48,51.86c-74.55,51.8-219.43,121.35-391.04,184.36
					c-171.59,63-327.07,103.74-417.43,112.49c-8.18-15.85-15.45-32.39-21.76-49.56c-0.3-0.81-0.59-1.6-0.87-2.41
					c-2.75-7.58-5.25-15.18-7.53-22.81c-5.37-17.85-9.52-35.81-12.51-53.79c-0.12-0.73-0.25-1.46-0.35-2.19
					c-4.29-26.71-6.01-53.44-5.3-79.89c1.35-50.32,11.5-99.59,29.44-145.72c43.59-112,133.21-205.46,254.91-250.14
					c120.7-44.32,248.42-31.65,353.62,24.37c43.2,22.98,82.6,53.28,116.17,89.94c17.96,19.59,34.24,41.02,48.54,64.12
					c1.17,1.85,2.3,3.72,3.43,5.61c9.35,15.64,17.81,32.01,25.27,49.1c2.77,6.33,5.41,12.77,7.89,19.3
					C2892.02,941.77,2892.7,943.55,2893.36,945.36z"/>
			</g>
			<g>
				<path class="st14" d="M2914.21,1165.64c-2.91,17.53-6.88,34.82-11.9,51.78c-7.01,23.84-16.08,47.01-27.04,69.26
					c-47.51,96.51-130.77,175.6-239.72,215.61c-109.19,40.09-224.12,33.55-322.93-9.52c-21.7-9.47-42.63-20.69-62.52-33.57
					c-15.62-10.08-30.59-21.19-44.85-33.25c108.11-18.95,233.94-53.06,365.11-101.22
					C2701.52,1276.57,2819.53,1221.14,2914.21,1165.64z"/>
			</g>
			<g>
				<path class="st14" d="M2908.84,997.22c-74.53,51.79-219.43,121.36-391.03,184.36c-171.59,63-327.09,103.74-417.45,112.49
					c-8.15-15.87-15.43-32.41-21.76-49.57c-0.3-0.81-0.57-1.59-0.87-2.41c-2.73-7.6-5.25-15.18-7.51-22.81
					c-5.37-17.84-9.52-35.81-12.52-53.79c-0.12-0.73-0.24-1.46-0.34-2.18c-4.29-26.72-6.02-53.45-5.32-79.89
					c1.37-50.31,11.51-99.58,29.45-145.73c35.26-90.58,100.59-169.01,188.7-219.33c-24.41,32.2-44.17,67.64-58.75,105.13
					c-17.97,46.14-28.11,95.39-29.45,145.73c-0.73,26.44,1,53.16,5.3,79.86c0.12,0.75,0.24,1.48,0.36,2.21
					c0.16,0.96,0.39,2.15,0.69,3.55c16.31,76.05,93.95,113.35,171.72,112.32c148.24-1.97,480.31-149.62,551.19-184.13
					C2915.08,994.82,2906.08,985.34,2908.84,997.22z"/>
			</g>
			<g>
				<path class="st16" d="M2570.36,1324.72c131.15-48.16,249.16-103.58,343.85-159.09c-2.91,17.53-6.88,34.82-11.9,51.78
					c-73.06,45.34-188.45,99.48-321.79,148.43c-127.72,46.89-245.96,79.51-330.42,93.34c-15.62-10.08-30.59-21.19-44.85-33.25
					C2313.36,1406.99,2439.19,1372.89,2570.36,1324.72z"/>
			</g>
			<g>
				<path class="st16" d="M2891.33,939.99c0.69,1.78,1.36,3.56,2.02,5.37c6.3,17.17,11.46,34.49,15.48,51.86
					c-74.55,51.8-219.43,121.35-391.04,184.36c-171.59,63-327.07,103.74-417.43,112.49c-8.18-15.85-15.45-32.39-21.76-49.56
					c-0.3-0.81-0.59-1.6-0.87-2.41c85.3-3.17,243.38-42.02,418.31-106.25C2677.9,1069.08,2828.13,993.18,2891.33,939.99z"/>
			</g>
			<g>
				<g>
					<path class="st16" d="M2050.24,1097.93l3.64-29.02c58.76,7.36,216.63-30.39,383.9-91.81
						c199.56-73.27,330.45-147.95,356.6-183.84l23.64,17.23c-34.6,47.49-183.36,125.49-370.16,194.07
						C2273.94,1068.42,2114.15,1105.94,2050.24,1097.93z"/>
				</g>
			</g>
			<g>
				<g>
					<path class="st16" d="M2082.6,952.29l-2.18-29.17c67.06-5.01,184.97-36.12,307.73-81.2
						c128.63-47.23,240.89-101.48,292.97-141.58l17.85,23.18c-54.27,41.79-169.5,97.68-300.73,145.86
						C2273.11,915.32,2152.16,947.09,2082.6,952.29z"/>
				</g>
			</g>
			<g>
				<g>
					<path class="st16" d="M2056.23,1177.89l2.27-29.17c67.67,5.27,230.84-34.41,406.04-98.74
						c183.77-67.48,339.64-147.03,379.05-193.46l22.31,18.93c-43.02,50.68-200.26,131.86-391.27,202
						C2293.05,1144.11,2128.82,1183.54,2056.23,1177.89z"/>
				</g>
			</g>
			<g>
				<g>
					<path class="st16" d="M2312.62,1500.08l0.01-7.29l-2.93-6.72l1.4-0.61l1.54-0.01c58.84,0.06,173.08-27.89,291.03-71.19
						c118.6-43.55,220.87-94.58,266.91-133.18l9.4,11.21c-47.24,39.61-151.19,91.61-271.26,135.7
						C2487.43,1472.51,2373.98,1500.13,2312.62,1500.08z"/>
				</g>
			</g>
			<g>
				<path class="st2" d="M2486.36,1544.9c-105.11,0-208.94-36.73-291.53-106.65l-26.28-22.25l33.92-5.95
					c111.03-19.46,236.33-54.2,362.34-100.47c126-46.26,244-100.85,341.25-157.86l29.7-17.41l-5.63,33.96
					c-26.49,159.63-137.23,293.42-289,349.15C2590.83,1535.89,2538.44,1544.9,2486.36,1544.9z M2243.45,1435.21
					c111.69,79.42,256.7,99.6,386.55,51.94c129.85-47.68,227.34-156.89,261.09-289.73c-92.42,51.46-200.59,100.38-315.16,142.45
					C2461.34,1381.94,2347.2,1414.64,2243.45,1435.21z"/>
			</g>
			<g>
				<path class="st17" d="M3145.67,918.21c21.91,59.68-71.54,153.68-231.46,247.43c-94.68,55.51-212.69,110.93-343.85,159.09
					c-131.17,48.16-257,82.27-365.11,101.22c-182.59,32.01-314.65,20.81-336.56-38.87c-19.9-54.2,55.32-136.67,189.03-221.58
					c2.99,17.97,7.14,35.93,12.51,53.79c-37.16,26.12-56.08,47.61-51.05,61.31c5.12,13.95,34.45,18,81.21,13.48
					c90.36-8.75,245.84-49.48,417.43-112.49c171.6-63.01,316.49-132.56,391.04-184.36c38.56-26.81,58.3-48.87,53.18-62.82
					c-5.02-13.68-33.36-17.84-78.58-13.71c-7.46-17.09-15.92-33.46-25.27-49.1C3015.06,849.81,3125.77,864.01,3145.67,918.21z"/>
			</g>
			<g>
				<path class="st18" d="M2068.1,1212.06c0.7,2.41,1.39,4.83,2.13,7.25c-37.17,26.1-56.11,47.57-51.07,61.28
					c5.14,13.99,34.49,18.02,81.22,13.49c59.92-5.8,148.55-25.68,251.53-56.81c-2.27,8.62-2.92,16.85-1.88,24.56
					c-39.71,11.51-78.1,21.42-114.43,29.58c-157.93,35.48-238.31,28.6-246.17,7.18C1984.82,1286.08,2003.2,1256.85,2068.1,1212.06z"
					/>
			</g>
			<g>
				<path class="st14" d="M2058.24,1190.16l3.32,4.9c-33.3,21.94-59.24,41.86-78.95,59.63
					C1997.75,1235.63,2022.91,1214.2,2058.24,1190.16z"/>
			</g>
			<g>
				<path class="st14" d="M2064.89,1199.93l-3.33-4.86c0.57-0.42,1.21-0.81,1.86-1.21L2064.89,1199.93z"/>
			</g>
			<g>
				<path class="st18" d="M1982.61,1254.69c-15.88,19.82-20.88,37.07-15.39,52.07c5.38,14.59,19.96,23.67,40.73,28.62
					c54.18,12.93,150.32-2.33,232.82-20.88c37.35-8.38,76.85-18.63,117.69-30.46c6.89,10.21,17.64,18.62,31.9,25.33
					c-60.38,17.85-118.75,32.41-173.21,43.2c-194.16,38.45-275.62,17.79-286.42-11.58
					C1924.74,1324.69,1937.48,1295.3,1982.61,1254.69z"/>
			</g>
			<g>
				<path class="st18" d="M2562.29,1327.67c-128.25,46.64-251.14,79.71-357.05,98.27c-182.58,32.02-314.66,20.81-336.58-38.89
					c-19.89-54.17,55.36-136.64,189.06-221.56c0.89,5.34,1.91,10.67,3,16.02l-6.48-9.98c-77.7,50.47-166.09,122.26-145.72,177.6
					c7.86,21.42,29.41,34.32,58.69,41.3c68.91,16.4,180.35,0.05,254.52-14.64c65.09-12.87,135.65-31.09,208.4-53.71
					C2464.92,1329.28,2509.76,1331.08,2562.29,1327.67z"/>
			</g>
			<g>
				<g>
					<path class="st19" d="M2358.46,1284.04c-40.85,11.83-80.34,22.08-117.69,30.46c-82.51,18.55-178.64,33.81-232.82,20.88
						c-20.77-4.96-35.35-14.03-40.73-28.62c-5.49-15-0.49-32.25,15.39-52.07c19.71-17.76,45.66-37.68,78.95-59.63l3.33,4.86
						c1.02,4.06,2.1,8.09,3.21,12.13c-64.9,44.79-83.28,74.02-78.67,86.52c7.86,21.42,88.24,28.3,246.17-7.18
						c36.32-8.16,74.72-18.08,114.43-29.58c0.48,3.85,1.38,7.54,2.69,11.11C2354.16,1276.83,2356.07,1280.55,2358.46,1284.04z"/>
				</g>
				<g>
					<path class="st20" d="M2061.56,1195.06c-33.3,21.94-59.24,41.86-78.95,59.63c15.15-19.06,40.31-40.49,75.63-64.53
						L2061.56,1195.06z"/>
				</g>
				<g>
					<path class="st20" d="M2064.89,1199.93l6.66,9.77c-1.16,0.78-2.32,1.56-3.45,2.36
						C2066.99,1208.02,2065.92,1203.99,2064.89,1199.93z"/>
				</g>
				<g>
					<path class="st20" d="M2815.04,1103.67c-81.09,42.46-178.19,84.87-280.86,122.55c-59.7,21.92-118.99,41.42-175.72,57.82
						c-2.39-3.49-4.3-7.21-5.74-11.12c-1.31-3.58-2.21-7.27-2.69-11.11c56.75-16.3,116.17-35.82,176.01-57.79
						c101.7-37.37,197.85-79.33,277.98-121.33c143.36-75.16,200.18-132.44,192.35-153.8c-4.71-12.78-38.69-23.31-120.13-14.59
						l-1.88-17.7l-0.63-5.87c42.67-4.57,75.81-4.51,99.73,0.23c24.73,4.92,39.61,14.83,45.12,29.76
						C3037.99,973.53,2918.59,1049.36,2815.04,1103.67z"/>
				</g>
			</g>
			<g>
				<g>
					<path class="st19" d="M2430.14,1322.08c-72.75,22.62-143.31,40.84-208.4,53.71c-74.17,14.69-185.61,31.04-254.52,14.64
						c-29.28-6.98-50.83-19.88-58.69-41.3c-20.37-55.34,68.02-127.13,145.72-177.6l6.48,9.98c0.83,4.14,1.72,8.25,2.69,12.34
						c-0.65,0.4-1.29,0.79-1.86,1.21l-3.32-4.9c-35.32,24.04-60.48,45.47-75.63,64.53c-45.13,40.61-57.86,70-51.87,86.31
						c10.8,29.37,92.26,50.03,286.42,11.58c54.46-10.79,112.83-25.35,173.21-43.2C2401.51,1314.66,2414.83,1318.9,2430.14,1322.08z"
						/>
				</g>
				<g>
					<path class="st18" d="M2058.24,1190.16l3.32,4.9c-33.3,21.94-59.24,41.86-78.95,59.63
						C1997.75,1235.63,2022.91,1214.2,2058.24,1190.16z"/>
				</g>
				<g>
					<path class="st20" d="M2060.72,1181.51l6.42,9.88c-1.26,0.84-2.51,1.65-3.72,2.46
						C2062.44,1189.77,2061.56,1185.65,2060.72,1181.51z"/>
				</g>
				<g>
					<path class="st20" d="M2869.19,1138.08c-90.4,50.41-199.4,99.52-315.23,142.04c-41.59,15.3-83.04,29.32-123.83,41.97
						c-15.31-3.18-28.62-7.42-39.78-12.71c50.79-14.97,103.03-32.26,155.48-51.5c114.66-42.08,222.47-90.66,311.84-140.47
						c172.92-96.34,221.64-164.83,210.88-194.19c-5.99-16.27-34.62-30.43-95.09-32.27c-26.6-0.79-59.37,0.8-99.1,5.65
						c-2.19,0.28-4.41,0.56-6.64,0.83l-3-23.48c91.88-11.82,205.72-14.25,226.05,41.09
						C3117.19,986.96,2963.3,1085.63,2869.19,1138.08z"/>
				</g>
			</g>
			<g>
				<path class="st2" d="M2030.99,1459.5c-98.87,0-161.24-22.73-177.44-66.86c-30.2-82.26,109.54-186.15,195.52-240.76l20.56-13.06
					l3.99,24.03c2.89,17.42,6.95,34.84,12.04,51.79l3.35,11.15l-9.52,6.69c-36.43,25.61-43.39,38.65-44.7,42.37
					c3.47,2.02,17.68,7.65,64.03,3.17c91.78-8.89,250.19-51.64,413.42-111.57c163.23-59.93,311.67-129.85,387.4-182.46
					c38.21-26.57,45.41-40.04,46.75-43.84c-3.42-1.99-17.16-7.43-61.48-3.39l-11.59,1.06l-4.66-10.67
					c-7.08-16.21-15.26-32.11-24.33-47.27l-12.5-20.9l24.13-3.35c100.89-14.01,274.66-25.22,304.86,57.03
					c24.41,66.48-62.5,163.76-238.45,266.9c-98.88,57.96-218.68,113.4-346.44,160.31c-127.78,46.92-254.99,82.18-367.88,101.97
					C2140.51,1453.67,2081.07,1459.5,2030.99,1459.5z M2046.45,1192.02c-137.25,90.88-174.51,157.11-162.62,189.5
					c17.69,48.17,142.75,59.38,318.64,28.54c111.03-19.46,236.33-54.2,362.34-100.47c126-46.26,244-100.85,341.25-157.86
					c154.05-90.3,242.16-179.78,224.48-227.96l0,0c-11.89-32.39-83.15-58.75-246.61-39.25c3.33,6.33,6.52,12.73,9.54,19.2
					c50.19-3.28,76.16,4.61,83.69,25.11c8.2,22.32-10.03,47.5-59.11,81.62c-79.01,54.9-226.56,124.52-394.69,186.26
					s-325.68,104.13-421.43,113.4c-59.51,5.75-89.7-1.64-97.91-23.97c-7.53-20.51,7.19-43.34,47.57-73.31
					C2049.72,1205.94,2048,1199,2046.45,1192.02z"/>
			</g>
			<g class="st21">
				<g>
					<path class="st3" d="M2910.77,999.35c-8.68,5.93-18.29,12.08-28.82,18.45c-3.24-11.54-7.01-23.06-11.28-34.47
						c-0.68-1.78-1.36-3.54-2.04-5.29c-2.5-6.47-5.15-12.83-7.96-19.08c-7.52-16.89-16.05-33.08-25.45-48.54
						c-1.13-1.86-2.29-3.69-3.45-5.53c-14.39-22.84-30.77-44.05-48.83-63.44c-33.73-36.26-73.28-66.29-116.62-89.07
						c-105.58-55.58-233.59-68.44-354.42-24.99c-80.66,29-147.19,79.15-195.53,141.81c49.16-79.01,124.7-142.77,220.01-177.03
						c120.83-43.42,248.84-30.58,354.4,24.99c43.34,22.81,82.92,52.81,116.65,89.1c18.03,19.38,34.42,40.57,48.8,63.4
						c1.19,1.84,2.32,3.7,3.45,5.56c9.42,15.46,17.93,31.63,25.45,48.52c2.8,6.28,5.46,12.64,7.96,19.08
						c0.71,1.76,1.39,3.51,2.04,5.32C2901.47,965.08,2906.68,982.19,2910.77,999.35z"/>
				</g>
			</g>
			<g>
				<path class="st2" d="M2091.05,1311.17l-5.01-9.71c-8.51-16.49-16.1-33.78-22.56-51.4c-3.16-8.62-6.09-17.42-8.71-26.16
					c-5.48-18.23-9.85-37-12.96-55.76c-35.3-212.78,86.27-421.26,289.05-495.72c202.79-74.45,430.37,5.83,541.15,190.89
					c9.77,16.34,18.59,33.47,26.21,50.93c3.64,8.3,7.1,16.91,10.28,25.56l0,0c6.47,17.61,11.87,35.71,16.06,53.78l2.47,10.65
					l-8.98,6.24c-79.01,54.89-226.55,124.52-394.68,186.25s-325.68,104.13-421.43,113.4L2091.05,1311.17z M2485.87,677.07
					c-48.03,0-96.68,8.3-143.89,25.63c-188.26,69.12-301.11,262.64-268.35,460.15c2.89,17.41,6.94,34.83,12.04,51.78
					c2.43,8.13,5.15,16.3,8.09,24.31c4.73,12.89,10.11,25.59,16.04,37.88c93.1-11.04,245.55-52.78,402.45-110.39
					c156.9-57.61,300.13-124.44,378.26-176.26c-3.44-13.21-7.55-26.37-12.29-39.26l0,0c-2.95-8.03-6.16-16.02-9.55-23.75
					c-7.08-16.23-15.27-32.14-24.34-47.3C2767.29,751.17,2629.37,677.07,2485.87,677.07z"/>
			</g>
		</g>
		<g>
			<g class="st4">
				<path class="st12" d="M1495.7,1495.27l-6.81,38.38c-2.8,15.75,12.51,28.63,27.55,23.17l51.13-18.54
					c15.04-5.46,18.54-25.15,6.29-35.45l-29.83-25.09C1526.55,1463.03,1499.7,1472.77,1495.7,1495.27z"/>
			</g>
			<g>
				<path class="st22" d="M1495.7,1495.27l-6.81,38.38c-2.8,15.75,12.51,28.63,27.55,23.17l51.13-18.54
					c15.04-5.46,18.54-25.15,6.29-35.45l-29.83-25.09C1526.55,1463.03,1499.7,1472.77,1495.7,1495.27z"/>
			</g>
			<g class="st4">
				<path class="st12" d="M1495.7,1495.27l-6.81,38.38c-2.8,15.75,12.51,28.63,27.55,23.17l51.13-18.54
					c15.04-5.46,18.54-25.15,6.29-35.45l-29.83-25.09C1526.55,1463.03,1499.7,1472.77,1495.7,1495.27z"/>
			</g>
			<g>
				<path class="st12" d="M1509.23,1574.24c-8.51,0-16.82-2.98-23.63-8.71c-10.21-8.59-14.92-21.56-12.58-34.7l6.81-38.38
					c2.9-16.31,13.92-29.41,29.49-35.06c15.57-5.64,32.43-2.65,45.1,8.01l29.83,25.09c10.21,8.59,14.92,21.56,12.59,34.7
					c-2.33,13.14-11.22,23.7-23.76,28.25l-51.13,18.54C1517.76,1573.5,1513.47,1574.24,1509.23,1574.24z M1511.58,1498.09
					l-6.81,38.38c-0.39,2.19,0.65,3.59,1.59,4.38c0.77,0.65,2.39,1.62,4.59,0.82l51.13-18.54c2.09-0.76,2.79-2.36,3-3.57
					s0.11-2.95-1.59-4.38l-29.83-25.09c-5.41-4.55-11.14-3.17-13.35-2.37C1518.1,1488.52,1512.82,1491.13,1511.58,1498.09z"/>
			</g>
			<g>
				<path class="st22" d="M1767.25,939.39c1.62,4.46,3.16,8.92,4.61,13.41c5.49,16.89,9.85,33.88,13.14,50.92
					c4.57,23.79,7.02,47.66,7.44,71.33c0.19,10.04,0,20.07-0.56,30.03c-2.25,41.75-10.75,82.59-24.89,121.32
					c-41.1,112.53-129.84,206.78-251.31,250.83c-127.45,46.22-262.67,26.9-368.83-40.67c-25.7-16.35-49.69-35.53-71.44-57.3
					c-15.22-15.21-29.33-31.69-42.18-49.36c-16.37-22.42-30.67-46.76-42.54-72.85c-2.15-4.67-4.2-9.42-6.18-14.23
					c-2.33-5.64-4.56-11.37-6.66-17.18c-12.6-34.74-20.33-70.03-23.51-105.17c-0.44-4.71-0.8-9.39-1.05-14.09
					c-0.53-8.93-0.77-17.84-0.69-26.72c0.01-0.46,0.01-0.94,0.02-1.4c0.1-12.3,0.77-24.56,1.97-36.7
					c1.02-10.33,2.42-20.59,4.2-30.77c6.82-39.2,19.17-77.13,36.51-112.61c46.14-94.39,127.5-171.72,234.1-210.37
					c121.98-44.24,251.08-28.45,354.99,32.22c19.8,11.55,38.68,24.75,56.41,39.46c16.18,13.37,31.36,27.99,45.44,43.81
					c5.24,5.85,10.33,11.92,15.26,18.11c4.63,5.85,9.14,11.84,13.46,17.98c0.51,0.7,0.99,1.39,1.47,2.1
					c4.79,6.85,9.41,13.85,13.79,21.05C1744.89,886.4,1757.34,912.07,1767.25,939.39z"/>
			</g>
			<g>
				<path class="st23" d="M1731.53,862.96c-20.8-2.09-41.92-1.53-62.77,1.2c-35.36,4.59-70.1,14.75-103.97,27.36
					c-33.88,12.67-67.04,27.81-99.94,43.72c-32.92,15.94-65.56,32.72-98.48,49.3c-32.92,16.58-66.03,33.02-99.86,48.43
					c-34.01,15.45-68.78,29.3-104.22,41.22c-35.46,11.95-71.53,22.14-108.15,30.32c-18.3,4.13-36.75,7.68-55.35,10.7
					c-9.31,1.5-18.66,2.84-28.08,4c-4.7,0.59-9.43,1.11-14.2,1.6l-0.88,0.09c-0.44-4.71-0.8-9.39-1.05-14.09
					c-0.53-8.93-0.77-17.84-0.69-26.72c0.01-0.46,0.01-0.94,0.02-1.4c4.07-0.31,8.16-0.63,12.24-1.04
					c8.86-0.86,17.77-1.88,26.65-3.05c17.78-2.39,35.56-5.32,53.23-8.79c35.39-6.9,70.46-15.77,105.04-26.38
					c34.56-10.58,68.59-23.05,101.95-37.12c33.53-14.19,66.77-29.53,99.98-45.15c33.24-15.63,66.47-31.53,100.21-46.76
					c33.75-15.18,67.98-29.75,103.35-41.86c35.36-12.06,71.99-21.77,109.78-25.62c17.02-1.71,34.22-2.15,51.39-1
					C1722.52,848.76,1727.14,855.75,1731.53,862.96z"/>
			</g>
			<g>
				<path class="st23" d="M1768.28,1226.8c-41.1,112.53-129.84,206.78-251.31,250.83c-127.45,46.22-262.67,26.9-368.83-40.67
					l143.61-24.23c90.06-15.2,176.32-47.8,253.91-95.98c41.5-25.77,85.49-47.1,131.23-63.68
					C1706.68,1242.27,1737.2,1233.48,1768.28,1226.8z"/>
			</g>
			<g>
				<path class="st23" d="M1585.69,720.44l-55.37,5.53c-61.58,6.16-121.99,19.96-179.89,40.96
					c-36.04,13.07-71.12,28.93-104.89,47.49c-72.44,39.83-151,67.3-232.46,81.33l-16.48,2.84c46.14-94.39,127.5-171.72,234.1-210.37
					C1352.68,643.98,1481.78,659.76,1585.69,720.44z"/>
			</g>
			<g>
				<path class="st23" d="M1682.69,790.36c-5.37,0.78-10.7,1.6-16.03,2.47c-17.79,2.95-35.32,6.52-52.44,10.91
					c-4.28,1.12-8.53,2.26-12.74,3.53l-13.28,3.9c-8.98,2.62-17.89,5.32-26.78,8.06c-35.62,11.02-70.59,22.48-105.11,35.89
					c-34.61,13.16-69.07,27.86-103.72,42.53c-34.59,14.77-69.27,29.55-103.85,44.55c-17.53,7.5-35.26,14.66-53.07,21.45
					c-17.85,6.75-35.94,12.86-54.06,18.72c-18.12,5.86-36.43,11.23-54.86,16.02c-18.46,4.72-36.95,9.24-55.53,13.47
					c-18.61,4.24-37.27,8.27-56.1,12.06c-8,1.56-16.01,3.17-24.07,4.7c1.02-10.33,2.42-20.59,4.2-30.77
					c5.4-0.13,10.8-0.42,16.18-0.82c18.47-1.35,36.89-3.87,55.15-7.33c18.25-3.5,36.36-7.84,54.2-13.09
					c17.87-5.16,35.59-10.88,53.11-17.08c34.99-12.61,69.2-27.3,102.3-44.14c33.62-16.93,67.04-34.3,100.64-51.45
					c16.8-8.6,33.66-17.18,50.66-25.59c17.06-8.31,34.18-16.65,51.66-24.51c34.97-15.6,70.91-29.64,106.97-41.73
					c8.99-3.08,18.01-6.1,27.03-9.04l6.76-2.25c2.26-0.75,4.43-1.48,6.91-2.2c4.8-1.51,9.61-2.85,14.45-4.18
					c11.93-3.16,23.96-5.77,35.99-7.88C1653.43,759.91,1668.62,774.53,1682.69,790.36z"/>
			</g>
			<g>
				<path class="st23" d="M1793.73,1075.44c0.19,10.04,0,20.07-0.56,30.03c-18.44,1.57-36.84,4.16-55.1,7.61
					c-20.23,3.89-40.31,8.69-60.1,14.52c-19.8,5.71-39.45,12.05-58.87,18.94c-38.78,13.96-76.72,30.25-113.41,48.93
					c-37.27,18.76-74.31,38.02-111.56,57.03c-18.62,9.54-37.32,19.03-56.16,28.38c-18.91,9.21-37.89,18.45-57.26,27.18
					c-38.77,17.28-78.61,32.87-118.61,46.26c-9.96,3.43-19.95,6.75-29.95,10.02l-7.51,2.5c-2.51,0.83-4.9,1.65-7.65,2.45
					c-5.32,1.68-10.67,3.16-16.02,4.62c-8.05,2.13-16.14,4.05-24.27,5.76c-15.22-15.21-29.33-31.69-42.18-49.36
					c17.65-3.05,35.05-6.7,52.08-11.05c4.75-1.24,9.45-2.52,14.12-3.9l14.72-4.35c9.95-2.9,19.83-5.9,29.69-8.92
					c39.49-12.22,78.27-24.94,116.52-39.8c38.37-14.6,76.59-30.89,114.99-47.15c38.33-16.39,76.8-32.77,115.12-49.4
					c19.45-8.29,39.09-16.25,58.84-23.77c19.79-7.48,39.84-14.25,59.94-20.75c20.07-6.49,40.37-12.46,60.82-17.77
					c20.46-5.22,40.94-10.24,61.57-14.93C1753.09,1083.94,1773.32,1079.54,1793.73,1075.44z"/>
			</g>
			<g>
				<path class="st23" d="M1773.14,953.19c5.49,16.89,9.85,33.88,13.14,50.92c-32.49,2.79-64.89,6.2-96.95,10.8
					c-9.22,1.42-18.46,2.62-27.6,4.26l-13.75,2.33l-13.67,2.55c-9.16,1.65-18.13,3.74-27.21,5.61c-8.98,2.14-18.01,4.15-26.89,6.56
					c-35.73,9.23-70.32,21.42-103.94,36.81c-33.62,15.26-66.55,33.61-100.38,51.38c-33.79,17.8-68.39,34.78-103.73,49.7
					c-35.41,15.02-71.61,28.05-108.1,39.38c-36.52,11.39-73.39,21.34-110.43,30.24c-18.53,4.46-37.13,8.65-55.78,12.52
					c-1.96,0.41-3.91,0.81-5.85,1.21c-2.15-4.67-4.2-9.42-6.18-14.23c2.84-0.7,5.67-1.42,8.5-2.14
					c18.34-4.65,36.58-9.56,54.74-14.76c36.31-10.38,72.31-21.74,107.74-34.46c35.46-12.71,70.18-26.84,103.97-42.95
					c33.89-16.12,66.74-34.09,99.27-53.11c32.53-18.97,65.09-39.12,99.84-56.79c17.32-8.84,35.14-17.03,53.28-24.37
					c18.13-7.39,36.64-13.79,55.27-19.59c9.31-2.97,18.68-5.51,28.06-8.17c9.42-2.4,18.81-5.02,28.26-7.13l14.15-3.33l14.2-3.05
					c9.45-2.11,18.95-3.78,28.42-5.69C1712.02,961.95,1742.56,957.26,1773.14,953.19z"/>
			</g>
			<g class="st4">
				<path class="st12" d="M1757.1,1260.03c-2.01,4.3-4.08,8.54-6.23,12.75c-8.06,15.82-17,30.92-26.71,45.3
					c-13.59,20.05-28.74,38.66-45.16,55.7c-6.97,7.23-14.2,14.19-21.65,20.83c-31.1,27.94-66,50.81-103.39,68.21
					c-108.63,50.5-238.03,54.4-355.06-0.34c-122.81-57.44-204.76-166.72-232.05-289.57c-6.61-29.75-10-60.25-10-91.03
					c-0.01-21.53,1.67-43.14,5.08-64.73c4.29-27.43,11.38-54.76,21.44-81.59c1.78-4.82,3.7-9.63,5.69-14.43
					c2.34-5.63,4.83-11.26,7.45-16.85c10.63-22.72,23.03-44.05,36.97-63.89c-3.87,14.44-6.93,28.94-9.2,43.48
					c-3.41,21.59-5.09,43.22-5.08,64.73c0,30.79,3.38,61.31,10,91.03c27.3,122.85,109.24,232.12,232.05,289.57
					c117.03,54.74,246.43,50.84,355.06,0.34c37.39-17.39,72.29-40.27,103.39-68.21c7.45-6.63,14.67-13.6,21.65-20.83
					c14.81-15.36,28.57-31.99,41.1-49.81C1776.15,1214.12,1767.73,1237.31,1757.1,1260.03z"/>
			</g>
			<g class="st24">
				<g>
					<path class="st3" d="M1792.45,1075.05c-0.42-23.67-2.87-47.54-7.44-71.33c-3.29-17.03-7.65-34.02-13.14-50.91
						c-1.45-4.49-2.99-8.95-4.61-13.41c-9.91-27.33-22.36-53-37.01-76.83c-4.39-7.2-9-14.2-13.79-21.05
						c-0.49-0.71-0.96-1.4-1.47-2.1c-4.33-6.13-8.83-12.13-13.46-17.98c-4.93-6.19-10.02-12.26-15.26-18.11
						c-14.08-15.83-29.26-30.45-45.44-43.81c-17.73-14.71-36.61-27.91-56.41-39.46c-103.91-60.68-233.01-76.46-354.99-32.22
						c-84.46,30.63-153,85.59-200.8,154.03c-8.31,13.04-15.97,26.47-22.79,40.32c47.39-63.63,113.29-114.59,193.47-143.66
						c121.98-44.24,251.08-28.45,354.98,32.23c19.81,11.56,38.69,24.75,56.42,39.45c16.18,13.38,31.33,28.01,45.43,43.82
						c5.23,5.83,10.33,11.91,15.26,18.12c4.64,5.83,9.12,11.85,13.47,17.98c0.49,0.69,0.98,1.38,1.47,2.07
						c4.8,6.86,9.42,13.87,13.78,21.05c14.65,23.85,27.13,49.52,37,76.85c1.62,4.44,3.16,8.9,4.63,13.38
						c5.51,16.89,9.85,33.88,13.14,50.92c4.59,23.82,7.02,47.68,7.45,71.36c0.19,10.04,0.01,20.08-0.56,30.03
						c-2.26,41.73-10.75,82.6-24.92,121.32c-5.14,14.07-11,27.85-17.61,41.29c2.79-3.75,5.49-7.55,8.15-11.38
						c16.04-25.39,29.32-52.42,39.61-80.61c14.14-38.73,22.64-79.58,24.89-121.32C1792.45,1095.12,1792.64,1085.09,1792.45,1075.05z
						"/>
				</g>
			</g>
			<g>
				<path class="st2" d="M1373.57,1519.12c-62.98,0-125.7-13.82-184.45-41.29c-105.49-49.34-185.44-136.8-225.14-246.28
					c-39.7-109.48-34.39-227.86,14.95-333.34c49.34-105.49,136.8-185.44,246.28-225.14c109.48-39.7,227.86-34.39,333.34,14.95
					c105.48,49.34,185.44,136.81,225.14,246.28l0,0c39.7,109.48,34.39,227.86-14.95,333.34
					c-49.34,105.49-136.8,185.44-246.28,225.14C1473.96,1510.37,1423.68,1519.12,1373.57,1519.12z M1374.09,678.98
					c-46.41,0-92.96,8.11-137.88,24.4c-101.38,36.76-182.37,110.81-228.06,208.49c-45.69,97.68-50.6,207.31-13.84,308.68
					c36.76,101.38,110.81,182.37,208.49,228.06c97.68,45.69,207.31,50.6,308.68,13.84c101.38-36.76,182.37-110.81,228.06-208.49
					c45.69-97.68,50.6-207.31,13.84-308.68c-36.76-101.38-110.81-182.37-208.49-228.06C1490.5,691.78,1432.4,678.98,1374.09,678.98z
					"/>
			</g>
			<g>
				<path class="st2" d="M1731.52,2675.09c-3.86,0-7.28-2.78-7.94-6.72l-189.58-1119.44c-0.74-4.39,2.21-8.55,6.6-9.3
					c4.4-0.74,8.55,2.21,9.3,6.6l189.59,1119.44c0.74,4.39-2.21,8.55-6.61,9.3C1732.42,2675.05,1731.96,2675.09,1731.52,2675.09z"/>
			</g>
		</g>
		<g>
			<path class="st2" d="M1538.58,2737.02c-3.37,0-6.51-2.12-7.64-5.49l-276.07-819.37c-1.42-4.22,0.85-8.8,5.07-10.22
				c4.23-1.42,8.8,0.85,10.22,5.07l276.07,819.38c1.42,4.22-0.85,8.79-5.07,10.21C1540.31,2736.88,1539.44,2737.02,1538.58,2737.02z
				"/>
		</g>
		<g>
			<path class="st2" d="M2349.95,2776.29c-0.42,0-0.84-0.03-1.27-0.1c-4.4-0.7-7.4-4.83-6.7-9.23l185.88-1172.78
				c0.7-4.4,4.85-7.4,9.23-6.7c4.4,0.7,7.4,4.83,6.7,9.23l-185.88,1172.78C2357.28,2773.46,2353.85,2776.29,2349.95,2776.29z"/>
		</g>
		<g class="st4">
			<path class="st12" d="M2750.26,1927.41l-27.32,22.07c-11.22,9.06-8.42,26.86,5.03,32.05l45.74,17.62
				c13.45,5.18,27.48-6.14,25.24-20.38l-5.45-34.7C2790.3,1923.73,2766.28,1914.47,2750.26,1927.41z"/>
		</g>
		<g>
			<path class="st25" d="M2750.26,1927.41l-27.32,22.07c-11.22,9.06-8.42,26.86,5.03,32.05l45.74,17.62
				c13.45,5.18,27.48-6.14,25.24-20.38l-5.45-34.7C2790.3,1923.73,2766.28,1914.47,2750.26,1927.41z"/>
		</g>
		<g class="st4">
			<path class="st2" d="M2750.26,1927.41l-27.32,22.07c-11.22,9.06-8.42,26.86,5.03,32.05l45.74,17.62
				c13.45,5.18,27.48-6.14,25.24-20.38l-5.45-34.7C2790.3,1923.73,2766.28,1914.47,2750.26,1927.41z"/>
		</g>
		<g>
			<path class="st2" d="M2780.55,2015.45c-4.1,0-8.23-0.76-12.24-2.3l-45.73-17.62c-11.38-4.38-19.3-14.19-21.19-26.24
				s2.64-23.81,12.13-31.48l27.32-22.07c11.74-9.48,27.16-11.91,41.24-6.48c14.08,5.43,23.89,17.57,26.23,32.48l5.45,34.7
				c1.89,12.04-2.64,23.81-12.13,31.47C2795.49,2012.88,2788.09,2015.45,2780.55,2015.45z M2766.94,1936.44
				c-2.15,0-4.72,0.6-7.25,2.63l0,0l-27.32,22.07c-1.38,1.12-1.49,2.51-1.34,3.48c0.15,0.97,0.68,2.26,2.34,2.9l45.74,17.62
				c1.67,0.63,2.92,0.04,3.68-0.58c0.76-0.62,1.62-1.72,1.34-3.48l-5.45-34.7c-0.95-6.05-5.48-8.41-7.38-9.14
				C2770.4,1936.91,2768.84,1936.44,2766.94,1936.44z M2750.26,1927.41h0.05H2750.26z"/>
		</g>
		<g>
			<path class="st25" d="M3260.01,1719.83c-1.54,3.99-3.12,7.93-4.79,11.84c-6.25,14.73-13.33,28.87-21.17,42.39
				c-10.96,18.88-23.41,36.56-37.11,52.91c-5.8,6.94-11.86,13.65-18.14,20.09c-26.21,27.06-56.14,49.81-88.66,67.79
				c-94.49,52.22-210.56,63.84-319.2,21.97c-113.99-43.93-194.52-137.01-226.76-245.73c-7.81-26.32-12.78-53.54-14.7-81.2
				c-1.36-19.34-1.21-38.89,0.5-58.5c2.13-24.93,6.79-49.93,14.15-74.69c1.3-4.45,2.71-8.89,4.22-13.33
				c1.76-5.21,3.63-10.43,5.63-15.62c11.97-31.07,27.58-59.64,46.19-85.42c2.48-3.46,5.01-6.86,7.61-10.2
				c4.92-6.39,10.03-12.59,15.33-18.58c0.28-0.31,0.57-0.63,0.85-0.94c7.34-8.31,15.05-16.24,23.04-23.79
				c6.8-6.42,13.82-12.58,21.05-18.44c27.81-22.62,58.64-41.11,91.41-54.99c87.18-36.9,188.24-41.38,283.58-4.64
				c109.1,42.04,187.56,129.11,222.35,231.81c6.64,19.56,11.67,39.7,15.03,60.18c3.1,18.66,4.78,37.57,4.99,56.66
				c0.1,7.08-0.02,14.21-0.33,21.34c-0.31,6.71-0.79,13.45-1.47,20.19c-0.07,0.78-0.15,1.53-0.24,2.3
				c-0.79,7.49-1.79,14.98-3.07,22.47C3276.13,1670.58,3269.42,1695.39,3260.01,1719.83z"/>
		</g>
		<g>
			<g>
				<path class="st26" d="M3158.64,1547.07c-31.22-12.67-63.11-23.01-95.03-32.64c-31.94-9.59-63.95-18.43-95.79-27.45
					c-31.82-9.02-63.49-18.23-94.69-28.41c-31.01-10.16-61.52-21.8-91.28-35.04c-29.79-13.23-58.88-27.94-87.03-44.17
					c-14.07-8.09-27.88-16.61-41.39-25.5c-6.73-4.46-13.39-9.02-19.92-13.68c-3.02-2.13-5.99-4.33-8.94-6.53
					c-0.28,0.31-0.57,0.63-0.85,0.94c-5.3,5.99-10.4,12.19-15.33,18.58c-2.6,3.35-5.13,6.74-7.61,10.2l0.65,0.46
					c3.53,2.49,7.05,4.93,10.6,7.31c7.08,4.78,14.23,9.4,21.46,13.88c14.43,8.94,29.08,17.44,43.96,25.45
					c29.74,16.09,60.3,30.48,91.47,43.32c31.15,12.85,62.98,23.99,95.24,33.59c32.11,9.52,64.35,17.92,96.54,26.11
					c32.19,8.19,64.3,16.08,96.11,24.7c31.78,8.64,63.28,17.94,93.81,29.36c30.49,11.45,60.12,25.08,86.88,42.87
					c15.8,10.48,30.48,22.58,43.4,36.3c1.28-7.49,2.27-14.98,3.07-22.47c-11-10.93-22.95-20.81-35.54-29.71
					C3220.47,1574.82,3189.82,1559.77,3158.64,1547.07z"/>
			</g>
			<g>
				<path class="st26" d="M2979.13,1326.38c33.94,7.35,67.17,17.3,99.4,29.72c51.79,19.96,101.03,46.29,146.55,78.51l40.93,28.98
					c-34.79-102.7-113.24-189.77-222.35-231.81c-95.34-36.74-196.4-32.26-283.58,4.64l12.89,7.82
					C2836.65,1282.86,2906.32,1310.63,2979.13,1326.38z"/>
			</g>
			<g>
				<path class="st26" d="M2716.64,1333.92c15.14,8.11,30.39,15.97,45.73,23.67c15.37,7.65,30.99,14.82,46.78,21.55
					c15.79,6.73,31.7,13.27,47.83,19.24c16.13,5.92,32.42,11.53,48.77,16.79c32.38,10.25,64.71,20.7,96.96,31.1
					c32.23,10.51,64.36,20.89,95.68,32.4c31.4,11.3,61.96,24.18,92.7,37.75c7.67,3.39,15.32,6.82,22.98,10.35l11.34,5.2
					c3.61,1.62,7.17,3.36,10.75,5.13c14.23,7.14,28.26,15.08,42.1,23.59c4.14,2.56,8.25,5.16,12.36,7.8
					c-0.21-19.09-1.9-38.01-4.99-56.66c-9.43-5.68-19.15-11.02-29.14-15.92c-4.08-1.96-8.14-3.9-12.3-5.71
					c-2.11-0.97-4.02-1.76-6-2.59l-5.93-2.47c-7.87-3.33-15.79-6.61-23.73-9.83c-31.67-13.1-64.42-24.8-97.42-34.87
					c-16.53-4.99-33.11-9.44-49.62-13.88c-16.53-4.32-33.07-8.46-49.58-12.55c-32.99-8.2-65.98-16.15-98.85-24.52
					c-32.47-8.12-64.41-18.36-95.66-30.47c-15.58-6.14-31.01-12.73-46.22-19.79c-15.24-6.98-30.12-14.74-44.6-23.15
					c-14.46-8.45-28.48-17.62-41.84-27.63c-3.9-2.91-7.73-5.9-11.49-9.01c-7.23,5.87-14.25,12.02-21.05,18.44
					c6.39,3.73,12.78,7.36,19.15,11.04C2686.4,1317.5,2701.48,1325.8,2716.64,1333.92z"/>
			</g>
			<g>
				<path class="st26" d="M2886.2,1845.42c-81.25-13.11-159.19-41.95-229.41-84.86l-111.98-68.44
					c32.24,108.72,112.77,201.8,226.76,245.73c108.64,41.87,224.71,30.25,319.2-21.97c-25.09-13.83-51.04-25.9-77.68-36.17
					C2972.18,1863.94,2929.65,1852.43,2886.2,1845.42z"/>
			</g>
			<g>
				<path class="st26" d="M3197.58,1828.01c0,0-0.01,0-0.01-0.01C3197.57,1828,3197.57,1828,3197.58,1828.01
					c-5.84-3.32-11.68-6.56-17.52-9.8c-10.5-5.83-21.01-11.61-31.55-17.25c-4.44-2.38-8.87-4.72-13.31-7.06
					c-1.4-0.74-2.82-1.43-4.22-2.16c-11.03-5.76-22.08-11.45-33.19-17.04c-5.67-2.82-11.41-5.49-17.14-8.2
					c-11.49-5.43-23.04-10.72-34.72-15.7c-17.54-7.46-35.16-14.72-53.02-21.33c-17.9-6.57-35.96-12.74-54.11-18.63
					c-35.88-11.33-71.73-22.94-107.49-34.47c-25.59-8.35-51.11-16.63-76.32-25.35c-2.93-1.01-5.84-2.05-8.75-3.07
					c-7.03-2.47-14.04-4.95-21.01-7.51c-2.63-0.94-5.21-1.96-7.83-2.92c-32.05-11.81-63.42-25-94.92-38.9
					c-8.49-3.78-16.98-7.58-25.46-11.49l-9.22-4.21l-3.37-1.54c-3.99-1.82-7.94-3.71-11.89-5.68c-4.34-2.17-8.63-4.54-12.93-6.84
					c-9.75-5.22-19.45-10.64-29.03-16.44c0,0,0,0.01,0,0.02c0,0,0,0-0.01,0c-0.39,4.53-0.68,9.05-0.91,13.57
					c-0.76,15.05-0.63,30.04,0.42,44.92c0,0,0,0,0.01,0c0,0,0,0,0,0.01c1.54,0.85,3.13,1.61,4.68,2.45
					c5.03,2.73,10.07,5.45,15.22,7.97c0.56,0.27,1.13,0.51,1.68,0.78c3.67,1.78,7.37,3.54,11.13,5.17c0.28,0.12,0.54,0.26,0.81,0.38
					c2.34,1.09,4.45,1.94,6.65,2.86l6.58,2.74c6.04,2.55,12.11,5.04,18.18,7.53c2.71,1.12,5.39,2.27,8.12,3.38
					c9.03,3.75,18.18,7.38,27.34,10.93c8.03,3.08,16.13,6.05,24.25,8.97c1.85,0.66,3.7,1.31,5.55,1.96
					c6.4,2.27,12.83,4.48,19.27,6.64c2.33,0.78,4.66,1.57,7,2.34c8.19,2.69,16.39,5.32,24.61,7.83c4.58,1.38,9.16,2.64,13.75,3.95
					c13.75,3.95,27.51,7.73,41.24,11.41c0.73,0.19,1.46,0.36,2.19,0.55c17.12,4.46,34.21,8.76,51.3,12.98
					c0.49,0.12,0.99,0.25,1.48,0.37c36.57,9.1,73.15,17.9,109.59,27.18c35.99,8.99,71.42,20.34,106.05,33.78
					c9.6,3.78,19.13,7.75,28.61,11.84c7.58,3.27,15.14,6.61,22.62,10.09c1.2,0.55,2.39,1.14,3.59,1.69
					c2.66,1.24,5.31,2.48,7.94,3.76c3.72,1.81,7.41,3.67,11.09,5.6c9.07,4.6,18.02,9.52,26.85,14.64
					c7.38,4.31,14.66,8.81,21.82,13.48c6.84,4.47,13.56,9.09,20.14,13.9c0,0,0,0,0.01-0.01c0,0,0,0,0,0
					c1.08-1.11,2.12-2.27,3.18-3.4c2.99-3.15,5.93-6.35,8.81-9.62C3193.49,1832.73,3195.57,1830.4,3197.58,1828.01z"/>
			</g>
			<g>
				<path class="st26" d="M3162.27,1675.45l-11.46-6.33l-11.59-6.1c-7.67-4.15-15.61-7.92-23.43-11.86
					c-7.95-3.73-15.82-7.55-23.91-11.03c-16.09-7.08-32.47-13.66-49.16-19.36c-16.68-5.74-33.63-10.7-50.64-14.93
					c-34.08-8.53-68.13-14.08-101.47-20.42c-33.37-6.3-66.33-13.5-98.91-22.58c-32.51-9.03-64.47-19.94-96.1-32.27
					c-31.61-12.3-62.81-25.86-93.64-40.27c-15.42-7.21-30.73-14.65-45.95-22.33c-2.35-1.18-4.7-2.36-7.05-3.57
					c-1.5,4.44-2.92,8.88-4.22,13.33c1.55,0.87,3.12,1.76,4.69,2.64c14.97,8.39,30.09,16.54,45.33,24.46
					c30.45,15.85,61.4,30.89,92.97,44.73c31.51,13.87,63.84,26.42,96.8,37.14c32.86,10.75,66.42,19.66,99.93,27.53
					c33.51,7.92,66.75,14.91,98.64,24.41c31.97,9.42,62.69,21.58,92.45,36.43c7.47,3.61,14.79,7.59,22.17,11.44
					c7.28,4.09,14.62,7.98,21.82,12.27l10.81,6.35l10.73,6.55c7.18,4.29,14.18,8.94,21.29,13.43
					c24.53,15.83,48.57,32.66,72.32,49.98c7.83-13.52,14.92-27.66,21.17-42.39c-23.2-15.32-46.74-30.18-70.88-44.32
					C3177.4,1684.08,3169.95,1679.6,3162.27,1675.45z"/>
			</g>
		</g>
		<g class="st4">
			<path class="st2" d="M3245.26,1704.27c-5.82,6.94-11.88,13.65-18.15,20.08c-26.2,27.06-56.14,49.82-88.66,67.8
				c-9.16,5.06-18.53,9.73-28.07,14.02c-5.29,2.38-10.64,4.63-16.04,6.77c-0.27,0.11-0.53,0.22-0.79,0.32
				c-5.2,2.04-10.45,3.95-15.74,5.76c-0.66,0.23-1.32,0.46-1.99,0.69c-5.13,1.73-10.3,3.34-15.5,4.84
				c-0.79,0.23-1.58,0.46-2.37,0.68c-5.2,1.47-10.44,2.84-15.7,4.09c-0.71,0.17-1.42,0.32-2.14,0.49
				c-5.43,1.25-10.89,2.41-16.37,3.43c-0.34,0.06-0.69,0.12-1.03,0.18c-5.63,1.02-11.28,1.93-16.96,2.7
				c-0.22,0.03-0.43,0.07-0.65,0.1c-5.6,0.75-11.23,1.35-16.87,1.84c-0.69,0.06-1.38,0.13-2.07,0.19
				c-5.44,0.45-10.91,0.77-16.39,0.98c-0.85,0.03-1.7,0.06-2.55,0.09c-5.45,0.17-10.92,0.23-16.39,0.17
				c-0.79-0.01-1.58-0.03-2.36-0.04c-5.61-0.1-11.22-0.31-16.85-0.66c-0.48-0.03-0.95-0.07-1.43-0.11
				c-5.85-0.39-11.7-0.9-17.56-1.57c-0.08-0.01-0.15-0.02-0.23-0.02c-5.78-0.67-11.57-1.5-17.36-2.43
				c-0.67-0.11-1.35-0.21-2.02-0.32c-5.53-0.93-11.05-2-16.57-3.18c-0.88-0.19-1.76-0.38-2.64-0.57c-5.44-1.21-10.88-2.54-16.31-4
				c-0.88-0.24-1.75-0.48-2.63-0.73c-5.5-1.52-10.98-3.15-16.45-4.93c-0.66-0.21-1.31-0.45-1.97-0.67
				c-5.71-1.89-11.4-3.9-17.07-6.08c-0.04-0.01-0.07-0.03-0.11-0.04c-0.02-0.01-0.03-0.01-0.05-0.02c-4.53-1.75-8.99-3.6-13.41-5.5
				c-1.25-0.54-2.5-1.09-3.74-1.64c-3.7-1.64-7.37-3.32-10.99-5.06c-0.77-0.37-1.55-0.72-2.31-1.09c-4.24-2.07-8.42-4.23-12.55-6.45
				c-1.11-0.6-2.21-1.21-3.32-1.82c-3.34-1.83-6.64-3.71-9.9-5.63c-0.95-0.56-1.92-1.11-2.87-1.68c-4.01-2.41-7.97-4.88-11.86-7.43
				c-0.82-0.53-1.61-1.08-2.43-1.62c-3.26-2.16-6.47-4.37-9.64-6.62c-0.93-0.66-1.87-1.32-2.79-1.99
				c-3.82-2.76-7.59-5.57-11.28-8.46c-0.33-0.26-0.64-0.52-0.97-0.78c-3.41-2.69-6.76-5.44-10.07-8.23
				c-0.82-0.69-1.63-1.38-2.44-2.08c-7.2-6.19-14.14-12.62-20.8-19.29c-0.64-0.65-1.28-1.3-1.92-1.95
				c-3.08-3.12-6.11-6.29-9.06-9.51c-0.24-0.26-0.5-0.52-0.74-0.79c-3.24-3.55-6.41-7.17-9.5-10.83c-0.45-0.53-0.89-1.08-1.34-1.61
				c-2.74-3.28-5.43-6.61-8.06-9.97c-0.38-0.49-0.77-0.97-1.15-1.46c-2.94-3.81-5.81-7.66-8.59-11.57
				c-0.23-0.33-0.46-0.66-0.69-0.99c-2.52-3.56-4.97-7.16-7.36-10.79c-0.44-0.68-0.89-1.35-1.33-2.03c-2.6-4-5.13-8.04-7.57-12.14
				c0,0,0,0,0,0c-16.22-27.2-29.01-56.35-38.02-86.73c-7.82-26.31-12.77-53.53-14.7-81.21c-1.36-19.33-1.21-38.88,0.5-58.5
				c1.13-13.21,2.97-26.44,5.54-39.66c-11.28,18.71-21.1,38.66-29.22,59.76c-2,5.19-3.88,10.41-5.64,15.62
				c-1.49,4.44-2.92,8.89-4.21,13.33c-7.36,24.75-12.02,49.76-14.15,74.69c-1.71,19.62-1.86,39.15-0.5,58.5
				c1.45,20.73,4.59,41.2,9.36,61.23c0.01,0.06,0.03,0.12,0.04,0.18c1.49,6.23,3.14,12.41,4.94,18.54c0.12,0.42,0.21,0.84,0.34,1.26
				c32.25,108.7,112.77,201.79,226.79,245.74c108.62,41.85,224.69,30.24,319.2-21.98c32.5-17.98,62.45-40.76,88.66-67.81
				c0,0,0,0-0.01,0c6.27-6.43,12.33-13.14,18.15-20.08c13.7-16.35,26.14-34.03,37.1-52.9c7.83-13.54,14.92-27.67,21.17-42.4
				c1.67-3.92,3.27-7.86,4.8-11.85c8.13-21.09,14.24-42.47,18.42-63.94C3268.93,1673.72,3257.61,1689.53,3245.26,1704.27z"/>
		</g>
		<g class="st21">
			<g>
				<path class="st3" d="M3285.38,1574.41c0.1,7.1-0.04,14.23-0.35,21.33c-0.28,6.71-0.77,13.46-1.47,20.21
					c-0.07,0.77-0.14,1.5-0.24,2.27c-0.77,7.52-1.78,15-3.04,22.49c-4.13,24.87-10.84,49.66-20.28,74.11
					c-1.54,3.99-3.11,7.94-4.79,11.86c-1.71,4.02-3.46,7.97-5.28,11.93c4.3-14.58,7.62-29.27,10.07-43.96
					c1.29-7.52,2.27-15,3.08-22.49c0.1-0.77,0.17-1.5,0.24-2.31c0.7-6.72,1.15-13.46,1.47-20.18c0.31-7.13,0.45-14.27,0.35-21.33
					c-0.21-19.1-1.92-38.02-5-56.66c-3.36-20.49-8.39-40.64-15.04-60.19c-34.76-102.72-113.24-189.77-222.33-231.8
					c-95.34-36.76-196.41-32.28-283.6,4.65c-32.77,13.85-63.58,32.35-91.39,54.98c-7.24,5.88-14.27,12.03-21.05,18.43
					c-8.01,7.55-15.7,15.49-23.05,23.82c-0.28,0.28-0.56,0.63-0.84,0.91c-5.32,6.02-10.42,12.21-15.35,18.61
					c-2.59,3.32-5.11,6.71-7.59,10.18c-13.78,19.1-25.92,39.69-36.13,61.73c0.1-0.42,0.21-0.84,0.35-1.26
					c1.29-4.48,2.69-8.92,4.2-13.36c1.78-5.21,3.64-10.42,5.63-15.6c12-31.09,27.59-59.63,46.2-85.41c2.48-3.46,5-6.89,7.62-10.21
					c4.9-6.4,10-12.59,15.32-18.57c0.28-0.31,0.56-0.63,0.84-0.94c7.34-8.32,15.04-16.26,23.05-23.82
					c6.78-6.4,13.81-12.56,21.05-18.43c27.8-22.63,58.62-41.09,91.42-54.98c87.15-36.9,188.23-41.37,283.57-4.65
					c109.08,42.04,187.56,129.12,222.33,231.81c6.65,19.59,11.68,39.69,15.04,60.19
					C3283.49,1536.39,3285.17,1555.31,3285.38,1574.41z"/>
			</g>
		</g>
		<g>
			<path class="st2" d="M2907.17,1978.17c-46.94,0-94.63-8.46-140.98-26.32c-202.38-77.99-303.58-306.08-225.6-508.46
				c77.99-202.38,306.08-303.58,508.46-225.59c202.38,77.99,303.58,306.08,225.59,508.46
				C3214.52,1882.27,3065.16,1978.17,2907.17,1978.17z M2908.03,1221.47c-145.95,0-283.91,88.57-339.45,232.7
				c-72.04,186.94,21.45,397.64,208.39,469.68c42.81,16.5,86.88,24.31,130.23,24.31c145.95,0.01,283.9-88.57,339.45-232.7
				c34.9-90.56,32.44-189.29-6.92-278c-39.36-88.71-110.91-156.78-201.47-191.68C2995.45,1229.29,2951.38,1221.47,2908.03,1221.47z"
				/>
		</g>
		<g>
			<g>
				<g>
					<path class="st27" d="M1250.82,1948.3l-2.61,41.79c-1.07,17.16,16.83,29.04,32.22,21.39l52.32-26.01
						c15.39-7.65,16.73-29.1,2.41-38.6l-34.89-23.15C1279.83,1910.14,1252.35,1923.8,1250.82,1948.3z"/>
				</g>
				<g>
					<path class="st2" d="M1270.46,2016.35c-4.77,0-9.51-1.41-13.69-4.18c-7.48-4.97-11.61-13.28-11.05-22.24l2.61-41.79
						c0.77-12.41,7.88-23.12,19.02-28.65c11.13-5.54,23.96-4.73,34.32,2.14l34.89,23.15c7.48,4.96,11.61,13.27,11.05,22.23
						c-0.56,8.96-5.69,16.69-13.73,20.69l-52.32,26.01C1278.01,2015.48,1274.23,2016.35,1270.46,2016.35z M1282.69,1920.85
						c-4.45,0-8.93,1.03-13.12,3.12c-9.51,4.73-15.59,13.88-16.25,24.49l-2.61,41.79c-0.45,7.16,2.85,13.79,8.83,17.76
						c5.97,3.96,13.37,4.42,19.79,1.24l52.32-26.01c6.42-3.19,10.52-9.37,10.97-16.53c0.45-7.15-2.85-13.79-8.83-17.75l-34.89-23.15
						C1293.96,1922.52,1288.34,1920.85,1282.69,1920.85z"/>
				</g>
			</g>
			<g class="st4">
				<g>
					<path class="st12" d="M1250.82,1948.3l-2.61,41.79c-1.07,17.16,16.83,29.04,32.22,21.39l52.32-26.01
						c15.39-7.65,16.73-29.1,2.41-38.6l-34.89-23.15C1279.83,1910.14,1252.35,1923.8,1250.82,1948.3z"/>
				</g>
				<g>
					<path class="st28" d="M1250.82,1948.3l-2.61,41.79c-1.07,17.16,16.83,29.04,32.22,21.39l52.32-26.01
						c15.39-7.65,16.73-29.1,2.41-38.6l-34.89-23.15C1279.83,1910.14,1252.35,1923.8,1250.82,1948.3z"/>
				</g>
			</g>
			<g>
				<path class="st2" d="M1270.45,2030c-7.39,0-14.73-2.17-21.21-6.47c-11.58-7.69-17.98-20.56-17.11-34.44l2.61-41.79
					c1.08-17.32,11.01-32.28,26.55-40.01c15.54-7.72,33.46-6.61,47.92,2.99l34.89,23.15c11.58,7.69,17.98,20.56,17.12,34.43
					c-0.86,13.88-8.82,25.86-21.27,32.05l-52.32,26.01C1282.13,2028.65,1276.27,2030,1270.45,2030z M1282.79,1934.48
					c-3.2,0-5.79,1.02-7.15,1.7c-2.45,1.22-8.21,4.94-8.72,13.13v0l-2.61,41.79c-0.2,3.11,1.65,4.81,2.76,5.55
					c1.12,0.74,3.41,1.77,6.19,0.39l52.32-26.01c2.79-1.39,3.35-3.83,3.43-5.17c0.08-1.33-0.16-3.83-2.76-5.55l-34.89-23.15
					C1288.32,1935.13,1285.36,1934.48,1282.79,1934.48z M1250.83,1948.3h0.05H1250.83z"/>
			</g>
			<g>
				<path class="st29" d="M1095.42,1971.8c-224.11-11.19-396.7-201.91-385.51-426.02c1.94-38.85,9.26-76.14,21.24-111.19
					c5.2-15.26,11.28-30.1,18.18-44.43c66.07-137.51,206.95-230.96,367.42-230.38c6.35,0.01,12.74,0.18,19.15,0.5
					c79.06,3.96,151.71,30.24,212.15,72.46c65.83,45.99,117.16,110.88,146.5,186.38c20.05,51.64,29.8,108.25,26.87,167.16
					c-2.27,45.65-12.01,89.16-27.95,129.43C1431.13,1873.07,1273.86,1980.7,1095.42,1971.8z"/>
			</g>
			<g class="st4">
				<path class="st2" d="M1468.07,1768.23c-73.63,128.17-214.9,211.48-372.67,203.58c-224.1-11.19-396.7-201.94-385.51-426.04
					c1.93-38.83,9.26-76.15,21.26-111.18c5.21-15.27,11.26-30.12,18.19-44.42c17.57-36.53,40.37-69.95,67.44-99.33
					c-4.91,8.56-9.49,17.3-13.8,26.22c-6.89,14.35-12.98,29.19-18.14,44.42c-12,35.07-19.33,72.35-21.26,111.22
					c-11.19,224.1,161.41,414.81,385.51,426C1274.37,1904.94,1389.2,1853.74,1468.07,1768.23z"/>
			</g>
			<g class="st24">
				<g>
					<path class="st3" d="M1531.41,1581.26c-2.28,45.66-11.99,89.16-27.96,129.46c-17.61,44.45-42.8,84.97-73.91,119.98
						c15.89-23.74,29.36-49.27,40.07-76.24c15.97-40.25,25.68-83.8,27.95-129.42c2.95-58.92-6.82-115.55-26.87-167.19
						c-29.34-75.46-80.67-140.37-146.51-186.37c-60.43-42.22-133.09-68.5-212.14-72.44c-6.42-0.33-12.81-0.48-19.17-0.52
						c-120.34-0.43-229.7,52.04-304.7,136.28c73.47-109.43,198.55-180.53,338.54-180.01c6.36-0.01,12.75,0.19,19.17,0.48
						c79.05,3.98,151.71,30.26,212.14,72.48c65.83,46,117.17,110.87,146.51,186.37C1524.59,1465.75,1534.36,1522.38,1531.41,1581.26
						z"/>
				</g>
			</g>
			<g>
				<path class="st2" d="M1118.24,1989.09c-7.17,0-14.34-0.18-21.54-0.54c-112.69-5.62-216.44-54.79-292.14-138.44
					c-75.71-83.65-114.3-191.78-108.68-304.47c11.61-232.61,210.29-412.37,442.91-400.82c232.61,11.61,412.42,210.3,400.82,442.91
					l0,0c-5.62,112.69-54.79,216.44-138.45,292.14C1322.86,1950.74,1223.09,1989.09,1118.24,1989.09z M1117.52,1176.55
					c-206.28,0-379.03,162.43-389.42,370.7c-5.2,104.08,30.45,203.95,100.38,281.22c69.92,77.27,165.75,122.68,269.83,127.87
					c104.09,5.19,203.95-30.45,281.22-100.38c77.27-69.92,122.68-165.75,127.87-269.83c10.72-214.85-155.36-398.37-370.21-409.09
					C1130.6,1176.71,1124.04,1176.55,1117.52,1176.55z M1523.5,1586.94h0.05H1523.5z"/>
			</g>
			<g class="st30">
				<g>
					
						<ellipse transform="matrix(0.9247 -0.3808 0.3808 0.9247 -490.0256 461.379)" class="st12" cx="921.09" cy="1469.2" rx="63.92" ry="63.92"/>
				</g>
				<g>
					<path class="st2" d="M921.05,1535.63c-6.72,0-13.54-1.03-20.27-3.19c-34.87-11.21-54.12-48.69-42.92-83.56
						c5.43-16.89,17.11-30.66,32.89-38.76c15.78-8.11,33.77-9.58,50.67-4.16c34.87,11.2,54.13,48.69,42.92,83.56l0,0
						C975.29,1517.66,949.13,1535.63,921.05,1535.63z M921.03,1407.75c-9.63,0-19.18,2.29-28,6.82
						c-14.59,7.5-25.4,20.23-30.41,35.85c-10.36,32.24,7.44,66.91,39.69,77.27c32.25,10.37,66.91-7.45,77.27-39.69
						c5.02-15.62,3.65-32.26-3.84-46.86c-7.5-14.59-20.23-25.4-35.85-30.41C933.69,1408.73,927.34,1407.75,921.03,1407.75z"/>
				</g>
			</g>
			<g>
				
					<ellipse transform="matrix(0.8535 -0.5211 0.5211 0.8535 -633.9157 682.8761)" class="st29" cx="897.38" cy="1468.71" rx="51.63" ry="76.3"/>
			</g>
			<g>
				<path class="st2" d="M906,1401.03c14.63-4.54,31.18-3.57,45.73,2.59c14.68,6.03,27.17,17.43,34.98,31.54
					c7.68,14.16,10.73,31.07,7.89,47.17c-1.48,8.01-4.05,15.83-8,23.01c-3.98,7.13-9.03,13.7-15.12,19.16
					c-12.09,11.02-27.93,17.67-44.14,18.89c-16.22,0.96-32.73-3.19-45.93-12.43c-6.6-4.53-12.56-10.03-17.25-16.47
					c-4.66-6.44-8.3-13.55-10.63-21.04c-4.84-14.97-3.91-31.36,1.66-45.41c0.49-1.24,1.89-1.84,3.13-1.35
					c1.11,0.44,1.72,1.62,1.47,2.75l-0.02,0.07c-3.02,13.77-2.23,28.09,3.22,40.54c2.62,6.22,6.13,12.02,10.46,17.07
					c4.39,5.01,9.5,9.3,15.13,12.67c11.24,6.81,24.66,9.65,37.47,8.44c12.78-1.52,25.28-6.69,34.63-15.58
					c19.39-17.16,25.06-47.42,13.42-70.92c-2.83-5.89-6.7-11.28-11.27-16.01c-4.55-4.75-9.84-8.92-15.84-11.9
					c-11.8-6.44-25.85-8.79-39.7-6.93c-1.64,0.23-3.15-0.92-3.37-2.56C903.72,1402.83,904.63,1401.46,906,1401.03z"/>
			</g>
			<g>
				<path class="st2" d="M963.29,1562.19c-21.88,13.93-50.59,17.76-76.35,10.08c-12.92-3.7-25.02-10.27-35.49-18.83
					c-10.34-8.71-19.05-19.46-25.18-31.53c-12.36-24.12-14.33-53.33-5.16-78.5c8.85-25.25,28.58-46.16,52.48-55.82
					c1.23-0.5,2.64,0.09,3.14,1.33c0.45,1.1,0.02,2.34-0.95,2.95c-20.7,13.07-35.76,33.13-42.04,55.6
					c-6.32,22.44-3.88,46.79,6.78,67.12c10.51,20.39,28.91,36.4,50.75,44.16c21.85,7.81,46.7,7.24,69.27-1.86
					c1.54-0.62,3.28,0.12,3.9,1.66C965.01,1559.9,964.48,1561.43,963.29,1562.19z"/>
			</g>
			<g class="st30">
				
					<ellipse transform="matrix(0.5287 -0.8488 0.8488 0.5287 -503.3368 1727.8352)" class="st2" cx="1304.2" cy="1317.16" rx="41.56" ry="85.43"/>
			</g>
			<g>
				
					<ellipse transform="matrix(0.5486 -0.8361 0.8361 0.5486 -535.0535 1658.8807)" class="st29" cx="1268.7" cy="1324.93" rx="49.23" ry="64.38"/>
			</g>
			<g class="st4">
				<path class="st3" d="M1305.95,1250.23c51.12,21.02,94.19,64.41,96.19,96.89c2,32.5-37.83,41.79-88.95,20.77
					c-1.02-0.42-2.02-0.84-3.02-1.27c38.48,13.68,67.48,5.52,65.93-19.59c-1.64-26.58-36.86-62.06-78.68-79.26
					c-41.82-17.2-74.39-9.6-72.76,16.98c0.45,7.25,3.4,15.15,8.29,23.18c-9.46-12.7-15.26-25.49-15.97-36.94
					C1214.99,1238.49,1254.82,1229.2,1305.95,1250.23z"/>
			</g>
			<g>
				<path class="st2" d="M1231.59,1310.68c-4.3-5.97-8.01-12.62-9.9-20.26c-1.96-7.47-1.75-16.6,3.03-24.28
					c4.84-7.74,13.23-11.7,20.91-13.59c7.86-1.85,15.73-2.01,23.31-1.24c30.4,3.49,57.52,17.49,80.78,35.84
					c5.67,4.81,11.27,9.75,16.3,15.33c5.11,5.48,9.88,11.39,13.82,18.01c3.97,6.57,7.44,13.68,9.18,21.75
					c1.77,7.92,1.29,17.55-3.89,25.39c-5.13,7.86-13.65,12.03-21.42,13.42c-7.9,1.56-15.62,1.25-23.02,0.1
					c-7.41-1.18-14.56-3.12-21.42-5.68c-6.93-2.37-13.46-5.64-19.84-9.03c-1.09-0.58-1.51-1.94-0.93-3.03c0.53-1,1.7-1.43,2.74-1.05
					l0.08,0.03c13.22,4.77,26.77,8.87,40.36,9.49c6.72,0.41,13.48,0.17,19.5-1.56c6.05-1.63,11.05-4.84,13.48-9.23
					c2.55-4.31,2.73-10.07,1.28-15.91c-1.47-5.86-4.48-11.68-8.07-17.14c-7.19-11.01-16.99-20.75-27.53-29.3
					c-10.69-8.45-22.28-15.89-34.6-21.8c-12.24-6.01-25.25-10.49-38.35-12.52c-6.54-1.06-13.13-1.15-19.23-0.11
					c-6.06,1.01-11.73,3.39-14.85,7.75c-3.3,4.18-4.56,10.37-3.58,16.74c0.94,6.37,3.45,12.8,6.58,18.95l0.02,0.03
					c0.7,1.37,0.15,3.04-1.22,3.74C1233.87,1312.17,1232.37,1311.78,1231.59,1310.68z"/>
			</g>
			<g class="st30">
				
					<ellipse transform="matrix(0.7071 -0.7071 0.7071 0.7071 -705.6221 1298.3186)" class="st2" cx="1214.4" cy="1500.92" rx="81.15" ry="81.15"/>
			</g>
			<g>
				<path class="st29" d="M1325.79,1760.94c11.12,10.02,19.13,22.82,22.57,37.67c10.32,44.56-24.42,90.67-77.59,102.99
					c-53.18,12.32-104.65-13.82-114.97-58.38s24.42-90.67,77.59-102.99L1325.79,1760.94z"/>
			</g>
			<g>
				<path class="st2" d="M1352.75,1802.25c4,11.85,4.3,25.04,1.55,37.51c-2.82,12.49-8.65,24.25-16.51,34.34
					c-7.8,10.17-17.68,18.59-28.49,25.32c-10.94,6.55-22.86,11.45-35.24,14.31c-24.74,5.49-51.57,3.44-74.47-7.99
					c-11.43-5.61-21.73-13.64-29.68-23.55c-7.9-9.93-13.33-21.82-14.97-34.11c-0.18-1.32,0.75-2.54,2.07-2.71
					c1.17-0.16,2.25,0.55,2.61,1.63c7.35,22.11,25,38.39,45.48,46.67c20.57,8.37,43.73,9.49,65.34,4.44
					c21.57-5.19,41.76-16.46,56.37-33.02c14.57-16.45,23.14-38.58,20.12-61.48c-0.22-1.64,0.94-3.15,2.58-3.36
					C1350.96,1800.04,1352.3,1800.92,1352.75,1802.25z"/>
			</g>
			<g class="st30">
				
					<ellipse transform="matrix(0.1899 -0.9818 0.9818 0.1899 -382.9876 2704.1152)" class="st2" cx="1447.06" cy="1584.13" rx="54.64" ry="37"/>
			</g>
			<g class="st30">
				
					<ellipse transform="matrix(0.0508 -0.9987 0.9987 0.0508 -265.7904 2248.281)" class="st2" cx="1049.93" cy="1263.97" rx="23" ry="47.05"/>
			</g>
			<g>
				<path class="st29" d="M1042.82,1810.04c-30.26,32.79-73.25,45.84-124.97-1.89c-37.8-34.88-43.12-90.58-11.9-124.42
					L1042.82,1810.04z"/>
			</g>
			<g>
				<path class="st2" d="M1045.02,1812.07c-7.46,9.39-16.51,17.91-27.38,24.14c-10.76,6.37-23.62,9.84-36.51,9.74
					c-12.92-0.19-25.57-3.81-36.73-9.51c-11.21-5.67-21.35-12.92-30.41-21.11c-18.95-16.38-32.13-40.21-34.65-65.45
					c-1.23-12.58,0.07-25.46,4.33-37.29c4.19-11.82,11.27-22.56,20.52-30.49c1.01-0.87,2.54-0.76,3.41,0.25
					c0.75,0.87,0.77,2.12,0.12,3.01c-13.53,18.51-18.03,41.34-14.2,62.62c3.61,21.4,14.99,40.91,31.1,55.57
					c8.32,7.5,17.07,14.48,26.68,19.63c9.55,5.17,19.78,8.91,30.36,9.59c10.54,0.87,21.27-1.21,31.28-5.73
					c10-4.53,19.27-11.23,27.7-19.02c1.21-1.13,3.1-1.06,4.23,0.14C1045.88,1809.26,1045.91,1810.92,1045.02,1812.07z"/>
			</g>
			<g>
				
					<ellipse transform="matrix(0.8535 -0.5211 0.5211 0.8535 -612.0361 840.9285)" class="st29" cx="1189.39" cy="1508.83" rx="63.74" ry="74.05"/>
			</g>
			<g>
				
					<ellipse transform="matrix(0.9484 -0.3171 0.3171 0.9484 -431.1334 533.3308)" class="st29" cx="1423.07" cy="1591.3" rx="33.02" ry="47.45"/>
			</g>
			<g>
				<path class="st2" d="M1194.47,1415.37c18.42-5.61,39.06-4.26,57.28,3.25c18.34,7.47,33.94,21.59,43.78,39.08
					c9.64,17.56,13.63,38.5,10.25,58.51c-1.74,9.95-4.83,19.7-9.64,28.65c-4.85,8.9-11.04,17.1-18.51,23.96
					c-14.83,13.86-34.4,22.32-54.5,24.13c-20.12,1.47-40.72-3.4-57.33-14.62c-8.31-5.51-15.84-12.24-21.83-20.16
					c-5.95-7.93-10.66-16.73-13.75-26.04c-6.28-18.61-5.75-39.12,0.82-57c0.45-1.25,1.83-1.89,3.08-1.44
					c1.17,0.42,1.8,1.68,1.51,2.86c-9.04,35.2,7.33,73.51,37.22,90.53c7.3,4.4,15.35,7.52,23.65,9.27
					c8.28,1.79,16.8,2.37,25.19,1.44c16.67-2.07,32.91-9.01,45.02-20.72c6.05-5.8,11.29-12.42,15.33-19.78
					c4.03-7.36,6.63-15.48,8.15-23.72c3.28-16.55,0.19-33.98-7.21-49.21c-3.82-7.6-8.98-14.51-15.02-20.54
					c-6.03-6.04-13.01-11.3-20.84-15c-15.4-8.12-33.65-10.55-51.3-7.66c-1.63,0.27-3.17-0.83-3.44-2.46
					C1192.15,1417.23,1193.06,1415.8,1194.47,1415.37z"/>
			</g>
			<g>
				<path class="st2" d="M1320.46,1583.19c-8.28,12.68-19.24,23.7-31.75,32.62c-6.31,4.37-12.94,8.41-20.03,11.48
					c-3.55,1.5-6.99,3.37-10.7,4.49l-11.08,3.6c-15.04,4.01-30.82,5.14-46.37,3.83c-15.52-1.54-30.88-5.49-45.05-12.15
					c-28.19-13.48-51.75-36.73-64.54-65.02c-13.23-27.99-15.76-60.65-7.13-89.51c0.38-1.28,1.72-2,3-1.62
					c1.16,0.35,1.86,1.48,1.7,2.64c-4.02,28.73,0.94,57.95,14.33,82.6c13.13,24.79,34.35,44.63,59.42,56.37
					c25.19,11.56,53.98,14.71,81.28,9.05l10.12-2.69c3.42-0.79,6.57-2.38,9.89-3.49c6.66-2.25,12.97-5.47,19.06-9.01
					c12.27-7.03,23.35-16.21,33.12-26.84c1.11-1.22,3.01-1.31,4.23-0.19C1321.07,1580.35,1321.24,1581.99,1320.46,1583.19z"/>
			</g>
			<g>
				<path class="st2" d="M1407.93,1606c-2.76-10.14-2.82-21-0.83-31.46c2.01-10.48,6.1-20.82,12.95-29.75
					c3.37-4.49,7.49-8.61,12.53-11.86c4.99-3.24,10.95-5.71,17.48-6.24c6.51-0.51,13.26,1.1,18.86,4.36
					c5.62,3.25,10.08,7.87,13.23,12.92c6.31,10.16,8.91,21.46,9.05,32.45c0.15,11.03-1.94,21.85-6.06,31.89
					c-4.12,10.02-10.4,19.32-19.06,26.24c-4.35,3.39-9.33,6.21-14.84,7.55c-5.46,1.42-11.39,1.24-16.55-0.71
					c-1.25-0.47-1.88-1.87-1.41-3.11c0.4-1.07,1.48-1.68,2.56-1.55l0.05,0.01c9.09,1.15,17.45-3.23,23.51-9.7
					c6.22-6.41,10.47-14.69,13.27-23.3c2.59-8.7,3.94-17.85,3.31-26.74c-0.58-8.83-2.81-17.6-7.28-24.27
					c-4.35-6.74-10.7-10.75-17.61-10.26c-6.94,0.17-14.36,4.85-20.07,11.34c-5.78,6.49-10.22,14.7-13.06,23.49
					c-3.06,8.79-4.36,18.23-4.15,27.79l0,0.06c0.04,1.66-1.28,3.03-2.93,3.07C1409.49,1608.25,1408.29,1607.3,1407.93,1606z"/>
			</g>
			<g>
				<path class="st2" d="M1482.49,1641.91c-8.28,11.71-21.43,21.21-37.18,23.56c-7.8,1.34-16.04,0.39-23.68-2.05
					c-7.57-2.73-14.54-7.15-20.09-12.79c-5.51-5.67-9.95-12.22-12.96-19.26c-2.92-7.07-4.8-14.42-5.52-21.83
					c-1.48-14.8,1.33-29.63,7.6-42.4c0.59-1.2,2.05-1.7,3.25-1.11c0.96,0.47,1.47,1.5,1.34,2.51l-0.01,0.06
					c-1.85,13.4-1.87,26.53,0.93,38.87c1.51,6.11,3.44,12.03,6.2,17.46c2.86,5.35,6.23,10.31,10.45,14.3
					c8.18,8.18,19.34,12.67,31,12.11c11.75-0.45,23.61-5.78,34.38-13.59l0.04-0.03c1.35-0.98,3.24-0.68,4.22,0.67
					C1483.25,1639.47,1483.21,1640.89,1482.49,1641.91z"/>
			</g>
			<g>
				
					<ellipse transform="matrix(0.2165 -0.9763 0.9763 0.2165 -419.7225 1991.0421)" class="st29" cx="1030.66" cy="1257.03" rx="27.12" ry="33.49"/>
			</g>
			<g>
				<path class="st2" d="M1004.5,1257.4c0.94-5.72,4.66-9.96,8.39-13.31c3.89-3.3,8.24-5.85,12.82-7.73
					c9.15-3.82,19.15-5.21,29.04-4.5c9.84,0.81,19.75,3.76,28.16,9.69c4.19,2.94,7.96,6.67,10.78,11.24
					c2.65,4.55,4.57,10.39,2.9,16.03c-0.51,1.73-2.33,2.71-4.05,2.2c-1.21-0.36-2.05-1.35-2.28-2.5l-0.09-0.46
					c-1.3-6.7-7.64-11.71-14.26-15.19c-3.43-1.66-7-3.15-10.81-4.05c-3.74-1.1-7.66-1.68-11.6-2.06c-7.87-0.76-15.93-0.1-23.69,1.73
					c-3.84,0.99-7.66,2.22-11.11,3.98c-3.47,1.7-6.63,3.91-8.59,6.74l-0.26,0.37c-0.93,1.34-2.77,1.67-4.11,0.74
					C1004.77,1259.64,1004.32,1258.49,1004.5,1257.4z"/>
			</g>
			<g class="st4">
				
					<ellipse transform="matrix(0.8535 -0.5211 0.5211 0.8535 -764.6583 763.9709)" class="st2" cx="976.22" cy="1741.76" rx="57.4" ry="66.6"/>
			</g>
			<g>
				
					<ellipse transform="matrix(0.8535 -0.5211 0.5211 0.8535 -770.145 758.8635)" class="st29" cx="964.4" cy="1748.97" rx="39.08" ry="48.38"/>
			</g>
			<g>
				<path class="st2" d="M1040.05,1756.5c-0.52,6.73-2.36,13.51-5.57,19.71c-1.58,3.11-3.55,6.04-5.74,8.79
					c-2.18,2.66-4.43,5.17-6.96,7.54c-5.01,4.72-10.84,8.87-17.49,11.8c-6.65,2.88-14.13,4.35-21.54,4.11
					c-15.03-0.53-28.25-7.69-39.05-15.9c-2.7-2.16-5.24-4.31-7.79-6.7c-2.6-2.42-5-5.06-7.24-7.84
					c-4.46-5.56-8.19-11.76-10.79-18.46c-5.19-13.31-6.58-28.53-2.23-42.58c4.18-14.04,14.05-26.36,26.86-33.14
					c12.74-7.01,27.7-8.4,41.14-5.49c13.49,2.98,25.71,10.14,34.6,19.97c0.89,0.99,0.82,2.51-0.17,3.41
					c-0.88,0.79-2.18,0.82-3.09,0.12c-9.82-7.5-21.29-12.36-32.99-13.57c-11.65-1.32-23.45,1.13-32.81,7.05
					c-9.32,5.95-16.24,15.28-18.89,25.84c-2.77,10.53-1.81,22.12,2.47,32.42c2.17,5.13,4.89,10.08,8.41,14.48
					c1.74,2.2,3.61,4.32,5.67,6.26c2.08,2,4.39,3.99,6.65,5.84c9.06,7.49,19.4,13.01,30.07,14.07c10.64,1.06,21.55-2.98,30.78-10.28
					c2.3-1.81,4.6-3.77,6.71-5.83c2.06-1.99,3.93-4.21,5.6-6.58c3.37-4.73,5.88-10.19,7.49-16.02l0.01-0.04
					c0.44-1.59,2.09-2.53,3.68-2.09C1039.27,1753.77,1040.16,1755.1,1040.05,1756.5z"/>
			</g>
			<g class="st4">
				
					<ellipse transform="matrix(0.967 -0.2548 0.2548 0.967 -422.6873 378.7672)" class="st2" cx="1250.93" cy="1821.21" rx="65.24" ry="55.72"/>
			</g>
			<g>
				
					<ellipse transform="matrix(0.967 -0.2548 0.2548 0.967 -425.4799 375.3456)" class="st29" cx="1236.32" cy="1830.29" rx="48.23" ry="46.32"/>
			</g>
			<g>
				<path class="st2" d="M1303.69,1778.33c11.28,8.37,19.17,22.27,19.95,37.17c0.9,14.89-4.67,29.88-14.16,41.09
					c-18.87,22.94-50.41,32.97-79.29,26.98c-14.32-3.23-28.4-10.3-38.18-22.16c-9.79-11.72-14.59-27.73-12.18-42.72
					c2.29-15.01,10.65-28.09,21.41-37.34c5.47-4.58,11.46-8.4,17.82-11.3c6.42-2.81,13.13-4.67,19.89-5.78
					c1.31-0.21,2.55,0.67,2.77,1.99c0.19,1.18-0.5,2.29-1.59,2.67l-0.09,0.03c-6.13,2.1-11.95,4.75-17.38,7.97
					c-5.33,3.39-10.27,7.25-14.51,11.73c-8.53,8.88-14.06,20.2-15.14,31.63c-0.91,11.46,3.01,22.82,10.55,31.21
					c7.57,8.44,18.4,14.03,29.91,16.38c5.8,1.05,11.72,1.54,17.67,1.26c5.95-0.39,11.85-1.53,17.59-3.23
					c5.68-1.84,11.18-4.23,16.29-7.31c5.05-3.16,9.63-6.99,13.7-11.28c4.07-4.3,7.38-9.27,9.7-14.64c2.4-5.33,3.81-11.09,4-16.94
					c0.68-11.8-4.19-23.72-12.72-32.97c-1.12-1.22-1.05-3.11,0.17-4.23C1300.94,1777.53,1302.56,1777.48,1303.69,1778.33z"/>
			</g>
		</g>
		<g class="st4">
			<path class="st31" d="M2274.04,2115.56c-0.65,0.33-1.26,0.66-1.86,0.96c-0.03-0.89-0.03-1.77,0.02-2.66
				c0.07-1.22,0.22-2.44,0.44-3.63c0.05-0.32,0.11-0.62,0.2-0.92c0.01-0.13,0.05-0.25,0.07-0.38c0.08-0.37,0.18-0.71,0.28-1.06
				c0.08-0.3,0.16-0.6,0.26-0.9c0.04-0.16,0.08-0.3,0.14-0.44c0.11-0.33,0.23-0.66,0.34-0.98c0.15-0.39,0.3-0.77,0.45-1.15
				c-0.09,0.41-0.17,0.83-0.25,1.24c-0.16,0.88-0.28,1.79-0.36,2.69C2273.57,2110.72,2273.67,2113.14,2274.04,2115.56z"/>
		</g>
		<g>
			<path class="st3" d="M1732.13,1982.48l-11.77,30.9l-9.99,26.23l-8.68,22.82l-51.18,134.36c-8.29,2.3-16.76,4.39-25.48,6.13
				c-109.34,22.47-253.76-1.28-450.85-222.29c-30.83-34.56-105.23-55.5-72.8-134.07c33.17-80.38,79.85-70.35,79.85-70.35
				s-12.23-39.84,14.14-60c37.21-28.49,81.34,13.72,124.19,43.81c6.1,4.29,3.37-53.45,43.63-51.71
				c57.59,2.48,54.51,133.93,54.51,133.93s77.69,85.31,198.29,122.88c30.59,9.53,63.97,15.98,99.56,17.19
				C1721,1982.48,1726.56,1982.55,1732.13,1982.48z"/>
		</g>
		<g class="st30">
			<path class="st2" d="M1650.5,2196.79L1650.5,2196.79c-112.13,31.14-263.52,22.47-476.33-216.15
				c-30.82-34.56-105.22-55.48-72.79-134.06c19.91-48.29,44.72-63.93,61.32-68.75c-5.63,8.55-9.66,19.73-16.41,31.61
				c-37.94,66.85,65.95,131.71,94.6,119.85c17.57-7.28,23.75-14.32,33.89-47.91c10.79-35.7,27.57-52.68,29.54-50.46
				c8.99,10.08,9.2,134.47,29.86,178.22c52.69,111.55,194.55,166.39,297.5,161.61C1645.51,2170.1,1655.42,2183.86,1650.5,2196.79z"
				/>
		</g>
		<g>
			<path class="st2" d="M1560.55,2224.81c-98.2,0-229.7-45.95-397.57-234.17c-6.74-7.55-16.53-14.85-26.9-22.58
				c-32.62-24.32-77.31-57.62-48.58-127.22c23.88-57.87,55.62-74.4,76.17-78.64c-1.27-16.88,1.28-41.63,22.57-57.92
				c40.76-31.19,84.7,1.34,123.47,30.03c0.89,0.66,1.78,1.32,2.67,1.98c5.67-18.08,18.56-44.45,51.45-42.99
				c64.15,2.77,68.85,112.52,68.92,142.93c22.56,22.63,138.99,131.26,294.89,131.26c1.44,0,2.85-0.01,4.3-0.03c0.07,0,0.13,0,0.2,0
				c8.19,0,14.89,6.59,14.99,14.81c0.11,8.28-6.52,15.09-14.8,15.19c-188.95,2.4-320.23-139.09-325.72-145.12
				c-2.59-2.85-3.99-6.59-3.9-10.44c0.85-38.1-7.85-117.23-40.17-118.63c-13.64-0.59-18.88,10.46-23.99,31.04
				c-2.13,8.58-4.14,16.69-12.83,19.93c-4.91,1.83-10.43,1.1-14.78-1.95c-6.34-4.45-12.71-9.17-19.08-13.88
				c-40.18-29.74-66.1-46.62-87.4-30.32c-17.64,13.49-8.99,43.48-8.9,43.78c1.51,5.08,0.23,10.61-3.37,14.5
				c-3.6,3.89-8.97,5.62-14.16,4.5c-1.1-0.17-35.44-4.95-62.82,61.39c-18.87,45.73,2.44,64.64,38.78,91.72
				c11.11,8.28,22.6,16.84,31.36,26.67c217.69,244.09,367.41,237.69,461.11,211.66c7.99-2.21,16.25,2.46,18.47,10.43
				c2.22,7.98-2.45,16.25-10.44,18.47C1627.5,2218.75,1596.22,2224.81,1560.55,2224.81z"/>
		</g>
		<g>
			<path class="st2" d="M1338.78,1757.1l-3.18,44.91c-0.21,2.98-1.18,5.73-2.7,8.07l-0.67,1.01v0c-0.62,0.56-1.93,2.2-2.89,3.48
				c-1.04,1.39-2.05,2.83-3,4.34c-1.95,2.98-3.64,6.14-5.21,9.36c-3.05,6.47-5.14,13.31-6.07,20.28c-0.63,3.51-0.48,6.99-0.58,10.56
				c0.49,3.47,0.53,7.11,1.61,10.55c1.4,7.13,4.89,13.79,8.65,20.45l0.43,0.75c2.19,3.87,0.83,8.77-3.04,10.96
				c-3.46,1.96-7.76,1.07-10.19-1.92c-5.79-7.1-11.48-14.78-14.95-23.83c-2.11-4.37-3.12-9.14-4.46-13.86
				c-0.76-4.8-1.65-9.68-1.64-14.58c-0.3-9.81,1.04-19.62,3.7-28.95c1.37-4.65,2.95-9.25,4.92-13.71c0.95-2.24,2.01-4.46,3.15-6.66
				c1.23-2.3,2.21-4.19,4.09-7l0,0l-3.37,9.08l3.28-46.35c0.63-8.88,8.34-15.57,17.22-14.94c8.88,0.63,15.57,8.34,14.94,17.22
				L1338.78,1757.1z"/>
		</g>
		<g>
			<path class="st2" d="M1431.89,2195.33c-3.29,0-6.57-1.29-9.02-3.84c-4.78-4.99-4.62-12.9,0.36-17.68
				c75.94-72.88,87.48-248.85,87.58-250.62c0.42-6.89,6.39-12.1,13.24-11.72c6.89,0.42,12.14,6.35,11.72,13.24
				c-0.47,7.62-12.32,187.57-95.23,267.14C1438.12,2194.17,1435,2195.33,1431.89,2195.33z"/>
		</g>
		<g>
			<path class="st3" d="M2416.07,2563.68c-6.06,133.97-47.03,188.34-97.6,205.49c-10.46,3.54-22.79,5.67-33.81,5.28
				c-35.8-1.24-61.77-16.34-61.77-16.34s-13.19,5.53-25.27,4.36c-93.53-9.07-72.19-64.57-53.2-153.5
				c5.46-25.59,10.74-53.94,13.01-84.74c10.81-145.49-29.88-283.03-29.88-283.03l15.67-130.53l17.44-145.49
				c0,0,9.14,8.29,23.99,24.06c13.01,13.79,30.37,33.24,49.76,57.88C2313.51,2147.42,2426.56,2332.85,2416.07,2563.68z"/>
		</g>
		<g>
			<path class="st2" d="M2287.15,2789.5c-1.02,0-2.03-0.02-3.02-0.05c-28.72-0.99-51.72-10.06-62.37-15.08
				c-6.29,1.88-15.96,3.96-25.59,3.03c-35.53-3.44-58.13-13.39-71.12-31.3c-20.3-27.99-11.41-67.86-0.15-118.34
				c6.88-30.83,14.67-65.78,17.56-104.65c10.47-140.86-28.88-276.31-29.28-277.67c-2.34-7.94,2.19-16.28,10.14-18.63
				c7.96-2.35,16.28,2.19,18.63,10.13c1.69,5.73,41.32,141.89,30.43,288.39c-3.05,41.04-11.1,77.12-18.19,108.95
				c-9.61,43.11-17.2,77.16-4.85,94.2c7.47,10.3,23.73,16.53,49.72,19.05c6.67,0.67,15.34-2.15,18.11-3.28l6.83-2.79l6.43,3.69
				c0.19,0.11,23.47,13.24,54.73,14.31c8.78,0.32,19.16-1.34,28.47-4.5c53.09-18.01,82.51-82.59,87.47-191.96
				c15.46-341.09-247.87-584.3-250.53-586.72c-6.13-5.57-6.59-15.06-1.02-21.19c5.57-6.14,15.05-6.59,21.19-1.02
				c2.83,2.57,70.15,64.23,136.35,170.39c61.21,98.17,132.41,254.17,123.99,439.9c-5.65,124.68-40.91,196.32-107.8,219.01
				C2311.69,2787.31,2298.7,2789.5,2287.15,2789.5z"/>
		</g>
		<g>
			<path class="st2" d="M2154.74,2401.25c-5.11,0-9.91-3.16-11.75-8.25c-2.35-6.49,1-13.66,7.49-16.01
				c7.73-2.8,189.92-67.92,256.43-8.1c5.13,4.61,5.55,12.52,0.94,17.65s-12.52,5.55-17.65,0.93c-46-41.36-182.48-4.62-231.19,13.02
				C2157.59,2401.01,2156.15,2401.25,2154.74,2401.25z"/>
		</g>
		<g>
			<path class="st3" d="M2257.58,2608.98h-659.39c-1.74-53.48-1.31-104.98,0.71-154.21c1.88-45.58,5.17-89.21,9.5-130.64
				c3.93-37.89,8.75-73.93,14.14-108.03c0.71-4.5,1.56-8.9,2.48-13.18c13.36-60.43,49.26-102.28,73.93-142.76
				c4.18-6.88,8.05-13.68,11.41-20.56c3.9-7.94,7.12-15.91,9.46-24.1c0.21-0.71,0.39-1.42,0.53-2.13c1.7-8.82-0.78-19.71-4.82-31.08
				c-8.86-24.99-25.16-52.45-20.59-66.03c7.58-22.36,14.18-39.94,19.07-52.35c5.56-14.18,8.9-21.58,8.9-21.58h409.95
				c0,0,3.4,7.3,9.11,21.37c5.92,14.57,14.28,36.36,23.85,64.96c5.92,17.65,12.3,37.89,18.82,60.57
				c4.78,16.59,9.68,34.48,14.53,53.62c2.3,9.11,4.61,18.5,6.84,28.14c10.7,45.15,20.95,96.33,29.52,153.11
				c4.86,31.83,9.14,65.35,12.65,100.58c4.22,41.61,7.34,85.52,9.07,131.52C2259.1,2504.82,2259.35,2555.85,2257.58,2608.98z"/>
		</g>
		<g>
			<path class="st2" d="M1652.81,2107.01c-5.57,41.81-11.37,83.08-16.22,124.64c-5.14,41.5-8.56,83.27-11.35,125.15
				c-2.66,41.89-4.53,83.91-6.15,126l-4.75,126.47c-0.33,8.9-7.82,15.85-16.72,15.51c-8.65-0.32-15.45-7.4-15.52-15.96l0-0.15
				c-0.15-21.17,0.06-42.33,0.31-63.51c0.2-21.18,0.59-42.37,1.29-63.58c1.3-42.4,3.36-84.85,6.76-127.29
				c1.6-21.22,3.58-42.44,6.12-63.62c1.15-10.6,2.48-21.19,3.93-31.77c1.33-10.59,2.86-21.16,4.67-31.7
				c6.97-42.14,16.63-84.12,32.03-124.23c1.61-4.18,6.3-6.27,10.49-4.67c3.58,1.37,5.62,5,5.14,8.64L1652.81,2107.01z"/>
		</g>
		<g>
			<path class="st2" d="M2241.45,2609.29c-0.91-19.9-1.4-39.8-1.96-59.66c-0.65-19.85-0.95-39.69-1.4-59.47
				c-0.49-19.78-1.07-39.53-1.97-59.22c-0.79-19.7-1.62-39.37-3.04-58.99c-2.42-39.27-6.5-78.36-11.35-117.45
				c-4.65-39.12-10.14-78.21-14.6-117.77l0-0.04c-0.5-4.45,2.7-8.46,7.14-8.96c3.89-0.44,7.45,1.96,8.61,5.54
				c12.41,38.13,21.81,77.16,29.09,116.64c7.12,39.5,11.96,79.46,15.44,119.46c0.88,10.01,1.59,20.01,2.21,30.02
				c0.7,10.01,1.26,20.01,1.69,30.02c0.85,20.02,1.37,40,1.8,59.96c0.41,19.95,0.74,39.86,0.67,59.75c0,19.88,0.14,39.73-0.08,59.56
				v0.04c-0.1,8.91-7.4,16.05-16.31,15.96C2248.8,2624.59,2241.85,2617.75,2241.45,2609.29z"/>
		</g>
		<g class="st9">
			<path class="st2" d="M2257.27,2487.27c-40.46,3.96-90.94,5.38-130.14-4.89v21.75c0,30.1-24.65,54.75-54.78,54.75h-298.88
				c-30.1,0-54.72-24.65-54.72-54.75v-17.38c-39.07,5.94-84.54,3.37-119.84-0.62c1.86-36.32,5.17-71.08,9.5-104.09
				c32.39,1.36,74.21,1.95,110.34-1.18v-39.01c0-30.16,24.62-54.72,54.72-54.72h298.88c17.73,0,33.56,8.54,43.59,21.68
				c7.02,9.19,11.2,20.63,11.2,33.04v36.56c36.38,5.29,83.43,5.29,121.07,4.05C2252.41,2415.63,2255.54,2450.61,2257.27,2487.27z"/>
		</g>
		<g>
			<path class="st3" d="M1776.57,2429.97c-41.1,16.64-104.7,13.16-148.06,7.91c-26.01-3.15-44.26-27.15-40.43-53.06l0,0
				c3.5-23.65,24.31-40.84,48.19-39.72c40.56,1.9,101.39,2.79,139.92-5.76L1776.57,2429.97z"/>
		</g>
		<g class="st30">
			<path class="st2" d="M1776.58,2429.96c-41.11,16.66-104.71,13.15-148.07,7.93c-26.01-3.15-44.26-27.16-40.42-53.06
				c0.76-5.29,2.43-10.25,4.78-14.78c6.85,13.07,19.81,22.71,35.64,24.63c43.28,5.25,106.78,8.73,147.88-7.82L1776.58,2429.96z"/>
		</g>
		<g>
			<path class="st2" d="M1694.83,2454.71c-23.85,0-47.53-1.96-67.82-4.42c-15.94-1.93-30.08-10.02-39.82-22.78
				c-9.76-12.79-13.83-28.59-11.48-44.51c4.46-30.15,30.76-51.78,61.14-50.38c59.6,2.78,108.12,0.84,136.62-5.47
				c6.18-1.4,21.49-1.5,30.31,26.85c8.74,28.1,7.62,75.36-22.53,87.57h0C1756.95,2451.4,1725.76,2454.71,1694.83,2454.71z
				 M1776.57,2429.97h0.05H1776.57z M1634.06,2357.54c-16.82,0-31.12,12.26-33.61,29.1c-1.36,9.19,0.99,18.32,6.62,25.69
				c5.61,7.36,13.76,12.02,22.95,13.13c61.73,7.47,112.12,4.95,141.86-7.09l0,0c7.51-3.04,10.1-15.33,10.87-20.47
				c3.01-20.19-2.78-39.97-6.83-45.74c-39.25,8.04-97.63,7.41-140.23,5.41C1635.15,2357.56,1634.6,2357.54,1634.06,2357.54z"/>
		</g>
		<g>
			<path class="st3" d="M2090.91,2429.97c41.1,16.64,104.7,13.16,148.06,7.91c26.01-3.15,44.26-27.15,40.43-53.06l0,0
				c-3.5-23.65-24.31-40.84-48.19-39.72c-40.56,1.9-101.39,2.79-139.92-5.76L2090.91,2429.97z"/>
		</g>
		<g class="st30">
			<path class="st2" d="M2238.96,2437.9c-43.35,5.22-106.96,8.73-148.07-7.93l0.18-43.5c41.11,16.55,104.6,13.08,147.88,7.82
				c15.76-1.88,28.65-11.45,35.53-24.45c2.43,4.56,4.13,9.6,4.93,14.99C2283.22,2410.73,2264.97,2434.74,2238.96,2437.9z"/>
		</g>
		<g>
			<path class="st2" d="M2172.65,2454.71c-30.93,0-62.11-3.31-86.43-13.15l0,0c-30.16-12.21-31.27-59.47-22.53-87.57
				c8.82-28.34,24.15-28.23,30.31-26.85c28.5,6.32,77.02,8.26,136.62,5.47c30.41-1.39,56.68,20.23,61.14,50.38
				c2.35,15.92-1.72,31.72-11.48,44.51c-9.74,12.76-23.88,20.85-39.81,22.78C2220.19,2452.74,2196.49,2454.71,2172.65,2454.71z
				 M2095.6,2418.38c29.74,12.04,80.12,14.56,141.87,7.09c9.18-1.11,17.33-5.78,22.94-13.13c5.63-7.38,7.98-16.5,6.62-25.69
				c-2.57-17.39-17.72-29.88-35.24-29.06c-42.6,2-100.98,2.63-140.23-5.41c-4.05,5.77-9.84,25.55-6.83,45.74
				C2085.51,2403.06,2088.1,2415.35,2095.6,2418.38L2095.6,2418.38z"/>
		</g>
		<g>
			<path class="st3" d="M2106.8,2309.39v145.24c0,26.95-22.06,49.01-49.01,49.01h-267.48c-26.91,0-48.97-22.06-48.97-49.01v-145.24
				c0-26.95,22.06-48.97,48.97-48.97h267.48c15.86,0,30.03,7.64,39.01,19.41C2103.06,2288.05,2106.8,2298.31,2106.8,2309.39z"/>
		</g>
		<g class="st30">
			<path class="st2" d="M2106.79,2309.39v145.24c0,26.95-22.05,48.99-48.99,48.99h-267.48c-26.95,0-48.99-22.05-48.99-48.99v-54.32
				c40.17,40.96,119.17,66.67,191.63,67.05c23.28,0.12,42.06-18.29,43.72-41.51c0.02-0.23,0.04-0.46,0.06-0.7
				c1.78-20.38,18.57-36.88,38.97-38.35c23.24-1.67,42.84,15.48,45.14,37.79c35.07-43.3,24.8-118.55,35.95-144.75
				C2103.08,2288.06,2106.79,2298.3,2106.79,2309.39z"/>
		</g>
		<g>
			<path class="st2" d="M2057.81,2516.13h-267.49c-33.9,0-61.48-27.58-61.48-61.48v-145.26c0-33.9,27.58-61.48,61.48-61.48h267.49
				c33.9,0,61.48,27.58,61.48,61.48v145.26C2119.28,2488.55,2091.71,2516.13,2057.81,2516.13z M1790.32,2272.91
				c-20.11,0-36.48,16.36-36.48,36.48v145.26c0,20.12,16.36,36.48,36.48,36.48h267.49c20.11,0,36.48-16.36,36.48-36.48v-145.26
				c0-20.12-16.36-36.48-36.48-36.48H1790.32z"/>
		</g>
		<g>
			
				<ellipse transform="matrix(0.1602 -0.9871 0.9871 0.1602 -655.8156 3993.2153)" class="st32" cx="2018.82" cy="2382.02" rx="42.24" ry="42.24"/>
		</g>
		<g class="st33">
			<path class="st3" d="M2061.06,2382.02c0,2.89-0.27,5.7-0.82,8.44c-3.9-19.32-20.96-33.85-41.41-33.85
				c-20.47,0-37.54,14.53-41.44,33.85c-0.55-2.74-0.82-5.54-0.82-8.44c0-23.34,18.92-42.23,42.26-42.23
				C2042.14,2339.79,2061.06,2358.68,2061.06,2382.02z"/>
		</g>
		<g class="st30">
			<path class="st2" d="M2061.05,2382.01c0,23.33-18.91,42.23-42.23,42.23c-23.33,0-42.23-18.91-42.23-42.23
				c0-5.4,1.01-10.54,2.9-15.28c6.08,15.76,21.41,26.91,39.33,26.91c17.93,0,33.25-11.16,39.33-26.91
				C2060.04,2371.47,2061.05,2376.61,2061.05,2382.01z"/>
		</g>
		<g>
			<path class="st2" d="M2018.82,2434.26c-28.8,0-52.24-23.44-52.24-52.24s23.44-52.24,52.24-52.24s52.24,23.43,52.24,52.24
				S2047.63,2434.26,2018.82,2434.26z M2018.82,2349.78c-17.78,0-32.24,14.46-32.24,32.24c0,17.78,14.46,32.24,32.24,32.24
				s32.24-14.46,32.24-32.24C2051.06,2364.24,2036.6,2349.78,2018.82,2349.78z"/>
		</g>
		<g>
			<path class="st2" d="M1899.12,2513.63c-5.52,0-10-4.48-10-10v-77.17c0-13.41-6.4-26.23-17.11-34.3l-11.31-8.51
				c-15.7-11.82-25.08-30.62-25.08-50.27v-72.97c0-5.52,4.48-10,10-10s10,4.48,10,10v72.97c0,13.41,6.4,26.23,17.11,34.3l11.3,8.51
				c15.7,11.82,25.08,30.62,25.08,50.27v77.17C1909.12,2509.15,1904.65,2513.63,1899.12,2513.63z"/>
		</g>
		<g>
			<g>
				<path class="st3" d="M2397.71,1796.22L2397.71,1796.22c-5.21-0.37-9.14-4.89-8.78-10.1l19.05-271.84
					c0.37-5.21,4.89-9.14,10.1-8.78l0,0c54.68,3.83,95.9,51.26,92.07,105.94l-6.49,92.7
					C2499.82,1758.83,2452.39,1800.05,2397.71,1796.22z"/>
				<path class="st2" d="M2404.79,1799.78c-2.43,0-4.87-0.08-7.32-0.26l0,0c-7.03-0.49-12.34-6.61-11.85-13.64l19.05-271.84
					c0.24-3.41,1.79-6.51,4.37-8.75c2.58-2.24,5.86-3.36,9.27-3.1c56.42,3.95,99.1,53.07,95.15,109.48l-6.49,92.7
					c-1.91,27.33-14.36,52.28-35.04,70.25C2453.1,1790.99,2429.49,1799.78,2404.79,1799.78z M2397.94,1792.91
					c25.53,1.75,50.29-6.48,69.63-23.29c19.34-16.81,30.98-40.14,32.77-65.71l6.49-92.7c3.7-52.77-36.23-98.71-88.99-102.4
					c-1.63-0.11-3.22,0.42-4.46,1.49c-1.24,1.08-1.98,2.57-2.1,4.21l-19.05,271.84C2392,1789.73,2394.56,1792.67,2397.94,1792.91
					L2397.94,1792.91z"/>
			</g>
			<g class="st30">
				<path class="st2" d="M2506.7,1660.68l-3.04,43.48c-3.84,54.66-51.27,95.89-105.96,92.08c-5.21-0.36-9.14-4.91-8.78-10.12
					l5.04-72.27c1.23,3.4,4.37,5.9,8.19,6.2l6.45,0.43C2451.81,1723.52,2490.52,1698.4,2506.7,1660.68z"/>
			</g>
			<g>
				<path class="st2" d="M2404.81,1811.47c-2.71,0-5.43-0.1-8.15-0.29h0c-13.45-0.94-23.63-12.66-22.69-26.11l19.05-271.84
					c0.46-6.52,3.43-12.47,8.36-16.76c4.94-4.29,11.25-6.4,17.76-5.94c62.84,4.4,110.38,59.11,105.98,121.96l-6.49,92.7
					c-2.13,30.44-15.99,58.23-39.03,78.25C2458.62,1801.67,2432.33,1811.47,2404.81,1811.47z M2404.29,1781.46
					c20.31,0.12,40.03-7.11,55.62-20.66c16.98-14.76,27.21-35.26,28.78-57.71l6.49-92.7c3.12-44.49-29.07-83.45-72.64-89.37
					L2404.29,1781.46z"/>
			</g>
			<g>
				<path class="st3" d="M1520.79,1442.64L1520.79,1442.64c5.21,0.37,9.14,4.89,8.78,10.1l-19.05,271.84
					c-0.37,5.21-4.89,9.14-10.1,8.78h0c-54.68-3.83-95.9-51.26-92.07-105.94l6.49-92.7
					C1418.68,1480.03,1466.11,1438.81,1520.79,1442.64z"/>
				<path class="st2" d="M1501.11,1736.69c-0.3,0-0.61-0.01-0.91-0.03c-27.33-1.91-52.28-14.36-70.25-35.04
					c-17.97-20.68-26.81-47.12-24.9-74.45l6.49-92.7c1.91-27.33,14.36-52.28,35.04-70.25c20.68-17.97,47.12-26.84,74.45-24.9l0,0
					c3.41,0.24,6.51,1.79,8.75,4.37s3.34,5.87,3.1,9.27l-19.05,271.84c-0.24,3.4-1.79,6.51-4.36,8.75
					C1507.12,1735.6,1504.18,1736.69,1501.11,1736.69z M1513.71,1445.71c-23.1,0-45.18,8.23-62.79,23.53
					c-19.34,16.81-30.98,40.14-32.77,65.71l-6.49,92.7c-1.79,25.56,6.48,50.29,23.29,69.63c16.81,19.34,40.14,30.98,65.71,32.77
					c1.63,0.11,3.22-0.41,4.46-1.49c1.24-1.08,1.98-2.57,2.1-4.21l19.05-271.84c0.11-1.64-0.42-3.22-1.49-4.46
					c-1.08-1.24-2.57-1.98-4.21-2.1l0,0C1518.27,1445.79,1515.98,1445.71,1513.71,1445.71z"/>
			</g>
			<g class="st30">
				<path class="st2" d="M1515.83,1649.17l-5.29,75.41c-0.36,5.21-4.91,9.14-10.12,8.78c-28.7-2.02-53.72-16.04-70.44-36.84
					c-15.1-18.78-23.43-43.12-21.61-69.08l2.73-39.06c13.12,35.36,46.03,61.65,86.12,64.47l9.92,0.69
					C1510.76,1653.78,1513.98,1651.99,1515.83,1649.17z"/>
			</g>
			<g>
				<path class="st2" d="M1501.13,1748.38c-0.58,0-1.17-0.02-1.75-0.06c-30.44-2.13-58.23-15.99-78.25-39.03
					c-20.02-23.03-29.87-52.49-27.73-82.93l6.49-92.7c2.13-30.44,15.99-58.23,39.03-78.25c23.03-20.01,52.47-29.88,82.93-27.73h0
					c6.52,0.46,12.46,3.43,16.75,8.35c4.29,4.93,6.4,11.24,5.94,17.76l-19.05,271.84c-0.45,6.52-3.42,12.47-8.35,16.75
					C1512.64,1746.28,1507.01,1748.38,1501.13,1748.38z M1513.73,1457.39c-20.29,0-39.67,7.22-55.14,20.66
					c-16.98,14.76-27.21,35.26-28.78,57.71l-6.49,92.7c-1.57,22.45,5.69,44.17,20.45,61.15c13.54,15.58,31.91,25.47,52.19,28.22
					l18.24-260.43C1514.05,1457.39,1513.89,1457.39,1513.73,1457.39z"/>
			</g>
			<g class="st30">
				<path class="st2" d="M2234.4,2047.13c-9.07,8.44-18.57,16.41-28.39,23.89c-19.67,15.1-40.69,28.35-62.8,39.66
					c-71.77,36.58-155.09,52.21-240.9,40.01c-76.52-10.88-145.03-42.42-200.63-88.25c-0.92-0.71-1.84-1.49-2.73-2.27
					c-32.5-27.22-60.46-59.33-82.97-95.05c30.59,9.53,63.97,15.98,99.56,17.19c-8.86-24.99-25.16-52.45-20.59-66.03
					c7.58-22.36,14.18-39.94,19.07-52.35c5.56-14.18,8.9-21.58,8.9-21.58h409.95c0,0,3.4,7.3,9.11,21.37
					c5.92,14.57,14.28,36.36,23.85,64.96c5.92,17.65,12.3,37.89,18.82,60.57C2197.65,2003.04,2215.01,2022.49,2234.4,2047.13z"/>
			</g>
			<g>
				
					<ellipse transform="matrix(0.7071 -0.7071 0.7071 0.7071 -571.2442 1859.7584)" class="st3" cx="1959.3" cy="1619.43" rx="464.37" ry="464.37"/>
				<path class="st2" d="M1959.62,2087.16c-21.8,0-43.82-1.53-66.01-4.67c-255.33-36.23-433.58-273.43-397.36-528.75
					c36.23-255.33,273.44-433.58,528.75-397.36c123.69,17.55,233.14,82.21,308.19,182.08c75.05,99.87,106.72,222.98,89.17,346.67
					C2389.28,1918.27,2188.61,2087.16,1959.62,2087.16z M1958.34,1158.29c-99.2,0-195.31,31.91-276.02,92.56
					c-98.45,73.99-162.2,181.88-179.5,303.82c-35.71,251.71,140.01,485.54,391.72,521.25c251.69,35.77,485.54-140.01,521.25-391.72
					c17.3-121.93-13.92-243.3-87.91-341.75c-73.99-98.45-181.88-162.2-303.82-179.5C2002.1,1159.83,1980.14,1158.29,1958.34,1158.29
					z"/>
			</g>
			<g class="st30">
				<path class="st2" d="M2423.7,1620.39c-0.02,21.2-1.55,42.66-4.61,64.28c-36.06,253.91-271.1,430.55-525.02,394.55
					c-253.91-36.06-430.55-271.1-394.55-525.02c1.03-7.3,2.24-14.59,3.61-21.73c-0.76,228.21,166.83,427.77,399.16,460.74
					C2148.91,2028.18,2377.67,1862.57,2423.7,1620.39z"/>
			</g>
			<g>
				<path class="st2" d="M1960.31,2098.9c-22.68,0-45.49-1.61-68.34-4.84c-261.71-37.13-444.41-280.25-407.28-541.96
					c17.99-126.77,84.27-238.96,186.63-315.88c102.36-76.93,228.55-109.39,355.33-91.4c126.78,17.99,238.96,84.27,315.89,186.63
					c76.93,102.36,109.38,228.55,91.4,355.33s-84.27,238.96-186.63,315.89C2163.38,2065.72,2063.44,2098.9,1960.31,2098.9z
					 M1958.36,1169.97c-96.69,0-190.36,31.1-269.03,90.22c-95.96,72.11-158.09,177.27-174.95,296.12
					c-34.8,245.33,136.47,473.24,381.79,508.04c245.34,34.85,473.24-136.46,508.04-381.79c16.86-118.84-13.57-237.14-85.68-333.09
					c-72.11-95.96-177.28-158.09-296.12-174.95C2001.01,1171.48,1979.61,1169.97,1958.36,1169.97z"/>
			</g>
			<g>
				<path class="st2" d="M2415.93,1696.26c-11.4,90.15-51.26,170.15-110.07,233.07c-44.09,47.17-209.83,118.52-400.51,96.14
					c-176.81-20.75-325.58-135.24-356.53-191.9c-41.29-75.58-59.97-162.98-48.56-253.13c30.18-238.57,247.66-311.54,500.53-279.56
					S2446.11,1457.69,2415.93,1696.26z"/>
			</g>
			<g class="st21">
				
					<ellipse transform="matrix(0.3004 -0.9538 0.9538 0.3004 19.9457 3317.2529)" class="st3" cx="2271.23" cy="1645.03" rx="82.18" ry="59.55"/>
			</g>
			<g class="st21">
				
					<ellipse transform="matrix(0.4293 -0.9032 0.9032 0.4293 -380.0782 2993.272)" class="st3" cx="2178.43" cy="1797.38" rx="37.72" ry="32.37"/>
			</g>
			<g class="st30">
				<path class="st34" d="M2355.04,1462.43c49.21,60.49,73,137.99,60.89,233.81c-11.41,90.17-51.27,170.16-110.05,233.08
					c-44.1,47.17-209.86,118.51-400.54,96.15c-67.33-7.88-130.57-29.38-184.82-56.13c234.98,22.49,436.98-65.26,491.66-123.76
					c74.65-79.86,125.22-181.4,139.68-295.8C2355.74,1519.22,2356.68,1490.11,2355.04,1462.43z"/>
			</g>
			<g>
				<path class="st2" d="M2393.8,1490.52l-1.05-1.15l-0.8-1.44c-63.74-118.44-205.61-199.69-389.25-222.92
					c-184.64-23.36-342.4,22.05-432.79,124.56l-0.9,0.92l-16.99-18.34l7.92,8.64l-8.79-7.75
					c95.95-108.83,261.67-157.23,454.68-132.83c191.76,24.26,340.52,110.24,408.13,235.88l-10.95,5.98L2393.8,1490.52z
					 M1560.48,1381.36h0.05H1560.48z"/>
			</g>
			<g class="st21">
				<path class="st3" d="M1585.12,1735.36c0,0-44.12-244.7,94.58-322.44c138.7-77.74,321.14-54.28,315.39-43.12
					c0,0-208.21,23.35-307.46,173.07C1611.1,1658.32,1585.12,1735.36,1585.12,1735.36z"/>
			</g>
		</g>
		<g>
			
				<ellipse transform="matrix(0.1602 -0.9871 0.9871 0.1602 -1138.3655 4857.7236)" class="st2" cx="2285.6" cy="3097.86" rx="10.87" ry="10.87"/>
		</g>
		<g class="st4">
			<path class="st2" d="M2047.47,2597.15c0,0,153.77-47.25,281,82.05c116.92,118.82-19.74,236.06-19.74,236.06
				s42.11,161.92-67.23,182.69c-92.8,17.63-176.65-72.07-165.93-183.03c8.81-91.24,28.85-82.75,21.47-132.79
				c-8.36-56.66-129.14-69.42-129.14-69.42h-45.43c0,0-120.78,12.76-129.14,69.42c-7.38,50.04,12.65,41.55,21.47,132.79
				c10.72,110.97-73.14,200.66-165.93,183.03c-109.34-20.77-67.23-182.69-67.23-182.69s-136.66-117.24-19.74-236.06
				c127.23-129.3,281-82.05,281-82.05H2047.47z"/>
		</g>
		<g>
			<path class="st3" d="M2067.15,2553.34c0,0,183.36-106.88,335.06,47.29c139.41,141.68-23.54,281.47-23.54,281.47
				s50.21,193.07-80.17,217.83c-110.65,21.02-210.64-85.93-197.86-218.25c10.51-108.8,34.4-98.67,25.6-158.34
				c-9.97-67.56-153.99-82.78-153.99-82.78h-54.18c0,0-144.02,15.21-153.99,82.78c-8.8,59.67,15.09,49.54,25.6,158.34
				c12.78,132.31-87.21,239.26-197.86,218.25c-130.38-24.76-80.17-217.83-80.17-217.83s-162.95-139.79-23.54-281.47
				c151.7-154.17,335.06-47.29,335.06-47.29H2067.15z"/>
		</g>
		<g class="st9">
			<path class="st2" d="M2368.9,3056.93c-13.44,20.18-35.42,36.39-70.38,43.01c-110.66,21.02-210.65-85.96-197.87-218.25
				c10.51-108.81,34.38-98.68,25.6-158.32c-9.97-67.57-154.01-82.78-154.01-82.78h-54.17c0,0-144,15.21-153.97,82.78
				c-8.82,59.64,15.09,49.51,25.6,158.32c12.78,132.3-87.21,239.28-197.87,218.25c-34.96-6.62-56.95-22.83-70.38-43.01
				c0.96,0.19,1.93,0.39,2.89,0.54c131.8,22.76,250.88-90.12,235.68-233.42c-12.55-117.82-41.01-106.85-30.49-171.49
				c11.86-73.16,183.39-89.63,183.39-89.63h64.53c0,0,171.53,16.48,183.39,89.63c10.47,64.65-17.98,53.67-30.49,171.49
				c-15.21,143.31,103.88,256.18,235.68,233.42C2366.98,3057.31,2367.94,3057.12,2368.9,3056.93z"/>
		</g>
		<g>
			<path class="st2" d="M2064.64,2549.02c24.43-17.01,51.66-28.52,80.28-36.41c14.29-4.02,29-6.61,43.86-8.39
				c14.9-1.5,29.96-1.79,45.03-0.98c15.08,0.82,30.06,3.4,44.84,6.77c14.82,3.35,29.1,8.7,43.13,14.47
				c27.73,12.42,53.12,29.51,75.54,49.44c22.21,19.76,42.31,43.49,56.75,70.94c6.98,13.87,12.59,28.59,15.99,43.97
				c3.21,15.41,4.22,31.29,3.05,46.89c-2.29,31.33-13.04,61.01-28.06,87.21c-7.52,13.15-16.1,25.55-25.46,37.28
				c-4.72,5.84-9.57,11.56-14.71,17.04c-5.24,5.58-10.19,10.68-16.45,16.22l4.75-15.16c2.61,10.65,4.35,20.42,5.91,30.69
				c1.51,10.17,2.62,20.39,3.3,30.68c1.38,20.57,1.02,41.47-2.15,62.45c-1.71,10.48-4.03,20.96-7.48,31.3
				c-3.56,10.31-8.15,20.44-14.06,30.03c-6.12,9.49-13.62,18.24-22.3,25.78c-8.82,7.41-18.8,13.23-29.2,17.74
				c-10.48,4.08-21.35,7.16-32.08,8.64c-5.35,0.98-10.8,1.24-16.21,1.73c-5.44,0.06-10.89,0.38-16.33-0.06
				c-10.89-0.43-21.71-2.17-32.24-4.88c-10.57-2.6-20.78-6.43-30.54-11.08c-39.23-18.65-70.09-51.29-89.49-88.87
				c-19.42-37.74-27.84-80.62-25.27-122.56c0.59-10.68,1.91-20.42,3.05-30.56l2.16-15.11l2.67-15.13
				c2.09-10.07,4.34-20.2,7.32-30.12c2.83-9.92,6.38-19.7,9.02-28.36c2.65-8.69,3.92-16.24,3.84-24.85c0.09-2.09-0.09-4.3-0.24-6.51
				c-0.14-2.2-0.23-4.39-0.58-6.69l-0.83-6.81c-0.43-1.79-0.65-3.42-1.16-5.1c-3.92-13.23-16.76-25.14-32.31-33.82
				c-15.56-8.83-33.37-15.26-51.58-20.32c-18.15-4.98-37.4-8.81-55.71-11.04l1.57,0.08h-54.17l1.57-0.08
				c-18.31,2.23-37.56,6.06-55.71,11.04c-18.21,5.06-36.02,11.5-51.58,20.32c-15.55,8.68-28.39,20.58-32.31,33.82
				c-0.5,1.68-0.73,3.31-1.16,5.1l-0.83,6.81c-0.34,2.3-0.44,4.48-0.58,6.69c-0.15,2.21-0.33,4.42-0.24,6.51
				c-0.08,8.6,1.19,16.16,3.84,24.85c2.64,8.66,6.19,18.45,9.02,28.36c2.98,9.93,5.23,20.05,7.32,30.12l2.67,15.13l2.16,15.11
				c1.14,10.14,2.46,19.88,3.05,30.56c2.57,41.94-5.85,84.82-25.27,122.56c-19.4,37.58-50.26,70.22-89.49,88.87
				c-9.76,4.64-19.98,8.48-30.54,11.08c-10.52,2.71-21.35,4.45-32.24,4.88c-5.44,0.44-10.89,0.13-16.33,0.06
				c-5.41-0.49-10.87-0.74-16.21-1.73c-10.73-1.48-21.6-4.56-32.08-8.64c-10.4-4.5-20.38-10.33-29.2-17.74
				c-8.68-7.54-16.18-16.3-22.3-25.78c-5.9-9.59-10.5-19.72-14.06-30.03c-3.45-10.34-5.78-20.82-7.48-31.3
				c-3.17-20.98-3.53-41.88-2.15-62.45c0.68-10.29,1.79-20.52,3.3-30.68c1.56-10.27,3.3-20.04,5.91-30.69l4.75,15.16
				c-6.26-5.54-11.21-10.64-16.45-16.22c-5.14-5.49-9.99-11.21-14.71-17.04c-9.36-11.73-17.94-24.13-25.46-37.28
				c-15-26.21-25.82-55.88-28.01-87.22c-1.11-15.61-0.05-31.46,3.21-46.84c3.45-15.35,9.1-30.03,16.13-43.84
				c14.61-27.3,34.81-50.8,57.11-70.33c22.34-19.84,47.47-37.14,75.12-49.58c27.49-12.66,57.34-20.84,87.59-22.98
				c15.11-1.11,30.25-0.71,45.23,0.61c14.95,1.55,29.72,4.29,44.13,8.1c14.36,4.02,28.36,9.08,41.78,15.34
				c13.42,6.34,26.21,13.5,38.13,22.83c2.19,1.72,2.58,4.88,0.86,7.08c-1.35,1.73-3.61,2.34-5.58,1.67l-0.32-0.11
				c-26.46-8.97-53.72-15.66-80.67-20.06c-13.52-2.21-27.08-3.39-40.58-4.26c-13.52-0.34-27.01-0.43-40.37,0.84
				c-26.71,2.33-53.01,8.48-77.66,19.12c-12.32,5.31-24.22,11.67-35.49,19.1c-11.3,7.37-22.16,15.53-32.21,24.71
				c-20.63,18.04-38.06,38.74-50.47,61.82c-5.9,11.64-10.56,23.78-13.41,36.32c-2.65,12.58-3.51,25.47-2.6,38.34
				c1.78,25.78,10.82,51.22,24.14,74.47c6.65,11.65,14.36,22.8,22.81,33.39c4.26,5.26,8.65,10.45,13.27,15.38
				c4.52,4.85,9.57,9.95,14.01,13.88l6.96,6.15l-2.21,9.01c-2.1,8.55-3.88,18.26-5.27,27.54c-1.39,9.39-2.42,18.84-3.04,28.27
				c-1.28,18.86-0.88,37.72,1.86,55.87c1.48,9.03,3.45,17.89,6.27,26.32c2.91,8.37,6.55,16.31,10.99,23.59
				c4.64,7.12,10.11,13.46,16.34,18.92c6.36,5.31,13.59,9.52,21.31,12.92c7.95,3.02,16.18,5.47,25.06,6.68
				c4.39,0.84,8.84,0.99,13.26,1.43c4.44,0.01,8.88,0.33,13.31-0.06c8.87-0.33,17.68-1.77,26.28-3.98
				c8.64-2.11,17.03-5.27,25.11-9.11c32.44-15.38,58.95-43.02,75.72-75.55c16.79-32.65,24.24-70.08,21.97-107.04
				c-0.48-9.07-1.78-18.94-2.85-28.45l-2.03-14.25l-2.48-14.08c-1.94-9.28-3.96-18.48-6.67-27.49c-2.59-9.1-5.82-17.91-8.96-28.15
				c-3.2-10.19-5.31-22.34-5.1-33.52c-0.08-2.86,0.11-5.57,0.3-8.3c0.17-2.73,0.32-5.48,0.7-8.08l0.97-7.91
				c0.6-3.03,1.18-6.31,2.1-9.35c3.75-12.37,11.03-22.93,19.25-31.19c8.27-8.34,17.51-14.7,26.92-20.09
				c18.9-10.68,38.63-17.64,58.46-23.18c19.99-5.45,39.61-9.41,60.55-11.96l0.68-0.08h0.9h54.17h0.9l0.68,0.08
				c20.94,2.55,40.56,6.51,60.55,11.96c19.83,5.54,39.56,12.51,58.46,23.18c9.41,5.39,18.65,11.75,26.92,20.09
				c8.22,8.26,15.51,18.82,19.26,31.19c0.92,3.04,1.49,6.32,2.1,9.35l0.97,7.91c0.38,2.6,0.53,5.35,0.7,8.08
				c0.18,2.73,0.38,5.44,0.3,8.3c0.2,11.19-1.9,23.33-5.1,33.52c-3.14,10.24-6.37,19.05-8.96,28.15
				c-2.71,9.01-4.74,18.21-6.67,27.49l-2.48,14.08l-2.03,14.25c-1.07,9.5-2.38,19.37-2.85,28.45
				c-2.27,36.96,5.18,74.39,21.97,107.04c16.77,32.53,43.28,60.17,75.72,75.55c8.07,3.84,16.47,7.01,25.11,9.11
				c8.61,2.21,17.42,3.65,26.29,3.98c4.43,0.39,8.87,0.08,13.31,0.06c4.42-0.44,8.87-0.59,13.26-1.43
				c8.88-1.21,17.11-3.66,25.06-6.68c7.73-3.4,14.95-7.6,21.31-12.92c6.23-5.47,11.7-11.8,16.34-18.92
				c4.44-7.28,8.08-15.21,10.99-23.59c2.81-8.43,4.79-17.29,6.27-26.32c2.74-18.14,3.14-37.01,1.86-55.87
				c-0.62-9.43-1.64-18.88-3.04-28.27c-1.39-9.28-3.17-18.99-5.27-27.54l-2.21-9.01l6.96-6.15c4.44-3.92,9.5-9.03,14.01-13.88
				c4.63-4.93,9.01-10.12,13.27-15.38c8.45-10.59,16.16-21.75,22.81-33.39c13.29-23.25,22.4-48.69,24.09-74.47
				c0.85-12.87-0.07-25.74-2.77-38.29c-2.9-12.51-7.59-24.61-13.54-36.19c-12.56-22.95-30.16-43.33-50.78-61.28
				c-20.28-17.99-42.98-32.83-67.29-44.01c-24.43-10.85-50.5-18.08-77.34-20.66c-26.81-2.83-54.21-1.58-81.4,2.73
				c-27.1,4.39-54.44,11.63-80.3,21.75l-0.35,0.14c-2.58,1.01-5.48-0.26-6.49-2.84C2061.97,2552.75,2062.78,2550.31,2064.64,2549.02
				z"/>
		</g>
		<g>
			<path class="st2" d="M2384.36,2896.04l-1.92,0.57l-2.54,0.84l-5.31,1.65c-3.63,1.01-7.28,1.93-10.95,2.62
				c-7.34,1.45-14.69,2.22-21.96,2.41c-14.55,0.41-28.73-1.35-42.36-4.33c-13.57-3.3-26.67-7.58-39.2-12.98
				c-6.32-2.53-12.34-5.75-18.46-8.57c-5.99-3.16-11.86-6.49-17.74-9.7c6.41,2.08,12.75,4.25,19.13,6.21
				c6.5,1.63,12.84,3.64,19.36,4.92c12.94,2.91,26.02,4.57,38.92,5.25c12.92,0.37,25.68-0.5,37.74-3.15
				c6.03-1.3,11.86-3.08,17.39-5.31c2.78-1.08,5.46-2.34,8.11-3.65l3.99-2.12l2.07-1.15l2.7-1.4c7.39-3.84,16.49-0.95,20.33,6.44
				c3.84,7.39,0.96,16.49-6.43,20.33c-0.84,0.44-1.71,0.79-2.59,1.05L2384.36,2896.04z"/>
		</g>
		<g>
			<path class="st2" d="M1518.48,2868.15l2.7,1.4l2.07,1.15l3.99,2.12c2.65,1.31,5.33,2.57,8.11,3.65
				c5.53,2.23,11.36,4.01,17.39,5.31c12.06,2.65,24.82,3.52,37.74,3.15c12.9-0.69,25.98-2.35,38.92-5.25
				c6.52-1.28,12.86-3.29,19.36-4.92c6.38-1.97,12.71-4.13,19.13-6.21c-5.88,3.21-11.75,6.54-17.74,9.7
				c-6.12,2.82-12.14,6.05-18.46,8.57c-12.53,5.4-25.62,9.67-39.2,12.98c-13.63,2.98-27.81,4.75-42.36,4.33
				c-7.27-0.19-14.63-0.96-21.96-2.41c-3.68-0.69-7.33-1.61-10.95-2.62l-5.31-1.65l-2.54-0.84l-1.92-0.57l-0.17-0.05
				c-7.98-2.36-12.54-10.75-10.18-18.74c2.36-7.98,10.75-12.54,18.74-10.18C1516.72,2867.34,1517.66,2867.73,1518.48,2868.15z"/>
		</g>
		<g>
			<path class="st2" d="M2452.26,2778.22c-0.69,0-1.4-0.07-2.1-0.22c-5.4-1.16-8.84-6.47-7.68-11.88
				c4.95-23.11,1.31-39.53-11.12-50.19c-50.94-43.72-233.6,11.95-299.68,37.08c-5.16,1.95-10.94-0.63-12.9-5.79
				c-1.96-5.16,0.63-10.94,5.79-12.9c10.15-3.87,249.46-93.92,319.81-33.56c18.24,15.65,24.18,39.06,17.65,69.56
				C2461.02,2775.01,2456.87,2778.22,2452.26,2778.22z"/>
		</g>
		<g>
			<path class="st2" d="M1442.37,2778.22c-4.61,0-8.76-3.21-9.77-7.91c-6.53-30.5-0.6-53.91,17.65-69.56
				c70.35-60.36,309.66,29.7,319.81,33.56c5.16,1.96,7.75,7.74,5.79,12.9c-1.97,5.16-7.75,7.75-12.9,5.79
				c-66.08-25.13-248.74-80.78-299.68-37.08c-12.43,10.66-16.06,27.08-11.12,50.19c1.16,5.4-2.28,10.72-7.68,11.88
				C1443.77,2778.15,1443.06,2778.22,1442.37,2778.22z"/>
		</g>
		<g>
			<g>
				
					<ellipse transform="matrix(0.1602 -0.9871 0.9871 0.1602 -1138.3655 4857.7236)" class="st2" cx="2285.6" cy="3097.86" rx="10.87" ry="10.87"/>
			</g>
		</g>
	</g>
</g>
</svg>
