<?xml version="1.0" encoding="utf-8"?>
<!-- Generator: Adobe Illustrator 28.0.0, SVG Export Plug-In . SVG Version: 6.00 Build 0)  -->
<svg version="1.1" id="Layer_1" xmlns="http://www.w3.org/2000/svg" xmlns:xlink="http://www.w3.org/1999/xlink" x="0px" y="0px"
	 viewBox="0 0 4000 4000" style="enable-background:new 0 0 4000 4000;" xml:space="preserve">
<style type="text/css">
	.st0{display:none;}
	.st1{display:inline;fill:#A4A4F4;}
	.st2{fill:#371A45;}
	.st3{fill:#BC6FF7;}
	.st4{fill:#B77B13;}
	.st5{fill:#FFFFFF;}
	.st6{fill:#FFCB48;}
	.st7{opacity:0.3;}
	.st8{fill:#4D146E;}
	.st9{fill:#5AB5FF;}
	.st10{opacity:0.7;}
	.st11{fill:#FCA800;}
	.st12{fill:#F2EFEB;}
	.st13{opacity:0.25;}
	.st14{fill:#FFB200;}
	.st15{fill:#FF9100;}
	.st16{fill:none;stroke:#293856;stroke-width:34.7689;stroke-linecap:round;stroke-miterlimit:10;}
	.st17{fill:#D66B09;}
	.st18{fill:#FFD766;}
	.st19{fill:#FFAA39;}
	.st20{fill:#FFCF6E;}
	.st21{fill:#FFEC90;}
	.st22{opacity:0.41;}
	.st23{fill:#220F2D;}
	.st24{opacity:0.26;}
	.st25{opacity:0.5;}
</style>
<g>
	<g class="st0">
		<rect class="st1" width="4000" height="4000"/>
	</g>
	<g>
		<g>
			<g>
				<path class="st2" d="M1083.31,2609.55c0,0-51.14-52.56-9.73-122.44s70.01-180.01,21.42-248.52
					c-48.59-68.5-44.57-125.44,0-170.73c0,0-69.94-0.65-79.65,87.99c-9.7,88.64-67.93,56.29-73.76,25.88
					c-5.82-30.41,49.82-75.7,55.64-119.04c5.82-43.35-120.34-130.69-64.7-189.57c0,0-84.75-22-106.75,49.17
					c-22,71.17,51.76,106.1-10.35,168.22c-62.11,62.11-191.21,107.79-211.56,212.86c-28.47,146.98,129.7,228.05,77.14,313.3
					C821.25,2658.91,955.97,2661.07,1083.31,2609.55z"/>
			</g>
			<g>
				<path class="st3" d="M1104.63,3035.86c5.85,122.77-444.45,144.15-450.3,21.38v-455.99c23.76,36.33,285.4,54.86,397.92,21.27
					c18.74-5.59,33.33-12.63,42.03-21.27l0.21,8.23L1104.63,3035.86z"/>
			</g>
			<g>
				<path class="st3" d="M1095,2631.26h100.21c0,0,98.34,15.65,98.34,130.49v224.64h-76.34v-216.41c0,0-1.94-56.43-46.58-60.96
					h-65.99L1095,2631.26z"/>
			</g>
			<g>
				<path class="st2" d="M854.16,3163.15c-106.94,0-219.91-26.81-223.61-104.78c-0.02-0.38-0.03-0.75-0.03-1.13v-456.02
					c0-10.53,6.92-19.81,17.02-22.82c9.74-2.9,20.23,0.72,26.12,8.92c12.53,10.8,88.82,27.12,196.3,28.86
					c118.78,1.98,190.77-15.16,207.51-31.83c6.75-6.72,16.84-8.76,25.67-5.22c8.83,3.54,14.7,12.01,14.93,21.53l10.34,434.38
					c3.74,85.31-128.75,121.93-243.45,127.38C874.83,3162.9,864.52,3163.15,854.16,3163.15z M678.14,3056.58
					c2.52,37.42,94.02,63.56,204.58,58.28c111.04-5.27,199.92-40.2,198.13-77.86c-0.01-0.19-0.02-0.38-0.02-0.56l-9.41-395.25
					c-82.16,30.22-235.62,23.54-297.88,17c-45.01-4.72-75.1-10.95-95.4-17.33V3056.58z M674.25,2588.18c0,0.01,0.01,0.01,0.01,0.02
					C674.26,2588.2,674.26,2588.19,674.25,2588.18z"/>
			</g>
			<g>
				<path class="st2" d="M1293.55,3010.21h-76.34c-13.15,0-23.81-10.66-23.81-23.81v-215.85c-0.21-3.39-2.66-34.6-24.18-37.71
					h-64.58c-13.15,0-23.81-10.66-23.81-23.81s10.66-23.81,23.81-23.81h65.99c0.8,0,1.61,0.04,2.4,0.12
					c51.67,5.24,67.06,57.12,67.97,83.82c0.01,0.27,0.01,0.55,0.01,0.82v192.6h28.73v-200.83c0-87.13-65.26-104.34-76.68-106.68
					H1095c-13.15,0-23.81-10.66-23.81-23.81s10.66-23.81,23.81-23.81h100.21c1.25,0,2.5,0.1,3.74,0.3
					c40.96,6.51,118.41,47.09,118.41,154v224.64C1317.36,2999.55,1306.7,3010.21,1293.55,3010.21z"/>
			</g>
			<g>
				<path class="st4" d="M914.85,2892.56c-29.68,40.27-77.02,61.65-112.4,35.57s-33.74-73.8-4.06-114.07
					c29.68-40.27,76.16-57.83,111.53-31.76C945.31,2808.38,944.53,2852.29,914.85,2892.56z"/>
			</g>
			<g>
				<path class="st2" d="M837.09,2957.62c-16.15,0-31.72-4.84-45.39-14.91c-21.39-15.77-33.39-39.21-33.79-66.03
					c-0.36-24.17,8.84-50.22,25.9-73.37c17.1-23.2,39.4-40,62.82-47.3c26.35-8.22,52.65-4.06,74.05,11.71
					c21.69,15.99,33.53,38.08,34.22,63.9c0.63,23.44-8.18,48.23-25.46,71.69l0,0C903.49,2938.5,869.17,2957.62,837.09,2957.62z
					 M873.06,2788.07c-5.03,0-10.24,0.84-15.64,2.52c-16.11,5.03-31.89,17.18-44.44,34.21c-12.39,16.81-19.08,35.04-18.84,51.34
					c0.23,15.67,6.65,28.25,19.06,37.4c27.09,19.99,64.32-0.85,87.07-31.73l0,0c12.28-16.66,18.82-34.14,18.41-49.22
					c-0.39-14.45-6.95-26.46-19.5-35.71C891.22,2791.01,882.47,2788.07,873.06,2788.07z"/>
			</g>
			<g>
				<path class="st2" d="M802.44,2946.25c-3.75,0-7.53-1.16-10.78-3.57c-8.03-5.96-9.71-17.31-3.75-25.34
					c49.17-66.27,106.83-144.95,107.41-145.74c5.92-8.07,17.25-9.81,25.32-3.91c8.07,5.91,9.82,17.25,3.91,25.32
					c-0.58,0.79-58.3,79.56-107.54,145.92C813.44,2943.72,807.97,2946.25,802.44,2946.25z"/>
			</g>
			<g>
				<path class="st2" d="M681,2629.61c-2.31,0-4.66-0.62-6.78-1.92c-6.08-3.75-7.97-11.72-4.22-17.81
					c20.36-33.02,2.98-65.5-27.07-115.78c-30.01-50.21-67.35-112.71-51.77-193.19c14.9-76.94,83.05-123.44,143.18-164.47
					c27.29-18.63,53.08-36.22,71.94-55.08c29.92-29.91,23.34-49.3,13.4-78.65c-7.92-23.37-16.89-49.85-6.26-84.23
					c20.29-65.63,88.91-66.56,122.37-57.87c4.43,1.15,7.92,4.55,9.18,8.95c1.26,4.4,0.11,9.14-3.03,12.46
					c-25,26.45-2.48,61.47,32.06,108.05c20.92,28.21,38.98,52.58,36.05,74.35c-3.23,24.06-19.1,47.48-33.09,68.13
					c-11.55,17.05-24.65,36.37-22.66,46.75c1.86,9.71,13.77,21.74,24.58,21.22c11.67-0.47,20.49-17.69,23.6-46.07
					c10.8-98.57,90.91-99.52,92.61-99.52c0.01,0,0.02,0,0.02,0c5.19,0.05,9.85,3.2,11.84,8c1.98,4.79,0.91,10.32-2.73,14.02
					c-42.25,42.92-41.81,93.34,1.33,154.17c50.73,71.51,26.09,183.42-20.84,262.6c-35.94,60.65,7.43,106.37,7.88,106.82
					c4.98,5.12,4.87,13.32-0.25,18.3c-5.12,4.98-13.32,4.87-18.3-0.25c-20.07-20.64-48.33-76.05-11.59-138.06
					c41.28-69.65,65.78-172.72,22-234.43c-46.53-65.6-43.19-116.36-24.04-153.02c-14.26,10.31-28.37,29.28-32.2,64.2
					c-6.43,58.71-33.01,68.51-48.29,69.12c-24.95,1.11-47.06-21.44-51.04-42.21c-4-20.9,10.89-42.88,26.66-66.14
					c13-19.18,26.45-39.03,28.87-57.06c1.52-11.35-15.86-34.8-31.2-55.49c-27.64-37.28-61.11-82.43-42.91-122.54
					c-22.91-1.33-59.79,3.16-72.15,43.18c-8.15,26.37-1.25,46.73,6.05,68.28c10.16,29.99,21.67,63.97-19.61,105.26
					c-20.58,20.58-47.33,38.83-75.65,58.16c-58.74,40.08-119.48,81.53-132.36,148.01c-13.71,70.78,19.38,126.14,48.57,174.99
					c29.07,48.63,56.52,94.57,26.88,142.64C689.58,2627.43,685.34,2629.61,681,2629.61z"/>
			</g>
			<g>
				<path class="st2" d="M654.35,2625.03c-8.75,0-17.18-4.84-21.34-13.22c-5.85-11.77-1.05-26.06,10.72-31.91l29.12-14.47
					c11.77-5.86,26.06-1.05,31.91,10.72c5.85,11.77,1.05,26.06-10.72,31.91l-29.12,14.47
					C661.52,2624.23,657.91,2625.03,654.35,2625.03z"/>
			</g>
			<g>
				<path class="st2" d="M1094.26,2625.03c-3.99,0-8.04-1.01-11.75-3.12l-26.56-15.12c-11.43-6.51-15.42-21.04-8.92-32.47
					c6.5-11.43,21.04-15.42,32.47-8.92l26.56,15.12c11.43,6.51,15.42,21.04,8.92,32.47
					C1110.59,2620.71,1102.54,2625.03,1094.26,2625.03z"/>
			</g>
			<g>
				<g>
					<path class="st5" d="M872.69,2354.83c0-3.95-14.37-7.35-35.03-8.89c-8.54-0.64-15.27-7.37-15.91-15.91
						c-1.54-20.66-4.93-35.03-8.89-35.03s-7.35,14.37-8.89,35.03c-0.64,8.54-7.37,15.27-15.91,15.91
						c-20.66,1.54-35.03,4.93-35.03,8.89s14.37,7.35,35.03,8.89c8.54,0.63,15.27,7.37,15.91,15.91c1.54,20.66,4.93,35.03,8.89,35.03
						s7.35-14.37,8.89-35.03c0.64-8.54,7.37-15.27,15.91-15.91C858.32,2362.17,872.69,2358.78,872.69,2354.83z"/>
				</g>
				<g>
					<circle class="st6" cx="839.53" cy="2199.55" r="22.81"/>
				</g>
				<g>
					<circle class="st5" cx="957.75" cy="2334.41" r="23.45"/>
				</g>
				<g>
					
						<ellipse transform="matrix(0.9239 -0.3827 0.3827 0.9239 -908.3576 501.9086)" class="st5" cx="807.45" cy="2534.26" rx="12.27" ry="12.27"/>
				</g>
				<g>
					<circle class="st5" cx="977.96" cy="2563.83" r="12.27"/>
				</g>
				<g>
					<circle class="st6" cx="1038.92" cy="2272.01" r="13.91"/>
				</g>
				<g>
					
						<ellipse transform="matrix(0.1602 -0.9871 0.9871 0.1602 -1669.6085 2612.323)" class="st5" cx="700.4" cy="2287.36" rx="8.6" ry="8.6"/>
				</g>
				<g>
					
						<ellipse transform="matrix(0.7071 -0.7071 0.7071 0.7071 -1488.24 1356.3289)" class="st6" cx="893.11" cy="2474.63" rx="8.6" ry="8.6"/>
				</g>
				<g>
					<circle class="st5" cx="710.76" cy="2428.56" r="13.91"/>
				</g>
				<g>
					
						<ellipse transform="matrix(0.9239 -0.3827 0.3827 0.9239 -712.1727 503.6525)" class="st5" cx="909.93" cy="2041.99" rx="13.91" ry="13.91"/>
				</g>
			</g>
			<g class="st7">
				<path class="st8" d="M1104.63,3035.86c5.85,122.77-444.45,144.15-450.3,21.38v-21.79c455.48,79.92,369.61-404.18,369.61-404.18
					l28.31-8.75l42.03-12.94l0.21-0.1L1104.63,3035.86z"/>
			</g>
			<g class="st7">
				<path class="st8" d="M1180.68,2711.14c0,0-57.29-56.46,22.94-72.63h-105.46v69.87L1180.68,2711.14z"/>
			</g>
		</g>
		<g>
			<g>
				<path class="st5" d="M2731.12,1641.87c0,0,279.99-55.35,320.52-19.12c40.53,36.23,325.2,672.86,325.2,672.86
					s-202.16-31.05-240.83-46.58s-528.92-351.96-528.92-351.96L2731.12,1641.87z"/>
			</g>
			<g>
				<path class="st2" d="M3416.4,2325.78l-43.18-6.64c-20.97-3.22-206.03-31.94-246.08-48.02
					c-39.12-15.71-451.29-297.99-533.52-354.42c-10.84-7.44-13.6-22.26-6.16-33.1c7.44-10.84,22.26-13.6,33.1-6.16
					c187.93,128.96,496.47,337.89,524.35,349.5c22.07,8.86,115.33,25.76,192.2,38.28c-108.73-241.78-272.76-594.79-301.32-624.68
					c-3.01-2-27.7-14.42-159.55,2.18c-72.29,9.09-139.83,22.38-140.5,22.52c-12.91,2.54-25.43-5.84-27.97-18.74
					c-2.55-12.9,5.84-25.42,18.74-27.97c0.71-0.14,71.7-14.11,146.75-23.42c141.74-17.58,177.74-4.86,194.26,9.9
					c8.67,7.75,28.97,25.91,183.51,357.71c75.43,161.98,146.84,321.58,147.55,323.18L3416.4,2325.78z"/>
			</g>
			<g>
				<g>
					<path class="st5" d="M3423.1,2500.37c-0.83,5.69-1.71,11.39-2.64,17.08c0,0-237.73,245.34-244.61,262.78
						c-6.94,17.44-289.54,215.32-327.84,205.84c-38.3-9.52-511.63-98.7-538.76-93.53c-27.12,5.18-197.92-94.87-197.92-94.87
						l-53.88-141.09c-66.82,197.92-428.51,311.79-515.46,123.65c-86.95-188.14,16.82-573.9,16.82-573.9s-54.35-59.52-133.28-164.33
						c-78.93-104.81-36.23-119.98-36.23-119.98s-53.05-46.95-106.11-157.14c-53.05-110.19,91.46-99.01,91.46-99.01l1205.09,202.74
						c0,0,68.58-7.61,154.4-11.02c65.53-2.59,141.09-2.74,203.83,4.81c13.92,1.66,27.22,3.73,39.65,6.21
						c16.36,3.26,33.38,8.9,50.93,16.56c134.36,58.54,296.32,235.45,374.16,381.98C3435.22,2328.37,3435.58,2415.17,3423.1,2500.37z
						"/>
				</g>
			</g>
			<g>
				<path class="st2" d="M2400.01,3006.78c-37.29,0-153.66-11.4-251.82-143.28c-68.24-91.65-97.76-159.77-110.51-200.78
					c-9.19-29.83,3.85-62.51,31.01-77.77c240.04-134.98,539.3-248.26,656.82-290.7c34.64-12.58,73.25,0.01,93.87,30.62
					c19.39,28.77,40.95,66.56,64.09,112.32c5.16,10.21,1.07,22.66-9.14,27.82c-10.18,5.16-22.65,1.08-27.82-9.14
					c-22.36-44.22-43.04-80.51-61.47-107.86c-9.99-14.82-28.68-20.92-45.43-14.83c-116.58,42.1-413.28,154.4-650.63,287.86
					c-10.45,5.87-15.27,17.96-11.74,29.42c11.78,37.88,39.42,101.34,104.17,188.3c94.82,127.4,205.71,127.43,223.96,126.49
					c161.16-60.36,470.53-184.43,555.91-246.9c-8.29-21.5-25.68-65.75-47.94-117.77c-4.5-10.51,0.38-22.68,10.89-27.18
					c10.52-4.5,22.69,0.38,27.18,10.89c31.76,74.22,53.76,132.91,53.98,133.5c2.99,7.98,0.78,16.97-5.56,22.67
					c-88.23,79.18-562.6,257.1-582.75,264.63c-1.66,0.62-3.38,1.03-5.14,1.21C2411.02,3006.39,2406.84,3006.78,2400.01,3006.78z"/>
			</g>
			<g>
				<path class="st2" d="M1714.69,2899.99c-91.55,0-161.81-39.41-194.31-109.77c-81.56-176.53-5.28-507.83,12.2-577.53
					c-18.41-20.91-64.64-74.81-126.06-156.37c-42.71-56.72-59.14-98.75-50.19-128.48c0.42-1.4,0.9-2.76,1.41-4.06
					c-20.6-22.78-58.4-70.5-95.99-148.58c-18.08-37.56-18.82-68.93-2.19-93.26c30.83-45.1,108.2-40.48,116.92-39.81
					c13.11,1.02,22.91,12.47,21.89,25.58c-1.01,13.09-12.43,22.91-25.53,21.9c-18.94-1.4-61.9,1.48-73.99,19.23
					c-7.84,11.52-1.17,31.21,5.8,45.7c49.92,103.68,99.99,149.26,100.49,149.71c6.25,5.61,9.12,14.12,7.49,22.37
					c-1.3,6.57-5.27,12.23-10.84,15.68c-0.72,4.7-0.91,27.37,42.77,85.37c77.21,102.52,131.3,162.01,131.84,162.6
					c5.48,6,7.52,14.38,5.41,22.23c-1.02,3.77-100.49,379.63-18.2,557.74c35.56,76.95,119.4,84.24,166.28,81.71
					c115.83-6.22,265.38-85.6,305.01-203c4.21-12.46,17.74-19.13,30.18-14.94c12.46,4.21,19.15,17.71,14.94,30.18
					c-46.64,138.12-213.35,228.12-347.58,235.32C1726.44,2899.83,1720.52,2899.99,1714.69,2899.99z M1397.3,1944.46
					c-0.01,0-0.02,0.01-0.04,0.01C1397.28,1944.47,1397.29,1944.47,1397.3,1944.46z M1397.33,1944.45
					C1397.32,1944.45,1397.32,1944.45,1397.33,1944.45C1397.32,1944.45,1397.32,1944.45,1397.33,1944.45z"/>
			</g>
			<g>
				<path class="st2" d="M3420.49,2538.15c-1.12,0-2.27-0.09-3.41-0.28c-11.28-1.87-18.91-12.53-17.04-23.81
					c17.42-105.07,12.17-184.88-15.62-237.21c-85.9-161.7-275.78-360.8-410.88-387.95c-136.85-27.5-388.97,0-391.5,0.28
					c-11.41,1.27-21.6-6.93-22.86-18.29c-1.26-11.36,6.92-21.6,18.29-22.86c10.59-1.17,261.05-28.49,404.23,0.28
					c148.63,29.87,347.15,235.66,439.3,409.13c32.15,60.54,38.84,149.16,19.9,263.41
					C3439.21,2530.97,3430.43,2538.15,3420.49,2538.15z"/>
			</g>
			<g>
				<path class="st2" d="M3033.52,2454.03c-14.49-20.63-28.45-42.71-42.09-64.46c-13.78-21.77-27-44.06-41.86-65.2
					c-3.51-5.47-7.4-10.58-11.09-15.9c-3.71-5.31-7.49-10.57-11.47-15.64c-3.9-5.14-7.69-10.45-11.71-15.51l-12.29-15.06
					c-16.75-19.79-34.62-38.73-54.98-55.94c24.5,10.47,47.23,25.39,68.57,41.86c21.29,16.62,40.71,35.37,59.41,54.8l13.66,14.89
					l13.22,15.25c4.48,5.05,8.64,10.31,12.86,15.56c4.26,5.22,8.32,10.57,12.24,16.02c7.97,10.82,15.51,21.94,22.51,33.42
					c7.05,11.54,13.5,23.05,19.24,35.86c4.69,10.47,0,22.76-10.46,27.45c-9.24,4.14-19.89,0.98-25.49-7.01L3033.52,2454.03z"/>
			</g>
			<g>
				<path class="st2" d="M2872.39,2761.39c-6.38,0-12.56-3.37-15.86-9.35c-0.83-1.51-84.06-152.26-143.22-284.71
					c-43.59-97.61-72.7-99.38-75.21-99.15c-8.22,4.04-18.33,1.28-23.31-6.64c-5.32-8.47-2.76-19.65,5.71-24.98
					c6.4-4.01,18.26-6.79,32.34-2.5c31.19,9.48,62.66,49.35,93.54,118.5c58.52,131.02,141.01,280.45,141.84,281.94
					c4.84,8.75,1.67,19.78-7.08,24.62C2878.37,2760.65,2875.36,2761.39,2872.39,2761.39z M2639.7,2367.29
					c-0.01,0-0.01,0.01-0.02,0.01C2639.68,2367.3,2639.69,2367.29,2639.7,2367.29z M2639.73,2367.27c0,0-0.02,0.01-0.02,0.01
					C2639.72,2367.28,2639.72,2367.28,2639.73,2367.27z M2639.77,2367.25c-0.01,0-0.02,0.01-0.03,0.02
					C2639.75,2367.26,2639.76,2367.25,2639.77,2367.25z"/>
			</g>
			<g>
				<path class="st2" d="M2471.07,2743.16c-6.31,0-12.45-3.31-15.78-9.2l-24.07-42.53l-138.14-19.46c-6.2-0.87-11.5-4.88-14.04-10.6
					l-56.17-126.81c-4.05-9.15,0.08-19.85,9.22-23.9c9.15-4.06,19.85,0.07,23.9,9.22l52.1,117.62l137.02,19.3
					c5.58,0.79,10.47,4.12,13.24,9.02l28.47,50.3c4.93,8.71,1.87,19.76-6.85,24.69C2477.16,2742.41,2474.1,2743.16,2471.07,2743.16z
					"/>
			</g>
			<g>
				<path class="st9" d="M2663.29,2495.5c-33.44-37.21-88.3-42.39-122.46-11.65c-5.95,5.33-39.74,34.31-43.57,40.88l126.94,127.82
					c6.99-3.16,31.89-28.69,37.84-34.07C2696.21,2587.73,2696.78,2532.66,2663.29,2495.5z"/>
			</g>
			<g>
				
					<ellipse transform="matrix(0.7432 -0.669 0.669 0.7432 -1068.2543 2380.5706)" class="st9" cx="2567.22" cy="2581.98" rx="83.25" ry="90.58"/>
			</g>
			<g class="st10">
				<path class="st5" d="M2532.05,2558.82c32.98-29.69,85.14-25.78,118.83,7.94c-3.7-14.41-10.92-28.39-21.8-40.47
					c-33.47-37.18-88.3-42.38-122.47-11.62c-34.17,30.76-34.74,85.83-1.27,123.01c1.17,1.3,2.42,2.46,3.64,3.68
					C2501.29,2611.42,2508.98,2579.58,2532.05,2558.82z"/>
			</g>
			<g>
				<path class="st2" d="M2574.67,2684.36c-3.23,0-6.49-0.15-9.77-0.46c-26.88-2.55-52-15.41-70.7-36.19
					c-38.95-43.26-37.88-107.95,2.38-144.19c40.26-36.25,104.71-30.52,143.65,12.74l0,0c18.71,20.78,28.86,47.1,28.58,74.1
					c-0.28,27.49-11.28,52.38-30.96,70.09C2620.53,2676.04,2598.38,2684.36,2574.67,2684.36z M2559.91,2509.62
					c-15.8,0-31.16,5.3-43.26,16.18c-27.96,25.18-28.04,70.86-0.16,101.83c13.67,15.18,31.87,24.56,51.24,26.39
					c18.9,1.8,36.68-3.84,50.05-15.88s20.84-29.12,21.04-48.11c0.2-19.46-7.22-38.54-20.88-53.73l0,0
					C2602.11,2518.75,2580.63,2509.62,2559.91,2509.62z"/>
			</g>
			<g>
				<path class="st2" d="M2624.21,2667.56c-5.71,0-11.17-3.28-13.68-8.82c-3.36-7.43-0.17-16.16,7.14-19.69
					c4.51-2.75,20.34-18.19,26.33-24.03c3.52-3.43,6.39-6.23,7.98-7.66c13.39-12.06,20.86-29.13,21.05-48.11
					c0.2-19.46-7.22-38.54-20.89-53.71c-13.66-15.2-31.85-24.58-51.24-26.41c-18.89-1.8-36.68,3.85-50.05,15.87
					c-1.01,0.91-2.73,2.42-4.95,4.36c-21.13,18.51-33.21,29.7-35.91,33.29c-4.27,6.87-13.25,9.14-20.29,5.05
					c-7.16-4.17-9.58-13.35-5.42-20.51c3.36-5.79,13.54-15.6,41.85-40.4c2.11-1.84,3.75-3.28,4.68-4.11
					c19.66-17.7,45.61-25.98,72.93-23.42c26.9,2.55,52.01,15.42,70.7,36.22c18.71,20.76,28.86,47.07,28.59,74.07
					c-0.28,27.48-11.27,52.37-30.96,70.08c-1.4,1.26-3.97,3.78-7.13,6.87c-18.63,18.18-28.05,26.78-34.57,29.73
					C2628.38,2667.13,2626.28,2667.56,2624.21,2667.56z M2618.02,2638.89c-0.05,0.02-0.12,0.05-0.18,0.08
					C2617.9,2638.94,2617.96,2638.91,2618.02,2638.89z M2510.22,2532.28c-0.04,0.07-0.08,0.15-0.13,0.22
					C2510.14,2532.42,2510.19,2532.35,2510.22,2532.28z"/>
			</g>
			<g>
				<path class="st2" d="M2903.58,2621.91c-17.1,0-33.33-9.74-40.97-25.89l-47.12-99.71c-5.25-11.11-5.74-24.07-1.32-35.55
					c4.41-11.48,13.46-20.78,24.82-25.51c100.39-41.83,141.35-89.73,141.75-90.21c7.32-8.74,20.36-9.93,29.13-2.65
					c8.76,7.29,10.02,20.25,2.77,29.05c-1.86,2.26-46.87,55.84-157.72,102.03c-1.25,0.52-1.83,1.46-2.1,2.16
					c-0.26,0.69-0.46,1.77,0.11,2.98l47.12,99.71c0.83,1.74,2.84,2.6,4.69,1.99c25.1-8.22,73.16-26.66,113.03-57.84
					c9.01-7.04,22.02-5.44,29.06,3.55c7.04,9,5.45,22.02-3.55,29.06c-44.84,35.07-97.97,55.51-125.65,64.58
					C2912.98,2621.19,2908.25,2621.91,2903.58,2621.91z"/>
			</g>
			<g>
				<path class="st2" d="M1968.96,2141.62c2.58,21.09,3.71,41.61,4.51,62.41c0.75,20.74,0.82,41.49,0.44,62.23
					c-0.92,41.48-3.76,82.94-8.67,124.19c-2.87,20.61-5.19,41.22-9.16,61.68c-3.26,20.51-7.9,40.85-12.41,61.1
					c-9.99,40.38-22.38,80.28-39.37,118.03c6.58-40.91,11.49-81.37,15.06-121.94c2.99-40.66,5.18-81.2,6.4-121.79
					c0.86-40.63,1.39-81.2,1.45-121.8c0.13-40.5,0-81.4,0.42-121.51l0-0.3c0.12-11.45,9.5-20.64,20.95-20.52
					C1959.12,2123.51,1967.73,2131.45,1968.96,2141.62z"/>
			</g>
			<g>
				<path class="st2" d="M1577.57,2190.91c-0.18,0.17,0.48,1.31,0.87,2.08c0.41,0.84,0.99,1.76,1.49,2.65
					c1.08,1.79,2.2,3.64,3.45,5.45c2.41,3.67,5.1,7.3,7.89,10.91c5.61,7.21,11.79,14.21,18.33,21.03
					c6.6,6.75,13.54,13.35,20.85,19.64c7.29,6.34,14.95,12.32,22.81,18.21c-9.54-2.2-19.14-4.61-28.65-7.56
					c-9.54-2.89-19.01-6.28-28.45-10.06c-9.4-3.87-18.76-8.14-28-13.1c-4.62-2.49-9.22-5.1-13.8-8.01c-2.3-1.42-4.58-2.97-6.89-4.57
					c-1.16-0.84-2.29-1.61-3.49-2.55c-1.25-0.98-2.2-1.62-3.93-3.28L1577.57,2190.91z"/>
			</g>
			<g>
				<path class="st2" d="M1530.33,1978.59c-4.54,0-9.1-1.48-12.92-4.54c-70.94-56.75-116.51-34.69-118.41-33.73
					c-10.01,5.52-22.46,1.81-27.98-8.2c-5.53-10.01-1.74-22.69,8.27-28.22c2.82-1.55,70.15-37.26,163.98,37.81
					c8.93,7.14,10.38,20.17,3.23,29.1C1542.43,1975.93,1536.41,1978.59,1530.33,1978.59z"/>
			</g>
			<g>
				<g>
					<polygon class="st11" points="767.34,3239.77 1020.96,3078.89 2109.61,3173.78 2394.28,3303.17 2325.27,3345.44 
						1674.84,3266.94 1448.83,3241.06 					"/>
				</g>
				<g>
					<path class="st12" d="M1558.58,3262.82v-98.96l468.65-314.43c0,0,387.65-225.55,862.21-69.2l143.2,36.41v75.91l-508.96,496.88
						c-377.84-138.02-723.08-211.99-888.73-117.32L1558.58,3262.82z"/>
				</g>
				<g>
					<path class="st12" d="M2027.23,2849.42c0,0-231.62-190.15-624.98-69.2l-634.91,359.04v100.5c0,0,160.45-91.87,341.61-93.6
						s406.83,111.43,406.83,111.43L2027.23,2849.42z"/>
				</g>
				<g>
					<polygon class="st11" points="2468.64,3369.72 1659.74,3275.14 1507.49,3256.59 672.45,3237.61 672.45,3318.7 1481.61,3332.5 
						1643.78,3353.21 2553.87,3455 3085.19,2923.18 3032.64,2892.56 2548.94,3364.78 					"/>
				</g>
				<g>
					<path class="st2" d="M2553.87,3475.7c-0.76,0-1.53-0.04-2.3-0.13l-910.09-101.79l-161.37-20.6l-808.02-13.78
						c-11.29-0.19-20.35-9.4-20.35-20.7v-81.09c0-5.57,2.25-10.91,6.23-14.8c3.98-3.9,9.45-6.02,14.94-5.89l835.04,18.98
						c0.68,0.01,1.36,0.06,2.04,0.15l152.26,18.54l808.79,94.57c11.36,1.33,19.49,11.61,18.16,22.96
						c-1.32,11.36-11.59,19.54-22.96,18.16l-808.9-94.58L1506,3277.27l-812.85-18.47v39.56l788.81,13.46
						c0.76,0.01,1.52,0.06,2.27,0.16l162.18,20.7l899.86,100.64l524.27-524.78c8.08-8.09,21.19-8.1,29.28-0.01
						c8.09,8.08,8.1,21.19,0.01,29.28l-531.32,531.83C2564.61,3473.54,2559.34,3475.7,2553.87,3475.7z"/>
				</g>
				<g>
					<path class="st2" d="M2523.67,3410.14c-2.38,0-4.79-0.41-7.1-1.25c-430.72-157.34-732.02-198.41-871.35-118.79
						c-9.94,5.68-22.58,2.22-28.25-7.7c-5.67-9.93-2.23-22.57,7.7-28.25c151-86.3,451.72-48.81,893.85,111.39l493.41-481.69v-51.09
						l-127.6-32.45c-0.46-0.12-0.92-0.25-1.38-0.4c-239.94-79.05-456.73-56.63-596.35-23.9c-146.12,34.26-240.68,86.64-248.47,91.04
						l-458.86,307.87v87.92c0,11.44-9.27,20.7-20.7,20.7s-20.7-9.27-20.7-20.7v-98.96c0-6.9,3.44-13.35,9.17-17.19l468.65-314.43
						c0.37-0.24,0.74-0.48,1.12-0.7c4.06-2.36,101.39-58.36,258.8-95.49c145-34.19,370.16-57.71,619.61,24.3l142.5,36.24
						c9.17,2.33,15.6,10.6,15.6,20.06v75.91c0,5.58-2.25,10.92-6.24,14.81l-508.96,496.88
						C2534.2,3408.1,2528.99,3410.14,2523.67,3410.14z"/>
				</g>
				<g>
					<path class="st2" d="M2523.65,3407.56c-8.89,0-16.64-6.55-17.92-15.6l-17.6-125.25c-1.39-9.91,5.51-19.07,15.42-20.46
						c9.89-1.42,19.06,5.51,20.46,15.42l17.6,125.25c1.39,9.91-5.51,19.07-15.42,20.46
						C2525.34,3407.5,2524.49,3407.56,2523.65,3407.56z"/>
				</g>
				<g>
					<path class="st2" d="M1515.76,3278.31c-3.12,0-6.28-0.71-9.26-2.2c-2.2-1.1-220.13-109.26-393.45-109.26
						c-1.31,0-2.6,0-3.91,0.02c-173.35,1.66-329.96,89.98-331.52,90.87c-6.41,3.65-14.29,3.63-20.67-0.07
						c-6.38-3.7-10.31-10.52-10.31-17.9v-100.5c0-7.46,4.01-14.35,10.51-18.02l634.9-359.04c1.3-0.73,2.68-1.33,4.11-1.77
						c208.2-64.02,371.64-41.2,472.09-10.79c109.76,33.23,169.62,81.72,172.11,83.77c8.84,7.26,10.12,20.3,2.87,29.14
						c-7.25,8.83-20.28,10.12-29.12,2.89c-1.01-0.82-57.77-46.24-159.95-76.79c-94.22-28.17-247.55-49.12-443.7,10.71
						l-622.42,351.98v54.44c56.22-27.11,181.67-78.99,320.71-80.32c1.44-0.01,2.9-0.02,4.34-0.02
						c183.19,0,402.65,108.97,411.97,113.65c10.22,5.12,14.35,17.56,9.23,27.78C1530.66,3274.12,1523.35,3278.31,1515.76,3278.31z"
						/>
				</g>
				<g>
					<path class="st2" d="M2511.6,3287.65c-3.17,0-6.37-0.73-9.33-2.23c-153.81-77.72-336.81-130.93-515.26-149.83
						c-172.96-18.32-325.65-1.3-418.96,46.68c-6.31,3.24-13.85,3.03-19.97-0.57c-205.4-120.83-403.54-121.21-533.61-100.22
						c-141.76,22.86-236.02,75.29-236.96,75.82c-9.95,5.61-22.58,2.09-28.2-7.86c-5.62-9.95-2.11-22.57,7.83-28.19
						c4.03-2.28,100.45-56.12,249.06-80.38c135.14-22.06,339.97-22.32,553.16,99.51c210.62-99.97,629.12-55.28,948.32,101.48
						l463.87-451.9c8.18-7.97,21.29-7.81,29.28,0.38c7.98,8.19,7.81,21.3-0.38,29.28l-474.4,462.16
						C2522.09,3285.63,2516.88,3287.65,2511.6,3287.65z"/>
				</g>
				<g>
					<path class="st2" d="M1483.33,3346.31c-10,0-18.12-8.11-18.12-18.12v-70.59c0-10,8.11-18.12,18.12-18.12
						s18.12,8.11,18.12,18.12v70.59C1501.45,3338.2,1493.33,3346.31,1483.33,3346.31z"/>
				</g>
				<g>
					<path class="st2" d="M1661.04,3363.56c-10,0-18.12-8.11-18.12-18.12v-65.56c0-10,8.11-18.12,18.12-18.12
						s18.12,8.11,18.12,18.12v65.56C1679.15,3355.45,1671.04,3363.56,1661.04,3363.56z"/>
				</g>
				<g>
					<path class="st5" d="M3363.89,2889.54c10.35,73.76-28.47,181.16-137.16,134.57c-108.69-46.58-162.42-122.3-188.92-164.33
						c-26.5-42.03-58.23-21.33-112.57-24.59s-94.46-18.12-62.11-75.05c9.94-17.49,26.86-33.75,45.5-47.88
						c42.03-31.93,92.96-53.05,92.96-53.05c19.41-73.76,50.05-215.21,50.05-215.21s141.2-46.94,271.21,7.09
						c34.21,14.23,67.7,35.46,97.62,66.35c-23.14,138.97-77.28,268.58-77.28,268.58S3353.54,2815.78,3363.89,2889.54z"/>
				</g>
				<g>
					<path class="st2" d="M3275.88,3056.17c-16.38,0-35.42-3.65-57.3-13.03c-122.8-52.63-179.61-142.72-198.28-172.32
						c-11.6-18.41-20.19-18.52-51.15-16.11c-13.05,1.03-27.83,2.18-45.15,1.14c-32.46-1.94-71.69-7.85-87.21-36.44
						c-10.1-18.61-7.29-42,8.33-69.51c29.74-52.33,110.84-92.79,138.94-105.61c19.12-74.57,47.05-203.33,47.34-204.69
						c1.55-7.15,6.76-12.95,13.71-15.26c9.7-3.22,239.4-77.21,390.23,78.7c4.57,4.72,6.62,11.32,5.55,17.79
						c-20.49,123.08-64.12,237.08-75.76,266.19c3.8,13.45,11.58,44.87,19.27,99.62l0,0c6.85,48.78-5.68,116.48-49.35,149.87
						C3321.71,3046.72,3302.24,3056.17,3275.88,3056.17z M2988.79,2812.24c23.89,0,47.26,5.92,66.54,36.5
						c29.45,46.7,80.1,113.72,179.56,156.35c31.1,13.32,56.33,12.83,75.01-1.45c29.11-22.25,38.88-72.79,33.49-111.22
						c-9.83-70.05-19.68-99.36-19.78-99.64c-1.63-4.79-1.47-10.06,0.47-14.73c0.52-1.24,50.8-122.59,74.15-253.51
						c-115.12-110.19-284.42-75.68-329.01-64.02c-7.89,35.96-31.64,143.26-47.62,203.97c-1.64,6.25-6.12,11.37-12.08,13.85
						c-27.71,11.52-104.8,50.51-128.39,92.04c-7.64,13.44-10.61,24.39-7.94,29.3c1.53,2.83,9.91,12.25,53.29,14.85
						c14.48,0.85,27.15-0.13,39.43-1.09C2973.51,2812.84,2981.18,2812.24,2988.79,2812.24z"/>
				</g>
				<g>
					<polygon class="st2" points="3321.97,2790.93 3306.05,2724.48 3357.42,2769.53 					"/>
				</g>
				<g>
					<path class="st2" d="M672.47,3258.32c-7.13,0-14.07-3.69-17.92-10.3c-5.75-9.88-2.4-22.55,7.49-28.31l94.89-55.21
						c9.89-5.75,22.56-2.4,28.31,7.49c5.75,9.88,2.4,22.55-7.49,28.31l-94.89,55.21C679.58,3257.41,676,3258.32,672.47,3258.32z"/>
				</g>
				<g class="st13">
					<path class="st2" d="M3363.89,2889.54c10.35,73.76-28.47,181.16-137.16,134.57c-108.69-46.58-162.42-122.3-188.92-164.33
						c-26.5-42.03-58.23-21.33-112.57-24.59s-94.46-18.12-62.11-75.05c9.94-17.49,26.86-33.75,45.5-47.88
						c-0.72,5.59-2.48,11.59-5.38,18.01c-37.94,84.42,119.04,39.8,181.93,98.44c62.94,58.64,175.2,141.46,194.2,63.82
						c18.94-77.64-22.46-203.57-22.46-203.57l65.94-237.88c34.21,14.23,67.7,35.46,97.62,66.35
						c-23.14,138.97-77.28,268.58-77.28,268.58S3353.54,2815.78,3363.89,2889.54z"/>
				</g>
				<g class="st13">
					<path class="st2" d="M1834.53,2761.76c-54.32,210.16-332.29,279.74-729.9,274.11l145.66,20.97l298.17,92.79
						c0,0,44.05,0.66,43.37-8.08s419.86-290.83,419.86-290.83l-24.71-27.9L1834.53,2761.76z"/>
				</g>
				<g class="st13">
					<path class="st2" d="M1211.72,3051.28c0,0-142.45,28.9-340.86,137.81l-44.86,33l600.36,32.66l115.63-17.13v-83.26
						l-220.83-75.46L1211.72,3051.28z"/>
				</g>
				<g class="st13">
					<path class="st2" d="M2233.83,2780.23c-302.81,152.77-443.65,272.45-253.62,324.54c0,0-362.31,22.43-357.13,20.7
						s409.95-279.26,409.95-279.26l59.14-28.27L2233.83,2780.23z"/>
				</g>
				<g class="st13">
					<path class="st2" d="M2670.42,2732.14c352.54,110.62-62.2,480.03-690.21,372.63c0,0,379.93,48.07,506.56,149.98l12.23,5.92
						l24.68,105.66l497.41-462.5v-32.41l-4.97-33.04c0,0-57.23-1.9-67.58,1.98c-10.35,3.88-58.23,9.06-64.7,7.76
						s-27.17-43.35-27.17-43.35l-5.12-36.29l-86.76-25.23L2670.42,2732.14z"/>
				</g>
				<g class="st13">
					<path class="st2" d="M2276.88,3173.78c-13.61,128.56-559.58,70.77-545.97-57.8l-163.04,51.76v78.28l25.38,11.58l792.4,114.58
						l129.22,14.05l-29.59-122.05l-146.22-62.8L2276.88,3173.78z"/>
				</g>
				<g class="st13">
					<polygon class="st2" points="2500.65,3396.34 2509.88,3442.06 2557.32,3442.06 3068.63,2939.76 3042.99,2892.56 
						2542.66,3379.09 2523.68,3386.24 					"/>
				</g>
			</g>
			<g>
				<path class="st2" d="M2050.76,2617.38c-10.1-34.12-19.71-68.11-28.95-102.31c-9.18-34.18-18.03-68.49-25.51-103
					c14.04,32.39,29.3,64.11,44.88,95.69c15.61,31.53,31.63,62.97,47.92,93.98L2050.76,2617.38z"/>
			</g>
			<g>
				<path class="st2" d="M1828.02,2572.99c-162.75,0-316.14-53.18-323.86-55.9l12.02-34.18c2.19,0.77,221.42,76.7,405.97,46.74
					l5.81,35.76C1895.04,2570.76,1861.32,2572.99,1828.02,2572.99z"/>
			</g>
			<g>
				<path class="st2" d="M3067.92,1640.11c-12.91,9.56-26.18,20.12-39.04,30.63c-12.93,10.57-25.69,21.41-38.27,32.5
					c-12.6,11.06-25.02,22.38-37.2,33.99c-12.27,11.54-24.13,23.5-35.94,35.62c8.65-14.51,17.47-29.03,26.78-43.22
					c9.23-14.27,18.79-28.35,28.63-42.28c9.81-13.95,19.9-27.73,30.25-41.36c10.42-13.69,20.79-26.99,32.2-40.6
					c8.51-10.15,23.63-11.48,33.78-2.97s11.48,23.63,2.97,33.78c-1.21,1.45-2.56,2.71-4,3.8L3067.92,1640.11z"/>
			</g>
			<g class="st13">
				<path class="st2" d="M1754.2,2105.83c0,0,124.22,103.52,34.51,189.78c0,0,82.1,350-71.09,434.66l231.54,64.62l31.06-51.62
					l98.62-140.26l-45.06-85.56c0,0-132.57,213.1-91.34-92.36l-3.62-238.39l-127.67-37.74L1754.2,2105.83z"/>
			</g>
			<g class="st13">
				<path class="st2" d="M3412.86,2500.37l-100.26-49.27c0-289.8-308.17-516.55-490.98-514.79
					c-79.97,162.52-476.64,319.61-753.92,260.97c268.32,0.98,479.1-92.16,637.68-343.91l96.17,4.03c0,0,58.31-11.82,126.17,5
					c28.21,7.04,59.21,14.8,90.58,22.77c134.36,58.54,296.32,235.45,374.16,381.98C3424.98,2328.37,3425.34,2415.17,3412.86,2500.37
					z"/>
			</g>
			<g class="st13">
				<path class="st2" d="M1939.2,2451.09c26.51-141.48,94.94-249.81,294.63-254.29l-270.61-8.18l-23.81,38.04L1939.2,2451.09z"/>
			</g>
			<g class="st13">
				<path class="st2" d="M2931.18,1610.45c0,0,106.63,10.82,31.58,106.45l56.07-53.23c0,0,113.87,154.03,0,207.51l244.09,173.87
					l-197.51-413.69l-79.41-8.63L2931.18,1610.45z"/>
			</g>
			<g class="st7">
				<path class="st8" d="M2795.84,1847.9c0,0,97.05-115.16,99.64-225.15l-73.76,19.12l-87.99,206.03H2795.84z"/>
			</g>
			<g class="st13">
				<path class="st2" d="M3021.1,2532.4l-88.71,60.04l25.67,61.64l-88.25,95.86c0,0-40.32,27.02-209.83-19.67
					c-44.62-12.27-96.79-15.06-149.38-12.47c174.48-66.61,224.06-186.75,150.72-359.52l26.71-28.26l63.4-19.82l33.23,9.16
					l38.41,50.21l38.77,81.52c0,150.15,169.04,49.33,104.81-61.02l38.56-25.88l31.99,70.34L3021.1,2532.4z"/>
			</g>
			<g class="st7">
				<polygon class="st8" points="3005.23,2565.62 2943.79,2601.22 2974.51,2671.9 2998.13,2648.1 				"/>
			</g>
			<g class="st13">
				<path class="st2" d="M2878.01,2227.18c0,0,78.28,83.96-14.88,190.06l9.25,18.12l113.63-77.07l-36.17-60.3L2878.01,2227.18z"/>
			</g>
			<g>
				<g>
					<path class="st2" d="M2275.68,3062.53c-64.72,0-112.88-33.17-118.82-81.17c-38.92-5.64-62.8-14.37-71.02-25.97
						c-2.96-4.17-4.01-8.9-3.04-13.65c4.95-24.17,61.36-39.19,108.53-47.6c27.82-28.79,68.38-49.33,111.6-56.45
						c8.22-1.35,16.49-2.2,24.58-2.53c2.57-0.1,5.11-0.16,7.64-0.16c48.19,0,88.12,18.33,107.45,49.17
						c34.19,3.69,76.28,11.53,88.37,28.01c3.12,4.24,4.24,9.01,3.26,13.79c-3.58,17.51-34.09,32.37-90.67,44.17
						c-25.67,50.87-92.51,89.5-160.14,92.22C2280.81,3062.48,2278.24,3062.53,2275.68,3062.53
						C2275.68,3062.53,2275.68,3062.53,2275.68,3062.53z"/>
				</g>
				<g>
					<path class="st2" d="M2335.15,2840c47.2,0,86.62,18.37,104.45,48.88c60.45,6.25,93.15,19.37,89.73,36.09
						c-4.16,20.29-56.38,34.07-89.18,40.78c-24.12,50.53-89.55,88.92-156.93,91.63c-2.54,0.1-5.05,0.15-7.54,0.15
						c-63.61,0-110.74-33.01-114.22-80.58c-30.58-4.16-77.91-13.93-73.75-34.21c3.42-16.72,42.08-32.71,106.11-43.97
						c27.21-28.75,67.69-49.2,109.93-56.16c7.95-1.31,15.97-2.14,23.97-2.47C2330.21,2840.05,2332.69,2840,2335.15,2840
						L2335.15,2840z M2335.15,2830c-2.6,0-5.21,0.05-7.84,0.16c-8.33,0.34-16.8,1.21-25.2,2.59
						c-43.67,7.19-84.73,27.81-113.24,56.75c-69.23,12.5-106.57,29.73-110.97,51.24c-1.26,6.15,0.07,12.21,3.86,17.55
						c3.33,4.7,13.2,18.61,70.69,27.47c8.23,48.55,57.55,81.78,123.22,81.78c2.62,0,5.27-0.05,7.94-0.16
						c69.52-2.79,135.8-40.7,163.3-92.82c86.24-18.38,90.72-40.29,92.21-47.57c1.27-6.2-0.16-12.33-4.13-17.75
						c-10.47-14.28-40.57-24.29-89.5-29.77C2424.79,2848.39,2384.01,2830,2335.15,2830L2335.15,2830z"/>
				</g>
			</g>
			<g>
				<g>
					<g>
						<path class="st14" d="M2167.42,2954.32c0.91-4.43,2.16-8.82,3.75-13.14c29.08-6.68,80.73-12.45,138.87-14.79
							c58.14-2.34,108.27-0.66,135.07,3.77c-0.18,4.26-0.71,8.62-1.62,13.06c-0.04,0.21-0.08,0.41-0.13,0.62
							c-0.41,1.96-0.89,3.9-1.44,5.83c-1.28,4.53-2.92,8.99-4.88,13.37c-0.08,0.18-0.16,0.36-0.24,0.53
							c-2.97,6.5-6.66,12.83-10.99,18.91c-8.24,11.58-18.8,22.28-31.06,31.7c-29.77,22.87-69.6,38.14-110.84,39.79
							c-40.9,1.65-74.87-10.43-95.73-30.96c-8.57-8.42-14.92-18.27-18.64-29.18c-1.99-5.83-3.23-11.97-3.64-18.35
							c-0.04-0.51-0.07-1.03-0.09-1.55c-0.19-4.3-0.01-8.7,0.56-13.2c0.21-1.67,0.47-3.35,0.79-5.04
							C2167.24,2955.25,2167.33,2954.78,2167.42,2954.32z"/>
					</g>
				</g>
				<g>
					<g>
						<path class="st15" d="M2195.97,2901.72c3.56-3.86,7.38-7.59,11.44-11.16c5.7-5.03,11.87-9.76,18.43-14.13
							c28.45-18.99,64.25-31.38,101.16-32.87c37-1.49,68.33,8.25,89.41,25.32c4.63,3.75,8.77,7.85,12.35,12.26
							c2.82,3.46,5.3,7.11,7.43,10.92c-33.39-3.34-74.14-4.43-118.58-2.64C2273.17,2891.2,2231.3,2895.62,2195.97,2901.72z"/>
					</g>
				</g>
				<g>
					<g>
						<path class="st15" d="M2171.17,2941.18c29.07-6.68,80.73-12.46,138.87-14.79c58.14-2.34,108.28-0.66,135.08,3.77
							c-0.18,4.27-0.72,8.62-1.62,13.06c-0.04,0.21-0.09,0.41-0.13,0.62c-0.42,1.96-0.9,3.9-1.45,5.83
							c-1.28,4.52-2.92,8.99-4.88,13.38c-0.08,0.18-0.16,0.36-0.25,0.53c-2.97,6.51-6.66,12.83-10.99,18.92
							c-8.25,11.57-18.8,22.28-31.06,31.7c-24.08,18.49-54.72,32.01-87.39,37.38c11.9-5.72,23-12.53,32.97-20.19
							c12.27-9.42,22.82-20.12,31.06-31.7c4.34-6.08,8.02-12.41,10.99-18.91c0.09-0.18,0.17-0.36,0.24-0.54
							c0.11-0.23,0.23-0.53,0.36-0.87c7.29-18.81-8.73-33.02-30.78-38.34c-42.03-10.15-158.57,0.35-183.92,3.28
							C2169.04,2941.29,2170.09,2944.13,2171.17,2941.18z"/>
					</g>
				</g>
				<g>
					<g>
						<path class="st16" d="M2368.14,3008.49"/>
					</g>
				</g>
				<g>
					<g>
						<path class="st17" d="M2317.61,2889.41c-44.44,1.79-86.32,6.2-121.64,12.31c3.56-3.86,7.38-7.59,11.44-11.16
							c27.65-5.29,68.59-9.6,113.77-11.41c43.28-1.74,81.65-0.85,107.59,1.99c2.82,3.46,5.3,7.11,7.43,10.92
							C2402.81,2888.72,2362.06,2887.62,2317.61,2889.41z"/>
					</g>
				</g>
				<g>
					<g>
						<path class="st17" d="M2167.15,2955.71c0.08-0.46,0.17-0.92,0.27-1.39c0.91-4.43,2.16-8.82,3.75-13.14
							c29.08-6.68,80.73-12.45,138.87-14.79c58.14-2.34,108.27-0.66,135.07,3.77c-0.18,4.26-0.71,8.62-1.62,13.06
							c-0.04,0.21-0.08,0.41-0.13,0.62c-24.51-5.37-75.07-7.67-134.35-5.28C2247.4,2941.03,2193.25,2947.89,2167.15,2955.71z"/>
					</g>
				</g>
				<g>
					<g>
						<g>
							<path class="st17" d="M2428.58,2979.24l-5.56,6.47c-15.39-5.91-65.72-8.45-122.4-6.17c-67.62,2.72-116.13,10.68-129.1,17.14
								l-3.96-5.69c17.16-8.54,71.22-15.99,134.51-18.54C2361,2970.09,2411.84,2972.81,2428.58,2979.24z"/>
						</g>
					</g>
				</g>
				<g>
					<g>
						<g>
							<path class="st17" d="M2396.71,3010.72l-3.94,6.92c-19.66-3.64-57.71-4.85-99.31-3.18c-43.58,1.75-83.66,6.31-104.58,11.88
								l-1.4-6.66c21.81-5.81,62.97-10.53,107.44-12.32C2337.31,3005.66,2376.32,3006.95,2396.71,3010.72z"/>
						</g>
					</g>
				</g>
				<g>
					<g>
						<g>
							<path class="st17" d="M2439.39,2960.27l-5.2,6.6c-18.22-6.06-70.35-8.53-129.72-6.14c-62.27,2.51-118.58,9.81-136.92,17.76
								l-3.32-5.99c20.03-8.68,76.97-16.26,141.69-18.87C2367.45,2951.16,2419.84,2953.76,2439.39,2960.27z"/>
						</g>
					</g>
				</g>
				<g>
					<g>
						<g>
							<path class="st17" d="M2417.56,2867.17l-1.14,1.69l-0.23,1.77l-0.49,0.04l-0.43-0.11c-16.55-4.22-53.08-5.91-93.04-4.31
								c-40.19,1.62-76.95,6.14-95.94,11.8l-0.89-3.27c19.49-5.81,56.87-10.44,97.56-12.07
								C2364.05,2861.06,2400.3,2862.77,2417.56,2867.17z"/>
						</g>
					</g>
				</g>
				<g>
					<g>
						<path class="st2" d="M2303.73,2842.62c7.96-1.31,15.97-2.14,23.97-2.47c51.19-2.06,94.38,17.12,112.72,50.07l3.41,6.13
							l-9.12-0.91c-34.33-3.43-75.07-4.34-117.8-2.62c-42.73,1.72-84.52,5.94-120.84,12.22l-9.65,1.67l6-6.51
							C2219.64,2870.69,2260.79,2849.69,2303.73,2842.62z M2428.16,2887.8c-18.9-27.13-57.12-42.64-101.85-40.84
							c-44.73,1.8-89.99,20.67-120.41,49.78c34.41-5.45,73.04-9.15,112.41-10.73C2357.69,2884.42,2395.43,2885.05,2428.16,2887.8z"
							/>
					</g>
				</g>
				<g>
					<g>
						<path class="st18" d="M2092.16,2942.56c3.16-15.41,44.15-30.54,103.81-40.84c35.32-6.1,77.2-10.52,121.64-12.31
							c44.45-1.79,85.19-0.7,118.58,2.64c56.4,5.64,91.82,17.69,88.66,33.1c-2.87,14-36.93,27.75-87.83,37.88
							c1.97-4.38,3.61-8.85,4.88-13.37c14.54-3.4,23.23-7.03,23.95-10.57c0.74-3.6-6.88-6.64-20.75-8.94
							c-26.8-4.43-76.93-6.11-135.07-3.77c-58.15,2.34-109.8,8.11-138.87,14.79c-15.04,3.46-24.05,7.17-24.78,10.77
							c-0.72,3.53,6.6,6.53,19.98,8.8c-0.57,4.5-0.75,8.9-0.56,13.2C2118.24,2967.78,2089.29,2956.56,2092.16,2942.56z"/>
					</g>
				</g>
				<g>
					<g>
						<path class="st19" d="M2441.38,2951.49c0.18-0.61,0.36-1.22,0.53-1.83c14.54-3.4,23.23-7.02,23.95-10.56
							c0.74-3.61-6.89-6.65-20.75-8.94c-17.77-2.94-45.83-4.67-79.68-4.82c1.98-1.84,3.45-3.7,4.37-5.56
							c12.98,0.17,25.33,0.62,36.83,1.32c50,3.07,71.55,10.42,70.41,15.95C2476.39,2940.27,2466.65,2945.74,2441.38,2951.49z"/>
					</g>
				</g>
				<g>
					<g>
						<path class="st15" d="M2440.74,2957.28l-0.17-1.38c12.8-2.71,23.22-5.47,31.54-8.18
							C2464.87,2951.05,2454.44,2954.22,2440.74,2957.28z"/>
					</g>
				</g>
				<g>
					<g>
						<path class="st15" d="M2440.39,2954.53l0.18,1.37c-0.22,0.06-0.47,0.1-0.71,0.15L2440.39,2954.53z"/>
					</g>
				</g>
				<g>
					<g>
						<path class="st19" d="M2472.11,2947.72c7.57-3.46,11.67-7.11,12.47-10.98c0.77-3.77-1.92-6.92-6.99-9.56
							c-13.23-6.88-42.67-10.21-68.8-11.81c-11.82-0.73-24.54-1.18-37.89-1.35c-0.34-2.86-2.06-5.58-5.02-8.16
							c19.79,0.18,38.49,0.98,55.5,2.37c60.66,4.97,80.36,15.59,78.81,23.18C2499.33,2935.62,2491.16,2941.52,2472.11,2947.72z"/>
					</g>
				</g>
				<g>
					<g>
						<path class="st19" d="M2320.35,2889.31c43.39-1.64,83.14-0.52,115.86,2.75c56.39,5.64,91.82,17.69,88.66,33.1
							c-2.87,13.99-36.93,27.74-87.84,37.88c0.58-1.3,1.13-2.61,1.66-3.93l0.26,2.78c29.76-6.15,65.85-16.48,68.77-30.78
							c1.13-5.53-2.92-10.07-10.07-13.78c-16.83-8.74-50.76-12.92-73.93-14.81c-20.33-1.67-43.04-2.49-67.05-2.45
							C2348.01,2895.9,2335.67,2892.28,2320.35,2889.31z"/>
					</g>
				</g>
				<g>
					<g>
						<g>
							<path class="st20" d="M2370.9,2914.01c13.35,0.18,26.06,0.63,37.89,1.35c26.12,1.6,55.56,4.94,68.8,11.81
								c5.07,2.64,7.76,5.78,6.99,9.56c-0.8,3.87-4.9,7.52-12.47,10.98c-8.32,2.71-18.74,5.48-31.54,8.18l-0.18-1.37
								c0.35-1.02,0.67-2.03,0.99-3.04c25.27-5.75,35.01-11.21,35.66-14.44c1.13-5.53-20.42-12.88-70.41-15.95
								c-11.5-0.71-23.86-1.15-36.83-1.32c0.47-0.93,0.79-1.85,0.98-2.77C2370.99,2915.99,2371.03,2914.99,2370.9,2914.01z"/>
						</g>
					</g>
					<g>
						<g>
							<path class="st21" d="M2440.57,2955.9c12.8-2.71,23.22-5.47,31.54-8.18c-7.24,3.34-17.67,6.51-31.37,9.56L2440.57,2955.9z"/>
						</g>
					</g>
					<g>
						<g>
							<path class="st21" d="M2440.39,2954.53l-0.35-2.74c0.45-0.1,0.9-0.2,1.34-0.3
								C2441.07,2952.51,2440.74,2953.52,2440.39,2954.53z"/>
						</g>
					</g>
					<g>
						<g>
							<path class="st21" d="M2214.2,2923.19c29.46-4.05,63.42-6.94,98.2-8.34c20.23-0.81,39.97-1.1,58.5-0.84
								c0.13,0.98,0.08,1.98-0.12,2.99c-0.19,0.92-0.51,1.84-0.98,2.77c-18.52-0.28-38.3,0-58.57,0.81
								c-34.47,1.39-68.08,4.25-97.2,8.26c-52.1,7.18-77.04,16.4-78.17,21.92c-0.67,3.3,7.25,8.18,31.53,11.98l-2.24,4.24
								l-0.74,1.41c-12.73-1.99-22.04-4.38-28.04-7.19c-6.19-2.91-8.83-6.28-8.05-10.13
								C2131.11,2937.43,2176.57,2928.38,2214.2,2923.19z"/>
						</g>
					</g>
				</g>
				<g>
					<g>
						<g>
							<path class="st20" d="M2356.67,2900.06c24.01-0.04,46.72,0.78,67.05,2.45c23.17,1.9,57.09,6.08,73.93,14.81
								c7.15,3.72,11.2,8.25,10.07,13.78c-2.91,14.3-39.01,24.63-68.77,30.78l-0.26-2.78c0.41-1.02,0.81-2.04,1.17-3.06
								c0.24-0.05,0.49-0.09,0.71-0.15l0.17,1.38c13.7-3.05,24.13-6.22,31.37-9.56c19.05-6.19,27.22-12.1,28.09-16.31
								c1.55-7.59-18.15-18.21-78.81-23.18c-17.01-1.39-35.72-2.19-55.5-2.37C2363.57,2903.83,2360.48,2901.89,2356.67,2900.06z"/>
						</g>
					</g>
					<g>
						<g>
							<path class="st19" d="M2440.74,2957.28l-0.17-1.38c12.8-2.71,23.22-5.47,31.54-8.18
								C2464.87,2951.05,2454.44,2954.22,2440.74,2957.28z"/>
						</g>
					</g>
					<g>
						<g>
							<path class="st21" d="M2438.69,2959.1l-0.26-2.75c0.49-0.11,0.96-0.2,1.43-0.3
								C2439.49,2957.07,2439.1,2958.08,2438.69,2959.1z"/>
						</g>
					</g>
					<g>
						<g>
							<path class="st21" d="M2204.34,2911.33c33.32-5.23,71.68-8.82,110.92-10.4c14.1-0.57,27.95-0.86,41.41-0.88
								c3.81,1.83,6.9,3.77,9.21,5.8c-16.64-0.16-34.04,0.11-51.81,0.82c-38.85,1.56-76.79,5.12-109.72,10.28
								c-63.72,9.98-88.14,22.38-89.7,29.96c-0.85,4.2,4.99,9.54,21.72,14.29c7.36,2.09,16.83,4.06,28.78,5.78
								c0.66,0.09,1.33,0.19,2,0.28l-2.82,5.66c-27.71-3.83-60.13-11.41-57.21-25.71
								C2110.92,2928.65,2169.65,2916.77,2204.34,2911.33z"/>
						</g>
					</g>
				</g>
				<g>
					<g>
						<path class="st2" d="M2201.35,2897.48c35.54-5.86,75.84-9.81,116.96-11.47c43.26-1.74,84.53-0.82,119.37,2.66
							c61.71,6.17,95.11,19.4,91.65,36.3c-4.28,20.89-59.5,34.87-92.03,41.35l-6.82,1.36l2.29-5.1c1.92-4.27,3.51-8.63,4.73-12.94
							l0.7-2.46l3.24-0.76c16.41-3.84,19.52-6.69,19.93-7.15c-0.23-0.44-2.28-3.17-18.06-5.78c-27.27-4.51-78.6-5.93-133.96-3.71
							c-55.36,2.23-108.13,7.84-137.72,14.64c-17.1,3.94-20.32,6.88-20.74,7.34c0.23,0.43,2.23,3.08,17.3,5.65l2.98,0.51l-0.31,2.44
							c-0.54,4.29-0.73,8.59-0.54,12.77l0.22,5l-6.37-0.83c-30.4-3.94-80.76-13.68-76.48-34.57l0,0
							c3.46-16.9,42.89-33.06,108.17-44.34C2197.68,2898.09,2199.51,2897.78,2201.35,2897.48z M2443.42,2958.38
							c45.46-9.64,74.74-22.15,76.97-33.05c2.6-12.7-31.03-24.43-85.67-29.9c-34.33-3.43-75.07-4.34-117.8-2.62
							c-42.73,1.72-84.52,5.94-120.84,12.22c-57.81,9.99-96.85,24.65-99.45,37.34l0,0c-2.23,10.9,22.37,21.24,64.6,27.35
							c0.04-2.05,0.16-4.11,0.36-6.18c-14.43-2.76-20.7-6.41-19.67-11.43c1.13-5.5,10.01-9.87,28.8-14.2
							c30.76-7.07,83.11-12.66,140.03-14.95c56.92-2.29,107.82-0.86,136.18,3.84c17.32,2.87,24.54,6.6,23.42,12.1
							c-1.03,5.02-8.91,9.24-24.72,13.21C2444.96,2954.21,2444.23,2956.3,2443.42,2958.38z M2092.16,2942.56l-0.01,0
							L2092.16,2942.56z"/>
					</g>
				</g>
				<g class="st22">
					<g>
						<g>
							<path class="st5" d="M2171.4,2940.83c3.39-0.78,7.07-1.54,11.04-2.29c-0.92,2.94-1.69,5.91-2.31,8.89
								c-0.09,0.47-0.18,0.93-0.27,1.39c-0.33,1.7-0.59,3.38-0.8,5.04c-0.57,4.5-0.75,8.91-0.56,13.2c0.02,0.52,0.06,1.03,0.09,1.54
								c0.42,6.38,1.65,12.52,3.65,18.35c3.72,10.9,10.07,20.75,18.64,29.17c20.86,20.53,54.83,32.61,95.73,30.96
								c27.3-1.1,53.99-8.17,77.56-19.46c-26.39,15.07-57.78,24.7-90.04,26c-40.89,1.64-74.87-10.43-95.72-30.96
								c-8.57-8.42-14.93-18.27-18.64-29.18c-1.99-5.83-3.23-11.96-3.65-18.34c-0.04-0.52-0.06-1.03-0.09-1.55
								c-0.19-4.3-0.01-8.7,0.56-13.19c0.21-1.67,0.48-3.35,0.8-5.04c0.08-0.46,0.17-0.92,0.27-1.39
								C2168.57,2949.54,2169.82,2945.15,2171.4,2940.83z"/>
						</g>
					</g>
				</g>
				<g>
					<g>
						<path class="st2" d="M2191.92,2933.83c30.95-5.1,73.43-9.02,118.82-10.85c56.92-2.29,107.82-0.86,136.18,3.84l2.81,0.46
							l-0.09,2.27c-0.18,4.41-0.74,8.95-1.67,13.48c-0.46,2.23-1,4.47-1.63,6.66c-1.3,4.6-2.99,9.24-5.04,13.8
							c-23.2,51.65-89.68,91.14-158.08,93.89c-68.39,2.75-119.67-31.99-121.92-82.62c-0.2-4.47,0-9.05,0.58-13.63
							c0.27-2.18,0.64-4.41,1.1-6.63l0,0c0.93-4.53,2.23-9.09,3.87-13.56l0.84-2.3l3.05-0.7
							C2176.94,2936.5,2184.06,2935.12,2191.92,2933.83z M2171.17,2941.18l-0.01,0L2171.17,2941.18z M2440.46,2933.05
							c-27.9-4.16-77.63-5.41-131.12-3.26c-53.49,2.15-104.57,7.46-134.64,13.95c-1.16,3.45-2.1,6.93-2.81,10.4v0
							c-0.43,2.09-0.77,4.18-1.03,6.22c-0.54,4.29-0.73,8.59-0.54,12.78c2.11,47.45,50.17,80.01,114.28,77.43
							c64.11-2.58,126.42-39.59,148.17-87.99c1.92-4.27,3.51-8.62,4.73-12.94c0.59-2.06,1.1-4.16,1.53-6.25
							C2439.74,2939.92,2440.22,2936.45,2440.46,2933.05z"/>
					</g>
				</g>
			</g>
		</g>
		<g>
			<g>
				<path class="st5" d="M1554.76,1969.36c95.02,93.36,214.24,163.28,349.38,199.55c27.56,7.38,55.7,13.4,84.43,17.9
					c13.97,2.23,28.17,4.05,42.51,5.61c43.22,4.48,86.02,5.46,128.17,3.15c36.33-1.9,72.18-6.32,107.29-12.94
					c42.4-7.98,83.77-19.34,123.81-33.71c14.58-5.29,28.98-10.95,43.2-16.96c260.05-110.69,455.45-352.94,490.36-650.64
					c51.52-438.53-264.75-831.12-706.3-876.96c-85.05-8.77-168.64-4.16-248.38,12.4c-9.34,1.85-18.66,3.97-27.93,6.28
					c-24.83,6.02-49.24,13.17-73.17,21.43c-55.35,19.12-108.2,44.1-157.67,74.19c-49.48,30.02-95.69,65.24-137.65,104.87
					c-13.35,12.59-26.29,25.62-38.79,39.14c-18.72,20.27-36.47,41.42-53.11,63.63c-83.17,110.33-139.01,243.07-156.13,389.16
					C1295.13,1567.72,1387.2,1804.73,1554.76,1969.36z"/>
				<path class="st2" d="M2115.23,2199.17c-28.14,0-56.39-1.46-84.41-4.37c-15.79-1.72-29.73-3.56-42.64-5.62
					c-28.23-4.43-56.72-10.47-84.68-17.96c-132.05-35.44-253.22-104.65-350.43-200.16l0,0
					c-175.34-172.28-259.42-411.34-230.68-655.88c16.58-141.44,70.73-276.41,156.6-390.32c16.22-21.64,34.14-43.11,53.27-63.81
					c12.29-13.3,25.39-26.5,38.9-39.26c42.09-39.75,88.54-75.13,138.05-105.18c49.95-30.38,103.15-55.41,158.13-74.4
					c23.91-8.25,48.6-15.48,73.38-21.5c9.74-2.43,19.17-4.56,28.03-6.31c81.39-16.89,165.21-21.08,249.09-12.43
					c215.06,22.33,407.22,126.69,541.08,293.87c132.81,165.85,192.24,373.88,167.35,585.76c-33.75,287.75-222.19,537.8-491.8,652.56
					c-14.17,6-28.75,11.72-43.33,17.01c-40.58,14.57-82.36,25.95-124.18,33.82c-35.75,6.74-71.96,11.11-107.61,12.98
					C2144.72,2198.77,2129.99,2199.17,2115.23,2199.17z M1556.44,1967.65c96.62,94.93,217.07,163.72,348.32,198.95
					c27.79,7.44,56.11,13.45,84.18,17.85c12.83,2.05,26.7,3.88,42.4,5.6c42.44,4.4,85.44,5.45,127.78,3.14
					c35.44-1.86,71.44-6.2,106.98-12.9c41.57-7.83,83.11-19.14,123.44-33.62c14.49-5.25,28.98-10.95,43.08-16.91
					c268.02-114.08,455.37-362.65,488.92-648.71c24.74-210.6-34.34-417.36-166.33-582.2c-133.06-166.17-324.07-269.9-537.84-292.1
					c-83.4-8.6-166.73-4.44-247.65,12.37c-8.8,1.74-18.16,3.85-27.83,6.26c-24.66,5.98-49.2,13.17-72.97,21.37
					c-54.65,18.88-107.54,43.77-157.2,73.97c-49.23,29.87-95.41,65.05-137.25,104.57c-13.44,12.68-26.45,25.81-38.68,39.02
					c-19.01,20.58-36.83,41.93-52.95,63.44c-85.36,113.23-139.19,247.4-155.68,388C1298.59,1558.8,1382.16,1796.42,1556.44,1967.65z
					"/>
			</g>
			<g class="st13">
				<path class="st2" d="M2923.89,1481.31c-34.88,297.72-230.31,540-490.37,650.64c-14.21,6.04-28.6,11.69-43.17,16.96
					c-40.04,14.39-81.41,25.72-123.8,33.73c-35.12,6.6-70.98,11.04-107.28,12.94c-42.17,2.33-84.95,1.34-128.2-3.13
					c-14.32-1.61-28.51-3.4-42.5-5.6c-28.74-4.52-56.87-10.59-84.43-17.95c-135.14-36.27-254.36-106.16-349.39-199.56
					c-52.21-51.28-97.12-109.63-133.27-173.26c92.75,87.02,207.18,152.21,336.11,186.82c27.56,7.43,55.69,13.43,84.44,17.95
					c13.95,2.24,28.14,4.02,42.5,5.6c43.26,4.47,86.03,5.46,128.16,3.17c36.34-1.94,72.16-6.35,107.28-12.94
					c42.39-8.01,83.8-19.37,123.8-33.73c14.61-5.3,29-10.96,43.21-16.99c260.06-110.65,455.45-352.89,490.37-650.64
					c20.42-173.69-16.93-340.14-96.83-480.69C2856.57,979.62,2954.32,1222.47,2923.89,1481.31z"/>
			</g>
			<g>
				<path class="st2" d="M2115.24,2215.23c-28.69,0-57.5-1.49-86.07-4.45c-16.15-1.77-30.35-3.64-43.52-5.75
					c-28.75-4.51-57.8-10.67-86.3-18.3c-134.72-36.16-258.35-106.77-357.53-204.22l0,0c-178.91-175.78-264.7-419.7-235.38-669.21
					c16.91-144.27,72.15-281.93,159.73-398.12c16.52-22.04,34.79-43.94,54.29-65.04c12.55-13.57,25.9-27.04,39.68-40.04
					c42.91-40.52,90.26-76.6,140.75-107.22c50.91-30.96,105.15-56.48,161.21-75.85c24.38-8.42,49.57-15.79,74.84-21.92
					c9.88-2.47,19.58-4.65,28.7-6.46c82.86-17.2,168.33-21.47,253.86-12.66c219.37,22.78,415.4,129.25,551.97,299.8
					c135.52,169.23,196.16,381.49,170.77,597.67c-34.41,293.46-226.57,548.45-501.46,665.46c-14.46,6.12-29.3,11.95-44.14,17.33
					c-41.43,14.87-84.03,26.47-126.69,34.5c-36.45,6.88-73.37,11.33-109.74,13.23C2145.29,2214.82,2130.28,2215.23,2115.24,2215.23z
					 M1567.69,1956.19c94.65,92.99,212.65,160.38,341.23,194.9c27.23,7.29,55,13.18,82.51,17.5c12.61,2.01,26.22,3.81,41.66,5.5
					c41.51,4.3,83.66,5.33,125.15,3.07c34.77-1.82,70.04-6.08,104.88-12.65c40.75-7.67,81.45-18.76,120.99-32.95
					c14.17-5.14,28.41-10.73,42.24-16.59c262.71-111.82,446.35-355.44,479.23-635.79c24.23-206.3-33.62-408.83-162.92-570.3
					c-130.36-162.79-317.5-264.41-526.96-286.16c-81.75-8.43-163.41-4.35-242.73,12.12c-8.69,1.72-17.78,3.76-27.2,6.12
					c-24.28,5.89-48.33,12.93-71.62,20.97c-53.57,18.51-105.42,42.9-154.1,72.51c-48.28,29.29-93.55,63.78-134.57,102.52
					c-13.18,12.43-25.93,25.3-37.91,38.25c-18.63,20.17-36.09,41.09-51.89,62.17c-83.68,111-136.43,242.47-152.58,380.24
					C1315.12,1555.7,1397,1788.47,1567.69,1956.19L1567.69,1956.19z"/>
			</g>
			<g>
				<path class="st2" d="M2115.24,2220.59c-28.88,0-57.87-1.49-86.63-4.48c-16.26-1.78-30.55-3.66-43.81-5.78
					c-28.92-4.54-58.15-10.74-86.84-18.42c-135.61-36.4-260.06-107.48-359.9-205.57l0,0c-180.1-176.95-266.46-422.49-236.94-673.65
					c17.03-145.21,72.62-283.77,160.77-400.71c16.62-22.18,35.02-44.22,54.63-65.45c12.64-13.66,26.07-27.22,39.94-40.3
					c43.17-40.77,90.83-77.08,141.64-107.91c51.23-31.15,105.82-56.84,162.24-76.33c24.55-8.47,49.89-15.9,75.33-22.07
					c9.93-2.48,19.71-4.68,28.92-6.5c83.34-17.3,169.36-21.6,255.44-12.73c220.82,22.92,418.12,130.1,555.6,301.78
					c136.42,170.36,197.47,384.02,171.9,601.64c-34.64,295.36-228.02,552-504.68,669.76c-14.56,6.17-29.49,12.03-44.41,17.44
					c-41.71,14.97-84.59,26.65-127.52,34.73c-36.68,6.92-73.84,11.4-110.45,13.32C2145.48,2220.18,2130.38,2220.59,2115.24,2220.59z
					 M1571.44,1952.38c93.99,92.35,211.17,159.27,338.86,193.54c27.05,7.24,54.62,13.09,81.95,17.38c12.54,2,26.06,3.78,41.41,5.46
					c41.21,4.27,83.06,5.31,124.28,3.04c34.55-1.81,69.58-6.04,104.18-12.56c40.47-7.62,80.9-18.63,120.18-32.72
					c14.07-5.1,28.21-10.66,41.96-16.48c260.94-111.07,443.34-353.04,476-631.48c24.07-204.87-33.39-405.99-161.78-566.33
					c-129.45-161.66-315.31-262.59-523.33-284.18c-81.18-8.37-162.31-4.33-241.08,12.03c-8.66,1.71-17.66,3.74-26.99,6.07
					c-24.15,5.86-48.04,12.86-71.17,20.84c-53.21,18.38-104.71,42.61-153.06,72.02c-47.96,29.1-92.93,63.36-133.68,101.84
					c-13.1,12.35-25.76,25.13-37.66,37.99c-18.51,20.03-35.85,40.81-51.54,61.75c-83.11,110.25-135.5,240.83-151.54,377.65
					C1320.63,1554.67,1401.94,1785.82,1571.44,1952.38L1571.44,1952.38z"/>
			</g>
			<g>
				<path class="st2" d="M1717.94,2092.54c545.72,174.21,1094.26-236.21,965.38-785.11c-87.69-373.44-525.14-572.21-882.45-461.4
					c-260.06,80.65-479.73,271.79-468.7,704.8c0,0,34.74,190.58,122.05,297.88c87.31,107.29,190.66,196.81,190.66,196.81
					L1717.94,2092.54z"/>
			</g>
			<g>
				<path class="st23" d="M2683.3,1307.45c128.9,548.88-419.66,959.3-965.35,785.12l-14.8-9.55
					c523.88-64.14,931.61-509.89,811.74-1067.39C2595.89,1093.59,2656.22,1192.21,2683.3,1307.45z"/>
			</g>
			<g>
				<path class="st2" d="M2115.23,2220.59c-28.88,0-57.87-1.49-86.62-4.48c-16.26-1.78-30.55-3.66-43.81-5.78
					c-28.92-4.54-58.15-10.74-86.84-18.42c-135.61-36.4-260.06-107.48-359.9-205.57l0,0c-180.1-176.95-266.46-422.49-236.94-673.65
					c17.03-145.21,72.62-283.77,160.77-400.71l1.47-1.95l1.84-1.61c80.42-70.55,181.92-125.16,301.7-162.3
					c215.62-66.88,465.7-37.34,668.98,78.98c183.14,104.8,308.56,267.09,353.13,456.96c48.49,206.59,17.06,405.86-90.88,576.25
					c-114.69,181.05-309.3,312.47-533.92,360.56l-1.82,0.39l-1.86,0.1C2145.51,2220.17,2130.38,2220.59,2115.23,2220.59z
					 M1571.44,1952.38c93.99,92.35,211.17,159.27,338.86,193.54c27.05,7.25,54.62,13.09,81.95,17.38c12.54,2,26.06,3.78,41.41,5.46
					c40.59,4.21,81.8,5.26,122.42,3.14c211.42-45.75,394.25-169.26,501.84-339.09c100.94-159.34,130.24-346.04,84.75-539.89
					c-41.52-176.87-158.87-328.35-330.43-426.52c-192.02-109.88-427.99-137.85-631.23-74.83
					c-112.43,34.87-207.49,85.67-282.56,151.02c-82.22,109.79-134.08,239.62-150.03,375.64
					C1320.63,1554.67,1401.94,1785.82,1571.44,1952.38L1571.44,1952.38z"/>
			</g>
			<g>
				<path class="st2" d="M1975.52,2148.15c-86.99,0-175.49-13.49-262.19-41.16l-1.91-0.61l-76.47-49.4
					c-1.04-0.9-105.36-91.62-192.5-198.7c-88.75-109.06-123.76-296.79-125.21-304.72l-0.24-2.33
					c-9.58-375.92,151.7-618.05,479.37-719.66c190.27-59,410.97-32.93,590.4,69.73c161.47,92.39,272.03,235.4,311.3,402.69
					c56.98,242.64-13.31,477-192.84,642.99C2363.06,2078.41,2173.25,2148.15,1975.52,2148.15z M1724.45,2078.71
					c272.79,86.38,563.93,27.45,760.2-154.01c171.28-158.36,238.32-382.08,183.91-613.8c-37.34-159-142.76-295.13-296.85-383.3
					c-172.26-98.57-383.99-123.65-566.35-67.09c-312.76,96.99-466.88,328.72-458.07,688.71c3.02,15.67,38.29,191.11,118.69,289.92
					c81.44,100.08,178.31,185.71,188.04,194.23L1724.45,2078.71z"/>
			</g>
			<g>
				<path class="st5" d="M3015.58,1169.38c54.27,147.34,11.66,303.68-95.2,349.18c-106.87,45.51-237.49-37.06-291.75-184.39
					c-0.36-0.92-0.69-1.91-1-2.85c-52.72-146.49-9.92-301.16,96.2-346.34c82.55-35.16,179.28,6.12,244.04,94.62
					C2986.92,1105.68,3003.24,1135.88,3015.58,1169.38z"/>
			</g>
			<g class="st13">
				<path class="st2" d="M3015.58,1169.38c54.27,147.34,11.66,303.68-95.2,349.18c-106.87,45.51-237.49-37.06-291.75-184.39
					c-0.36-0.92-0.69-1.91-1-2.85c17.32,10.12,41.09,17.22,64.01,1.65c40.14-27.29,83.12-155.19,83.12-155.19
					s83.47-43.12,193.12-98.18C2986.92,1105.68,3003.24,1135.88,3015.58,1169.38z"/>
			</g>
			<g>
				<path class="st2" d="M2858.78,1554.96c-26.99,0-54.59-5.93-82.01-17.77c-74.62-32.23-136.76-103.23-170.49-194.81
					c-58.5-158.83-9.94-328.98,108.24-379.31c47.88-20.39,100.76-19.27,152.92,3.26c74.62,32.22,136.76,103.23,170.49,194.81
					c58.5,158.83,9.95,328.98-108.24,379.31C2906.99,1550.13,2883.14,1554.96,2858.78,1554.96z M2785.44,996.27
					c-18.07,0-35.63,3.53-52.26,10.61c-95.2,40.54-132.08,183.66-82.21,319.04c28.81,78.23,82.9,140.87,144.69,167.55
					c39.89,17.23,79.79,18.33,115.4,3.17c95.2-40.54,132.08-183.66,82.21-319.04l0,0c-28.81-78.23-82.9-140.87-144.68-167.55
					C2827.31,1000.87,2806.05,996.27,2785.44,996.27z"/>
			</g>
			<g>
				
					<ellipse transform="matrix(0.9672 -0.2541 0.2541 0.9672 -222.7581 776.3277)" class="st5" cx="2893.68" cy="1250.43" rx="170.86" ry="226.02"/>
				<path class="st2" d="M2918.3,1475.83c-5.77,0-11.62-0.36-17.52-1.08c-97.54-11.94-180.25-122.13-184.37-245.63
					c-2.29-68.85,20.03-129.97,61.25-167.7c30.67-28.06,68.34-40.25,108.94-35.3c97.54,11.94,180.25,122.13,184.37,245.63
					c2.29,68.85-20.03,129.98-61.25,167.7C2983.5,1463.43,2952.18,1475.83,2918.3,1475.83z M2869.11,1030.02
					c-32.66,0-62.83,11.95-88.09,35.07c-40.15,36.74-61.88,96.47-59.63,163.86c4.03,121.15,84.78,229.2,180,240.85
					c39.15,4.78,75.41-6.98,104.96-34.03c40.15-36.74,61.88-96.47,59.64-163.86c-4.03-121.15-84.78-229.2-180-240.85
					C2880.29,1030.36,2874.66,1030.02,2869.11,1030.02z"/>
			</g>
			<g class="st24">
				<path class="st2" d="M2775.44,1396.6c-24.27-35.26-38.78-77.36-43.68-120.15c62.21,75.69,155.37,81.33,214.86,9.89
					c38.46-46.15,53.98-113.89,46.36-180.1c3.96,4.75,7.76,9.87,11.45,15.21c61.75,89.81,60.55,224.22-2.71,300.2
					C2938.48,1497.62,2837.16,1486.35,2775.44,1396.6z"/>
			</g>
			<g>
				<path class="st2" d="M2927.81,1495.38c-20.17,0-40.88-4.44-61.53-13.31c-60.44-25.96-113.46-88.01-141.82-165.96
					c-48.74-133.95-13.92-270.63,79.26-311.17c35.7-15.54,75.45-14.78,114.95,2.19c60.44,25.96,113.46,88.01,141.82,165.96
					c48.74,133.95,13.92,270.63-79.26,311.17C2964.19,1491.67,2946.23,1495.38,2927.81,1495.38z M2857.16,1041.52
					c-12.01,0-23.58,2.36-34.44,7.08c-67.81,29.51-92.32,144.55-53.51,251.23c23.96,65.84,67.27,117.62,115.86,138.49
					c27.12,11.65,53.8,12.44,77.16,2.28c67.81-29.51,92.32-144.55,53.51-251.23c-23.96-65.84-67.27-117.62-115.86-138.49
					C2885.37,1044.64,2870.98,1041.52,2857.16,1041.52z"/>
			</g>
			<g class="st25">
				<path class="st5" d="M2033.43,933.32c0,0-338.77,82.72-467.07,334.39c-0.13,0.26-0.27,0.53-0.4,0.79
					c-26.96,52.99-34.12,156.39-30.53,215.3c4.75,77.91,19.54,130.78,34.37,176.8c45.18,139.93,92.86,196.81,92.86,196.81
					c-104.45-47.49-176.95-116.53-215.76-232.7c-3.79-11.46-7.28-23.43-10.46-35.82c-0.74-2.85-1.42-5.7-2.05-8.58
					c-0.07-0.01-0.06-0.08-0.01-0.18c-4.66-25.58-9.51-59.44-11.75-98.12c-6.84-116.67,9.68-277.19,125.18-387.08
					C1763.77,889.46,2040.38,914.88,2033.43,933.32z"/>
			</g>
			<g class="st25">
				
					<ellipse transform="matrix(0.8331 -0.5531 0.5531 0.8331 -259.0794 1525.2396)" class="st5" cx="2398.18" cy="1191.98" rx="107.92" ry="123.97"/>
			</g>
			<g class="st25">
				
					<ellipse transform="matrix(0.7781 -0.6281 0.6281 0.7781 -307.8584 1889.8226)" class="st5" cx="2521.15" cy="1380.69" rx="44.55" ry="51.21"/>
			</g>
		</g>
	</g>
</g>
</svg>
