<?xml version="1.0" encoding="utf-8"?>
<!-- Generator: Adobe Illustrator 28.0.0, SVG Export Plug-In . SVG Version: 6.00 Build 0)  -->
<svg version="1.1" id="Layer_1" xmlns="http://www.w3.org/2000/svg" xmlns:xlink="http://www.w3.org/1999/xlink" x="0px" y="0px"
	 viewBox="0 0 4000 4000" style="enable-background:new 0 0 4000 4000;" xml:space="preserve">
<style type="text/css">
	.st0{display:none;}
	.st1{display:inline;}
	.st2{fill:#CCEEFF;}
	.st3{fill:#D66B09;}
	.st4{fill:#E25A5A;}
	.st5{opacity:0.35;}
	.st6{fill:#371A45;}
	.st7{fill:#FF1717;}
	.st8{opacity:0.6;}
	.st9{fill:#FFFFFF;}
	.st10{opacity:0.5;}
	.st11{fill:#3BD8E0;}
	.st12{fill:#00D3DD;}
	.st13{opacity:0.3;}
	.st14{fill:#293856;}
	.st15{fill:none;stroke:#293856;stroke-width:30.9179;stroke-linecap:round;stroke-miterlimit:10;}
	.st16{fill:#22A7F0;}
	.st17{fill:#111A28;}
	.st18{fill:#FFCC4D;}
	.st19{fill:#FFBB22;}
</style>
<g>
	<g class="st0">
		<g class="st1">
			<rect transform="matrix(-1 -1.224647e-16 1.224647e-16 -1 4000 4000)" class="st2" width="4000" height="4000"/>
		</g>
	</g>
	<g>
		<g>
			<path class="st3" d="M1889.09,961.38c0.58,1.28,1.03,2.63,1.35,4.03L1889.09,961.38z"/>
		</g>
		<g>
			<path class="st4" d="M1864.29,1393.35l-54.64,67.04c-15.61,19.15-4.63,48.02,19.76,51.97l85.37,13.8
				c24.39,3.94,43.91-20,35.12-43.1l-30.74-80.83C1910.4,1379.13,1879.9,1374.2,1864.29,1393.35z"/>
		</g>
		<g class="st5">
			<path class="st6" d="M1861.79,1392.62l-55.04,66.7c-15.73,19.06-4.92,48,19.45,52.09l85.29,14.32
				c24.37,4.09,44.03-19.73,35.39-42.88l-30.25-81.02C1907.98,1378.67,1877.51,1373.56,1861.79,1392.62z"/>
		</g>
		<g>
			<path class="st6" d="M1920.13,1542.05c-2.58,0-5.18-0.21-7.8-0.63l-85.38-13.8c-16.97-2.74-30.75-13.98-36.87-30.05
				s-3.27-33.62,7.59-46.95l54.64-67.04c10.86-13.33,27.47-19.65,44.45-16.9c16.97,2.74,30.75,13.97,36.87,30.04l30.74,80.83
				c6.11,16.07,3.27,33.62-7.59,46.95C1947.59,1535.79,1934.28,1542.05,1920.13,1542.05z M1876.28,1403.12l-54.64,67.04
				c-5.48,6.72-3.68,13.73-2.65,16.43c1.03,2.7,4.34,9.13,12.9,10.51l85.38,13.8c8.57,1.41,13.73-3.67,15.55-5.91
				c1.83-2.24,5.74-8.32,2.66-16.43l-30.74-80.83c-3.08-8.11-10.05-10.05-12.9-10.51
				C1888.98,1396.74,1881.75,1396.4,1876.28,1403.12z"/>
		</g>
		<g>
			<path class="st7" d="M2389.72,962.44c-51.4,241.8-351.82,491.45-504.63,458.96s-325.7-382.74-274.3-624.55
				c51.4-241.8,267.44-400.76,482.54-355.03C2308.43,487.55,2441.13,720.63,2389.72,962.44z"/>
		</g>
		<g class="st8">
			<path class="st9" d="M2389.72,962.44c-0.16,0.72-0.31,1.44-0.47,2.16c23.96-222.64-104.72-426.85-304.56-469.32
				c-212.98-45.26-426.9,110.12-480.95,347.94c1.54-15.8,3.84-31.29,7.06-46.35c51.41-241.81,267.44-400.77,482.53-355.05
				C2308.42,487.54,2441.13,720.63,2389.72,962.44z"/>
		</g>
		<g class="st5">
			<path class="st6" d="M2389.72,917.44c-51.41,241.81-351.81,491.42-504.61,458.98c-152.83-32.49-325.71-382.78-274.31-624.55
				c0.48-2.23,0.95-4.43,1.46-6.61c3.79,193.85,164.13,433.75,300.08,462.65c152.79,32.48,442.37-166.11,485.01-366.74
				c1.27-5.9,2.34-11.84,3.29-17.71C2400.03,854.35,2396.43,885.84,2389.72,917.44z"/>
		</g>
		<g>
			<path class="st6" d="M1913.04,1439.62c-10.95,0-21.36-1.02-31.17-3.1c-77.46-16.47-163.51-109.37-224.56-242.45
				c-62.8-136.89-85.84-286.58-61.64-400.43c25.65-120.65,91.65-225.27,185.84-294.57c94.75-69.71,206.62-95.39,315.03-72.36
				c108.41,23.04,200.16,92.03,258.35,194.25c57.86,101.63,75.6,224.04,49.95,344.7l-15.12-3.22l15.12,3.22
				c-24.2,113.85-106.14,241.22-219.2,340.73C2089.65,1390.88,1988.68,1439.62,1913.04,1439.62z M2018.57,449.4
				c-76.35,0-152.05,25.5-218.73,74.56c-88.09,64.81-149.85,162.86-173.92,276.1c-22.87,107.57-0.62,250.04,59.5,381.11
				c56.19,122.49,135.83,210.85,202.89,225.1c67.06,14.28,175.76-34.07,276.91-123.11c108.24-95.27,186.51-216.37,209.38-323.95l0,0
				c24.07-113.23,7.53-227.94-46.57-322.97c-53.77-94.44-138.26-158.12-237.92-179.3C2066.38,451.9,2042.44,449.4,2018.57,449.4z"/>
		</g>
		<g class="st10">
			<path class="st9" d="M2034.93,576.81c97.71,8.75,160.15,48.87,202.47,115.42c44.9,70.6,20.91,128.31-33.39,119.53
				c-54.3-8.78-62.44-96.31-183.72-155.21C1941.9,618.49,1957.8,569.9,2034.93,576.81z"/>
		</g>
		<g>
			<path class="st3" d="M1332.42,968.95c1.13,0.84,2.17,1.81,3.12,2.88L1332.42,968.95z"/>
		</g>
		<g>
			<path class="st11" d="M1518.47,1359.6l-15.65,85.05c-4.47,24.3,19.04,44.33,42.32,36.05l81.48-28.97
				c23.28-8.28,28.87-38.65,10.06-54.68l-65.83-56.08C1552.04,1324.95,1522.94,1335.29,1518.47,1359.6z"/>
		</g>
		<g class="st5">
			<path class="st6" d="M1515.92,1360.16l-16.17,84.96c-4.62,24.27,18.77,44.45,42.1,36.31l81.66-28.47
				c23.33-8.14,29.11-38.48,10.4-54.62l-65.49-56.48C1549.7,1325.71,1520.54,1335.88,1515.92,1360.16z"/>
		</g>
		<g>
			<path class="st6" d="M1534.21,1498.08c-11.06,0-21.86-3.91-30.67-11.42c-13.09-11.15-19.04-27.9-15.93-44.81l15.65-85.05
				c3.11-16.91,14.64-30.44,30.84-36.2c16.2-5.77,33.69-2.55,46.77,8.61l65.83,56.08c13.09,11.15,19.05,27.9,15.93,44.81
				c-3.11,16.91-14.64,30.44-30.84,36.2l-81.48,28.97C1545.02,1497.15,1539.58,1498.08,1534.21,1498.08z M1550.23,1348.73
				c-2.5,0-4.56,0.56-5.77,0.99c-2.72,0.97-9.22,4.14-10.79,12.67l-15.65,85.05c-1.57,8.53,3.38,13.8,5.58,15.68
				c2.2,1.87,8.2,5.91,16.36,3.01l81.48-28.97c8.17-2.91,10.27-9.83,10.79-12.67c0.52-2.84,1.03-10.06-5.57-15.68l-65.83-56.08
				C1557.16,1349.62,1553.36,1348.73,1550.23,1348.73z M1518.47,1359.6h0.05H1518.47z"/>
		</g>
		<g>
			<path class="st12" d="M1771.84,729.07c71.25,236.72-72.05,600.09-221.65,645.11c-149.59,45.02-469.65-178.89-540.9-415.6
				s41.7-479.99,252.27-543.37C1472.14,351.83,1700.59,492.35,1771.84,729.07z"/>
		</g>
		<g class="st8">
			<path class="st9" d="M1771.84,729.07c0.21,0.7,0.42,1.41,0.63,2.11c-86.09-206.72-297.13-323.85-492.77-264.96
				c-208.49,62.76-321.3,301.89-254.29,536.39c-6.25-14.59-11.68-29.28-16.1-44.03c-71.24-236.73,41.69-480,252.26-543.38
				C1472.13,351.83,1700.59,492.34,1771.84,729.07z"/>
		</g>
		<g class="st5">
			<path class="st6" d="M1771.84,689.07c71.24,236.73-72.06,600.06-221.62,645.12c-149.62,45.03-469.68-178.91-540.91-415.61
				c-0.65-2.19-1.3-4.34-1.9-6.5c96.57,168.13,352.54,301.32,485.63,261.27c149.58-45.02,307.93-358.41,248.81-554.82
				c-1.73-5.78-3.64-11.5-5.63-17.11C1750.53,628.8,1762.52,658.13,1771.84,689.07z"/>
		</g>
		<g>
			<path class="st6" d="M1508.1,1395.29c-73.83,0-171.24-39.76-266.95-110.85c-120.9-89.81-213.11-209.96-246.65-321.41
				c-73.59-244.5,44.22-496.89,262.62-562.63c106.13-31.94,219.76-15.59,319.94,46.03c99.6,61.26,174.04,160.07,209.59,278.18l0,0
				c33.54,111.45,22.98,262.54-28.27,404.16c-49.82,137.68-127.88,237.39-203.72,260.21
				C1540.56,1393.22,1524.94,1395.29,1508.1,1395.29z M1365.16,415.39c-33.37,0-66.65,4.84-99.14,14.62
				c-202.07,60.82-310.6,295.94-241.92,524.11c31.7,105.31,119.73,219.52,235.48,305.5c108.19,80.36,220.5,119.51,286.16,99.76
				c65.65-19.76,137.7-114.41,183.56-241.13c49.07-135.59,59.44-279.41,27.74-384.72c-33.36-110.85-103.04-203.46-196.19-260.75
				C1499.11,434.8,1431.97,415.39,1365.16,415.39z"/>
		</g>
		<g class="st10">
			<path class="st9" d="M1277,526.19c87.7-38.38,159.96-33.36,227.4,3.71c71.55,39.33,78.12,99.96,27.54,117.94
				c-50.58,17.98-98.63-53.09-230.04-46.55C1216.98,605.52,1207.77,556.49,1277,526.19z"/>
		</g>
		<g>
			<path class="st6" d="M1713.71,2013.36c-6.44,0-11.91-4.94-12.44-11.47l-49.09-596.86c-0.57-6.88,4.55-12.92,11.43-13.48
				c6.85-0.54,12.92,4.55,13.48,11.43l49.09,596.86c0.57,6.88-4.55,12.92-11.43,13.48
				C1714.4,2013.34,1714.05,2013.36,1713.71,2013.36z"/>
		</g>
		<g>
			<path class="st9" d="M2235.66,2558.31c0,0,303.1,78.98,313.91,197.89c9.43,103.69-104.23,453.29-170.98,491.7
				c-48.69,28.01-195.49-23.36-195.49-23.36L2235.66,2558.31z"/>
		</g>
		<g class="st5">
			<path class="st6" d="M2550.08,2775.61c-3.49,122.05-108.44,436.01-171.48,472.27c-48.7,28.02-195.48-23.35-195.48-23.35
				l23.31-135.98c0,0,146.78,51.38,195.48,23.35C2447.44,3085.71,2514.82,2914.6,2550.08,2775.61z"/>
		</g>
		<g>
			<path class="st6" d="M2318.06,3267.75c-71.1,0-141.12-34.66-145.31-36.77c-7.4-3.73-10.37-12.73-6.65-20.13
				c3.72-7.4,12.74-10.39,20.13-6.67c1.32,0.66,132.64,65.54,203.45,13.23c58.34-43.1,150.83-359.12,144.92-460.33
				c-3.91-67.04-130.15-123.13-178.46-139.09c-7.86-2.6-12.14-11.08-9.54-18.94c2.6-7.87,11.08-12.14,18.94-9.55
				c7.88,2.6,193.12,64.79,199.02,165.83c6.17,105.68-84.47,432.59-157.05,486.21C2381.23,3260.95,2349.53,3267.75,2318.06,3267.75z
				"/>
		</g>
		<g>
			<path class="st9" d="M1886.74,2596.89c0,0,13.23,107.25-33.26,33.7c-42.43-67.18-95.25-179.19-141.86-361.82
				c-0.39-1.48-0.79-3.01-1.18-4.5c0,0-21-1.83-46.75-14.71c-60.72-30.34-47.71-148.59-35.97-188.79
				c13.79-47.36,46.4-34.57,46.4-34.57c11.44-18.73,34-28.68,72.02-28.11c71.37,1.05,85.9,58.75,85.9,58.75
				c65.43,196.91,145.14,318.26,192.59,378.71c25.1,32.08,41.16,47.01,41.16,47.01L1886.74,2596.89z"/>
		</g>
		<g class="st5">
			<path class="st6" d="M1886.74,2596.89c0,0,13.23,107.25-33.26,33.7c-42.43-67.18-95.25-179.19-141.86-361.82
				c15.63-3.8,38.63-10.96,50.77-21.78c30.38-27.15,35.88-89.7,35.88-89.7c12.57,60.33,0,95.64-14.67,115.54
				c-15.8,21.39-20.65,49.02-11.44,73.99c13.4,36.27,30.29,75.73,57.05,101.23c61.46,58.54,147.15,32.3,195.42-12.48
				c25.1,32.08,41.16,47.01,41.16,47.01L1886.74,2596.89z"/>
		</g>
		<g class="st5">
			<path class="st6" d="M1689.23,2259.7c0,0,55.42,20.25,92.33-63.53c0,0-21.31,10.63-73.86,7.94
				c-52.18-2.68-87.58-52.35-87.58-52.35S1616.5,2242.06,1689.23,2259.7z"/>
		</g>
		<g>
			<path class="st6" d="M2058.2,2484.18c-3.61,0-7.24-1.26-10.17-3.83c-5.27-4.62-130.31-116.7-230.65-418.62l-0.32-1.09
				c-0.48-1.78-13.1-46.23-71.16-47.09c-26.99-0.41-45.46,4.97-55.11,15.97c-10.29,11.72-13.12,32.33-8.65,63
				c3.73,25.61,18.37,40.2,29.78,39.23c13.56-1.27,27.17-25.96,25-77.15c-0.36-8.53,6.26-15.74,14.79-16.1
				c8.47-0.4,15.73,6.26,16.1,14.79c3.24,76.57-25.26,106.64-53.01,109.24c-30.23,2.83-57.4-25.35-63.26-65.55
				c-5.94-40.74-0.85-68.66,16.02-87.86c16.13-18.37,41.92-27.11,78.81-26.48c65.29,0.97,94.17,45.76,100.52,69.85
				c97.33,292.58,220.31,403.55,221.55,404.64c6.39,5.64,7.02,15.41,1.38,21.81C2066.76,2482.41,2062.49,2484.18,2058.2,2484.18z"/>
		</g>
		<g>
			<path class="st6" d="M1934.01,2739.42c-2.62,0-5.27-0.67-7.71-2.09c-5.32-3.09-130.3-79.48-228.33-459.47
				c-9.63-2.02-24.58-6.17-41.2-14.47c-68.08-34.04-58.66-156.36-43.92-206.93c6.16-21.14,16.64-35.47,31.15-42.6
				c17.68-8.69,33.97-2.74,35.77-2.04c7.95,3.12,11.87,12.09,8.75,20.03c-3.08,7.86-11.88,11.77-19.77,8.85
				c-0.56-0.18-5.94-1.79-11.44,1.07c-6.15,3.2-11.26,11.27-14.78,23.34c-11.73,40.22-20.31,146.44,28.06,170.62
				c22.48,11.24,41.02,13.12,41.2,13.13l10.94,0.96l2.7,10.65c94.41,372.76,215.3,449.46,216.51,450.19
				c7.26,4.39,9.69,13.85,5.36,21.15C1944.42,2736.69,1939.29,2739.42,1934.01,2739.42z"/>
		</g>
		<g>
			<path class="st6" d="M1721.21,2279.98c-4.07,0-8.29-0.27-12.64-0.83c-8.22-1.04-14.04-8.55-12.99-16.77s8.56-13.99,16.77-13
				c15.75,2.01,27.59-1.11,36.18-9.51c17.1-16.7,23.47-55.53,17.93-109.34c-4.34-42.25-18.76-48.97-18.91-49.03
				c0.7,0.3,1.12,0.33,1.12,0.33l7.04-29.16c5.63,1.36,34.07,11.36,40.59,74.79c6.68,64.93-2.34,109.97-26.81,133.87
				C1756.8,2273.73,1740.6,2279.98,1721.21,2279.98z"/>
		</g>
		<g>
			<path class="st9" d="M2353.65,2912.73c-7.29,15.13-12.82,30.76-17.44,46.76c-14.54,49.93-20.3,103.12-43.13,153.59
				c-5.66,12.5-12.55,23.33-19.66,32.44c-2.22,2.85-4.44,5.53-6.66,8.06c-16.81,19.07-32.58,28.59-32.58,28.59
				c-0.09,4.98-0.45,11.33-0.68,18.89c-1,31.08-0.63,83.14,21.79,148.06c1.63,4.8,3.35,9.65,5.3,14.54
				c15.04,39.01,5.94,165.28-10.51,194.09c-47.25,83.09-165.68,70.45-199.39,13.73c-30.49-51.47-17.71-151.32-11.96-186.43
				c1.31-8.02,2.27-12.64,2.27-12.64c-31.26-65.42-58.13-153.27-58.13-219.1c0,0-8.43,1.4-19.84,1.54l0.05,2.17
				c-4.49,40.73,3.08,110.27,17.9,173.84c1.63,7.02,3.35,14,5.16,20.84c8.74,32.98-7.48,137.28-51.06,189.11
				c-50.52,60.17-161.2,39.14-183.4-5.75c-26.73-53.91,8.2-144.44,21.57-175.29c2.99-6.84,4.89-10.69,4.89-10.69
				c-55.73-131.89-58.99-244.7-49.11-358.69c15.59-178.69,86.67-319.36,159.7-416.23c4.58-6.07,9.38-12.01,14.27-17.85
				c6.21-7.38,12.64-14.59,18.94-21.48c11.19-12.14,22.11-23.38,31.4-33.25l12.73,10.78l20.7,4.8l343.51,80.01l2.99,40.32
				l1.31,18.08l2.85,38.83l7.25,97.54l4.3,58.35l3.58,47.93L2353.65,2912.73z"/>
		</g>
		<g class="st5">
			<path class="st6" d="M1935.06,3540.83c-50.5,60.15-161.2,39.15-183.42-5.76c-26.71-53.91,8.21-144.44,21.61-175.3
				c1.66,0.83,2.53,1.09,2.53,1.09s-50.55,93.5,4.5,143.61c43.39,39.55,113.4,27.02,142.13-25.49
				c35.01-64.08,39.55-179.19,39.55-179.19l18.99,31.08c1.66,7.03,3.36,14.01,5.19,20.86
				C1994.86,3384.7,1978.62,3488.98,1935.06,3540.83z"/>
		</g>
		<g class="st13">
			<path class="st14" d="M2124.55,3405.43l-2.62-0.61C2123.15,3405.04,2124.07,3405.25,2124.55,3405.43z"/>
		</g>
		<g class="st13">
			<path class="st14" d="M2125.07,3405.56l-0.52-0.13C2124.9,3405.52,2125.07,3405.56,2125.07,3405.56z"/>
		</g>
		<g class="st5">
			<path class="st6" d="M2250.09,3557.77c-47.27,83.11-165.7,70.45-199.4,13.75c-30.51-51.51-17.72-151.34-11.96-186.48l82.98,19.73
				c-11.44-2.18-48.41-4.36-50.68,57.66c-1.53,40.73,5.02,86.08,59.45,93.28c133.75,17.59,123.71-117.64,117.68-194.33
				c-1.18-15.32,1.7-17.94,7.12-12.27c1.61,4.8,3.36,9.65,5.28,14.58C2275.62,3402.68,2266.5,3528.96,2250.09,3557.77z"/>
		</g>
		<g class="st5">
			<path class="st6" d="M2016.98,3335.34c0,0,30.58,62.64,110.44,75.39c7.76,1.24,11.29-9.32,4.36-13.03
				c-31.06-16.61-76.4-58.6-88.78-115.92c-10.61-49.14-6.16-97.14-0.16-129.97c4.04-22.11-12.2-42.7-34.65-43.72
				c-40.35-1.83-98.88-6.46-137.35-18.15c-25.82-7.84-52.49-18.58-75.23-38.24c-9.24-7.99-23.55-2.01-24.3,10.18
				c-0.74,11.9,0.23,24.13,5.91,30.29c21.62,23.42,123.01,52.62,205.78,69.86c0,0,1.64,37.65,13.68,87.78
				C2010.32,3306.53,2016.98,3335.34,2016.98,3335.34z"/>
		</g>
		<g class="st5">
			<path class="st6" d="M1963.04,3157.06c0,0-119.72-18.88-177.77-74.93c0,0,5.72,71.74,109.1,128.1
				c46.21,25.19,66.96,56.92,80.91,100.59C1975.27,3310.82,1955.59,3212.4,1963.04,3157.06z"/>
		</g>
		<g>
			<path class="st6" d="M1846.58,3592.99c-6.58,0-13.26-0.4-20.01-1.21c-41.72-5.01-75.59-24.18-88.38-50.04
				c-31.34-63.31,11.44-166.39,23.54-193.01c-57.21-138.72-56.76-254.79-47.64-359.63c12.77-146.74,51.8-264.27,122.84-369.87
				c4.62-6.87,13.95-8.7,20.82-4.07c6.88,4.62,8.7,13.95,4.07,20.82c-68.09,101.21-105.53,214.24-117.85,355.72
				c-8.92,102.54-9.29,216.1,47.97,351.54l2.66,6.3l-3.02,6.15c-15.5,31.62-50.49,124.31-26.52,172.74
				c7.98,16.12,34.74,29.93,65.08,33.57c38.43,4.6,73.35-6.91,93.43-30.82c41.54-49.46,55.18-148.76,48.07-175.61
				c-18.92-71.46-28.6-153.76-23.54-200.13c0.9-8.23,8.33-14.16,16.54-13.29c8.23,0.9,14.18,8.3,13.29,16.54
				c-4.63,42.42,4.93,121.99,22.72,189.2c9.52,35.96-6.77,146.23-54.1,202.58C1923.65,3577.75,1887.22,3592.99,1846.58,3592.99z"/>
		</g>
		<g>
			<path class="st6" d="M1908.99,2552.78c-3.19,8.24-6.99,15.96-10.85,23.58c-3.94,7.56-8.01,14.97-12.24,22.2
				c-4.23,7.22-8.39,14.45-13.12,21.14c-4.71,6.71-9.62,13.16-15.46,18.85l-0.19,0.19c-6.02,5.87-15.66,5.76-21.53-0.26
				c-4.53-4.64-5.48-11.46-2.93-17.02c3.71-8.04,8.78-15.02,14.24-21.59c5.45-6.59,11.67-12.47,17.93-18.27
				c6.27-5.8,12.81-11.32,19.54-16.63c6.82-5.25,13.76-10.36,21.32-14.93c1.07-0.65,2.46-0.31,3.11,0.76
				C1909.19,2551.41,1909.22,2552.15,1908.99,2552.78z"/>
		</g>
		<g>
			<path class="st9" d="M2339.03,2564.15"/>
		</g>
		<g>
			<path class="st15" d="M2339.03,2564.15"/>
		</g>
		<g>
			<path class="st9" d="M1911.48,3344.61"/>
		</g>
		<g>
			<path class="st9" d="M2322.24,2888.3l-11.57,32.17l0.87-14.75C2314.43,2899.78,2317.92,2893.93,2322.24,2888.3z"/>
		</g>
		<g>
			<path class="st6" d="M2144.8,3632.06c-45.97,0-87.85-20.67-106.99-52.91c-36.19-60.95-17.27-178.67-12.49-204.72
				c-35.09-74.72-55.15-151.88-55.15-212.4c0-8.29,6.72-15,15-15s15,6.71,15,15c0,57.4,19.8,131.73,54.34,203.94l2.17,4.54l-1,4.93
				c-0.27,1.3-26.14,131.02,7.93,188.4c13.76,23.18,46.71,38.33,82.32,38.22c39.41-0.36,72.63-19.21,91.13-51.72
				c14.16-24.86,22.93-146.52,9.52-181.25c-31.55-81.72-28.99-146.64-27.75-177.84c0.14-3.52,0.26-6.64,0.32-9.34l0.17-8.26
				l7.07-4.27c0.31-0.19,34.51-21.49,53.02-62.46c14.55-32.19,20.51-71.35,26.28-109.21c7.08-46.52,13.77-90.45,35.39-123.35
				c4.55-6.92,13.85-8.85,20.77-4.3c6.92,4.55,8.85,13.85,4.3,20.78c-18.02,27.42-24.23,68.21-30.8,111.4
				c-6.07,39.87-12.35,81.1-28.6,117.05c-17.17,38-44.93,61.55-57.86,71.02c-0.03,0.7-0.05,1.41-0.08,2.14
				c-1.24,31.43-3.55,89.92,25.77,165.85c16.86,43.67,6.82,174.82-11.44,206.9c-23.93,42.04-66.55,66.41-116.93,66.88
				C2145.74,3632.06,2145.27,3632.06,2144.8,3632.06z"/>
		</g>
		<g>
			<path class="st9" d="M2174.12,3388.5"/>
		</g>
		<g>
			<path class="st6" d="M1984.93,3169.73c-8.96-1.31-17.86-3-26.72-4.86c-8.82-2.07-17.61-4.31-26.33-6.79
				c-17.41-5.15-34.55-11.24-51.31-18.35c-16.79-6.99-33.24-14.88-49.03-24.01c-7.85-4.63-15.64-9.38-23.02-14.76
				c-7.41-5.35-14.65-10.8-21.16-17.47c-0.69-0.71-0.68-1.84,0.03-2.53c0.59-0.57,1.46-0.66,2.14-0.27l0.13,0.08
				c15.22,8.74,31.79,15.36,48.23,21.49c16.48,6.16,33.29,11.39,50.17,16.22c16.83,4.99,33.98,8.92,50.93,13.43
				c8.53,2.08,17.08,4.14,25.55,6.48c8.56,2.05,17.08,4.27,25.53,6.88l0.35,0.11c6.61,2.04,10.31,9.05,8.27,15.66
				C1996.85,3167.01,1990.93,3170.61,1984.93,3169.73z"/>
		</g>
		<g>
			<path class="st6" d="M1683.94,2657.3c-30.43,0-90.83-12.06-118.07-101.97c-21.59-71.28,25.35-133.41,66.76-188.21
				c27.88-36.89,54.21-71.74,54.21-102.21c0-6.9,5.6-12.5,12.5-12.5s12.5,5.6,12.5,12.5c0,38.85-28.78,76.94-59.26,117.28
				c-39.67,52.5-80.68,106.78-62.78,165.9c30.06,99.24,103.61,83.96,106.74,83.25c6.72-1.48,13.41,2.69,14.95,9.39
				c1.54,6.7-2.59,13.38-9.28,14.96C1701.94,2655.75,1694.87,2657.3,1683.94,2657.3z"/>
		</g>
		<g>
			<path class="st9" d="M1797.51,2954.98c16.45,8.65,35.02,18.03,55.18,27.64c-12.41-4.85-23.79-9.47-33.89-13.68
				C1810.74,2965.53,1803.54,2960.78,1797.51,2954.98z"/>
		</g>
		<g>
			<path class="st6" d="M2130.12,3407.36c-10.74,1.99-21.63,1.62-32.47-0.07c-10.81-1.76-21.56-5.03-31.66-9.97
				c-10.07-4.9-19.93-10.99-28.03-19.01c-8.4-7.72-15.13-17.09-20.16-27.15c-3.09-6.17-0.58-13.67,5.59-16.76
				c4.99-2.5,10.86-1.34,14.55,2.46l1.16,1.21c3.31,3.42,5.9,7.28,8.93,10.75c1.54,1.71,3.04,3.45,4.47,5.25
				c1.37,1.86,3.16,3.31,4.64,5.07c6.17,6.78,12.92,13.12,20.41,18.84c7.45,5.77,15.67,10.83,24.5,15.09
				c8.78,4.37,18.25,7.98,28.06,10.72l0.17,0.05c0.96,0.27,1.52,1.27,1.26,2.23C2131.34,3406.75,2130.77,3407.23,2130.12,3407.36z"
				/>
		</g>
		<g>
			<path class="st6" d="M1856.27,3390.27c-10.65,0.37-21.09-1.48-31.33-4.51c-10.21-3.1-20.15-7.61-29.34-13.54
				c-9.19-5.88-17.99-12.91-24.99-21.56c-7.3-8.4-12.81-18.25-16.57-28.59c-2.36-6.5,0.99-13.69,7.49-16.05
				c5.41-1.96,11.29,0.03,14.47,4.5l0.67,0.95c5.33,7.49,9.61,15.27,15.16,22.32c5.24,7.23,11.01,14.21,17.6,20.65
				c13.06,12.98,29.27,23.87,47.37,32.3l0.16,0.07c0.91,0.42,1.3,1.5,0.88,2.41C1857.55,3389.86,1856.93,3390.25,1856.27,3390.27z"
				/>
		</g>
		<g>
			<path class="st6" d="M1775.95,2014.91c-0.81,0-1.63-0.08-2.45-0.24c-6.77-1.35-11.17-7.92-9.82-14.7l122.6-617
				c1.35-6.77,7.93-11.17,14.7-9.82c6.77,1.35,11.17,7.92,9.82,14.7l-122.6,617C1787.02,2010.79,1781.79,2014.91,1775.95,2014.91z"
				/>
		</g>
		<g>
			<path class="st6" d="M1684.63,2026.53c-5.32,0-10.26-3.43-11.93-8.77l-190.72-610.02c-2.06-6.59,1.61-13.6,8.2-15.66
				c6.59-2.06,13.6,1.61,15.66,8.2l190.72,610.02c2.06,6.59-1.61,13.6-8.2,15.66C1687.12,2026.34,1685.87,2026.53,1684.63,2026.53z"
				/>
		</g>
		<g>
			<path class="st9" d="M2483.9,3333.53c-27.91,8.06-148.65,32.44-145.34-81.14c0.68-23.97,8.47-62.61,7.93-62.66
				c-0.54-0.05-64.11,32.76-82.09-1.81c-6.52-12.55-4.53-24.1,2.36-34.34c1.86-2.76,4.12-5.48,6.66-8.06
				c21.88-22.29,65.6-36.74,84.18-39.14c0,0-0.14-1.54-0.41-4.39c-1.63-17.53-8.43-84.5-20.98-142.49
				c-6.8-31.31-15.27-60.03-25.51-76.93l8.88-62.43l4.12-29.18l13.73-96.55l6.93-48.61c1.59,0,107.92,0.45,148.83,122.51
				c0.09,0.23,0.14,0.45,0.23,0.68c24.47,73.71,29.31,209.81,17.62,394.89C2507.73,3216.19,2542.89,3316.41,2483.9,3333.53z"/>
		</g>
		<g class="st5">
			<path class="st6" d="M2373.31,3120.51c-4.94,3.49-10.51-5.03-16.13-18.53c-1.63-17.53-8.43-84.5-20.98-142.49
				c-14.54,49.93-20.3,103.12-43.13,153.59c-5.66,12.5-12.55,23.33-19.66,32.44c-2.22,2.85-4.44,5.53-6.66,8.06
				c-16.81,19.07-32.58,28.59-32.58,28.59c-0.09,4.98-0.45,11.33-0.68,18.89l-17.26-1.99c0,0-1.41-33.05,2.98-71.69
				c2.3-20.26-11.47-38.66-31.55-42.22c-33.77-5.99-75.97-18.74-126.16-43.66c0,0-25.42-63.38,27.14-81.69
				c0,0,90.88,58.49,172.48,46.44c15.22-34.66,28.36-81.6,20.8-152c-5.53-51.33,11.24-52.28,29.4-40.46
				c2.99,1.99,5.75,4.08,8.25,6.34c17.49,15.54,23.79,37.69,29.86,65.06c0.86,3.94,1.95,8.29,3.13,13.05
				c9.65,38.42,28.63,101.71,36.88,171.76C2396.87,3133.19,2373.31,3120.51,2373.31,3120.51z"/>
		</g>
		<g>
			<path class="st6" d="M2315.08,2879.92c3.36,3.79,6.94,7.82,9.78,12.1c2.72,4.26,5.41,8.68,7.8,13.14
				c2.24,4.48,4.26,9.06,6.41,13.63c1.88,4.6,3.59,9.24,5.27,13.92c1.75,4.68,3.05,9.37,4.44,14.1c1.42,4.72,2.67,9.47,3.76,14.22
				l3.41,14.26l2.88,14.32c3.62,19.12,6.38,38.32,8.5,57.56c2.1,19.28,4.13,38.37,5.75,57.88l1.24,14.95l-14.74,1.8
				c-5.14,0.63-11.26,2.11-17.1,3.88c-5.9,1.77-11.79,3.84-17.54,6.17c-11.47,4.66-22.57,10.34-31.85,17.13
				c-9.34,6.64-16.24,15.19-17.06,21.49c-0.4,3.14,0.05,6.24,1.94,10.06c1.66,3.16,3.36,4.67,6.43,6.08c3.15,1.29,7.8,1.9,13,1.63
				c5.22-0.3,10.87-1.31,16.57-2.84c5.7-1.52,11.47-3.51,17.14-5.82l4.24-1.79l4.55-2.05c-0.9,0.45,1.41-0.96,5.48-1.4
				c0.99-7.76,26.93,24.22,16.59,15.97c-0.07,1.65-0.13,1.65-0.17,2.14l-0.23,1.69l-0.42,2.67l-0.83,5
				c-2.18,13.08-4.21,26.03-5.47,38.68c-0.65,6.37-0.98,12.31-0.82,18.28c0.02,5.98,0.6,11.8,1.58,17.39
				c1.89,11.25,6.32,21.07,12.84,28.76c6.63,7.61,15.7,13.19,26.45,16.46c21.54,6.65,47.38,5.34,71.67,0.47
				c3.03-0.64,6.08-1.31,9.02-2.08c1.45-0.37,3-0.78,4.25-1.18l3.26-1.14c4.12-1.74,7.36-4.08,10.04-7.29
				c5.41-6.35,8.35-17.13,9.29-28.88c1.04-11.78,0.38-24.51-0.7-37.37c-1.14-12.92-2.8-26.08-4.24-39.61
				c-1.37-13.5-2.77-27.59-1.84-42.63l2.27-39.88c1.35-26.59,2.46-53.17,3.05-79.74c0.6-26.57,0.88-53.13,0.37-79.61
				c-0.46-26.48-1.42-52.93-3.61-79.15c-4.59-52.18-11.57-105.13-36.26-147.88c-3.43-5.07-6.62-10.32-10.17-15.28
				c-4-4.57-7.63-9.5-12.01-13.68c-4.55-3.98-8.62-8.49-13.64-11.84l-7.13-5.48c-2.56-1.56-5.03-3.26-7.54-4.9l-3.72-2.52
				l-3.91-2.23c-2.64-1.42-5.15-3.12-7.8-4.56c-2.68-1.38-5.42-2.67-8.08-4.17c-2.7-1.41-5.51-2.59-8.26-3.99
				c-11.04-5.27-22.81-10.48-34.86-15.8l-0.56-0.25c-2.72-1.2-3.95-4.39-2.75-7.11c0.64-1.45,1.87-2.49,3.27-2.95
				c7.5-2.43,14.6-3.09,21.97-3.23c7.31-0.09,14.61,0.7,21.76,2.21c14.35,2.91,28.05,8.89,40.62,16.56
				c3.09,2.02,6.23,3.97,9.26,6.07l8.53,7.05c5.85,4.52,10.58,10.22,15.77,15.39c2.68,2.52,4.72,5.58,7.04,8.39l6.86,8.52
				c4.15,5.95,8.02,12.08,12.01,18.14c3.45,6.32,6.63,12.78,9.92,19.17c3.01,6.5,5.31,13.25,7.96,19.88l1.92,4.99l1.55,5.07
				l3.04,10.16c1.65,6.78,3.47,13.57,4.85,20.36c5.68,27.16,8.92,54.31,11.17,81.41c2.26,27.1,3.24,54.14,3.7,81.13
				c0.52,27,0.23,53.94-0.38,80.85c-0.6,26.91-1.72,53.78-3.09,80.61l-2.29,40.23c-0.76,11.7,0.38,24.36,1.73,37.43
				c1.39,13.06,3.08,26.45,4.3,40.17c1.14,13.76,1.97,27.86,0.7,42.75c-0.66,7.44-1.83,15.09-4.22,22.92
				c-2.42,7.78-6.15,15.87-12.05,22.98c-5.84,7.13-13.8,12.78-22.04,16.15l-6.2,2.18c-1.94,0.6-3.63,1.05-5.41,1.5
				c-3.53,0.92-7.02,1.69-10.52,2.43c-14,2.87-28.22,4.52-42.78,4.71c-14.54,0.06-29.51-1.26-44.39-5.97
				c-14.79-4.47-29.63-13.06-40.55-25.71c-10.87-12.65-17.33-28.34-19.88-43.41c-1.34-7.57-2.04-15.12-2.08-22.5
				c-0.19-7.4,0.25-14.84,0.96-21.77c1.39-13.97,3.53-27.45,5.74-40.75l0.81-4.9l0.36-2.28l0.11-0.8l-0.05,0.89
				c-10.35-8.37,15.68,23.11,16.41,15.56c3.87-0.37,5.99-1.7,4.9-1.16l-4.6,2.07l-5,2.11c-6.72,2.72-13.61,5.13-20.83,7.05
				c-7.22,1.92-14.78,3.37-22.92,3.84c-8.12,0.37-17.1-0.19-26.41-3.93c-4.62-1.93-9.16-4.77-13.05-8.37
				c-3.96-3.58-6.9-8.02-9.17-12.35c-4.19-8.07-6.5-18.67-4.87-28.79c1.61-10.13,6.46-18.54,11.74-25.17
				c5.36-6.7,11.39-11.85,17.52-16.4c12.34-9,25.31-15.47,38.58-20.9c6.65-2.69,13.38-5.07,20.29-7.14
				c6.98-2.04,13.85-3.88,21.96-5.1l-13.49,16.75c-1.85-18.64-4.2-37.62-7.02-56.32l-8.79-56.04l-4.59-27.83l-4.84-27.63
				c-3.13-18.46-6.06-36.6-10.6-54.63l-0.15-0.6c-0.7-2.8,0.99-5.63,3.79-6.34C2311.86,2877.83,2313.83,2878.51,2315.08,2879.92z"/>
		</g>
		<g class="st5">
			<path class="st6" d="M2483.86,3333.56c-27.85,8.08-148.63,32.43-145.31-81.15c0.31-10.26,1.31-21.52,2.58-31.78
				c22.79,68.18,122.33,72.09,140.77,55.15c24.52-22.52,23.38-73.78,26.52-95.09C2514.01,3229.68,2525.68,3321.43,2483.86,3333.56z"
				/>
		</g>
		<g class="st5">
			<path class="st6" d="M1767.91,2852.83c25.85-49.98,43.9-98.31,56.4-142.55c-9.58,24.75-20.88,50.3-34.35,76.32
				c-15.77,30.53-28.64,63.62-36.82,97.61C1757.68,2873.53,1762.65,2863.04,1767.91,2852.83z"/>
		</g>
		<g>
			
				<ellipse transform="matrix(0.0848 -0.9964 0.9964 0.0848 -1195.7894 4353.1934)" class="st9" cx="1771.85" cy="2827.55" rx="49.01" ry="49.01"/>
		</g>
		<g class="st5">
			<path class="st6" d="M1725.32,2812.21c-8.47,25.71,5.48,53.43,31.19,61.9c25.71,8.47,53.44-5.52,61.91-31.22
				c2.34-7.1,2.98-14.39,2.08-21.37c-12.65,13.26-32.3,18.88-50.87,12.76s-31.02-22.32-33.28-40.49
				C1731.48,2798.86,1727.66,2805.1,1725.32,2812.21z"/>
		</g>
		<g>
			<path class="st6" d="M1771.92,2892.05c-6.79,0-13.61-1.08-20.24-3.27c-16.35-5.39-29.63-16.82-37.38-32.2s-9.06-32.85-3.67-49.2
				c11.12-33.75,47.63-52.18,81.4-41.05c33.76,11.13,52.18,47.64,41.05,81.41c-5.39,16.35-16.83,29.63-32.2,37.38
				C1791.74,2889.72,1781.86,2892.05,1771.92,2892.05z M1771.88,2793.99c-14.09,0-27.25,8.96-31.89,23.06l0,0
				c-2.81,8.51-2.13,17.6,1.91,25.61c4.04,8,10.94,13.95,19.45,16.75c8.51,2.8,17.6,2.13,25.61-1.9c8-4.04,13.95-10.95,16.76-19.46
				c5.79-17.57-3.8-36.57-21.36-42.36C1778.88,2794.54,1775.35,2793.99,1771.88,2793.99z M1725.31,2812.21h0.05H1725.31z"/>
		</g>
		<g>
			<path class="st9" d="M1782.32,2959l240.82,95.55c28.5,11.32,61.1-2.75,72.43-31.28l50.84-128.15
				c9.91-24.98,0.35-53.07-21.34-67.27c-3.06-2.03-6.39-3.75-9.94-5.16l-240.78-95.54c-28.54-11.33-61.13,2.73-72.43,31.28
				l-40.29,101.49l-10.59,26.65C1739.71,2915.11,1753.82,2947.68,1782.32,2959z"/>
		</g>
		<g class="st5">
			<path class="st6" d="M1782.32,2959l240.82,95.55c28.5,11.32,61.1-2.75,72.43-31.28l50.84-128.15
				c9.91-24.98,0.35-53.07-21.34-67.27c-17.28,3.66-28.27,6.02-28.27,6.02c-52.54,98.21-102.18,137.89-230.75,89.29
				c-55.49-20.99-86.96-43.21-104.43-63.24l-10.59,26.65C1739.71,2915.11,1753.82,2947.68,1782.32,2959z"/>
		</g>
		<g>
			<path class="st6" d="M2043.58,3071c-8.48,0-16.97-1.61-25.07-4.82l-240.8-95.55c-35-13.89-52.18-53.66-38.29-88.66l50.86-128.17
				c13.89-35,53.65-52.18,88.66-38.28l240.79,95.54c35,13.89,52.18,53.66,38.29,88.66l-50.86,128.17
				c-6.7,16.9-19.64,30.2-36.43,37.45C2062,3069.11,2052.79,3071,2043.58,3071z M1853.81,2735.7c-17.23,0-33.55,10.36-40.29,27.32
				l-50.86,128.17c-8.8,22.19,2.08,47.4,24.27,56.21l240.8,95.55c10.69,4.23,22.44,4.04,33.1-0.56c10.65-4.6,18.86-13.02,23.1-23.71
				l50.86-128.17c8.8-22.18-2.08-47.39-24.27-56.2l-240.79-95.54C1864.5,2736.68,1859.11,2735.7,1853.81,2735.7z"/>
		</g>
		<g>
			<path class="st9" d="M1773.03,2954.22c2.86,1.89,5.95,3.48,9.29,4.78l240.82,95.55c20.89,8.28,43.96,2.96,59.27-11.75
				c5.57-5.34,10.12-11.92,13.12-19.54l22.61-56.92l7.46-18.78l20.81-52.44c11.33-28.54-2.78-61.11-31.28-72.43l-52.04-20.63
				c22.19,14.04,32.07,42.43,22.07,67.67l-27.45,69.23l-23.41,58.96c-11.32,28.5-43.93,42.6-72.43,31.28L1773.03,2954.22z"/>
		</g>
		<g class="st5">
			<path class="st6" d="M1773.03,2954.22c2.86,1.89,5.95,3.48,9.29,4.78l240.82,95.55c28.5,11.32,61.1-2.75,72.39-31.29l30.07-75.71
				c-11.37,10.97-28.76,23.08-46.86,17.89c-9.94-2.82-16.61-13.43-21.04-26.49l-23.41,58.96c-11.32,28.5-43.93,42.6-72.43,31.28
				L1773.03,2954.22z"/>
		</g>
		<g>
			<path class="st6" d="M2043.58,3071.01c-8.48,0-16.96-1.61-25.06-4.82l-240.81-95.57c-3.97-1.55-7.86-3.54-11.5-5.9l11.41-22.1
				l188.87,74.96c10.68,4.24,22.42,4.04,33.07-0.56c10.66-4.6,18.86-13.02,23.1-23.72l50.86-128.17
				c7.66-19.31,0.46-41.4-17.11-52.52l11.3-22.18l52.02,20.62c35.02,13.93,52.19,53.7,38.28,88.68l-50.85,128.15
				c-6.69,16.9-19.63,30.2-36.42,37.46C2062,3069.11,2052.79,3071.01,2043.58,3071.01z M2014.36,3037.64l13.39,5.31
				c10.68,4.24,22.42,4.05,33.08-0.56c10.66-4.6,18.86-13.02,23.09-23.72l0,0l50.85-128.16c8.82-22.18-2.08-47.39-24.27-56.22
				l-11.83-4.69c4.29,14.32,3.92,30.05-1.92,44.76l-50.85,128.16C2039.88,3017.73,2028.78,3030.04,2014.36,3037.64z"/>
		</g>
		<g>
			<path class="st16" d="M1964.36,2897.18c-1.85,4.75-10.14,45.7-10.14,45.7s12.15,4.74,27.06,10.56
				c18.63,7.27,41.27-6.13,50.55-29.93c9.29-23.8,1.71-48.99-16.93-56.26c-12.58-4.91-27.06-10.56-27.06-10.56
				S1967.38,2889.45,1964.36,2897.18z"/>
		</g>
		<g class="st5">
			<path class="st6" d="M1964.36,2897.18c-1.85,4.75-10.14,45.7-10.14,45.7s12.15,4.74,27.06,10.56
				c18.63,7.27,41.27-6.13,50.55-29.93c9.29-23.8,1.71-48.99-16.93-56.26c-12.58-4.91-27.06-10.56-27.06-10.56
				S1967.38,2889.45,1964.36,2897.18z"/>
		</g>
		<g>
			<g>
				<path class="st6" d="M1986.76,2957.89c-4.47,0-8.92-0.8-13.2-2.47l-18.79-7.33c-8.22-3.21-12.89-11.8-11.11-20.42
					c6.99-33.8,8.24-37,8.71-38.21l0-0.01c1.77-4.53,8.31-16.03,19.46-34.19c4.56-7.44,13.77-10.53,21.91-7.37l18.9,7.37
					c22.45,8.76,31.96,38.35,21.19,65.97C2025.1,2943.58,2005.73,2957.89,1986.76,2957.89z M1966.35,2894.89
					c-0.24,0.64-1.7,5.35-8.01,35.82c-0.3,1.44,0.49,2.88,1.87,3.41l18.79,7.33c14.76,5.78,33.07-5.77,40.84-25.67
					c7.77-19.91,2.08-40.79-12.67-46.54l-18.89-7.37c-1.37-0.53-2.91-0.01-3.67,1.24
					C1974.55,2879.5,1967.73,2891.38,1966.35,2894.89z M1966.35,2894.9L1966.35,2894.9L1966.35,2894.9z"/>
			</g>
			<g>
				
					<ellipse transform="matrix(0.3635 -0.9316 0.9316 0.3635 -1445.3687 3674.1665)" class="st16" cx="1966.03" cy="2894.79" rx="46.26" ry="36.22"/>
			</g>
			<g class="st5">
				<path class="st6" d="M1998.14,2865.24c-0.62,4.21-1.71,8.48-3.36,12.72c-9.29,23.8-31.92,37.2-50.55,29.93
					c-6.56-2.56-11.72-7.38-15.29-13.54c-2.86,19.47,4.97,37.56,20.29,43.54c18.63,7.27,41.27-6.13,50.55-29.93
					C2005.79,2892.54,2004.69,2876.57,1998.14,2865.24z"/>
			</g>
			<g class="st8">
				<path class="st9" d="M1937.29,2896.63c9.29-23.8,31.92-37.2,50.55-29.93c6.61,2.58,11.8,7.44,15.37,13.67
					c-1.88-13.27-9.08-24.27-20.37-28.67c-18.63-7.27-41.27,6.13-50.55,29.93c-5.99,15.35-4.93,31.26,1.56,42.58
					C1932.63,2915.58,1933.64,2906,1937.29,2896.63z"/>
			</g>
			<g>
				<path class="st6" d="M1959.88,2947.38c-4.57,0-9.07-0.83-13.38-2.51c-11.2-4.37-19.51-13.87-23.39-26.75
					c-3.68-12.23-2.9-26.15,2.2-39.21l0,0c10.78-27.62,37.79-42.95,60.27-34.19c11.21,4.38,19.51,13.88,23.39,26.76
					c3.68,12.22,2.9,26.15-2.2,39.21c-5.1,13.07-13.95,23.84-24.94,30.34C1974.69,2945.24,1967.2,2947.38,1959.88,2947.38z
					 M1939.28,2884.35c-3.88,9.96-4.53,20.42-1.81,29.44c2.52,8.37,7.66,14.44,14.48,17.1c6.82,2.65,14.71,1.67,22.24-2.78
					c8.11-4.8,14.72-12.93,18.6-22.89c3.89-9.96,4.53-20.41,1.81-29.44c-2.52-8.37-7.66-14.44-14.48-17.1
					C1965.38,2852.92,1947.05,2864.44,1939.28,2884.35L1939.28,2884.35z"/>
			</g>
		</g>
		<g>
			<path class="st6" d="M1857.55,3000.29c-1.44,0-2.9-0.25-4.33-0.78c-6.48-2.39-9.79-9.58-7.39-16.06l30.44-82.35
				c0.25-0.67,0.14-1.41-0.28-1.99l-21.56-29.46c-5.52-7.55-6.77-17.25-3.35-25.94l42.7-108.72c2.53-6.42,9.78-9.59,16.21-7.07
				c6.43,2.52,9.59,9.78,7.07,16.21l-42.7,108.72c-0.27,0.68-0.17,1.45,0.26,2.04l21.56,29.45c5.39,7.36,6.72,16.87,3.55,25.42
				l-30.44,82.35C1867.41,2997.16,1862.63,3000.29,1857.55,3000.29z"/>
		</g>
		<g>
			<path class="st9" d="M2326.84,2948.34c0,0,16.76,23.84,10.05,52.13c-7.76,32.7-30.65,40.81-30.65,40.81s-96.87,23.4-224.11-42.14
				c0,0-25.4-63.37,27.19-81.68C2109.33,2917.47,2246.69,2975.42,2326.84,2948.34z"/>
		</g>
		<g class="st5">
			<path class="st6" d="M2336.88,3000.49c-7.75,32.67-30.63,40.78-30.63,40.78s-96.86,23.42-224.13-42.13c0,0-8.34-20.89-5.53-42.09
				c0.36,1.18,0.63,1.81,0.63,1.81c93,47.92,169.78,48.3,204.35,45.03c24.02-2.27,44.31-19.3,50.16-42.7
				c0.08-0.32,0.16-0.65,0.24-0.97c0.14-0.54,0.27-1.09,0.32-1.63C2336.47,2968.19,2340.92,2983.55,2336.88,3000.49z"/>
		</g>
		<g>
			<path class="st6" d="M2260.37,3060.89c-42.35,0-108.47-8.42-185.31-48l-5.12-2.64l-2.15-5.35c-1.56-3.9-14.88-38.99-1.11-69.22
				c6.99-15.34,19.98-26.68,37.57-32.81l5.61-1.95l5.48,2.31c1.32,0.55,132.95,55.32,206.56,30.47l10.95-3.7l6.65,9.45
				c0.85,1.21,20.67,29.93,12.45,64.59c-7.66,32.28-29.08,47.75-40.53,51.81l-1.53,0.45
				C2308.15,3056.73,2290.13,3060.89,2260.37,3060.89z M2094.8,2988.23c110.45,54.95,196.43,40.29,206.81,38.23
				c2.74-1.35,15.25-8.53,20.24-29.56c2.79-11.77,0.02-22.84-2.94-30.29c-75.68,17.3-182.84-21.9-209.56-32.45
				c-6.91,3.36-11.69,8.08-14.54,14.33C2088.64,2962.05,2092.33,2979.65,2094.8,2988.23z"/>
		</g>
		<g>
			<path class="st6" d="M1870.84,3325.1c-71.8,0-124.46-40.64-125.22-41.24c-4.34-3.42-5.08-9.71-1.65-14.04
				c3.42-4.34,9.7-5.08,14.05-1.65c4.23,3.31,100.78,77.16,208.12,7.71c4.64-3,10.83-1.67,13.83,2.97c3,4.63,1.67,10.83-2.96,13.83
				C1939.73,3316.78,1903.32,3325.1,1870.84,3325.1z"/>
		</g>
		<g>
			<path class="st6" d="M2131.15,3322.54c-74.45,0-132.45-37.63-133.3-38.19c-4.6-3.05-5.86-9.26-2.81-13.86
				c3.05-4.59,9.25-5.86,13.85-2.81l0,0c1.15,0.76,115.77,74.78,223.77,4.9c4.64-3,10.83-1.67,13.83,2.97
				c3,4.63,1.67,10.83-2.96,13.83C2205.27,3314.12,2166.36,3322.54,2131.15,3322.54z"/>
		</g>
		<g>
			<path class="st6" d="M2349.65,3047.61c-4.12,0-7.97-2.56-9.43-6.66c-1.84-5.21,0.88-10.92,6.08-12.76
				c4.87-1.72,119.73-41.75,176.35,1.47c4.39,3.35,5.23,9.63,1.88,14.02c-3.35,4.39-9.62,5.23-14.02,1.88
				c-48.03-36.67-156.44,1.09-157.53,1.47C2351.88,3047.43,2350.76,3047.61,2349.65,3047.61z"/>
		</g>
		<g>
			<path class="st6" d="M1749.83,2377.99c-3.53,0-7.13-0.08-10.81-0.24c-5.52-0.25-9.79-4.92-9.54-10.44s4.92-9.69,10.44-9.54
				c134.22,6.03,156.51-111.46,157.39-116.46c0.96-5.43,6.15-9.03,11.56-8.13c5.43,0.95,9.08,6.11,8.14,11.54
				C1916.78,2246.08,1892.37,2377.99,1749.83,2377.99z"/>
		</g>
		<g>
			<g class="st5">
				<path class="st6" d="M2493.19,2768.3c-29.81,11.78-61.34,19.35-93.74,22.06c-17.26,1.45-35.57,2.13-54.78,1.59
					c-6.89-0.18-13.86-0.5-20.98-1c-61.12-4.3-130.03-20.8-201.79-59.49c-101.76-54.96-163.1-129.62-199.98-196.63
					c11.19-12.14,22.11-23.38,31.4-33.25l12.73,10.78l20.7,4.8l343.51,80.01l2.99,40.32l1.31,18.08l2.85,38.83l6.93-48.61
					C2345.94,2645.79,2452.28,2646.24,2493.19,2768.3z"/>
			</g>
			<g>
				<g>
					<path class="st9" d="M2731.89,2579.76L2731.89,2579.76c-4.72-2.29-6.68-7.98-4.39-12.7l119.67-246.04
						c2.29-4.72,7.98-6.68,12.7-4.39l0,0c49.49,24.07,70.1,83.71,46.03,133.2l-40.81,83.9
						C2841.02,2583.23,2781.38,2603.83,2731.89,2579.76z"/>
					<path class="st6" d="M2775.31,2592c-14.93,0-30.08-3.29-44.38-10.25h0c-5.8-2.83-8.23-9.85-5.41-15.65l119.67-246.04
						c1.37-2.81,3.75-4.92,6.7-5.94c2.95-1.02,6.13-0.83,8.94,0.54c50.51,24.57,71.61,85.64,47.05,136.15l-40.81,83.9
						C2849.47,2570.9,2813.1,2592,2775.31,2592z M2732.86,2577.78c48.32,23.5,106.75,3.31,130.25-45.01l40.81-83.9
						c23.5-48.32,3.31-106.75-45.01-130.24c-1.75-0.85-3.73-0.97-5.57-0.34c-1.84,0.63-3.32,1.95-4.17,3.7l-119.67,246.04
						C2727.73,2571.64,2729.24,2576.02,2732.86,2577.78L2732.86,2577.78z"/>
				</g>
				<g class="st5">
					<path class="st6" d="M2884.22,2494.39l-19.13,39.35c-24.07,49.47-83.7,70.09-133.21,46.03c-4.72-2.29-6.67-8-4.38-12.72
						l31.79-65.42c-0.13,3.63,1.86,7.14,5.31,8.85l5.84,2.82C2809.54,2532.35,2855.02,2523.46,2884.22,2494.39z"/>
				</g>
				<g>
					<path class="st6" d="M2775.29,2604.79c-16.81,0-33.86-3.7-49.96-11.53l0,0c-12.14-5.91-17.22-20.6-11.32-32.74l119.67-246.04
						c5.91-12.15,20.59-17.23,32.75-11.31c56.85,27.65,80.6,96.4,52.95,153.25l-40.81,83.9
						C2858.76,2581.04,2817.82,2604.79,2775.29,2604.79z M2743.48,2568.52c40.92,16.74,88.52-1.04,108.12-41.35l40.81-83.9
						c19.6-40.31,4.2-88.73-34.23-110.58L2743.48,2568.52z M2738.45,2566.27C2738.45,2566.28,2738.45,2566.28,2738.45,2566.27
						L2738.45,2566.27z"/>
				</g>
				<g>
					<path class="st9" d="M2047.75,1921.64L2047.75,1921.64c4.72,2.29,6.68,7.98,4.39,12.7l-119.67,246.04
						c-2.29,4.72-7.98,6.68-12.7,4.39l0,0c-49.49-24.07-70.1-83.71-46.03-133.2l40.81-83.9
						C1938.62,1918.18,1998.25,1897.57,2047.75,1921.64z"/>
					<path class="st6" d="M1923.9,2187.93c-1.71,0-3.45-0.38-5.1-1.17c-50.51-24.57-71.61-85.64-47.05-136.15l40.81-83.9
						c24.57-50.5,85.64-71.6,136.15-47.05l0,0c2.81,1.37,4.92,3.75,5.94,6.7c1.02,2.96,0.83,6.13-0.54,8.95l-119.67,246.04
						C1932.43,2185.51,1928.24,2187.93,1923.9,2187.93z M2004.32,1913.82c-36.15,0-70.94,20.18-87.78,54.81l-40.81,83.9
						c-23.5,48.32-3.31,106.74,45,130.24c3.62,1.76,7.99,0.25,9.75-3.37l119.67-246.04c0.85-1.75,0.97-3.73,0.33-5.57
						c-0.64-1.84-1.95-3.32-3.7-4.17l0,0C2033.1,1916.97,2018.6,1913.82,2004.32,1913.82z"/>
				</g>
				<g class="st5">
					<path class="st6" d="M1965.68,2112.13l-33.21,68.25c-2.29,4.72-8,6.67-12.72,4.38c-25.97-12.65-44.02-35.09-51.79-60.73
						c-7.02-23.16-5.65-48.95,5.77-72.45l17.19-35.35c-1.04,37.85,19.75,74.68,56.04,92.34l8.98,4.37
						C1959.23,2114.53,1962.9,2114.07,1965.68,2112.13z"/>
				</g>
				<g>
					<path class="st6" d="M1923.88,2200.72c-3.58,0-7.22-0.79-10.66-2.46c-56.86-27.66-80.62-96.41-52.97-153.26l40.81-83.9
						c27.65-56.85,96.41-80.6,153.25-52.95c5.88,2.86,10.3,7.84,12.44,14.03c2.14,6.19,1.74,12.83-1.12,18.72l-119.67,246.04
						C1941.72,2195.64,1932.97,2200.72,1923.88,2200.72z M2004.29,1926.61c-31.4,0-61.62,17.53-76.26,47.62l-40.81,83.9
						c-19.61,40.31-4.2,88.73,34.23,110.58l114.7-235.83C2025.78,1928.64,2014.97,1926.61,2004.29,1926.61z M2041.18,1935.13
						C2041.18,1935.13,2041.19,1935.13,2041.18,1935.13L2041.18,1935.13C2041.18,1935.13,2041.18,1935.13,2041.18,1935.13z"/>
				</g>
				<g>
					<circle class="st9" cx="2389.87" cy="2250.73" r="466.23"/>
					<path class="st6" d="M2389.11,2719.37c-81.18,0-161.3-21.29-233.49-62.98c-223.68-129.17-300.58-416.24-171.41-639.92
						c129.17-223.68,416.23-300.58,639.92-171.41c108.36,62.57,185.86,163.59,218.24,284.46s15.74,247.1-46.83,355.46l-1.91-1.1
						l1.91,1.1c-62.57,108.36-163.59,185.86-284.46,218.24C2470.73,2714.03,2429.79,2719.37,2389.11,2719.37z M2390.65,1786.79
						c-160.48,0-316.77,83.21-402.62,231.89c-127.95,221.58-51.78,505.94,169.79,633.89c107.34,61.99,232.38,78.46,352.11,46.39
						s219.79-108.85,281.78-216.18s78.45-232.38,46.38-352.11s-108.85-219.79-216.18-281.78
						C2549.02,1806.79,2469.33,1786.79,2390.65,1786.79z"/>
				</g>
				<g class="st5">
					<path class="st6" d="M2822.03,2425.75c-7.97,19.74-17.44,39.15-28.4,58.13c-128.79,222.96-413.93,299.35-636.92,170.61
						c-222.96-128.79-299.35-413.93-170.61-636.92c3.7-6.41,7.55-12.75,11.51-18.89c-86.27,212.26-5.01,460.97,199.01,578.79
						C2413.19,2702.51,2688.35,2634.05,2822.03,2425.75z"/>
				</g>
				<g>
					<path class="st6" d="M2389.09,2732.17c-83.4,0-165.71-21.88-239.87-64.7c-229.79-132.7-308.79-427.6-176.09-657.39
						c132.7-229.79,427.6-308.78,657.39-176.09c111.32,64.28,190.94,168.06,224.2,292.23c33.26,124.16,16.17,253.86-48.1,365.17l0,0
						c-64.28,111.32-168.06,190.94-292.23,224.2C2472.94,2726.68,2430.87,2732.17,2389.09,2732.17z M2390.63,1799.58
						c-156.06,0-308.03,80.92-391.52,225.5c-124.42,215.47-50.35,491.99,165.11,616.42c104.38,60.27,225.97,76.3,342.4,45.1
						c116.43-31.19,213.74-105.84,274.01-210.22l0,0c60.27-104.38,76.29-225.98,45.11-342.4
						c-31.19-116.43-105.84-213.74-210.22-274.01C2544.63,1819.03,2467.14,1799.58,2390.63,1799.58z"/>
				</g>
				<g>
					<path class="st6" d="M2786.34,2493.5c-44.43,79.69-111.54,139.25-189.9,175.8c-58.75,27.4-239.87,31.71-409.07-60.64
						c-156.89-85.62-252.52-248.04-260.11-312.42c-10.12-85.88,5.26-174.28,49.69-253.97c117.56-210.88,347.48-197.3,571-72.69
						C2771.46,2094.2,2903.91,2282.62,2786.34,2493.5z"/>
				</g>
				<g>
					<path class="st6" d="M2484.96,2698.87c-82.91,0-193.82-19.58-303.48-79.42c-162.61-88.75-258.45-254.12-266.42-321.77
						c-10.79-91.61,6.9-181.99,51.15-261.38c57.7-103.5,143.69-160.17,255.59-168.43c97.59-7.19,212.43,24.26,332.12,90.98
						c119.69,66.72,206.84,147.87,252.02,234.66c51.81,99.52,48.82,202.47-8.87,305.96l0,0
						c-44.26,79.39-111.84,141.97-195.44,180.96C2579.09,2690.95,2537.68,2698.87,2484.96,2698.87z M2248.08,1891.28
						c-97.09,0-194.1,38.06-260.4,156.98c-41.73,74.85-58.4,160.1-48.22,246.55c7.23,61.38,100.76,219.56,253.79,303.07
						c169.59,92.56,345.62,84.72,397.99,60.29c78.89-36.79,142.64-95.8,184.36-170.64l0,0c53.42-95.83,56.29-190.92,8.54-282.65
						c-42.96-82.52-126.71-160.17-242.19-224.55C2477.78,1944.54,2362.88,1891.28,2248.08,1891.28z"/>
				</g>
				<g class="st8">
					
						<ellipse transform="matrix(0.6349 -0.7726 0.7726 0.6349 -872.5497 2936.7656)" class="st9" cx="2670.79" cy="2391.53" rx="82.51" ry="59.79"/>
				</g>
				<g class="st8">
					
						<ellipse transform="matrix(0.7355 -0.6775 0.6775 0.7355 -1024.4211 2372.9817)" class="st9" cx="2527.23" cy="2498.62" rx="37.87" ry="32.5"/>
				</g>
				<g class="st5">
					<path class="st17" d="M2817.31,2252.89c23.16,74.79,16.24,155.89-30.96,240.6c-44.43,79.71-111.56,139.25-189.89,175.82
						c-58.76,27.4-239.89,31.69-409.1-60.64c-59.75-32.59-110.59-76.32-151.09-121.58c210.42,109.06,431.46,103.07,504.32,69.09
						c99.46-46.39,184.64-121.99,241-223.12C2796.67,2306.04,2808.47,2279.28,2817.31,2252.89z"/>
				</g>
				<g>
					<path class="st6" d="M2854.64,2301.67c-4.81,0-9.4-2.8-11.46-7.49c-0.09-0.21-0.21-0.49-0.28-0.7l-0.55-1.46l-0.17-1.55
						c-14.95-134.22-116.63-263.11-278.97-353.62c-163.23-91-327.19-107.86-449.84-46.27l-1.3,0.57
						c-6.46,2.43-13.66-0.85-16.09-7.31c-2.32-6.17,0.57-13.02,6.46-15.74c130.13-65.2,302.48-48.11,472.94,46.92
						c169.2,94.33,275.43,229.89,291.56,371.98c0.98,5.55-1.91,11.25-7.3,13.61C2858.01,2301.34,2856.31,2301.67,2854.64,2301.67z
						 M2854.6,2289.1h0.05H2854.6z"/>
				</g>
				<g class="st8">
					<path class="st9" d="M1997.9,2218.4c0,0,50.66-244.44,208.99-264.84c158.33-20.4,319.45,69.86,309.91,78.1
						c0,0-202.67-56.32-351.25,45.9C2050.99,2156.38,1997.9,2218.4,1997.9,2218.4z"/>
				</g>
			</g>
		</g>
		<g>
			<path class="st18" d="M1667.75,1623.89l-43.24,74.9c-12.35,21.4,3.09,48.15,27.8,48.15h86.48c24.71,0,40.15-26.75,27.8-48.15
				l-43.24-74.9C1710.99,1602.49,1680.1,1602.49,1667.75,1623.89z"/>
		</g>
		<g class="st13">
			<path class="st6" d="M1667.75,1588.89l-43.24,74.9c-12.35,21.4,3.09,48.15,27.8,48.15h86.48c24.71,0,40.15-26.75,27.8-48.15
				l-43.24-74.9C1710.99,1567.49,1680.1,1567.49,1667.75,1588.89z"/>
		</g>
		<g>
			<path class="st6" d="M1738.79,1762.39h-86.48c-17.19,0-32.59-8.89-41.19-23.78s-8.6-32.67,0-47.56l43.24-74.89
				c8.6-14.89,24-23.78,41.19-23.78c0,0,0,0,0,0c17.19,0,32.59,8.89,41.18,23.78l43.24,74.89c8.6,14.89,8.59,32.67,0,47.56
				C1771.37,1753.5,1755.98,1762.39,1738.79,1762.39z M1681.14,1631.62l-43.24,74.89c-4.34,7.51-1.45,14.14,0,16.64
				c1.45,2.5,5.74,8.32,14.41,8.32h86.48c8.67,0,12.97-5.82,14.41-8.32c1.44-2.5,4.34-9.13,0-16.64l-43.24-74.89
				c-4.33-7.51-11.52-8.32-14.41-8.32l0,0C1692.66,1623.3,1685.47,1624.11,1681.14,1631.62z"/>
		</g>
		<g>
			<path class="st19" d="M2117.7,1114.67c-12.17,246.91-268.91,541.28-424.95,533.59c-156.03-7.69-382.59-325.88-370.42-572.79
				c12.17-246.91,200.08-438.29,419.72-427.47S2129.87,867.76,2117.7,1114.67z"/>
		</g>
		<g class="st8">
			<path class="st9" d="M2117.7,1114.67c-0.04,0.73-0.08,1.47-0.12,2.2c-11.86-223.61-171.48-404.68-375.54-414.72
				c-217.47-10.71-403.86,176.81-419.28,420.21c-1-15.85-1.2-31.5-0.43-46.88c12.17-246.92,200.08-438.3,419.71-427.48
				C1961.68,658.83,2129.87,867.75,2117.7,1114.67z"/>
		</g>
		<g class="st5">
			<path class="st6" d="M2117.7,1074.67c-12.17,246.92-268.91,541.26-424.93,533.6c-156.06-7.69-382.61-325.91-370.43-572.79
				c0.12-2.28,0.23-4.52,0.39-6.76c34.67,190.76,231.23,402.01,370.05,408.85c156.02,7.69,410.2-234.55,420.29-439.42
				c0.31-6.03,0.43-12.06,0.43-18.01C2117.82,1010.75,2119.29,1042.4,2117.7,1074.67z"/>
		</g>
		<g>
			<path class="st6" d="M1698.54,1663.86c-2.2,0-4.38-0.05-6.55-0.16c-79.1-3.9-178.87-81.88-260.37-203.52
				c-83.83-125.12-130.46-269.22-124.73-385.47c6.07-123.2,54.54-237.01,136.47-320.45c82.41-83.93,188.69-127.18,299.45-121.69
				c110.69,5.45,212.28,58.92,286.04,150.54c73.33,91.1,110.37,209.12,104.3,332.32c-5.73,116.25-66.3,255.06-162.03,371.33
				C1880.59,1596.71,1776.93,1663.86,1698.54,1663.86z M1724.22,663.03c-95.6,0-186.93,39.69-258.8,112.9
				c-76.62,78.03-121.95,184.68-127.65,300.31c-5.41,109.84,39.27,246.94,119.54,366.73c75.01,111.95,167.73,186.47,236.21,189.85
				c68.49,3.34,168.07-61.67,253.73-165.71c91.66-111.32,149.6-243.36,155.02-353.2c5.7-115.63-28.93-226.22-97.5-311.41
				c-68.15-84.66-161.72-134.04-263.47-139.06C1735.59,663.17,1729.9,663.03,1724.22,663.03z"/>
		</g>
		<g class="st10">
			<path class="st9" d="M1725.04,777.76c96.49-6.85,163.59,22.38,215.26,80.51c54.81,61.66,40.54,121.62-13.7,121.62
				s-75.94-83.93-203.26-122.19C1641.04,832.97,1648.87,783.17,1725.04,777.76z"/>
		</g>
	</g>
</g>
</svg>
