<?xml version="1.0" encoding="utf-8"?>
<!-- Generator: Adobe Illustrator 28.0.0, SVG Export Plug-In . SVG Version: 6.00 Build 0)  -->
<svg version="1.1" id="Layer_1" xmlns="http://www.w3.org/2000/svg" xmlns:xlink="http://www.w3.org/1999/xlink" x="0px" y="0px"
	 viewBox="0 0 4000 4000" style="enable-background:new 0 0 4000 4000;" xml:space="preserve">
<style type="text/css">
	.st0{display:none;}
	.st1{display:inline;fill:#95C4FC;}
	.st2{opacity:0.3;}
	.st3{fill:#371A45;}
	.st4{fill:#E8E8E8;}
	.st5{opacity:0.35;}
	.st6{fill:#FFFFFF;}
	.st7{fill:#293856;}
	.st8{fill:#111A28;}
	.st9{opacity:0.7;}
	.st10{opacity:0.4;}
	.st11{fill:#FC5B89;}
</style>
<g>
	<g class="st0">
		<rect class="st1" width="4000" height="4000"/>
	</g>
	<g>
		<g class="st2">
			<ellipse class="st3" cx="2097.7" cy="3383.49" rx="890.21" ry="116.83"/>
		</g>
		<g>
			<path class="st4" d="M778.13,2258.06c17.19,64.61,83.25,142.12,83.25,142.12s-2.81,5.83-6.45,15.57
				c-14.65,38.99-42.86,140.41,41.36,178.7c126.94,57.68,252.66-24.91,252.66-24.91s-17.72,205.28,157.56,62.33
				c-56.15,117.12,15.62,254.89,61.32,286.47c95.45,65.84,231.34,44.52,336.79-14.78c3.16,31.06,19.26,75.53,71.1,92.29
				c108.12,34.92,152.16-100.93,152.16-100.93s32.59,44.3,100.45,77.99c196.69,97.6,366.57-3.42,485.88-183.75
				c95.8,67.2,279.24,52.46,352.8-38.51c73.56-90.93,63.08-238.4-22.63-318.01c110.27,48.86,239.63,39.13,333.23-37.24
				c31.67-25.88,52.42-60.14,63.65-97.29c18.34-60.49,11.49-128.7-14.12-181.2c-111.37-228.27-412.93-152.78-478.95-116.72
				c12.76-69.92,3.9-120.54-25.7-161.99c-24.08-33.78-61.89-61.5-112.99-88.69c-25.22-13.42-52.59-22.02-80.71-26.14
				c-54.04-7.94-110.84,0.66-160.19,23.55c-30.4,14.08-57.94,33.56-80.27,57.9c-14.52,15.75-26.84,33.51-36.32,53.21
				c-32.24-68.16-141.37-80.62-188.18-21.41c-85.89-79.13-231.47-132.07-334.99-118.74c-193.31,24.87-283.23,197.12-283.23,197.12
				s-77.51-66.02-142.82-38.03c-50.18,21.49-65.31,106.94-65.31,106.94s-95.54-49.13-181.33-56.45
				C899.2,1914.03,725.01,2058.57,778.13,2258.06z"/>
		</g>
		<g>
			<path class="st3" d="M2179.74,3028.54c-52.36,0-105.56-13.32-159.19-39.94c-40.93-20.31-69.73-44.3-87.04-61.32
				c-25.3,51.36-79.88,112.17-163.18,85.27c-50.24-16.23-70.37-53.92-78.41-82.41c-98.69,49.01-232.19,72.92-334.03,2.62
				c-41.81-28.86-108.19-141.41-85.02-255.37c-39.91,23.86-72.08,28.88-97.57,15.4c-33.67-17.8-42.34-62.52-44.11-93.51
				c-45.9,22.22-142.84,56.28-242.15,11.12c-29.55-13.43-49.82-34.83-60.27-63.61c-19.62-54.08,2.15-118.78,12.26-143.77
				c-18-22.48-65.08-84.95-79.85-140.44c-24.21-90.93-5.54-179.16,52.56-248.44c60.34-71.95,153.77-111.87,243.87-104.17
				c65.34,5.58,134.71,33.75,167.95,48.83c8.69-29.59,29.14-80.32,70.29-97.95c55.62-23.82,116.06,9.03,144.57,28.44
				c29.4-46.2,121.32-167.58,286.17-188.8c102.74-13.22,244.04,34.36,336.11,111.76c26.06-23.51,63.2-34.63,102.68-30.13
				c34.72,3.96,64.9,19.27,85.33,42.44c31.81-49.05,81.72-86.35,143.29-106.48c76.26-24.94,157.8-19.13,223.71,15.94
				c99.44,52.9,163.62,114.7,152.18,237.49c67.47-24.92,192.25-46.54,299.2-12.47c79,25.17,137.48,75.7,173.82,150.19
				c43.22,88.6,38.91,223.76-54.21,299.75c-80.31,65.54-188.02,86.81-292.09,60.3c53.99,88.5,50.41,210.35-15.96,292.42
				c-73.19,90.55-252.82,114.27-361.45,51.43c-63.12,91.26-134.36,154.55-211.93,188.23
				C2265.52,3019.48,2222.92,3028.54,2179.74,3028.54z M1927.89,2877.37c5.52,0,10.79,2.6,14.12,7.13
				c0.28,0.38,31.37,41.51,94.15,72.68c226.52,112.43,387.6-63.07,463.44-177.7c2.62-3.95,6.71-6.67,11.37-7.56
				c4.66-0.88,9.46,0.16,13.34,2.87c91.45,64.13,263.66,45.73,329.06-35.17c67.59-83.58,57.8-221.02-20.94-294.13
				c-6.28-5.83-7.43-15.36-2.71-22.51c4.71-7.16,13.9-9.87,21.76-6.38c108.89,48.25,229.6,34.91,315.04-34.81
				c76.25-62.22,82.69-179.62,44.85-257.18l0,0c-31.97-65.54-83.42-110-152.92-132.14c-123.57-39.38-266.49,3.81-301.83,23.12
				c-5.93,3.24-13.2,2.79-18.69-1.17c-5.48-3.96-8.2-10.71-6.99-17.37c20.23-111.15-12.5-169.7-129.71-232.06
				c-57.53-30.62-129.08-35.56-196.31-13.57c-62.8,20.54-111.5,61.1-137.13,114.21c-2.92,6.07-9.07,9.92-15.8,9.92
				c-0.02,0-0.04,0-0.07,0c-6.76-0.03-12.91-3.94-15.8-10.05c-12.51-26.48-40.44-44.62-74.71-48.53
				c-34.34-3.92-65.62,7.49-83.81,30.5c-3.03,3.83-7.51,6.23-12.38,6.61c-4.9,0.4-9.67-1.27-13.27-4.58
				c-83.08-76.51-224.04-126.69-320.88-114.22c-181.54,23.37-269.08,186.22-269.95,187.87c-2.48,4.72-6.98,8.06-12.21,9.07
				c-5.24,1.01-10.65-0.41-14.71-3.86c-0.67-0.57-70.15-58.59-124.53-35.27c-33.85,14.5-51.15,72.69-54.95,93.89
				c-0.99,5.48-4.51,10.17-9.5,12.63c-4.98,2.47-10.85,2.43-15.8-0.11c-0.92-0.48-93.55-47.65-174.8-54.58
				c-77.66-6.66-161.68,29.38-214,91.76c-50.55,60.27-66.72,137.29-45.54,216.86c15.96,59.94,79.02,134.49,79.65,135.24
				c4.5,5.28,5.46,12.72,2.46,18.97c-0.34,0.72-34.79,73.94-15.41,127.15c7.21,19.8,20.87,34.05,41.77,43.55
				c116.31,52.87,234.58-22.83,235.76-23.6c5.62-3.67,12.86-3.82,18.61-0.37s9.06,9.87,8.48,16.56
				c-1.61,19.21-0.43,77.17,25.31,90.74c19.72,10.4,56.53-5.05,103.68-43.51c6.36-5.2,15.49-5.27,21.94-0.19
				c6.46,5.08,8.53,13.96,4.97,21.37c-50.66,105.72,13.68,235.56,55.51,264.43c96.21,66.41,231.56,33.1,318.22-15.6
				c5.16-2.9,11.43-3,16.68-0.28c5.25,2.72,8.77,7.91,9.37,13.8c2.29,22.51,12.99,62.49,59.02,77.35
				c90.01,29.08,128.48-84.83,130.07-89.69c2.05-6.24,7.41-10.83,13.9-11.88C1926.03,2877.44,1926.96,2877.37,1927.89,2877.37z"/>
		</g>
		<g class="st5">
			<path class="st3" d="M2288.32,1804.81c-0.09,48.82,3.38,129.18,22.94,205.24c11.36,44.04,28.07,86.63,52.64,120.93
				c33.03,46.06,80.23,77.07,147.51,76.06c254.02-3.77,146.33-297.4,146.33-297.4s34.13-33.25,64.74-71.45
				c-24.08-33.78-61.89-61.5-112.99-88.69c-25.22-13.42-52.59-22.02-80.71-26.14l-160.19,23.55l-78.95,11.62
				c0,0-0.57,8.11-0.97,22.2C2288.45,1787.49,2288.32,1795.56,2288.32,1804.81z"/>
		</g>
		<g>
			<path class="st6" d="M2267.4,2010.05c11.36,44.04,28.07,86.63,52.64,120.93c33.03,46.06,80.23,77.07,147.51,76.06
				c254.02-3.77,190.19-297.4,190.19-297.4s45.97-28.42,70.71-82.64c2.19-4.82,4.17-9.61,5.88-14.3
				c25.66-68.78,7.85-127.21,7.85-127.21l-496.41,73.03c0,0-0.57,8.11-0.97,22.2C2243.62,1823.15,2244.15,1919.6,2267.4,2010.05z"/>
		</g>
		<g>
			<path class="st3" d="M2464.36,2224.61c-54.93,0-101.53-19.85-138.58-59.04c-116.43-123.18-98.34-396.68-97.51-408.27l1-14.06
				l525.26-77.28l4.41,14.43c0.91,2.99,21.9,74.03-14.53,153.9c-19.62,43.02-51.27,70.96-67.4,83.2
				c6.16,37.56,19.32,156.51-43.47,235.62c-36.78,46.34-92.55,70.39-165.76,71.48C2466.65,2224.61,2465.5,2224.61,2464.36,2224.61z
				 M2262.61,1773.81c-2.03,56.72-3.12,270.59,88.71,367.69c31.21,33,69.23,48.63,115.95,48c62.18-0.93,108.88-20.51,138.8-58.21
				c63.56-80.08,34.82-216.57,34.52-217.94l-2.64-12.13l10.56-6.52c0.38-0.24,41.92-26.6,63.98-74.97
				c21.74-47.66,19.24-92.24,15.86-114.44L2262.61,1773.81z"/>
		</g>
		<g>
			<path class="st6" d="M1501.02,1919.07c0.27-4.27-17.59-150.94,9.15-222.66c23.32-62.53,164.35-190,313.69-199.99
				c149.88-10.02,121.46,323.77,121.46,323.77L1501.02,1919.07z"/>
		</g>
		<g>
			<path class="st6" d="M1501.01,1919.08l71.59-15.92l372.76-82.95c0,0,8.6-101.37-8.73-190.72
				c-14.12-72.77-45.49-137.56-112.77-133.08c-149.31,10-290.33,137.47-313.67,200.02
				C1483.42,1768.14,1501.27,1914.78,1501.01,1919.08z"/>
		</g>
		<g class="st5">
			<path class="st3" d="M1582.18,1916.72l372.75-82.95c0,0,8.6-101.37-8.73-190.72c-10.79-4.3-22.94-6.23-36.58-5.31
				c-149.36,9.96-290.38,137.47-313.71,199.98C1587.89,1859.26,1583.89,1887.55,1582.18,1916.72z"/>
		</g>
		<g>
			<path class="st3" d="M1482.02,1941.27l1.44-22.41c-0.08-1.15-0.27-3.15-0.52-5.9c-9.32-103.57-5.68-178.49,10.8-222.69
				c24.87-66.68,172.34-200.89,328.96-211.36c30.99-2.09,57.7,8.07,79.37,30.14c79.48,80.94,61.55,303.21,60.74,312.63l-1.09,12.84
				L1482.02,1941.27z M1483.51,1917.94c0,0.08-0.01,0.17-0.02,0.28L1483.51,1917.94z M1830.39,1513.74c-1.76,0-3.54,0.06-5.35,0.18
				c-145.54,9.73-278.73,135.78-298.43,188.61c-9.72,26.06-19.08,80.94-9.78,195.04l411.92-91.67
				c4.01-68.05,1.25-218.34-51.74-272.28C1863.9,1520.28,1848.6,1513.74,1830.39,1513.74z"/>
		</g>
		<g>
			<path class="st6" d="M1683.97,1777.62c1.47-40.07-13.1-127.03-56.78-125.29c-43.68,1.73-135.14,58.67-116.87,177.44
				C1524.48,1921.89,1682.5,1817.69,1683.97,1777.62z"/>
		</g>
		<g class="st5">
			<path class="st3" d="M1508.38,1811.79c0.35,5.79,0.97,11.8,1.93,17.98c14.17,92.11,172.21-12.11,173.66-52.15
				c1.18-31.63-7.68-92.6-32.99-115.93c5.79,22.98,7.94,47.5,7.33,64.04C1657.12,1757.7,1556.28,1830.52,1508.38,1811.79z"/>
		</g>
		<g>
			<path class="st3" d="M1551.69,1884.28c-32.33,0-53.61-18.67-58.72-51.85c-10.63-69.14,13.39-115.51,35.41-142.23
				c30.32-36.79,71.12-54.34,98.11-55.41c14-0.6,27.29,4.89,38.2,15.77c29.16,29.07,38.05,93.75,36.81,127.7l0,0
				c-1.44,39.25-87.99,102.57-144.71,105.87C1555.06,1884.23,1553.36,1884.28,1551.69,1884.28z M1628.49,1669.85
				c-0.21,0-0.42,0-0.62,0.01c-15.48,0.61-47.54,12.48-72.42,42.66c-17.47,21.19-36.46,58.27-27.8,114.58
				c2.5,16.27,9.82,22.51,25.32,22.08c45.92-1.14,111.78-56.54,113.46-72.23c1.08-29.63-7.74-82.8-26.51-101.52
				C1635.08,1670.6,1631.16,1669.85,1628.49,1669.85z"/>
		</g>
		<g>
			<path class="st3" d="M1620.92,1699c5.76,10.69,10.21,21.74,14.23,33.03c3.88,11.3,7.19,22.84,9.61,34.75
				c2.39,11.92,4.36,24.15,3.82,37.29c-0.34,6.58-1.02,13.4-3.23,20.72c-1.07,3.69-2.51,7.44-4.81,11.48
				c-2.08,3.86-5.55,8.23-10.05,11.75c-7.25,6.43-18.34,5.76-24.77-1.49s-5.76-18.34,1.49-24.77c-0.77-0.57,0.49-3.06,1.25-6.96
				c0.77-3.85,1.55-8.55,2.08-13.49c1.08-9.93,2.13-20.87,2.68-31.98c1.17-22.32,1.28-45.47,2.8-69.22l0-0.04
				c0.09-1.44,1.33-2.52,2.76-2.43C1619.73,1697.7,1620.51,1698.24,1620.92,1699z"/>
		</g>
		<g>
			<path class="st6" d="M1201.07,1900.92c30.84,51.98,115.67,25.92,115.67,25.92s-6.45,78.12,18.07,159.75
				c56.15,186.9,271.87,92.33,271.87,92.33s233.36,56.85,464.47,28.56c87.55-10.7,174.8-33.64,248.88-76.5
				c53.21-30.7,99.61-71.67,134.53-125.76c2.59-3.99,5.18-8.42,7.76-13.16c23.16-42.24,45.35-108.56,45.35-108.56
				s-129.44-54.52-262.88-102.77c-90.23-32.68-182.3-62.42-237.3-70.49c-61.41-8.99-118.52-3.55-170.5,10.09
				c-186.55,48.86-307.13,202.69-322.53,168.92c-15.18-33.38-2.59-110.76-24.34-149.22c-19.74-34.83-99.13-44.04-189.62-0.7
				c-69.74,33.42-100.67,74.57-107.47,110.23C1189.27,1869.07,1192.78,1886.93,1201.07,1900.92z"/>
		</g>
		<g class="st5">
			<path class="st3" d="M1201.07,1900.92c30.84,51.98,115.67,25.92,115.67,25.92s-6.45,78.12,18.07,159.75
				c56.15,186.9,271.87,92.33,271.87,92.33s233.36,56.85,464.47,28.56c-5.4-111.41-26.27-258.62-98.04-279.9
				c-117.51-34.83-422.01,240.37-530.93,197.43c-98.87-39-104-289.63-104-289.63s-41.45,77.38-91.85,67.86
				c-26.58-5-43.38-30.62-53.29-53.69C1189.27,1869.07,1192.78,1886.93,1201.07,1900.92z"/>
		</g>
		<g>
			<path class="st3" d="M1934.39,2232.92c-161,0-296.96-28.93-326.23-35.62c-24.24,9.53-120.73,42.99-199.74,6.46
				c-43.73-20.21-74.15-57.94-90.42-112.14c-17.28-57.52-19.79-112.8-19.58-142.91c-31.43,4.8-86.06,5.59-112.45-38.86
				c-12.84-21.64-15.48-48.16-7.44-74.69c9.21-30.38,36.53-74.41,114.38-111.68c91.77-43.93,185.11-40.45,212.48,7.91
				c13.97,24.69,15.67,59.1,17.3,92.37c0.9,18.39,1.83,37.28,5.07,50.2c10.7-5.73,29.66-19.87,46.8-32.65
				c83.14-62,237.87-177.4,435.48-148.43c136.96,20.09,489.52,168.15,504.46,174.44l15,6.32l-5.17,15.43
				c-1.15,3.43-28.49,84.55-55.03,125.65c-90.08,139.49-269.2,214.9-518,218.08C1945.63,2232.88,1940,2232.92,1934.39,2232.92z
				 M1605.08,2160.49l5.76,1.4c1.58,0.38,159.6,38.17,340.7,35.83c164.65-2.19,383.01-39.02,488.27-202.02
				c17.65-27.33,36.73-77.19,45.83-102.36c-70.23-29.05-363.78-148.57-480.68-165.72c-183.15-26.87-330.35,82.88-409.41,141.84
				c-41.15,30.68-61.8,46.08-80.36,41.31c-7.43-1.91-13.35-6.96-16.66-14.23c-8.27-18.15-9.54-43.84-10.87-71.04
				c-1.37-27.83-2.92-59.37-12.79-76.81c-13.65-24.11-83.72-33.32-166.79,6.45c-51.75,24.77-85.83,56.81-95.96,90.21
				c-5.15,16.98-3.72,33.53,4.04,46.59c23.39,39.41,94.77,18.34,95.49,18.12l24.7-7.48l-2.09,25.7
				c-0.09,1.15-5.77,76.21,17.36,153.23c13.26,44.16,37.33,74.57,71.54,90.38c75.01,34.67,175.5-8.6,176.51-9.04L1605.08,2160.49z"
				/>
		</g>
		<g>
			<path class="st3" d="M1346.48,1838.27c-1.73,7.36-3.32,15.04-4.74,22.61c-1.42,7.6-2.68,15.21-3.77,22.8
				c-2.17,15.18-3.6,30.37-3.77,45.04c-0.11,9.73-8.09,17.53-17.83,17.42c-9.73-0.11-17.53-8.09-17.42-17.82
				c0.01-1.09,0.12-2.15,0.32-3.18l0.03-0.15c3.32-16.52,7.88-32.18,13.08-47.49c2.61-7.65,5.36-15.2,8.27-22.68
				c2.93-7.51,5.93-14.82,9.25-22.32c1.97-4.44,7.17-6.45,11.61-4.48c3.93,1.74,5.96,6.01,5.01,10.05L1346.48,1838.27z"/>
		</g>
		<g>
			<path class="st3" d="M1548.76,1902.1c-7.19,4.8-14.76,10.28-21.98,15.71c-7.28,5.48-14.43,11.13-21.45,16.94
				c-14,11.64-27.42,23.96-39.42,37.39l-0.1,0.11c-3.23,3.62-8.79,3.94-12.42,0.7c-3.27-2.92-3.84-7.75-1.53-11.32
				c10.49-16.28,22.47-31.34,35.09-45.71c6.33-7.18,12.82-14.2,19.47-21.08c6.72-6.91,13.33-13.52,20.68-20.33
				c7.14-6.6,18.27-6.17,24.88,0.97c6.6,7.14,6.17,18.27-0.97,24.88c-0.67,0.62-1.36,1.17-2.09,1.66L1548.76,1902.1z"/>
		</g>
		<g>
			<path class="st6" d="M1630.49,2027.2c22.15,83.3,61.06,160.67,110.93,187.82c0,0,51.32,25.22,123.08-10.92
				c0,0-101.46-59.44-128.17-203.13c-0.88-4.78-1.71-9.43-2.5-14.04c-30.79-175.28-6.76-234.06-6.76-234.06
				s-47.72-23.16-90.75,21.32C1601.15,1810.56,1602.86,1923.46,1630.49,2027.2z"/>
		</g>
		<g class="st5">
			<path class="st3" d="M1630.49,2027.2c22.15,83.3,61.06,160.67,110.93,187.82c0,0,51.32,25.22,123.08-10.92
				c0,0-101.46-59.44-128.17-203.13c-0.88-4.78-1.71-9.43-2.5-14.04c-11.45,17.59-30.09,39.04-56.76,47.29
				C1661.72,2038.96,1645.5,2034.88,1630.49,2027.2z"/>
		</g>
		<g>
			<path class="st3" d="M1787.67,2241.12c-32.3,0-52.56-9.65-53.97-10.35l-0.64-0.33c-74.88-40.72-119.04-170.08-134.11-268.47
				c-5.41-35.31-19.6-154.1,24.76-199.97c51.28-53.02,108.61-26.09,111.03-24.91l14.8,7.19l-6.23,15.23
				c-0.15,0.4-22.43,62.11,10.29,238.27c24.79,133.47,118.85,190.63,119.8,191.19l27.55,16.34l-28.56,14.44
				C1839.71,2236.23,1810.65,2241.12,1787.67,2241.12z M1749.4,2199.38c3.16,1.43,33.92,14.31,79.63,0.23
				c-33.97-28.88-90.52-90.94-109.93-195.42c-25.22-135.75-19.07-208.13-13.17-239.18c-13.73-1.97-35.9-0.44-57,21.38
				c-21.36,22.09-27.51,90.51-15.29,170.26C1651.26,2071.78,1698.82,2171.46,1749.4,2199.38z"/>
		</g>
		<g class="st2">
			<path class="st7" d="M2464.56,1935.49c6.2,10.08,12.21,20.24,17.98,30.51C2476.78,1955.69,2470.77,1945.53,2464.56,1935.49z"/>
		</g>
		<g class="st2">
			<path class="st7" d="M2454.55,1919.68c-6.78-10.49-13.81-20.86-21.09-31.05C2440.74,1898.85,2447.76,1909.23,2454.55,1919.68z"/>
		</g>
		<g class="st2">
			<path class="st7" d="M2410.88,1858.35c7.77,9.97,15.3,20.05,22.58,30.27C2426.19,1878.36,2418.67,1868.24,2410.88,1858.35z"/>
		</g>
		<g>
			<g class="st5">
				<path class="st3" d="M1837,1720.33c13.12,25.31,28.38,49.96,45.88,73.6c95.14,128.65,236.73,202.74,384.51,216.12
					c38.64,3.51,77.68,2.9,116.46-2.02c10.22-1.32,20.4-2.9,30.57-4.74c16.05-3.03,32.06-6.75,47.9-11.23
					c11.67-3.29,23.29-7.02,34.78-11.14c22.46-8.03,44.8-17.28,66.19-28.86c59.84-32.39,178.88-266.56,178.88-266.56l-496.41,73.03
					c0,0-0.57,8.11-0.97,22.2c-90.23-32.68-182.3-62.42-237.3-70.49C1946.09,1701.25,1888.98,1706.69,1837,1720.33z"/>
			</g>
			<g>
				<path class="st6" d="M2835.7,1545.74c-23.42,86.92-68.65,168.35-134.35,235.5c-13.4,13.69-27.6,26.77-42.65,39.17
					c-7.3,6.06-14.88,11.94-22.61,17.73c-23.41,17.31-47.74,32.43-72.8,45.4c-21.58,11.23-43.72,20.83-66.17,28.89
					c-27.11,9.74-54.77,17.15-82.66,22.35c-10.18,1.86-20.38,3.45-30.59,4.76c-187.01,23.6-380.93-51.75-500.97-214.09
					c-176.88-239.11-126.4-576.32,112.66-753.19c46.07-34.03,95.79-59.74,147.3-77.15c6-2.09,12.09-4.02,18.2-5.81
					c16.33-4.91,32.8-9.02,49.36-12.32c38.31-7.62,77.16-10.96,115.76-10.17c38.59,0.75,77.04,5.66,114.52,14.59
					c11.92,2.83,23.75,6.06,35.49,9.72c17.59,5.5,34.92,11.85,51.97,19.19c84.96,36.3,161.69,95,220.6,174.66
					C2850.5,1222.49,2877,1392.47,2835.7,1545.74z"/>
				<path class="st3" d="M2316.38,1945.53c-170.15,0-332.37-80.39-434.9-219.05c-177.16-239.48-126.46-578.45,113.02-755.64
					c45.46-33.58,95.18-59.62,147.78-77.4c5.75-2,11.73-3.91,18.27-5.83c16.27-4.9,32.93-9.06,49.51-12.36
					c38.05-7.57,77.2-11.01,116.13-10.2c38.63,0.75,77.29,5.68,114.9,14.64c12.08,2.87,24.06,6.15,35.61,9.75
					c18,5.62,35.54,12.1,52.14,19.25c87.74,37.49,164.27,98.08,221.32,175.23c98.67,133.36,130.46,301.86,87.24,462.29
					c-23.96,88.94-70.58,170.64-134.79,236.27c-13.6,13.88-28,27.1-42.78,39.3c-6.81,5.64-14.23,11.46-22.69,17.78
					c-23.15,17.12-47.72,32.45-73.05,45.55c-21.18,11.03-43.52,20.78-66.39,28.98c-26.75,9.61-54.65,17.16-82.93,22.42
					c-10.15,1.85-20.47,3.46-30.69,4.77C2361.46,1944.12,2338.84,1945.53,2316.38,1945.53z M2315.14,868.43
					c-35.1,0-70.16,3.44-104.39,10.25c-16.47,3.28-33.02,7.41-49.19,12.28c-6.5,1.91-12.43,3.8-18.13,5.79
					c-52.27,17.67-101.67,43.54-146.84,76.9c-237.92,176.04-288.3,512.81-112.29,750.73c115.31,155.94,306.68,237.7,499.34,213.4
					c10.16-1.31,20.42-2.9,30.49-4.74c28.09-5.23,55.81-12.72,82.39-22.27c22.72-8.15,44.91-17.84,65.95-28.79
					c25.16-13.02,49.58-28.24,72.57-45.25c8.4-6.28,15.77-12.06,22.54-17.67c14.69-12.12,29-25.25,42.51-39.05
					c63.79-65.2,110.1-146.37,133.91-234.73l1.69,0.46l-1.69-0.46c42.95-159.39,11.36-326.79-86.67-459.29
					c-56.67-76.65-132.71-136.85-219.88-174.09c-16.49-7.1-33.92-13.54-51.8-19.13c-11.46-3.57-23.36-6.83-35.37-9.69
					c-37.36-8.9-75.77-13.8-114.16-14.54C2322.47,868.47,2318.8,868.43,2315.14,868.43z"/>
			</g>
			<g class="st5">
				<path class="st3" d="M2835.7,1545.72c-23.42,86.92-68.65,168.35-134.35,235.5c-13.4,13.69-27.6,26.77-42.65,39.17
					c-7.3,6.06-14.88,11.94-22.61,17.73c-23.41,17.31-47.74,32.43-72.8,45.4c-21.58,11.23-43.72,20.83-66.17,28.89
					c-27.11,9.74-54.77,17.15-82.66,22.35c-10.18,1.86-20.38,3.44-30.59,4.76c-187.01,23.6-380.93-51.75-500.97-214.09
					c-64.1-86.66-98.36-186.25-104.57-286.38c16.41,39.23,37.75,77.18,64.19,112.92c45.02,60.88,102.54,75.63,164.08,111.41
					c102.56,59.64,220.01,117.43,336.9,102.68c10.21-1.31,20.41-2.9,30.59-4.76c27.89-5.19,55.55-12.6,82.66-22.35
					c22.46-8.05,44.6-17.66,66.17-28.89c25.06-12.97,49.4-28.09,72.8-45.4c7.74-5.79,15.31-11.67,22.61-17.73
					c15.05-12.4,29.24-25.48,42.65-39.17c65.7-67.15,110.93-148.58,134.35-235.5c15.26-56.71,21.26-115.71,17.59-174.49
					C2859.71,1309.63,2866.28,1432.25,2835.7,1545.72z"/>
			</g>
			<g>
				<path class="st3" d="M2316.39,1955.68c-173.35,0-338.62-81.9-443.08-223.16c-180.49-243.97-128.83-589.33,115.15-769.84
					c46.31-34.21,96.97-60.74,150.57-78.86c5.82-2.03,11.96-3.99,18.66-5.96c16.51-4.97,33.49-9.21,50.39-12.58
					c38.78-7.71,78.61-11.21,118.33-10.4c39.35,0.76,78.73,5.78,117.04,14.91c12.3,2.92,24.51,6.27,36.27,9.93
					c18.34,5.73,36.21,12.33,53.13,19.62c89.37,38.18,167.35,99.92,225.46,178.52c100.52,135.86,132.92,307.53,88.88,470.97l0,0
					c-24.42,90.62-71.91,173.86-137.34,240.73c-13.86,14.15-28.52,27.61-43.58,40.03c-6.92,5.74-14.48,11.66-23.07,18.08
					c-23.62,17.48-48.66,33.09-74.46,46.44c-21.56,11.23-44.32,21.16-67.63,29.52c-27.26,9.79-55.69,17.48-84.5,22.84
					c-10.35,1.89-20.85,3.53-31.25,4.86C2362.33,1954.25,2339.28,1955.68,2316.39,1955.68z M2315.14,878.59
					c-34.44,0-68.83,3.37-102.41,10.05c-16.15,3.22-32.39,7.27-48.25,12.05c-6.4,1.88-12.17,3.72-17.72,5.65
					c-51.37,17.36-99.83,42.75-144.15,75.49c-233.42,172.7-282.84,503.11-110.16,736.53c113.13,153,300.83,233.24,489.91,209.36
					c9.96-1.28,20.04-2.85,29.94-4.66c27.51-5.12,54.71-12.47,80.77-21.84c22.3-8,44.06-17.5,64.7-28.24
					c24.71-12.78,48.66-27.72,71.22-44.41c8.21-6.14,15.46-11.82,22.1-17.32c14.44-11.9,28.47-24.79,41.74-38.33
					c62.57-63.96,108-143.58,131.36-230.26l0,0c42.13-156.38,11.14-320.62-85.03-450.61c-55.6-75.2-130.19-134.26-215.7-170.79
					c-16.2-6.98-33.3-13.29-50.84-18.77c-11.23-3.5-22.91-6.7-34.69-9.5c-36.67-8.74-74.35-13.54-112-14.27
					C2322.33,878.62,2318.74,878.59,2315.14,878.59z M2835.7,1545.74h0.05H2835.7z"/>
			</g>
			<g>
				<path class="st3" d="M2316.4,1961.31c-175.14,0-342.09-82.74-447.62-225.45c-182.34-246.47-130.15-595.36,116.33-777.72
					c46.78-34.56,97.96-61.36,152.11-79.67c5.86-2.04,12.08-4.03,18.88-6.03c16.65-5.01,33.8-9.29,50.87-12.7
					c39.18-7.79,79.4-11.32,119.55-10.5c39.74,0.77,79.53,5.84,118.23,15.06c12.43,2.95,24.76,6.33,36.65,10.04
					c18.53,5.79,36.58,12.46,53.68,19.82c90.28,38.57,169.06,100.94,227.77,180.35c101.55,137.26,134.28,310.68,89.79,475.79l0,0
					c-24.67,91.55-72.65,175.64-138.75,243.21c-13.99,14.29-28.81,27.89-44.02,40.44c-6.99,5.79-14.61,11.77-23.27,18.24
					c-23.89,17.67-49.18,33.44-75.25,46.93c-21.77,11.34-44.77,21.38-68.31,29.82c-27.54,9.89-56.27,17.66-85.37,23.08
					c-10.47,1.91-21.07,3.56-31.57,4.91C2362.81,1959.87,2339.52,1961.31,2316.4,1961.31z M2315.14,884.22
					c-34.07,0-68.09,3.34-101.31,9.95c-15.97,3.18-32.03,7.19-47.72,11.92c-6.35,1.86-12.03,3.68-17.49,5.58
					c-50.86,17.19-98.8,42.3-142.65,74.69c-230.92,170.85-279.81,497.72-108.97,728.64c111.92,151.36,297.63,230.71,484.67,207.12
					c9.84-1.27,19.83-2.82,29.63-4.61c27.2-5.06,54.1-12.33,79.88-21.59c22.06-7.91,43.59-17.31,64-27.94
					c24.46-12.65,48.15-27.43,70.47-43.94c8.12-6.07,15.29-11.69,21.86-17.13c14.3-11.79,28.18-24.54,41.31-37.94
					c61.9-63.27,106.84-142.04,129.94-227.79l0,0c41.69-154.71,11.03-317.19-84.12-445.79c-55.01-74.4-128.79-132.82-213.39-168.96
					c-16.03-6.91-32.94-13.15-50.31-18.57c-11.11-3.46-22.66-6.63-34.31-9.4c-36.27-8.65-73.55-13.39-110.81-14.12
					C2322.26,884.26,2318.7,884.22,2315.14,884.22z M2835.7,1545.74h0.05H2835.7z"/>
			</g>
			<g>
				<path class="st3" d="M2783.01,1673.28c-256.01,287.39-709.88,233.64-819.85-131.36c-74.82-248.32,110.56-513.3,353.66-569.88
					c176.93-41.18,367.69-3.99,506.67,253.14c0,0,43.95,123.33,29.65,215.78c-14.3,92.46-43.81,179.96-43.81,179.96L2783.01,1673.28
					z"/>
			</g>
			<g class="st5">
				<path class="st8" d="M2823.49,1225.19c-5.29-9.79-10.67-19.22-16.11-28.38c7.27,38.92,11.91,84.39,5.76,124.17
					c-14.3,92.46-43.81,179.96-43.81,179.96l-26.32,52.35c-237.45,266.56-645.07,239.59-790.67-56.96
					c2.67,15.23,6.25,30.44,10.82,45.6c109.97,365,563.84,418.75,819.85,131.36l26.32-52.35c0,0,29.51-87.5,43.81-179.96
					S2823.49,1225.19,2823.49,1225.19z"/>
			</g>
			<g>
				<path class="st3" d="M2385.37,1927.45c-85.49,0-169.02-19.4-242.7-57.68c-120.66-62.69-206.46-168.9-248.12-307.15
					c-38.34-127.23-19.87-265.69,52.01-389.86c78.19-135.09,211.45-235.89,356.46-269.64c81.39-18.95,158.12-21.48,228.06-7.54
					l1.52,0.3l1.44,0.61c89.91,38.41,168.33,100.5,226.77,179.54c101.08,136.63,133.66,309.26,89.38,473.61v0
					c-24.56,91.12-72.31,174.84-138.11,242.09c-13.94,14.22-28.68,27.76-43.83,40.25c-6.96,5.77-14.55,11.72-23.18,18.17
					c-23.76,17.58-48.94,33.28-74.89,46.71l-2.18,0.92C2508.05,1917.62,2446.21,1927.45,2385.37,1927.45z M2438.76,916.73
					c-41.13,0-84.24,5.21-128.94,15.61c-137.09,31.91-263.18,127.4-337.3,255.45c-67.68,116.92-85.17,246.97-49.25,366.17
					c39.28,130.31,119.93,230.31,233.24,289.18c118.65,61.64,264.71,71.3,400.94,26.52c24.17-12.58,47.61-27.24,69.72-43.59
					c8.16-6.1,15.37-11.75,21.97-17.22c14.36-11.84,28.32-24.66,41.5-38.12c62.2-63.58,107.36-142.73,130.58-228.91v0
					c41.89-155.46,11.08-318.74-84.53-447.97c-54.97-74.34-128.59-132.81-213-169.17C2496.49,919.38,2468.12,916.73,2438.76,916.73z
					 M2835.7,1545.74h0.05H2835.7z"/>
			</g>
			<g>
				<path class="st3" d="M2387.19,1874.81c-35.43,0-70.89-3.77-105.85-11.5c-163.18-36.07-285.28-151.37-334.98-316.33
					c-34.44-114.32-17.87-238.68,46.66-350.16c70.14-121.17,189.7-211.58,319.82-241.87c226.65-52.75,403.64,35.36,526.08,261.89
					l1.09,2.45c1.86,5.2,45.27,128.61,30.46,224.36c-14.36,92.88-43.3,179.25-44.52,182.89l-0.95,2.28l-27.36,54.41l-1.54,1.72
					C2687.56,1806.81,2537.65,1874.81,2387.19,1874.81z M2433.06,975.52c-35.83,0-73.24,4.53-112.26,13.61
					c-120.85,28.13-232.04,112.34-297.41,225.27c-59.62,103-75.05,217.52-43.43,322.46c45.92,152.44,158.54,258.94,308.95,292.19
					c170.29,37.64,353.82-25.84,479.46-165.73l24.7-49.13c3.46-10.49,29.7-91.69,42.72-175.9c12.71-82.17-24.03-193.18-28.42-206.01
					C2714.7,1061.52,2589.1,975.52,2433.06,975.52z M2783.01,1673.28h0.05H2783.01z"/>
			</g>
			<g>
				<path class="st6" d="M2003.63,1538.96c0.14,0.76,0.29,1.56,0.38,2.32c17.1,103.7-30.34,195.1-106.62,204.73
					c-76.85,9.73-153.87-67.3-172.07-171.97c-14.01-80.75,11.11-154.43,58.68-188.26c14.02-10.04,30.04-16.6,47.55-18.79
					C1908.41,1357.31,1985.48,1434.32,2003.63,1538.96z"/>
			</g>
			<g class="st5">
				<path class="st3" d="M2004.01,1541.28c17.1,103.7-30.34,195.1-106.62,204.73c-76.85,9.73-153.87-67.3-172.07-171.97
					c-3.04-17.53-4.24-34.73-3.76-51.27c2.03-70.3,92.12-98.47,135.04-42.76l46.18,59.95c0,0,27.42,40.84,70.81,32.87
					C1988.32,1570.13,1997.85,1557.2,2004.01,1541.28z"/>
			</g>
			<g>
				<path class="st3" d="M1884.55,1764.37c-80.66,0-157.92-80.36-176.5-187.31c-11.46-65.94,0.86-129.32,33.81-173.87
					c22.7-30.7,52.96-49.23,87.51-53.59c85.83-10.88,171.83,72.78,191.56,186.37c11.46,65.94-0.86,129.32-33.81,173.87
					c-22.7,30.7-52.96,49.23-87.51,53.58C1894.59,1764.06,1889.56,1764.37,1884.55,1764.37z M1844.87,1383.72
					c-3.7,0-7.41,0.23-11.11,0.7c-24.8,3.13-46.83,16.83-63.69,39.63c-26.87,36.34-37.13,91.29-27.46,147l0,0
					c15.66,90.16,77.69,158.25,141.49,158.26c3.7,0,7.4-0.23,11.11-0.7c24.8-3.13,46.82-16.83,63.68-39.63
					c26.87-36.34,37.13-91.3,27.46-147.01C1970.7,1451.81,1908.68,1383.72,1844.87,1383.72z"/>
			</g>
			<g>
				
					<ellipse transform="matrix(0.9667 -0.2558 0.2558 0.9667 -343.0098 518.6412)" class="st6" cx="1822.23" cy="1577.9" rx="114.02" ry="150.62"/>
				<path class="st3" d="M1838.26,1728.21c-6.69,0-13.48-0.73-20.27-2.21c-36.29-7.92-69.48-35.6-91.06-75.96l0,0
					c-38.81-72.58-27.8-164.03,24.56-203.85c21.57-16.4,48.19-22.21,75-16.37c36.29,7.92,69.48,35.6,91.06,75.96
					c38.81,72.58,27.79,164.03-24.56,203.85C1876.89,1721.87,1857.97,1728.21,1838.26,1728.21z M1805.81,1431.15
					c-18.79,0-36.54,6.05-52.14,17.92c-51,38.79-61.56,128.18-23.55,199.26c21.08,39.42,53.39,66.44,88.64,74.13
					c26.12,5.7,51.03,0.26,72.04-15.72c51-38.79,61.56-128.18,23.55-199.26c-21.08-39.42-53.39-66.44-88.64-74.13
					C1818.98,1431.88,1812.33,1431.15,1805.81,1431.15z"/>
			</g>
			<g class="st5">
				<path class="st3" d="M1940.95,1619.12c2.15-28.88-3.62-58.45-15.16-85.15c-10.44,65.44-62.24,100.39-120.5,78.8
					c-37.65-13.93-69.33-48.3-87.17-89.64c-0.69,4.12-1.16,8.41-1.49,12.79c-5.44,73.54,37.5,160.3,99.46,183.26
					C1878.04,1742.16,1935.51,1692.62,1940.95,1619.12z"/>
			</g>
			<g>
				<path class="st3" d="M1840.14,1748.7c-64.29,0-124.97-66.37-141.07-156.98l0,0c-9.96-56.04,0.06-111.01,26.82-147.04
					c17.28-23.28,40.16-37.2,66.16-40.27c68.19-8.04,134.97,60.62,151.97,156.34c9.96,56.04-0.06,111.01-26.81,147.04
					c-17.29,23.28-40.16,37.2-66.16,40.27C1847.4,1748.49,1843.76,1748.7,1840.14,1748.7z M1802.67,1438.87
					c-2.18,0-4.35,0.12-6.52,0.38c-20.42,2.41-34.16,15.65-42.09,26.34c-21.1,28.42-28.75,73.27-20.44,119.98l0,0
					c13.31,74.86,65.13,133.33,113.31,127.63c20.42-2.41,34.16-15.66,42.1-26.34c21.1-28.42,28.74-73.27,20.43-119.98
					C1896.75,1495.4,1848.86,1438.87,1802.67,1438.87z"/>
			</g>
			<g class="st9">
				<path class="st6" d="M2493.85,1052.4c-3.73-3.64,15.43-2.27,15.43-2.27l13.2-1.46c0,0,23.65-1.58,35.42-1.52
					c11.88,0.06,23.71,0.69,35.46,1.89c14.11,1.44,27.64,6.67,38.68,15.57c46.88,37.74,86.06,86.56,113.17,144.83
					c54.4,116.93,46.52,215.31-2.63,317.59c0,0,0.39-67.12-48.22-190.97C2667.17,1266.79,2628.59,1183.74,2493.85,1052.4z"/>
			</g>
			<g class="st9">
				
					<ellipse transform="matrix(0.9667 -0.2558 0.2558 0.9667 -285.5656 597.7748)" class="st6" cx="2155.15" cy="1396.64" rx="71.98" ry="83.88"/>
			</g>
			<g class="st9">
				
					<ellipse transform="matrix(0.9417 -0.3365 0.3365 0.9417 -401.2462 826.6365)" class="st6" cx="2184.39" cy="1570.99" rx="29.72" ry="34.64"/>
			</g>
		</g>
		<g>
			<path class="st4" d="M1545.13,2236.26c-0.12-7.61,36.93-122.47,146.3-133.12c138.65-13.5,198.59,159.74,198.59,159.74
				L1545.13,2236.26z"/>
		</g>
		<g class="st9">
			<path class="st6" d="M1545.13,2236.26l0.44,0.04c28.64-37.42,73.47-74.35,139.49-80.75c93.87-9.12,158.74,50.53,198.35,106.81
				l6.62,0.53c0,0-59.96-173.22-198.62-159.75C1582.07,2113.79,1545,2228.67,1545.13,2236.26z"/>
		</g>
		<g>
			<path class="st3" d="M1890.03,2280.44c-7.27,0-14.07-4.56-16.58-11.81c-0.55-1.58-57.03-160-180.32-148.02
				c-97.73,9.52-129.01,111.67-130.52,117.19c-0.77,8.85-8.12,15.86-17.2,16.01c-9.88,0.08-17.67-7.58-17.83-17.26
				c-0.31-19.22,45.19-139.47,162.15-150.86c150.58-14.68,214.24,163.86,216.88,171.47c3.17,9.16-1.68,19.15-10.84,22.32
				C1893.87,2280.12,1891.93,2280.44,1890.03,2280.44z M1562.67,2235.98c0,0.46,0,0.91-0.03,1.36
				C1562.7,2236.77,1562.68,2236.31,1562.67,2235.98z"/>
		</g>
		<g class="st5">
			<path class="st3" d="M2607.79,2170.02c0,0-34.84-95.52-108.56-88.86c-48,4.33-63.96,27.61-63.96,27.61s-48.3-73.11-131.48-60.44
				c-114.12,17.39-167.2,182.36-167.2,182.36L2607.79,2170.02z"/>
		</g>
		<g>
			<path class="st4" d="M2607.79,2213.88c0,0-34.84-95.52-108.56-88.86c-48,4.33-63.96,27.61-63.96,27.61s-48.3-73.11-131.48-60.44
				c-114.12,17.39-167.2,182.36-167.2,182.36L2607.79,2213.88z"/>
		</g>
		<g class="st9">
			<path class="st6" d="M2142.03,2259.72c37.24-48.43,95.49-108.26,161.77-118.34c83.17-12.68,100.97,61.45,100.97,61.45
				s46.28-30.75,94.44-28.64c37.59,1.67,71.63,21.84,95.97,41.32l12.59-1.62c0,0-34.83-95.54-108.56-88.87
				c-47.99,4.34-63.95,27.63-63.95,27.63s-48.29-73.12-131.46-60.44C2210.68,2106.38,2158.22,2218.8,2142.03,2259.72z"/>
		</g>
		<g>
			<path class="st3" d="M2136.6,2292.1c-1.78,0-3.59-0.28-5.39-0.85c-9.21-2.97-14.28-12.85-11.32-22.07
				c2.3-7.16,57.83-175.52,181.26-194.33c68.21-10.4,115.14,29.16,136.21,52.41c12.02-8.22,31.29-17.09,60.29-19.71
				c86.04-7.75,125.01,95.91,126.63,100.32c3.32,9.1-1.37,19.17-10.47,22.5c-9.08,3.32-19.16-1.36-22.49-10.45
				c-0.56-1.52-31.42-82.79-90.51-77.41c-37.93,3.43-50.78,19.72-51.31,20.41c-3.3,4.81-8.56,7.42-14.5,7.45
				c-5.84-0.05-11.15-3.18-14.36-8.05c-1.71-2.55-43.41-63.53-114.2-52.76c-101.93,15.53-152.64,168.85-153.14,170.4
				C2150.89,2287.37,2144,2292.1,2136.6,2292.1z"/>
		</g>
		<g class="st5">
			<path class="st3" d="M2194.65,2131.08c-20.13,116.99-65.77,144.36-103.91,159.11c-34.54,13.36-177.14,14.55-229.97-74.74
				L2194.65,2131.08z"/>
		</g>
		<g>
			<path class="st6" d="M2033.1,1992.27c-148.59-83.71-103.97-208.78-77.71-230.75c36.61-30.64,145.44,12.79,164.46,108.62
				c18.63,93.86,97.24,82.25,74.8,212.7c-20.13,116.99-65.77,144.36-103.91,159.11c-34.54,13.36-177.14,14.55-229.97-74.74
				c-84.62-143.02-10.9-348.34-10.9-348.34L2033.1,1992.27z"/>
		</g>
		<g class="st5">
			<path class="st3" d="M2023.64,1997.13c0,0-40.44,72.03-77.27,34.23c-36.83-37.8-3.81-128.12-3.81-128.12
				S1957.32,1959.33,2023.64,1997.13z"/>
		</g>
		<g class="st5">
			<path class="st3" d="M1860.78,2167.22c52.81,89.26,195.41,88.08,229.93,74.7c38.16-14.74,83.82-42.11,103.91-159.09
				c6.1-35.31,4.74-60.22-0.79-79.61c-20.48,113.17-65.44,140.01-103.12,154.58c-34.52,13.38-177.12,14.56-229.93-74.74
				c-23.47-39.65-34.74-84.09-38.82-127.6C1816.39,2021.72,1821.7,2101.11,1860.78,2167.22z"/>
		</g>
		<g>
			<path class="st3" d="M2030.23,1997.36c-32.97-8.47-63.33-28.02-85.59-56.11c-11.2-13.92-20.31-29.95-26.35-47.22
				c-5.83-17.34-8.74-35.72-8.29-53.96c0.35-18.25,3.66-36.31,10.03-53.6c3.25-8.66,7.2-17.13,12.8-25.48
				c3.01-4.21,5.98-8.33,11.01-12.67c4.77-3.85,10-7.09,15.28-9.04c10.61-4.24,21.04-5.22,30.83-4.95
				c9.82,0.3,19.15,1.96,28.08,4.39c17.88,4.88,34.11,13.12,48.99,23.21c29.5,20.35,53.1,50.05,64.68,84.67
				c1.31,4.34,2.79,8.66,3.76,13.09l1.53,6.63l1.35,5.31c0.93,3.47,1.67,7.02,2.71,10.43l3.71,9.96
				c5.49,13.05,13.26,24.85,23.02,36.87c9.6,12.03,21.35,24.83,30.66,40.99c9.45,16.07,14.87,34.81,16.81,52.87
				c0.51,8.97,1.3,18.05,0.54,26.72c-0.24,4.37-0.33,8.79-0.72,13.11l-1.7,12.76c-0.62,4.22-1.03,8.57-1.84,12.68l-2.4,12.36
				c-1.42,8.25-3.75,16.45-5.67,24.67c-4.62,16.36-9.62,32.76-17.21,48.64c-7.43,15.85-16.83,31.36-29.19,45.02
				c-12.18,13.8-27.88,24.82-44.08,32.75c-4.05,1.83-8.13,3.77-12.16,5.33c-2.01,0.81-3.89,1.63-6.69,2.54
				c-2.64,0.94-4.89,1.43-7.31,2.09c-9.3,2.16-18.02,3.22-26.75,3.92c-34.68,2.42-68.82-1.02-102.27-10.19
				c-16.67-4.67-33.09-10.94-48.66-19.49c-15.61-8.38-30.24-19.31-42.89-32.46c-6.24-6.65-12.07-13.77-17.01-21.52l-3.69-5.79
				l-3.14-5.69c-2.02-3.83-4.34-7.51-6.09-11.46c-7.85-15.43-13.75-31.66-18.69-48.04c-4.93-16.41-8.41-33.13-10.75-49.91
				c-2.37-16.78-3.78-33.63-4.14-50.44c-0.37-16.81,0.14-33.57,1.32-50.23c1.23-16.66,2.38-33.33,4.62-49.86
				c2.23-16.54,6.08-32.81,11.35-48.65c2.71-7.9,5.97-15.65,9.92-23.14c4.06-7.49,8.4-14.75,14.42-21.58
				c2.3-2.61,6.27-2.86,8.88-0.56c1.31,1.15,2.02,2.72,2.12,4.33l0.01,0.18c1.99,33.84-4.52,64.22-9.71,95.28
				c-2.82,15.44-5.45,30.96-6.58,46.59c-1.18,15.62-1.6,31.25-1.27,46.82c0.33,15.57,1.65,31.03,3.8,46.31
				c2.13,15.28,5.27,30.35,9.67,44.95c4.41,14.58,9.6,28.92,16.46,42.36c1.51,3.47,3.56,6.64,5.3,9.97l2.71,4.95l2.85,4.44
				c3.75,5.93,8.24,11.36,13.05,16.52c19.54,20.51,46.64,34.32,75.6,42.35c28.96,8.01,60.2,11.14,90.09,8.99
				c7.4-0.57,14.79-1.54,21.26-3.05c1.47-0.42,3.19-0.78,4.36-1.24c1.06-0.31,2.91-1.07,4.65-1.78c3.53-1.35,6.75-2.92,10.08-4.4
				c12.8-6.36,24.11-14.25,33.4-24.77c18.85-20.81,30.51-49.42,38.43-79.04c1.74-7.55,3.88-14.93,5.2-22.65l2.23-11.48
				c0.77-3.83,1.07-7.56,1.64-11.34l1.53-11.31c0.32-3.74,0.37-7.42,0.58-11.13c0.71-7.51-0.06-14.59-0.38-21.78
				c-1.63-14.08-5.36-27.02-12.31-38.94c-6.81-12.01-16.98-23.37-27.61-36.54c-10.64-13.07-21.02-28.45-28.03-45.32l-4.76-12.8
				c-1.33-4.31-2.29-8.69-3.44-13.05l-1.61-6.46l-1.21-5.2c-0.74-3.48-1.93-6.84-2.93-10.24c-9-26.95-27.63-50.6-51.35-66.99
				c-11.88-8.05-24.95-14.63-38.36-18.25c-6.67-1.83-13.4-2.96-19.77-3.15c-6.35-0.23-12.37,0.6-16.81,2.46
				c-2.37,0.79-3.99,2.07-5.57,3.18c-1.16,0.92-3.1,3.33-4.76,5.71c-3.42,5.11-6.48,11.35-8.84,17.87
				c-4.76,13.1-7.06,27.44-6.73,41.55c0.49,28.44,11.04,55.38,27.52,79.16c16.75,23.89,39.15,44.23,62.2,67.82l0.1,0.1
				c2.34,2.39,2.29,6.23-0.1,8.56C2034.4,1997.36,2032.2,1997.86,2030.23,1997.36z"/>
		</g>
		<g>
			<path class="st3" d="M2001.56,1963.81c0.04,8.16-1.42,15.62-3.42,23.18c-1.98,7.52-5,14.82-8.29,22.01
				c-3.39,7.17-7.41,14.2-12.3,20.76c-1.29,1.64-2.65,3.21-3.96,4.77c-1.46,1.54-3,3.01-4.53,4.41c-1.58,1.39-3.47,2.62-5.19,3.77
				c-1.83,1.12-4.05,1.81-5.91,2.53c-0.91,0.36-1.94-0.1-2.3-1.01c-0.23-0.6-0.12-1.25,0.25-1.73l0.28-0.36
				c4.36-5.63,6.34-12.21,8.06-19.07c1.69-6.84,2.94-13.83,4.12-20.88c1.14-7.08,1.97-14.21,3.34-21.25
				c1.34-6.99,2.75-14.21,5.13-20.8l0.2-0.56c2.37-6.57,9.61-9.97,16.17-7.61C1998.33,1953.82,2001.52,1958.66,2001.56,1963.81z"/>
		</g>
		<g>
			<path class="st3" d="M2436.81,2658.43c6.26,12.69,13.72,25.53,21.52,37.69c7.87,12.21,16.35,23.96,25.36,35.15
				c8.99,11.21,18.82,21.56,29.02,31.22c10.3,9.57,21.4,17.86,32.8,25.09l0.48,0.3c8.2,5.2,10.63,16.06,5.43,24.26
				c-5.2,8.2-16.06,10.63-24.26,5.43c-0.47-0.3-0.94-0.63-1.37-0.96c-12.87-9.99-24.64-20.88-35.08-32.69
				c-10.32-11.87-19.85-24.21-28.29-37.13c-8.45-12.91-16.16-26.17-23.13-39.75c-6.96-13.67-13.22-27.3-18.74-41.95
				c-1.71-4.53,0.59-9.59,5.12-11.3c4.25-1.6,8.96,0.31,10.94,4.29L2436.81,2658.43z"/>
		</g>
		<g>
			<path class="st3" d="M2755.34,2337.65c7.79,9.26,16.66,18.51,25.65,27.08c9.06,8.61,18.54,16.72,28.32,24.27
				c9.73,7.64,20.02,14.37,30.43,20.53c10.43,6.19,21.33,11.1,32.21,15.38l0.53,0.21c9.04,3.55,13.48,13.76,9.93,22.8
				c-3.55,9.04-13.76,13.48-22.8,9.93c-0.61-0.24-1.21-0.52-1.77-0.81c-12.39-6.54-24.23-13.71-35.08-21.93
				c-10.84-8.21-21.19-16.86-30.7-26.24c-9.57-9.31-18.61-19.04-27.1-29.17c-8.51-10.22-16.38-20.49-23.9-31.85
				c-2.67-4.04-1.57-9.48,2.47-12.16c3.76-2.49,8.73-1.7,11.56,1.67L2755.34,2337.65z"/>
		</g>
		<g>
			<path class="st3" d="M1913.69,2905.22c-2.29-3.58-3.93-6.43-5.68-9.6c-1.75-3.1-3.32-6.21-4.94-9.31
				c-3.11-6.24-6.07-12.51-8.78-18.87c-5.44-12.7-10.25-25.59-14.17-38.74c-3.95-13.13-7.35-26.39-9.74-39.83
				c-2.64-13.39-4.08-26.97-5.22-40.48c-0.41-4.83,3.18-9.07,8.01-9.48c4.5-0.38,8.49,2.71,9.34,7.04l0.06,0.32
				c2.5,12.65,5.25,25.19,9.12,37.43c3.61,12.29,8.16,24.27,13.15,35.99c4.97,11.74,10.72,23.11,16.95,34.11
				c3.1,5.51,6.42,10.87,9.8,16.13c1.74,2.58,3.44,5.21,5.24,7.69c1.71,2.46,3.71,5.12,5.21,6.95l0.05,0.06
				c6.14,7.52,5.02,18.59-2.5,24.73c-7.52,6.14-18.59,5.02-24.73-2.5C1914.45,2906.34,1914.05,2905.78,1913.69,2905.22z"/>
		</g>
		<g class="st10">
			<g>
				<path class="st3" d="M1888.94,2794.66c-2.09,3.38-3.86,5.93-6.09,8.57c-2.09,2.65-4.48,5.01-6.88,7.38
					c-4.92,4.6-10.39,8.75-16.41,12.11c-11.99,6.78-26.11,10.59-40.18,10.55c-6.93-0.47-14-0.74-20.54-2.79
					c-6.84-1.26-12.85-4.28-19.02-6.86c-5.98-2.9-11.34-6.67-16.8-10.18c-4.96-4.11-9.8-8.32-14.29-12.8
					c-3.44-3.44-3.45-9.02-0.02-12.46c2.63-2.63,6.51-3.26,9.73-1.87l0.99,0.43c5.36,2.32,10.36,4.95,15.26,7.62
					c5.19,1.92,10.05,4.55,15.09,6.28c10.03,3.68,20.01,5.9,29.95,6.53c9.91,0.08,19.69-1.73,29.08-5.73
					c2.39-0.88,4.59-2.25,6.95-3.32c2.25-1.28,4.48-2.66,6.7-4.07c4.3-2.81,8.78-6.51,12.19-9.57l1.02-0.92
					c3.59-3.22,9.12-2.92,12.34,0.67C1890.65,2787.19,1890.92,2791.45,1888.94,2794.66z"/>
			</g>
		</g>
		<g>
			<path class="st3" d="M1028.27,2443.62c-15.16,3.23-29.82,5.08-44.99,6.13c-15.09,0.95-30.37,1-45.79-0.57
				c-15.4-1.52-30.99-4.6-46.28-10.32c-15.25-5.67-30.23-14.42-42.74-26.81l-0.1-0.1c-6.89-6.83-6.95-17.96-0.12-24.85
				c6.83-6.89,17.95-6.95,24.85-0.12c0.42,0.42,0.83,0.87,1.21,1.32c7.43,9.03,17.38,16.62,28.99,22.33
				c11.58,5.74,24.57,9.81,38.04,12.51c13.47,2.77,27.47,4.15,41.56,4.68c14.01,0.47,28.55,0.06,42.21-1.46l0.37-0.04
				c4.81-0.53,9.15,2.94,9.68,7.76C1035.66,2438.58,1032.61,2442.67,1028.27,2443.62z"/>
		</g>
		<g class="st5">
			<path class="st3" d="M2762.44,2357.06c-5.35-4.69-8.77-7.46-9.39-7.94C2753.45,2349.69,2755.78,2352.67,2762.44,2357.06z"/>
		</g>
		<g class="st5">
			<path class="st3" d="M896.3,2594.45c126.94,57.68,252.66-24.91,252.66-24.91s-17.72,205.28,157.56,62.33
				c-56.15,117.12,15.62,254.89,61.32,286.47c95.45,65.84,231.34,44.52,336.79-14.78c3.16,31.06,19.26,75.53,71.1,92.29
				c108.12,34.92,152.16-100.93,152.16-100.93s32.59,44.3,100.45,77.99c196.69,97.6,366.57-3.42,485.88-183.75
				c95.8,67.2,279.24,52.46,352.8-38.51c73.56-90.93,63.08-238.4-22.63-318.01c110.27,48.86,239.63,39.13,333.23-37.24
				c31.67-25.88,52.42-60.14,63.65-97.29c-80.67,56.23-191.51,115.89-288.19,105.49c-124.35-13.33-172.78-34.92-190.54-46.5
				c43.91,38.42,218.09,205.55,80.27,330.82c-156.73,142.34-445.96-76.1-445.96-76.1s59.92,177.74-39.92,272.92
				c-85.67,81.63-341.66,104.75-465.57-63.6c0,0-48.86,120.19-122.99,88.78c-74.17-31.36-75.62-120.36-75.62-120.36
				s-154.01,134.62-273.84,50.49c-119.79-84.13-62.73-290.95-62.73-290.95s-96.98,90.58-151.9,49.22
				c-54.92-41.36-36.36-99.13-36.36-99.13s-291.74,76.19-237.87-64.61c0,0-35.13-6.18-75.09-18.82
				C840.29,2454.74,812.08,2556.16,896.3,2594.45z"/>
		</g>
		<g>
			<path class="st4" d="M1485.49,2422.47c0,0-89.09,89.49-179.15,43.7c-57.19-29.08-64.83-145.41-64.83-145.41
				s-136.82,71.26-135.37-53.76L1485.49,2422.47z"/>
		</g>
		<g>
			<path class="st11" d="M1241.51,2320.74c0,0-0.66,0.35-1.93,0.97l2.06,0.83C1241.55,2321.35,1241.51,2320.74,1241.51,2320.74z"/>
		</g>
		<g>
			<path class="st11" d="M1262.48,2283.67"/>
		</g>
		<g class="st2">
			<g>
				<path class="st3" d="M1491.71,2398.66c-10.42,12.66-22.08,22.87-34.9,32.5c-12.87,9.38-26.89,17.54-42.12,23.71
					c-15.18,6.3-31.71,10.14-48.77,11.29c-17.05,0.88-34.69-1.34-50.93-7.28c-4.06-1.49-8.09-3.04-11.93-4.96
					c-1.99-0.98-3.79-1.66-5.92-2.91c-2.07-1.21-4.23-2.33-6.17-3.68c-7.94-5.29-14.71-11.68-20.26-18.58
					c-11.03-13.89-18.64-28.94-23.93-44.25c-5.45-15.27-8.92-30.78-11.25-46.28c-2.13-15.61-3.39-30.91-2.75-46.87l0-0.01
					l12.81,7.21c-13.53,10.42-28.19,17.7-44.38,23.21c-16.12,5.22-34.03,8.34-53.48,4.87c-9.62-1.8-19.7-5.65-28.2-12.22
					c-8.56-6.46-15.1-15.35-19.02-24.47c-3.75-9.17-5.61-18.47-5.86-27.36c-0.29-4.47,0.26-8.8,0.44-13.11
					c0.59-4.27,1.34-8.45,2.31-12.57c1.13-4.83,5.96-7.83,10.79-6.7c3.37,0.79,5.84,3.38,6.65,6.51l0.1,0.39
					c3.79,14.83,7.89,28.5,14.15,38.27c6.46,9.52,14.03,14.4,25.46,16.98c11.36,2.45,25.3,1.75,39.43-0.34
					c14.16-1.97,28.99-5.62,43.5-9.03l4.35-1.02c3.76-0.88,7.53,1.45,8.42,5.22c0.24,1.01,0.23,2.05,0.04,3.01l0,0.01
					c6.18,28.43,14,57.23,25.44,82.68c5.9,12.61,12.6,24.54,20.97,33.77c4.15,4.61,8.55,8.59,13.29,11.48
					c1.17,0.76,2.39,1.34,3.56,2.05c1.11,0.69,2.85,1.34,4.24,2.01c2.91,1.45,5.93,2.55,8.96,3.63c24.16,8.71,51.11,7.93,77.39-0.34
					c13.1-4.14,26.14-9.62,38.7-16.42c12.58-6.56,25.1-14.6,36.46-22.78l0.5-0.36c3.95-2.84,9.45-1.94,12.29,2
					C1494.44,2391.24,1494.18,2395.65,1491.71,2398.66z"/>
			</g>
		</g>
		<g>
			<path class="st3" d="M2393.1,2210.32c1.1-6.68,2.51-12.39,4.29-18.44c1.76-5.95,3.83-11.84,6.27-17.62
				c4.8-11.6,11.04-22.84,18.67-33.48l0.18-0.25c5.7-7.94,16.77-9.76,24.71-4.05c7.94,5.7,9.76,16.77,4.06,24.71
				c-0.88,1.23-1.96,2.36-3.07,3.29c-7.82,6.49-15.17,14.1-21.6,22.66c-3.26,4.25-6.28,8.75-9.07,13.4
				c-2.77,4.56-5.44,9.68-7.44,14.11l-0.31,0.7c-1.99,4.43-7.19,6.4-11.62,4.41C2394.45,2218.1,2392.46,2214.16,2393.1,2210.32z"/>
		</g>
		<g class="st9">
			<path class="st6" d="M3165.68,2156.95c0,0-34.1-115.05-134.02-145.48c-99.92-30.43-206.97,34.23-188.73,39.93
				c18.24,5.71,117.36-12.85,195.87,39.45C3117.31,2143.15,3183.13,2214,3165.68,2156.95z"/>
		</g>
		<g class="st9">
			<path class="st6" d="M1180.72,2017.09c0,0-91.28-46.35-169.72-35.66s-139.77,84.15-140.49,104.12
				c-0.71,19.97,85.58-26.39,155.46-36.37C1091.69,2039.8,1246.33,2049.19,1180.72,2017.09z"/>
		</g>
		<g class="st9">
			<path class="st6" d="M2609.36,2607.36c28.73,23.53,129.46,59.28,182.99,5.22c76.34-77.09-30.64-159.92-36.72-160.6
				c-32.09-3.57,37.46,89.95-32.98,116.38C2690.74,2580.35,2580.62,2583.82,2609.36,2607.36z"/>
		</g>
		<g class="st9">
			<path class="st6" d="M1949.76,2676.58c-28.16,19.47-39.92,79.26,45.61,129.13c82.35,48.02,151.01,44.82,154.99,21.35
				c5.4-31.83-56.91-48.64-100.69-79.54C2021.82,2727.86,1980.31,2655.46,1949.76,2676.58z"/>
		</g>
	</g>
</g>
</svg>
