<?xml version="1.0" encoding="utf-8"?>
<!-- Generator: Adobe Illustrator 28.0.0, SVG Export Plug-In . SVG Version: 6.00 Build 0)  -->
<svg version="1.1" id="Layer_1" xmlns="http://www.w3.org/2000/svg" xmlns:xlink="http://www.w3.org/1999/xlink" x="0px" y="0px"
	 viewBox="0 0 4000 4000" style="enable-background:new 0 0 4000 4000;" xml:space="preserve">
<style type="text/css">
	.st0{display:none;}
	.st1{display:inline;fill:#2B1E59;}
	.st2{fill:#FFFFFF;}
	.st3{opacity:0.35;}
	.st4{fill:#2B1E59;}
	.st5{fill:#371A45;}
	.st6{fill:#22A7F0;}
	.st7{fill:#18113A;}
	.st8{opacity:0.7;}
</style>
<g>
	<g class="st0">
		<rect class="st1" width="4000" height="4000"/>
	</g>
	<g>
		<g>
			
				<ellipse transform="matrix(0.9057 -0.4239 0.4239 0.9057 -803.982 1541.8237)" class="st2" cx="3063.96" cy="2578.23" rx="20.93" ry="20.93"/>
		</g>
		<g>
			<circle class="st2" cx="3522.89" cy="1304.24" r="20.93"/>
		</g>
		<g>
			<circle class="st2" cx="2946.89" cy="832.32" r="20.93"/>
		</g>
		<g>
			<circle class="st2" cx="848.33" cy="2994.95" r="31.3"/>
		</g>
		<g>
			
				<ellipse transform="matrix(0.6531 -0.7573 0.7573 0.6531 -699.7831 1151.1921)" class="st2" cx="906.62" cy="1339.4" rx="20.93" ry="20.93"/>
		</g>
		<g>
			<path class="st2" d="M763.7,875.19c-1.9,11.4-12.68,19.11-24.09,17.21c-11.4-1.9-19.11-12.68-17.21-24.09
				c1.9-11.4,12.68-19.11,24.09-17.21C757.89,853,765.6,863.78,763.7,875.19z"/>
		</g>
		<g>
			
				<ellipse transform="matrix(0.7071 -0.7071 0.7071 0.7071 -1483.502 1163.446)" class="st2" cx="662.65" cy="2372.47" rx="20.93" ry="20.93"/>
		</g>
		<g>
			
				<ellipse transform="matrix(0.2684 -0.9633 0.9633 0.2684 295.237 1518.0834)" class="st2" cx="1147.1" cy="564.66" rx="20.93" ry="20.93"/>
		</g>
		<g>
			
				<ellipse transform="matrix(0.739 -0.6737 0.6737 0.739 -991.2001 3090.012)" class="st2" cx="3492.47" cy="2824.28" rx="20.93" ry="20.93"/>
		</g>
		<g>
			
				<ellipse transform="matrix(0.9841 -0.1777 0.1777 0.9841 -530.3893 624.1149)" class="st2" cx="3218.72" cy="3272.78" rx="20.93" ry="20.93"/>
		</g>
		<g>
			
				<ellipse transform="matrix(0.2298 -0.9732 0.9732 0.2298 1962.2582 3583.7817)" class="st2" cx="3245.28" cy="552.18" rx="20.93" ry="20.93"/>
		</g>
		<g>
			
				<ellipse transform="matrix(0.9738 -0.2272 0.2272 0.9738 -690.4746 702.2889)" class="st2" cx="2705.21" cy="3350.27" rx="20.93" ry="20.93"/>
		</g>
		<g>
			
				<ellipse transform="matrix(0.7071 -0.7071 0.7071 0.7071 -2102.0676 1784.5911)" class="st2" cx="1103.16" cy="3429.72" rx="20.93" ry="20.93"/>
		</g>
		<g>
			
				<ellipse transform="matrix(0.7071 -0.7071 0.7071 0.7071 -1276.3156 927.6526)" class="st2" cx="481.62" cy="2004.48" rx="20.93" ry="20.93"/>
		</g>
		<g>
			
				<ellipse transform="matrix(0.7071 -0.7071 0.7071 0.7071 -222.0063 2707.5984)" class="st2" cx="3157.36" cy="1621.78" rx="20.93" ry="20.93"/>
		</g>
		<g>
			
				<ellipse transform="matrix(0.7071 -0.7071 0.7071 0.7071 -2127.0139 1413.6138)" class="st2" cx="642.88" cy="3274.34" rx="20.93" ry="20.93"/>
		</g>
	</g>
	<g>
		<g>
			<path class="st2" d="M1946.32,3389.66c-8.57,0.19-17.24-0.04-25.77-0.69c-36.71-3.12-70.89-14.22-99.06-32.14
				c-17.54-11.39-31.12-23.08-41.73-35.87c-11.93-14.05-21.77-29.25-29.04-44.95c-14.15-30.94-19.31-67.35-14.7-103.02
				c-0.66,0.6-1.33,1.21-2,1.81c-54.48,49.04-121.51,76.9-188.7,78.41c-3.25,0.07-6.52,0.09-9.78,0.03
				c-39.39-0.4-77.62-11.38-110.41-31.75c-17.26-10.56-32.61-23.64-45.49-38.8c-14.43-17.07-24.97-36.8-30.53-57.11
				c-5.41-19.69-6.82-40.82-4.2-62.76c2.02-17.49,6.85-35.73,14.75-55.65c6.23-15.68,14.26-31.4,24.56-48.09
				c5.9-9.39,11.6-17.73,17.52-25.62c-4.33-19.9-7.75-36.87-10.61-52.65c-0.3-1.37-0.54-2.75-0.7-4.13
				c-4.32-24.37-7.36-45.94-9.31-65.89c-2.42-17.78-3.53-35.49-4.6-52.61c-0.41-6.56-0.82-13.12-1.31-19.68
				c-0.43-8.63-0.56-16.62-0.69-24.61c-0.06-4.11-0.13-8.23-0.24-12.34c-0.3-11.04-0.53-24.16,0.05-37.5
				c0.82-54.17,5.87-110.28,15.03-167.17c-27.51,14.66-55.23,24.35-82.04,28.53c-8.34,1.3-16.68,2.05-24.79,2.24
				c-40.09,0.9-74.55-11.76-99.68-36.59c-33.8-33.41-51.75-78.05-51.91-129.09c-0.31-97.44,62.97-213.99,188.11-346.43l0.95-1.01
				c9.57-10.11,19.39-20.28,29.7-30.6c88.42-88.54,183.29-157.58,282.48-205.63c-14.39-14.66-28.33-30.21-41.52-46.31
				c-36.14-44.16-66.71-92.97-90.89-145.1l-0.58-0.9l-1.14-2.83c-9.16-19.96-17.82-41.8-25.41-64.13l-0.27-0.68
				c-0.7-1.8-1.28-3.57-1.73-5.37c-10.37-31.45-18.47-63.51-24.08-95.32c-7.91-44.81-11.42-90.43-10.46-135.62
				c-2.4-47.83,5.92-104.39,24.74-168.11c27.93-100.78,77.8-192.31,148.13-271.59c80.88-91.24,184.59-159.34,299.91-196.93
				c21.71-7.15,44.64-13.38,68.06-18.48c15.08-3.27,30.63-6.08,46.21-8.35c27.76-4.06,56.1-6.44,84.22-7.06
				c20.91-0.47,42.05,0.03,62.84,1.47c49.4,3.36,98.48,12.11,145.83,25.98c20.52,6.01,41.16,13.15,61.34,21.23
				c7.49,2.94,15.2,6.15,22.76,9.57c64.31,28.29,124.27,66.82,178.01,114.42c153.61,136.25,237.13,331.52,230.18,537.2
				c6.02,7.3,11.54,15.06,16.48,23.15c16.2,26.54,27.15,56.92,32.55,90.32c15.3,46.37,15.64,101.65,0.93,155.99
				c-26.96,99.54-96.12,174.07-172.87,186.86c-23.47,10.08-47.25,15.46-70.73,15.98c-5.38,0.12-10.93-0.07-16.77-0.59
				c-35.44,34.04-74.24,64.04-115.84,89.61c24.64,15.72,46.65,33.65,65.75,53.59c9.38,9.8,16.95,21.59,22.46,35.03
				c27,65.92,110.47,307.34,51.35,646.9c-11.7,67.19-49.02,125.57-105.09,164.37c-40.71,28.17-88.08,43.65-136.99,44.74
				c-17.62,0.39-35.44-1.09-52.94-4.41c-9.57-1.82-19.29-3.96-29.46-6.5c-2.21,1.47-4.38,2.84-6.56,4.13
				c-7.06,4.57-14.26,7.65-20.65,10.38l-4.23,1.8c-3.19,1.23-6.5,2.2-9.82,3.13l-10.6,3l-10.71,1.63c-3.12,0.45-6.23,0.89-9.34,1.21
				l-1.22,0.12l-7.32,0.06l45.06,111.84c2.59,6.39,5.83,14.33,8.06,23.13c2.43,8.95,4.05,18.77,4.71,28.76
				c0.63,9.95,0.26,19.95-1.11,29.77c-0.6,4.3-1.33,7.9-2.08,11.44l-2.51,12.03c-2.01,10.92-4.92,21.96-7.74,32.63
				c-0.92,3.51-3,11.47-3,11.47c-19.46,66.23-46.35,120.08-82.2,164.63c-42.65,53.7-96.74,91.76-156.31,109.95
				C1996.16,3384.98,1971.4,3389.1,1946.32,3389.66z"/>
		</g>
		<g>
			<g>
				<path class="st2" d="M2578.96,2610.82c-5.49,31.77-17.98,60.74-35.57,85.39c-45.67,64.23-126.04,99.91-208.67,84.17
					c-39.69-7.53-83.95-20.89-132.11-43.13l28.2-885.59c0,0,178.21,2.21,285.77,114.56c5.97,6.16,10.39,13.56,13.62,21.54
					c2.25,5.59,5.2,13.12,8.55,22.3c0.09,0.09,0.09,0.09,0.09,0.09C2568.55,2092.03,2630.96,2312.38,2578.96,2610.82z"/>
			</g>
			<g class="st3">
				<path class="st4" d="M2543.39,2696.2c-45.67,64.23-126.04,99.91-208.67,84.17c-39.69-7.53-83.95-20.89-132.11-43.13l28.2-885.59
					c0,0,178.21,2.21,285.77,114.56c5.97,6.16,10.39,13.56,13.62,21.54c2.25,5.59,5.2,13.12,8.55,22.3
					c-1.99-1.9-41.18-37.12-191.98-22.17c0,0,171.25,249.26,74.44,609.49c-18.98,70.61,53.34,131.72,119.32,100.21
					C2541.49,2697.13,2542.44,2696.67,2543.39,2696.2z"/>
			</g>
			<g>
				<path class="st4" d="M2216.86,2015.98c0,0,0.24-0.13,0.69-0.37c0.48-0.25,1.19-0.63,2.12-1.12c1.78-0.93,4.35-2.23,7.61-3.8
					c3.27-1.57,7.26-3.38,11.84-5.39c4.6-1.97,9.8-4.14,15.53-6.34c5.71-2.25,11.99-4.43,18.63-6.71
					c6.67-2.21,13.73-4.44,21.12-6.46c7.37-2.08,15.05-4.01,22.9-5.76c7.88-1.66,15.89-3.26,23.98-4.51l6.06-0.93
					c2.03-0.25,4.06-0.5,6.08-0.76c2.02-0.23,4.03-0.53,6.05-0.71c2.02-0.19,4.03-0.38,6.04-0.57c8.02-0.72,15.94-1.18,23.62-1.29
					c7.68-0.06,15.1,0.04,22.11,0.58c0.88,0.05,1.75,0.11,2.61,0.16c0.86,0.08,1.72,0.17,2.57,0.25c1.7,0.17,3.37,0.34,5.02,0.5
					c3.29,0.29,6.45,0.82,9.48,1.29c6.07,0.8,11.56,2.14,16.41,3.13c2.42,0.55,4.66,1.23,6.73,1.78c2.07,0.58,3.97,1.04,5.67,1.59
					c6.77,2.26,10.55,3.66,10.55,3.66c1.98,0.73,2.99,2.94,2.26,4.92c-0.6,1.61-2.16,2.58-3.79,2.49l-0.2-0.01
					c0,0-3.96-0.22-10.73-0.79c-3.39-0.15-7.51-0.34-12.24-0.55c-4.73-0.03-10.02-0.21-15.8-0.03c-1.44,0.03-2.91,0.05-4.41,0.08
					c-1.49,0.01-3.03,0.17-4.58,0.22c-1.55,0.07-3.12,0.14-4.72,0.21c-0.8,0.04-1.6,0.07-2.41,0.11c-0.81,0.07-1.63,0.14-2.45,0.21
					c-1.64,0.14-3.3,0.28-4.99,0.42c-1.68,0.14-3.38,0.23-5.1,0.44c-1.72,0.18-3.45,0.37-5.21,0.55c-1.75,0.18-3.52,0.36-5.29,0.63
					c-7.11,0.96-14.44,1.99-21.83,3.44c-1.85,0.36-3.7,0.72-5.56,1.08c-1.86,0.35-3.71,0.81-5.57,1.22
					c-1.86,0.42-3.72,0.84-5.58,1.26l-5.57,1.38c-7.43,1.8-14.79,3.93-22,6.1c-7.18,2.3-14.24,4.53-20.98,7
					c-1.69,0.61-3.36,1.22-5.01,1.81c-1.65,0.63-3.28,1.25-4.89,1.86c-3.23,1.2-6.36,2.49-9.42,3.68
					c-6.09,2.48-11.8,4.92-17.03,7.25c-5.24,2.3-9.97,4.55-14.15,6.55c-4.17,2.01-7.78,3.8-10.69,5.32
					c-2.93,1.49-5.2,2.69-6.68,3.51c-1.43,0.79-2.19,1.21-2.19,1.21l-0.23,0.13c-8.23,4.57-18.61,1.6-23.18-6.63
					c-4.57-8.23-1.6-18.61,6.63-23.18C2216.71,2016.06,2216.82,2016,2216.86,2015.98z"/>
			</g>
			<g>
				<path class="st4" d="M2373.68,2801.12c-14.06,0-28.25-1.34-42.17-3.99c-44.82-8.51-90.58-23.46-135.99-44.41
					c-6.22-2.87-10.11-9.18-9.9-16.02l28.21-885.57c0.3-9.28,8.01-16.62,17.25-16.5c1.9,0.02,47.22,0.75,106.46,15.66
					c34.87,8.78,67.39,20.69,96.67,35.41c36.94,18.57,68.79,41.69,94.68,68.72c7.11,7.43,12.88,16.46,17.13,26.85
					c11.08,27.05,38.69,101.83,55.65,211.59c21.03,136.08,19.05,277.68-5.87,420.85c-9.18,52.74-36.84,100.65-77.89,134.9
					C2477.33,2782.48,2426.11,2801.12,2373.68,2801.12z M2220.06,2726.4c39.49,17.37,79.08,29.89,117.81,37.25
					c11.83,2.25,23.88,3.39,35.81,3.39c93.19,0,172.48-66.94,188.53-159.17c56.35-323.72-22.29-551.55-47.74-613.67
					c-2.63-6.42-6.06-11.87-10.21-16.19c-52.55-54.87-123.74-81.64-174.2-94.43c-34.9-8.85-65.04-12.44-82.72-13.88L2220.06,2726.4z
					"/>
			</g>
		</g>
		<g>
			<g>
				<path class="st2" d="M1840.73,1756.74l-121.85,208.28l-191.55,327.66c-84.4,161.35-247.71,233.22-314.06,167.61
					c-17.23-17.01-30.22-39.21-35.93-66.94c-16.21-79.04,27.2-202.83,202.99-378.82
					C1620.11,1774.36,1840.73,1756.74,1840.73,1756.74z"/>
			</g>
			<g class="st3">
				<path class="st4" d="M1718.88,1965.02l-191.55,327.66c-84.4,161.35-247.71,233.22-314.06,167.61
					c-17.23-17.01-30.22-39.21-35.93-66.94c81.38,73.35,146.58,29.08,186.13-18.99c22.36-27.18,38.69-58.84,49.38-92.38
					c73.5-230.54,292.77-401.06,292.77-401.06S1711.11,1915.77,1718.88,1965.02z"/>
			</g>
			<g>
				<path class="st4" d="M1327.13,2154.98c-3.92,5.83-8.03,11.52-12.08,17.16l-12.17,16.75l-11.96,16.61
					c-3.95,5.52-7.8,11.06-11.56,16.62c-3.76,5.57-7.23,11.26-10.55,16.99c-3.25,5.76-6.31,11.55-9.03,17.42
					c-0.68,1.47-1.28,2.95-1.93,4.42l-0.95,2.21l-0.85,2.22c-0.55,1.48-1.18,2.95-1.68,4.43l-1.49,4.44
					c-1.81,5.92-3.2,11.83-3.93,17.6c-0.24,2.86-0.58,5.72-0.48,8.47l-0.02,2.08l0,0.13l0,0.06c0.04,0.96-0.05-1.24-0.04-0.98
					l0.03,0.33l0.06,0.65l0.13,1.3l0.06,0.65l0.03,0.33c0.01,0.11,0.02,0.25,0.04,0.21c0.07,0.02,0.12,0.05,0.15,0.07
					c0.04,0.02,0.06,0.05,0.06,0.08c0,0.01,0,0.03,0,0.05l0.11,0.22c0.14,0.3,0.26,0.6,0.35,0.91c0.17,0.28,0.36,0.56,0.49,0.85
					c0.1,0.32,0.4,0.54,0.57,0.82c0.1,0.14,0.19,0.28,0.27,0.42c0.11,0.13,0.25,0.24,0.37,0.36c0.12,0.12,0.23,0.25,0.34,0.38
					l0.16,0.2c0.06,0.06,0.14,0.1,0.21,0.16c0.28,0.21,0.54,0.44,0.78,0.69c0.31,0.17,0.6,0.36,0.88,0.57
					c0.13,0.12,0.29,0.2,0.45,0.26c0.16,0.07,0.32,0.15,0.47,0.23c1.25,0.57,2.55,1.06,3.84,1.12c1.28,0.07,2.5-0.07,3.71-0.39
					c0.29-0.14,0.59-0.28,0.89-0.38l0.23-0.07l0.06-0.02l0.03-0.01c0.3-0.13-0.38,0.17-0.28,0.12l0.3-0.14l1.19-0.54l2.38-1.09
					c0.44-0.19,0.71-0.34,1.01-0.5l0.9-0.47l1.81-0.93c0.62-0.33,1.27-0.72,1.91-1.08l1.92-1.09l1.85-1.17
					c4.95-3.12,9.48-6.72,13.62-10.65c4.17-3.9,7.74-8.34,10.9-13.06c1.63-2.32,2.97-4.85,4.4-7.32c0.65-1.28,1.24-2.6,1.87-3.89
					c0.3-0.65,0.64-1.29,0.93-1.95l0.78-2.03c2.29-5.33,3.74-11.12,5.18-16.94l0.92-3.72c1.67-6.75,8.21-11.05,14.94-10.17l0,0
					c0.13,0.05,0.75,0.06,1.17,0.09l1.48,0.03c1.01,0.02,2.04,0.01,3.08-0.01c2.08-0.04,4.2-0.13,6.31-0.27
					c2.12-0.14,4.24-0.34,6.36-0.57l3.17-0.4l3.16-0.47l3.15-0.55l3.13-0.63c2.07-0.46,4.15-0.93,6.19-1.5
					c1.03-0.26,2.05-0.55,3.05-0.87c1.01-0.31,2.04-0.59,3.02-0.95c0.99-0.35,2-0.67,2.99-1.04l2.93-1.14
					c1.91-0.82,3.87-1.63,5.71-2.59c1.9-0.89,3.67-1.95,5.49-2.98l2.63-1.67c0.89-0.55,1.68-1.19,2.54-1.79l1.26-0.91l1.19-0.98
					c0.78-0.67,1.65-1.28,2.38-2l2.27-2.12c0.73-0.73,1.41-1.51,2.13-2.27c0.74-0.75,1.38-1.56,2.02-2.38l0.98-1.23
					c0.34-0.4,0.66-0.82,0.94-1.26l1.78-2.61c0.58-0.88,1.06-1.82,1.6-2.74l0.8-1.39c0.25-0.47,0.46-0.96,0.69-1.45l1.38-2.92
					l0.23-0.49c1.31-2.78,4.64-3.97,7.42-2.66c2.43,1.15,3.64,3.82,3.04,6.33l-0.89,3.74c-0.16,0.62-0.29,1.26-0.47,1.88l-0.59,1.84
					c-0.41,1.22-0.77,2.48-1.25,3.69l-1.5,3.62c-0.24,0.61-0.52,1.2-0.82,1.78l-0.89,1.76c-0.59,1.18-1.18,2.36-1.89,3.46
					c-0.68,1.12-1.35,2.27-2.07,3.38l-2.28,3.24c-0.75,1.1-1.62,2.08-2.44,3.12l-1.25,1.55l-1.33,1.47c-0.9,0.96-1.77,1.98-2.71,2.9
					l-2.84,2.76c-1.96,1.75-3.93,3.53-6.02,5.11c-2.05,1.66-4.2,3.14-6.36,4.65l-3.29,2.14c-1.11,0.69-2.23,1.34-3.35,2.01
					c-1.12,0.69-2.27,1.28-3.41,1.91c-1.14,0.64-2.29,1.24-3.45,1.81c-2.31,1.19-4.66,2.27-7.03,3.33l-3.57,1.52l-3.6,1.43
					l-3.64,1.34l-3.67,1.25c-2.46,0.8-4.93,1.56-7.43,2.25c-2.5,0.7-5.02,1.34-7.59,1.93c-1.29,0.29-2.58,0.57-3.91,0.83l-2.02,0.38
					c-0.74,0.12-1.29,0.23-2.33,0.35l-0.01,0l15.87-13.89l-1.18,5.87l-0.62,2.93c-0.2,0.98-0.52,1.94-0.78,2.92l-1.66,5.83
					c-0.6,1.93-1.38,3.83-2.07,5.74l-1.07,2.86c-0.39,0.95-0.83,1.87-1.25,2.81c-0.86,1.86-1.68,3.75-2.6,5.59l-2.97,5.43
					l-0.76,1.35l-0.84,1.3l-1.7,2.6c-4.59,6.88-9.89,13.36-15.91,19.02c-6,5.68-12.61,10.61-19.54,14.83
					c-0.87,0.53-1.73,1.07-2.6,1.57l-2.66,1.46c-0.9,0.48-1.76,0.97-2.68,1.45l-2.88,1.41l-1.44,0.7c-0.48,0.23-0.99,0.48-1.35,0.63
					l-2.4,1.05l-1.2,0.52l-0.3,0.13c0.05-0.02-0.67,0.29-0.43,0.18l-0.13,0.05l-0.25,0.09l-1,0.36c-1.34,0.47-2.7,0.92-4.06,1.33
					c-5.57,1.42-11.4,1.77-17.06,1.04c-1.4-0.23-2.8-0.48-4.2-0.76c-1.37-0.34-2.72-0.77-4.06-1.2c-1.36-0.39-2.63-1-3.92-1.55
					l-1.91-0.87c-0.62-0.32-1.22-0.68-1.83-1.03l-1.8-1.07c-0.6-0.35-1.19-0.73-1.74-1.16c-1.13-0.83-2.24-1.68-3.33-2.55
					c-1.03-0.95-2.05-1.91-3.04-2.9c-0.25-0.25-0.5-0.49-0.74-0.74l-0.68-0.8l-1.35-1.62c-0.44-0.55-0.89-1.09-1.31-1.65l-1.16-1.77
					c-0.74-1.2-1.56-2.35-2.15-3.65c-0.62-1.27-1.24-2.55-1.8-3.85c-0.48-1.34-0.93-2.69-1.36-4.04l-0.31-1.02l-0.27-1.24
					c-0.17-0.83-0.33-1.66-0.47-2.49c-0.14-0.83-0.27-1.66-0.38-2.49c-0.04-0.25-0.04-0.33-0.04-0.44l-0.02-0.33l-0.03-0.65
					l-0.07-1.31l-0.03-0.65l-0.02-0.33c0.01,0.2-0.09-2.05-0.04-1.14l0-0.1l0.01-0.2l0.15-3.16c0.11-4.24,0.74-8.31,1.33-12.38
					c1.42-8.05,3.75-15.65,6.44-22.94c2.73-7.28,6.05-14.13,9.57-20.78c3.6-6.59,7.45-12.94,11.55-19.07
					c4.15-6.07,8.42-12.01,12.92-17.72c2.24-2.86,4.51-5.69,6.86-8.43l3.53-4.11l3.65-4c4.9-5.29,10.01-10.36,15.33-15.18
					c5.31-4.83,10.85-9.41,16.59-13.72c1.43-1.09,2.9-2.12,4.35-3.18c1.48-1.02,2.95-2.06,4.46-3.05c2.99-2.01,6.07-3.89,9.3-5.66
					c1.92-1.05,4.33-0.35,5.39,1.57c0.74,1.34,0.61,2.93-0.18,4.12L1327.13,2154.98z"/>
			</g>
			<g>
				<path class="st4" d="M1587.74,2077.92c-4.89,0-9.74-2.09-13.11-6.14c-60.48-72.66-145.01-92.45-145.85-92.64
					c-9.17-2.07-14.95-11.18-12.89-20.36c2.06-9.17,11.14-14.96,20.32-12.92c3.91,0.87,96.46,22.2,164.63,104.11
					c6.02,7.24,5.04,17.98-2.2,24.01C1595.45,2076.62,1591.58,2077.92,1587.74,2077.92z"/>
			</g>
			<g>
				<path class="st4" d="M1278.3,2501.5h-0.02c-31.13,0-57.77-10.07-77.02-29.1c-28.72-28.4-43.98-66.61-44.12-110.52
					c-0.15-45.71,15.81-97.5,47.42-153.91c35.25-62.92,90.32-132.07,163.68-205.51c55.54-55.61,114.72-104,175.89-143.82
					c49.06-31.93,99.51-58.46,149.95-78.85c86.57-34.99,142.97-39.81,145.33-40c6.33-0.5,12.42,2.55,15.79,7.93
					c3.38,5.38,3.48,12.19,0.28,17.67l-313.28,535.58c-31.05,59.26-73.87,109.99-123.84,146.75
					C1371.21,2482.4,1321.47,2501.5,1278.3,2501.5z M1807.64,1779.64c-24,5.23-59.36,14.89-102.39,32.4
					c-75.82,30.85-191.65,93.11-312.88,214.5c-166.58,166.79-201.32,274.36-201.12,335.23c0.11,35.13,11.55,64.2,34,86.38
					c12.92,12.77,30.77,19.25,53.05,19.25h0.01c35.43,0,79.11-17.18,119.85-47.15c45.92-33.78,85.35-80.61,114.02-135.45
					c0.12-0.24,0.26-0.48,0.39-0.71L1807.64,1779.64z"/>
			</g>
		</g>
		<g>
			<g>
				<path class="st2" d="M2223.87,2975.36c7.35,18.35,9.66,38.56,6.02,58.17c-59.76,327.48-326.95,368.82-419.13,257.33
					c-30.35-36.8-36.89-77.01-31.54-114.7c11.07-80.03,75.16-148.56,75.16-148.56l-125.25-364.99l59.89,318.6
					c-19.14,178.59-227.85,285.53-350.23,197.57c-39.22-28.18-52.3-62.41-51.94-95.92c0.73-70.91,61.59-138.54,61.59-138.54
					c-45.86-188.14-35.49-365.61-0.34-519.47c25.87-113.3,65.09-213.86,104.97-296.57c73.24-151.57,148.74-243.03,148.74-243.03
					l91.59-104.87l417.83,93.46l23.15,174.31c8.11,126.43-7.55,233.02-31.55,318.43c-1.55,5.22-3.01,10.43-4.56,15.47
					c-7.93,26.28-16.64,50.44-25.59,72.39c-43.51,106.76-93.26,162.38-93.26,162.38L2223.87,2975.36z"/>
			</g>
			<g class="st3">
				<path class="st4" d="M2223.87,2975.36l-144.45-358.54c0,0,49.66-55.71,93.17-162.38c0.03,0,0.06,0,0.1-0.01
					c2.35-5.76,4.68-11.7,6.99-17.77c0.19-0.51,0.38-1.05,0.58-1.57c2.71-7.16,5.36-14.57,7.97-22.15c0.63-1.82,1.26-3.65,1.88-5.5
					c2.79-8.26,5.53-16.68,8.17-25.41c1.55-5.03,3.01-10.25,4.56-15.47c-3.4,0.55-6.74,1.04-10.09,1.52
					c-77.6-195.75-140.18-351.05-140.18-351.05s-13.79,215.87-40.85,348.26c-35.01-7-54.52-15.53-55.36-15.89
					c-1.12-0.53-2.24-0.78-3.36-1.22l10.78-43.65c8.66-34.99-9.08-70.6-40.42-85.54c-4.49-2.12-9.15-3.77-14.18-5.05l-337.08-83.52
					c-6.33-1.52-12.73-2.21-19.02-2.17c-33.12,0.46-63.25,23.17-71.56,56.85l-35.23,142.11l-9.25,37.32
					c-5.35,21.5-0.7,43.24,11.07,60.28c9.95,14.58,25.1,25.72,43.53,30.31l337.18,83.42c39.93,9.93,80.65-14.67,90.59-54.6
					l13.41-54.35c6.88,2.59,16.76,5.98,29.4,9.5c10.72,2.99,16.24,15.01,11.14,24.9c-30.64,59.42-67.05,169.03,61.09,197.75
					c0,0-1.64,100.45,62.53,147.23l44.52,115.35c28.1,72.82,20.44,154.84-21.58,220.63c-45.62,71.42-119.07,143.67-224.53,125.82
					c-79.52-13.49-109.18-52.62-116.14-94.67c-5.36,37.7,1.19,77.9,31.54,114.7c92.18,111.49,359.37,70.16,419.13-257.33
					C2233.53,3013.92,2231.22,2993.71,2223.87,2975.36z"/>
			</g>
			<g class="st3">
				<path class="st4" d="M1789.02,2981.21c-19.14,178.59-227.85,285.53-350.23,197.57c-39.22-28.18-52.3-62.41-51.94-95.92
					c116.23,106.02,215.72,57.53,278.44-1.28c47.06-44.13,66.89-110.13,54.85-173.51l-31.47-165.64
					c-3.84-20.22-17.35-37.06-35.9-45.99c-83.08-40.01-95.09-90.83-95.89-113.8c-0.15-4.4,5.33-6.64,8.25-3.35
					c67.66,76.1,164,83.32,164,83.32L1789.02,2981.21z"/>
			</g>
			<g>
				<g>
					<path class="st4" d="M1464.79,2939.59c0,0,0.03,0.13,0.09,0.38c0.01,0.03,0.01,0.06,0.02,0.09c0,0.03,0.01,0.06,0.04,0.18
						c0.06,0.2,0.12,0.42,0.2,0.68c0.34,1.08,0.89,2.78,1.81,4.99c0.92,2.21,2.09,4.94,3.78,7.95c0.39,0.77,0.86,1.52,1.32,2.32
						c0.47,0.79,0.93,1.62,1.48,2.42c0.53,0.82,1.08,1.65,1.64,2.51c0.6,0.83,1.22,1.67,1.85,2.54c0.61,0.89,1.32,1.72,2.01,2.6
						c0.7,0.87,1.38,1.79,2.18,2.63c0.77,0.87,1.56,1.75,2.36,2.65c0.85,0.85,1.72,1.71,2.6,2.59c3.61,3.4,7.59,6.91,12.23,9.91
						c0.57,0.39,1.14,0.79,1.71,1.18c0.6,0.36,1.21,0.71,1.81,1.07c1.22,0.72,2.45,1.45,3.68,2.18c1.29,0.66,2.58,1.32,3.88,1.98
						c0.65,0.33,1.3,0.68,1.97,1l2.05,0.87c1.37,0.59,2.75,1.18,4.13,1.78c1.43,0.5,2.87,1.01,4.31,1.51
						c2.85,1.12,5.89,1.79,8.87,2.68c1.48,0.47,3.03,0.75,4.56,1.08c1.54,0.33,3.07,0.66,4.6,0.99c3.1,0.55,6.23,0.95,9.33,1.44
						c3.15,0.29,6.27,0.57,9.36,0.85c3.11,0.19,6.2,0.25,9.25,0.38c0.76,0.02,1.52,0.08,2.28,0.07c0.76-0.01,1.51-0.03,2.27-0.04
						c1.51-0.02,3-0.04,4.48-0.07c1.48-0.02,2.95-0.04,4.4-0.05c1.45-0.09,2.88-0.18,4.3-0.27c2.83-0.2,5.6-0.32,8.28-0.52
						c2.68-0.28,5.26-0.55,7.75-0.8c5-0.41,9.54-1.19,13.61-1.73c2.03-0.29,3.95-0.49,5.7-0.8c1.75-0.31,3.36-0.59,4.82-0.84
						c2.92-0.5,5.22-0.89,6.8-1.13c1.58-0.25,2.42-0.39,2.42-0.39l0.08-0.01c1.06-0.17,2.05,0.55,2.22,1.61
						c0.14,0.89-0.35,1.74-1.14,2.09c0,0-0.79,0.34-2.26,0.99c-1.47,0.65-3.64,1.58-6.42,2.75c-1.39,0.58-2.93,1.23-4.61,1.93
						c-1.68,0.69-3.54,1.32-5.52,2.05c-1.98,0.71-4.1,1.46-6.32,2.25c-2.22,0.83-4.61,1.54-7.11,2.27c-2.5,0.74-5.11,1.5-7.81,2.3
						c-2.72,0.74-5.57,1.35-8.5,2.04c-1.47,0.34-2.95,0.68-4.46,1.03c-1.53,0.28-3.07,0.55-4.63,0.84
						c-1.57,0.27-3.15,0.54-4.75,0.82c-0.8,0.13-1.61,0.27-2.42,0.41c-0.81,0.13-1.64,0.2-2.46,0.3c-3.3,0.35-6.66,0.79-10.09,1.08
						c-3.44,0.18-6.94,0.36-10.48,0.48c-3.55-0.06-7.14-0.05-10.75-0.2c-1.81-0.14-3.63-0.28-5.44-0.42
						c-1.82-0.15-3.65-0.24-5.47-0.54c-3.64-0.54-7.31-0.96-10.93-1.83c-1.81-0.4-3.63-0.79-5.43-1.19
						c-1.79-0.51-3.57-1.02-5.35-1.53c-0.89-0.26-1.78-0.52-2.67-0.77c-0.88-0.29-1.74-0.62-2.61-0.93
						c-1.74-0.63-3.47-1.26-5.19-1.89c-1.68-0.74-3.36-1.48-5.02-2.22c-0.83-0.38-1.66-0.75-2.48-1.12c-0.8-0.42-1.6-0.84-2.4-1.26
						c-6.45-3.23-12.33-7.16-17.62-11.25c-1.31-1.05-2.59-2.09-3.86-3.12c-1.21-1.09-2.4-2.17-3.58-3.23
						c-1.2-1.04-2.26-2.18-3.35-3.26c-1.07-1.09-2.16-2.14-3.11-3.26c-0.97-1.11-1.93-2.19-2.86-3.25c-0.88-1.1-1.74-2.18-2.58-3.24
						c-0.86-1.04-1.6-2.12-2.36-3.16c-0.75-1.04-1.49-2.03-2.14-3.05c-2.73-3.98-4.78-7.71-6.44-10.84
						c-1.62-3.14-2.72-5.81-3.49-7.71c-0.19-0.49-0.35-0.93-0.5-1.31c-0.08-0.22-0.15-0.43-0.22-0.62c-0.07-0.21-0.14-0.4-0.19-0.57
						c-0.18-0.53-0.27-0.81-0.27-0.81c-2.98-8.94,1.85-18.6,10.79-21.58c8.94-2.98,18.6,1.85,21.58,10.79
						c0.14,0.41,0.26,0.82,0.36,1.23L1464.79,2939.59z"/>
				</g>
				<g>
					<path class="st4" d="M1869.44,3019.63c-0.02-0.04,0.18,0.34,0.19,0.34c0.13,0.22,0.32,0.54,0.57,0.96
						c0.66,1.08,1.78,2.77,3.38,4.93c1.6,2.17,3.74,4.77,6.38,7.66c2.64,2.89,5.86,6.01,9.57,9.24c3.74,3.2,8.02,6.47,12.77,9.69
						c2.44,1.51,4.88,3.18,7.56,4.63c1.33,0.74,2.62,1.58,4.01,2.28c1.39,0.72,2.78,1.44,4.2,2.17c1.39,0.77,2.89,1.37,4.36,2.06
						c1.49,0.65,2.94,1.4,4.49,2c3.08,1.19,6.15,2.54,9.39,3.6c1.61,0.56,3.22,1.13,4.83,1.7c1.65,0.49,3.31,0.98,4.97,1.47
						c3.3,1.06,6.72,1.81,10.12,2.66c0.85,0.2,1.7,0.43,2.56,0.62l2.59,0.5c1.73,0.35,3.45,0.7,5.18,1.04
						c1.72,0.39,3.47,0.61,5.2,0.88c1.74,0.27,3.47,0.53,5.2,0.8c1.72,0.3,3.47,0.43,5.2,0.63c1.73,0.18,3.46,0.37,5.17,0.55
						c0.86,0.09,1.71,0.2,2.57,0.26c0.86,0.05,1.71,0.1,2.57,0.15c1.71,0.1,3.4,0.21,5.09,0.31c1.68,0.09,3.35,0.29,5.02,0.29
						c1.66,0.04,3.31,0.09,4.94,0.13c3.27,0.1,6.46,0.25,9.59,0.2c3.13-0.01,6.17-0.01,9.13,0.02c2.95-0.04,5.82-0.16,8.57-0.22
						c5.51-0.06,10.58-0.33,15.09-0.54c2.25-0.12,4.37-0.17,6.33-0.25c1.96-0.13,3.75-0.26,5.38-0.37c3.26-0.18,5.83-0.33,7.59-0.39
						c1.76-0.06,2.7-0.1,2.7-0.1l0.17-0.01c2.4-0.09,4.41,1.79,4.5,4.19c0.07,1.93-1.14,3.61-2.85,4.24c0,0-0.9,0.33-2.58,0.94
						c-1.69,0.62-4.17,1.46-7.35,2.55c-1.59,0.52-3.36,1.1-5.28,1.73c-1.94,0.57-4.04,1.16-6.3,1.76c-2.26,0.61-4.67,1.25-7.21,1.93
						c-1.27,0.36-2.59,0.64-3.94,0.92c-1.35,0.29-2.74,0.58-4.15,0.88c-2.83,0.57-5.78,1.24-8.86,1.77
						c-3.09,0.49-6.29,0.98-9.58,1.46c-3.29,0.56-6.71,0.81-10.21,1.17c-3.5,0.34-7.07,0.68-10.74,0.79
						c-1.83,0.07-3.68,0.14-5.54,0.21c-0.93,0.03-1.87,0.07-2.8,0.11c-0.94,0.02-1.88,0-2.83,0c-1.9-0.01-3.8-0.03-5.72-0.04
						c-1.92-0.03-3.85,0.01-5.79-0.13c-1.94-0.1-3.89-0.21-5.85-0.31c-1.96-0.11-3.93-0.17-5.89-0.41c-1.97-0.2-3.95-0.4-5.92-0.6
						l-2.97-0.32c-0.99-0.13-1.97-0.3-2.96-0.45c-3.95-0.63-7.92-1.17-11.83-2.06c-1.96-0.41-3.92-0.82-5.88-1.22
						c-1.94-0.5-3.88-1-5.81-1.5c-3.88-0.91-7.64-2.24-11.39-3.41c-1.88-0.58-3.69-1.34-5.52-2c-1.82-0.7-3.66-1.31-5.41-2.11
						c-7.13-2.91-13.83-6.32-20.02-9.9c-6.13-3.69-11.82-7.45-16.76-11.4c-4.94-3.95-9.32-7.82-12.97-11.56
						c-3.64-3.75-6.66-7.23-9.04-10.27c-2.36-3.07-4.13-5.65-5.33-7.55c-0.62-1.02-1.03-1.68-1.48-2.49
						c-0.31-0.57-0.48-0.86-0.48-0.86c-4.41-8.32-1.24-18.64,7.08-23.04C1854.72,3008.14,1865.03,3011.31,1869.44,3019.63z"/>
				</g>
				<g>
					<path class="st4" d="M1593.3,2833.8c-23.05,0-44.06-1.15-62.11-2.75c-61.07-5.4-101.61-16.67-103.3-17.15
						c-9.06-2.55-14.34-11.96-11.79-21.02c2.55-9.06,11.96-14.34,21.02-11.79c0.79,0.22,40.07,11.03,97.89,16.08
						c53.24,4.65,133.62,5.22,214.2-18.43c9.03-2.65,18.51,2.52,21.16,11.56c2.65,9.03-2.52,18.51-11.56,21.16
						C1700.36,2828.61,1642.24,2833.8,1593.3,2833.8z"/>
				</g>
				<g>
					<path class="st4" d="M1886.04,2879.75c-44.64,0-74.85-5.17-76.48-5.46c-9.27-1.62-15.48-10.46-13.85-19.73
						c1.62-9.27,10.44-15.47,19.72-13.85l0,0c0.49,0.08,49.37,8.38,113.26,3.26c58.02-4.65,140.82-21.66,205.79-76.28
						c7.21-6.06,17.96-5.13,24.02,2.08c6.06,7.21,5.13,17.96-2.08,24.02c-31.98,26.89-70.24,47.84-113.7,62.28
						c-34.44,11.44-72.21,18.83-112.26,21.97C1914.58,2879.27,1899.63,2879.75,1886.04,2879.75z"/>
				</g>
				<g>
					<path class="st4" d="M1727.19,2679.53c0,0-0.85-0.11-2.44-0.32c-1.53-0.21-3.7-0.53-6.43-0.98c-2.72-0.48-6.01-1.07-9.74-1.85
						c-3.73-0.78-7.91-1.75-12.45-2.87c-4.53-1.16-9.41-2.48-14.54-4.04c-5.14-1.51-10.48-3.34-15.99-5.29
						c-5.5-1.99-11.15-4.15-16.79-6.63c-5.66-2.41-11.34-5.08-16.94-7.9c-2.78-1.47-5.55-2.94-8.29-4.45
						c-1.36-0.78-2.71-1.56-4.07-2.34c-1.35-0.77-2.7-1.55-4.01-2.39c-2.63-1.66-5.28-3.2-7.78-4.97c-1.26-0.86-2.51-1.72-3.75-2.57
						c-1.24-0.84-2.43-1.78-3.62-2.65c-1.19-0.88-2.37-1.76-3.54-2.63c-1.16-0.89-2.27-1.83-3.37-2.74
						c-1.1-0.91-2.19-1.82-3.26-2.71c-1.04-0.94-2.07-1.87-3.08-2.78c-1.01-0.92-2-1.82-2.98-2.71c-0.97-0.91-1.86-1.88-2.77-2.79
						c-1.79-1.85-3.56-3.57-5.11-5.4c-1.58-1.79-3.09-3.5-4.45-5.2c-1.33-1.72-2.58-3.36-3.77-4.89c-1.19-1.51-2.14-3.09-3.08-4.47
						c-0.93-1.39-1.77-2.67-2.51-3.84c-1.4-2.41-2.44-4.32-3.14-5.62c-0.7-1.3-1.08-1.99-1.08-1.99c-1.7-3.14-0.54-7.06,2.6-8.77
						c2.59-1.4,5.71-0.86,7.68,1.13l0.36,0.36c0,0,0.5,0.51,1.45,1.46c0.95,0.94,2.31,2.35,4.02,4.13c0.92,0.84,1.92,1.77,3,2.8
						c1.1,1.01,2.19,2.16,3.55,3.24c1.3,1.12,2.67,2.3,4.13,3.55c1.47,1.23,3.13,2.41,4.74,3.73c1.6,1.34,3.44,2.56,5.27,3.89
						c0.93,0.65,1.84,1.33,2.81,1.99c0.97,0.65,1.96,1.3,2.97,1.97c1,0.66,2.01,1.33,3.04,2.01c1.06,0.64,2.13,1.28,3.22,1.93
						c1.08,0.65,2.17,1.31,3.27,1.98c1.12,0.63,2.26,1.28,3.4,1.92c1.15,0.64,2.27,1.32,3.47,1.93c1.19,0.61,2.39,1.23,3.59,1.85
						c2.38,1.28,4.88,2.44,7.36,3.66c1.23,0.62,2.51,1.19,3.79,1.75c1.27,0.57,2.55,1.14,3.83,1.71c2.59,1.1,5.21,2.15,7.82,3.21
						c5.28,2.02,10.57,4.02,15.88,5.73c1.33,0.43,2.65,0.86,3.96,1.29c1.33,0.4,2.64,0.8,3.95,1.19c2.6,0.84,5.23,1.53,7.78,2.28
						c2.57,0.71,5.1,1.38,7.58,2.02c2.5,0.6,4.92,1.24,7.3,1.78c4.75,1.16,9.28,2.07,13.45,2.92c4.18,0.84,8.01,1.55,11.41,2.11
						c3.4,0.61,6.35,1.05,8.77,1.4c2.41,0.36,4.3,0.62,5.53,0.77c1.18,0.14,1.81,0.21,1.81,0.21l0.37,0.04
						c9.35,1.1,16.04,9.57,14.93,18.92c-1.1,9.35-9.57,16.04-18.92,14.93C1727.35,2679.55,1727.22,2679.54,1727.19,2679.53z"/>
				</g>
			</g>
			<g>
				<path class="st4" d="M1706.48,1889.09c-6.64,9.37-13.14,19.12-19.49,28.85c-6.36,9.75-12.61,19.57-18.74,29.47
					c-12.26,19.79-24.1,39.82-35.53,60.07c-11.45,20.24-22.44,40.71-33.08,61.35c-10.62,20.65-20.85,41.49-30.64,62.52
					c-4.91,10.51-9.68,21.08-14.37,31.68c-2.39,5.28-4.65,10.62-6.95,15.94l-3.43,7.99l-3.34,8.03
					c-8.95,21.37-17.36,42.96-25.32,64.71c-7.92,21.76-15.27,43.71-22.16,65.79l-2.55,8.29c-0.86,2.76-1.7,5.53-2.49,8.31
					l-4.87,16.65c-3.07,11.15-6.19,22.28-8.99,33.49c-5.74,22.39-10.98,44.9-15.47,67.56c-4.49,22.65-8.62,45.39-11.8,68.25
					c-3.26,22.85-5.99,45.78-7.87,68.78c-1.11,11.49-1.68,23.01-2.47,34.52l-0.75,17.29c-0.12,2.88-0.27,5.76-0.35,8.64l-0.18,8.65
					c-0.67,23.06-0.25,46.14,0.56,69.18l0.85,17.28l0.21,4.32l0.31,4.31l0.63,8.62l0.63,8.63l0.32,4.31l0.42,4.3l1.69,17.21
					l0.42,4.3l0.53,4.29l1.06,8.58l1.05,8.58l0.53,4.29l0.63,4.28c1.73,11.4,3.31,22.83,5.43,34.16
					c3.8,22.75,8.82,45.27,14.05,67.74c1.3,5.6-0.26,11.19-3.72,15.25l-0.18,0.2l-1.57,1.82l-1.71,2.04
					c-1.14,1.38-2.28,2.8-3.4,4.23c-2.25,2.86-4.46,5.79-6.62,8.75c-4.31,5.94-8.43,12.04-12.29,18.26
					c-7.74,12.45-14.5,25.41-19.86,38.7c-2.69,6.64-4.96,13.38-6.82,20.15c-1.87,6.77-3.24,13.58-4.06,20.36
					c-1.69,13.56-0.98,26.98,2.48,39.49c3.46,12.52,9.81,24.06,18.41,34.26c8.63,10.19,19.32,19.11,31.4,26.59l2.07,1.3l2.25,1.28
					c1.52,0.83,2.99,1.76,4.56,2.51c1.55,0.78,3.08,1.6,4.64,2.35l4.73,2.17c6.37,2.77,12.94,5.1,19.66,7
					c13.42,3.85,27.48,5.68,41.63,6.02c7.08,0.16,14.2-0.18,21.3-0.83c7.1-0.67,14.19-1.69,21.22-3.15
					c7.03-1.44,14.02-3.2,20.91-5.3c6.89-2.14,13.69-4.59,20.4-7.32c13.38-5.53,26.32-12.23,38.58-20.04
					c3.09-1.92,6.08-3.98,9.09-6.02c2.95-2.12,5.94-4.2,8.8-6.43c2.92-2.17,5.72-4.49,8.55-6.77c2.76-2.37,5.56-4.69,8.23-7.16
					c2.73-2.4,5.31-4.96,7.94-7.47c2.55-2.58,5.14-5.14,7.58-7.83c2.52-2.62,4.87-5.39,7.27-8.11c2.32-2.79,4.67-5.56,6.87-8.44
					c1.13-1.42,2.25-2.85,3.3-4.32c1.07-1.46,2.17-2.91,3.22-4.38c2.06-2.98,4.16-5.94,6.09-9c2.02-3.01,3.83-6.14,5.72-9.23
					c1.77-3.15,3.6-6.27,5.24-9.5c1.73-3.18,3.25-6.46,4.85-9.7c1.46-3.3,3.01-6.57,4.33-9.93c1.42-3.32,2.64-6.72,3.91-10.1
					c0.62-1.69,1.16-3.42,1.75-5.12l0.86-2.56l0.78-2.59c2.17-6.88,3.85-13.9,5.34-20.96c1.48-7.06,2.49-14.21,3.34-21.37l0.2,4.96
					l-59.92-318.64c-1.74-9.25,4.35-18.16,13.6-19.9c8.43-1.59,16.58,3.33,19.27,11.22l125.28,365.01
					c2.08,6.05,0.55,12.47-3.44,16.92l-0.23,0.25l-1.46,1.62l-1.59,1.82l-3.19,3.76c-2.12,2.54-4.2,5.14-6.26,7.77
					c-4.1,5.27-8.08,10.67-11.89,16.17c-7.63,11-14.64,22.42-20.88,34.14c-12.44,23.43-21.83,48.34-25.42,73.54
					c-1.78,12.58-2.11,25.18-0.58,37.44c1.52,12.26,4.88,24.14,9.95,35.34c2.56,5.59,5.58,10.99,8.95,16.2
					c0.87,1.29,1.67,2.61,2.59,3.88l2.74,3.79c0.93,1.25,1.94,2.46,2.9,3.7l1.22,1.54l1.72,1.98l1.72,1.98
					c0.28,0.32,0.59,0.7,0.85,0.96l0.75,0.76l2.96,3.08c2.25,2.1,4.43,4.27,6.82,6.22c1.16,1.01,2.33,2.02,3.57,2.94
					c1.23,0.94,2.42,1.92,3.68,2.83l3.8,2.68c1.26,0.9,2.61,1.69,3.91,2.54c21.07,13.33,46.05,20.85,71.58,22.92l4.8,0.36l4.82,0.17
					l2.41,0.08l2.41,0c1.61-0.01,3.22,0.01,4.83-0.01c3.22-0.15,6.44-0.17,9.66-0.47c1.61-0.13,3.22-0.22,4.83-0.37l4.82-0.54
					c1.61-0.15,3.21-0.39,4.81-0.63l4.81-0.71l4.78-0.88l2.39-0.44l2.38-0.53l4.76-1.05c1.58-0.38,3.15-0.81,4.72-1.21
					c3.16-0.76,6.26-1.76,9.39-2.66c12.46-3.82,24.57-8.84,36.27-14.72c2.96-1.41,5.79-3.07,8.69-4.6c2.87-1.58,5.67-3.3,8.51-4.94
					c2.77-1.77,5.57-3.49,8.31-5.31l4.07-2.78c1.36-0.92,2.72-1.85,4.04-2.84c21.37-15.41,40.52-34.06,57.12-54.87
					c8.31-10.41,16-21.35,23.08-32.72c7.1-11.36,13.59-23.13,19.44-35.26c5.87-12.11,11.19-24.53,16.01-37.17
					c4.73-12.68,8.95-25.57,12.75-38.61c3.7-13.07,6.96-26.29,9.79-39.63c0.72-3.33,1.32-6.69,1.99-10.04l0.98-5.02l0.19-0.96
					l0.21-1.3l0.21-1.3c0.07-0.42,0.16-0.91,0.18-1.19l0.24-1.96c0.1-0.62,0.13-1.43,0.21-2.13c0.16-1.45,0.2-2.92,0.29-4.38
					c0.07-2.93,0.08-5.86-0.12-8.79c-0.39-5.86-1.32-11.7-2.87-17.39c-0.74-2.85-1.67-5.66-2.7-8.42l-0.8-2.08l-0.98-2.44
					l-1.96-4.88l-15.72-39.01l-125.74-312.08l-0.01-0.01c-2.44-6-1.2-12.58,2.68-17.23l0.43-0.51l1.22-1.46l1.35-1.66
					c0.91-1.12,1.82-2.27,2.74-3.44c1.84-2.3,3.63-4.73,5.44-7.11c3.56-4.85,7.1-9.75,10.53-14.75c6.9-9.98,13.42-20.3,19.73-30.75
					l4.7-7.86l4.55-7.97c1.52-2.65,3.04-5.31,4.47-8.01l4.39-8.07c1.49-2.67,2.84-5.43,4.26-8.14l4.21-8.17l8.08-16.53l7.68-16.73
					l7.29-16.92c2.37-5.67,4.59-11.4,6.91-17.09l1.71-4.28l1.6-4.32l3.21-8.65l1.61-4.32c0.54-1.44,1.08-2.88,1.56-4.34l2.99-8.73
					l3-8.73c1.03-2.9,1.86-5.87,2.81-8.8l2.76-8.82l1.39-4.41l0.69-2.2l0.63-2.22l5.04-17.79c0.88-2.96,1.61-5.95,2.36-8.94
					l2.28-8.97l2.29-8.97c0.72-3,1.36-6.02,2.04-9.03l4.02-18.08l3.54-18.19c0.57-3.04,1.23-6.06,1.72-9.11l1.49-9.15l1.49-9.16
					c0.48-3.05,1.06-6.1,1.47-9.16l2.49-18.4c0.42-3.07,0.87-6.13,1.26-9.2l0.99-9.24l2.06-18.49c0.6-6.17,1.06-12.36,1.6-18.54
					c1.24-12.37,1.81-24.78,2.61-37.2c0.18-3.11,0.44-6.21,0.56-9.32l0.33-9.33l0.74-18.7c0.37-12.47,0.42-24.96,0.86-37.51
					l0.01-0.18c0.09-2.72,2.38-4.85,5.1-4.75c2.45,0.08,4.42,1.95,4.72,4.3c0.8,6.26,1.56,12.54,2.26,18.83l1.07,9.43
					c0.34,3.15,0.71,6.29,0.91,9.45l1.33,18.95l0.63,9.49c0.18,3.16,0.22,6.33,0.34,9.5l0.52,19.02l0.11,4.76
					c0.02,1.59-0.02,3.17-0.03,4.76l-0.09,9.52c-0.1,6.35-0.13,12.7-0.3,19.05l-0.94,19.04l-0.51,9.53
					c-0.23,3.17-0.53,6.34-0.79,9.51l-1.68,19.02c-0.66,6.33-1.5,12.64-2.27,18.96l-1.18,9.48c-0.39,3.16-0.95,6.3-1.41,9.45
					l-2.93,18.9c-1.13,6.27-2.34,12.53-3.51,18.81c-0.6,3.13-1.15,6.28-1.8,9.4l-2.05,9.35l-2.05,9.35
					c-0.69,3.12-1.35,6.24-2.17,9.33l-4.68,18.58l-0.59,2.32l-0.65,2.31l-1.3,4.61l-2.62,9.22c-0.9,3.07-1.69,6.17-2.68,9.21
					l-2.88,9.15l-2.88,9.15c-0.94,3.06-2.06,6.06-3.08,9.09l-3.15,9.07l-1.57,4.54l-1.68,4.5c-2.28,5.98-4.46,12.01-6.84,17.95
					l-7.29,17.79l-7.76,17.6c-2.74,5.8-5.44,11.62-8.22,17.41l-4.32,8.61c-1.46,2.86-2.84,5.76-4.38,8.58
					c-3.04,5.66-5.96,11.39-9.18,16.96l-4.74,8.41l-4.93,8.31l-2.47,4.15l-2.56,4.1c-1.72,2.73-3.39,5.49-5.15,8.19l-5.32,8.1
					c-1.8,2.69-3.65,5.35-5.48,8.02c-3.69,5.33-7.51,10.6-11.46,15.8c-2.02,2.59-3.98,5.19-6.09,7.77
					c-1.03,1.29-2.08,2.58-3.18,3.88l-1.66,1.96l-1.85,2.11l3.1-17.73l0.01,0.01l125.74,312.08l15.72,39.01l1.96,4.88l0.98,2.44
					l1.09,2.83c1.43,3.8,2.69,7.66,3.72,11.59c2.13,7.84,3.43,15.91,3.96,24.04c0.28,4.07,0.29,8.15,0.17,12.23
					c-0.11,2.04-0.19,4.08-0.4,6.11c-0.1,1.04-0.16,1.98-0.31,3.1l-0.42,3.26c-0.07,0.59-0.14,0.97-0.21,1.41l-0.21,1.3l-0.21,1.3
					l-0.17,0.96l-0.13,0.66l-1.03,5.3c-0.7,3.53-1.34,7.07-2.1,10.59c-2.99,14.09-6.45,28.11-10.38,42.01
					c-4.04,13.88-8.54,27.65-13.62,41.25c-5.17,13.56-10.89,26.94-17.25,40.06c-6.34,13.12-13.4,25.94-21.16,38.36
					c-7.75,12.43-16.2,24.46-25.38,35.97c-18.35,23-39.71,43.87-63.85,61.27c-1.48,1.12-3.02,2.16-4.56,3.21l-4.61,3.15
					c-3.1,2.06-6.27,4.02-9.42,6.01c-3.22,1.87-6.4,3.82-9.67,5.62c-3.29,1.75-6.52,3.62-9.89,5.24
					c-13.34,6.71-27.22,12.47-41.58,16.87c-3.6,1.06-7.18,2.19-10.84,3.08c-1.82,0.46-3.63,0.96-5.46,1.39l-5.51,1.22l-2.76,0.6
					l-2.78,0.51l-5.56,1.02l-5.59,0.83c-1.86,0.28-3.73,0.55-5.61,0.74l-5.63,0.62c-1.88,0.17-3.77,0.29-5.65,0.44
					c-3.76,0.34-7.56,0.38-11.34,0.54c-1.89,0.03-3.79,0.01-5.69,0.02l-2.84,0l-2.85-0.09l-5.69-0.21l-5.69-0.42
					c-0.95-0.08-1.9-0.13-2.84-0.23l-2.84-0.32c-1.89-0.22-3.79-0.4-5.67-0.67c-3.77-0.57-7.55-1.09-11.3-1.87
					c-3.76-0.66-7.48-1.59-11.21-2.46c-1.86-0.47-3.7-1.01-5.55-1.51l-2.77-0.78l-2.75-0.88c-7.35-2.26-14.55-5.09-21.59-8.3
					c-7.06-3.17-13.89-6.93-20.48-11.08c-1.63-1.07-3.31-2.06-4.9-3.2l-4.79-3.38c-1.58-1.15-3.1-2.39-4.66-3.58
					c-1.56-1.18-3.05-2.45-4.54-3.74c-3.03-2.5-5.84-5.25-8.7-7.95l-4.32-4.5l-1.07-1.13c-0.35-0.37-0.59-0.67-0.89-1.01l-1.72-1.98
					l-1.72-1.98l-0.22-0.25c-0.62-0.73-0.3-0.36-0.5-0.6l-0.45-0.57l-0.9-1.14c-1.19-1.53-2.42-3.02-3.58-4.58l-3.42-4.73
					c-1.14-1.58-2.17-3.24-3.26-4.86c-4.24-6.56-8.07-13.43-11.35-20.59c-6.52-14.34-10.85-29.74-12.77-45.31
					c-1.95-15.58-1.49-31.25,0.66-46.42c2.16-15.18,6.02-29.9,11.01-44.02c5-14.13,11.13-27.69,18.05-40.72
					c6.93-13.03,14.62-25.55,22.97-37.58c4.17-6.02,8.51-11.92,13.02-17.71c2.26-2.9,4.56-5.76,6.93-8.61
					c1.19-1.42,2.38-2.84,3.61-4.26l1.87-2.14l0.97-1.08l1.09-1.2l-3.67,17.17l-125.28-365.01l32.88-8.68l59.92,318.64l0.03,0.17
					c0.3,1.6,0.34,3.26,0.17,4.8c-0.97,8.23-2.14,16.45-3.83,24.57c-1.71,8.11-3.65,16.19-6.14,24.1l-0.9,2.98l-0.99,2.95
					c-0.67,1.96-1.3,3.94-2.01,5.88c-1.45,3.88-2.86,7.78-4.48,11.59c-1.52,3.86-3.29,7.6-4.97,11.38
					c-1.82,3.72-3.57,7.47-5.55,11.11c-1.88,3.69-3.96,7.26-6,10.86c-2.15,3.53-4.23,7.11-6.52,10.54
					c-2.21,3.49-4.59,6.87-6.95,10.26c-1.2,1.68-2.44,3.33-3.66,4.99c-1.21,1.67-2.48,3.3-3.76,4.92c-2.51,3.28-5.17,6.43-7.81,9.59
					c-2.72,3.1-5.4,6.23-8.25,9.21c-2.78,3.04-5.7,5.95-8.6,8.87c-2.97,2.85-5.91,5.74-9,8.46c-3.03,2.79-6.19,5.43-9.32,8.11
					c-3.21,2.58-6.38,5.21-9.68,7.66c-3.25,2.53-6.63,4.89-9.97,7.28c-3.41,2.32-6.8,4.64-10.3,6.82
					c-13.9,8.85-28.6,16.46-43.88,22.78c-7.65,3.13-15.45,5.93-23.37,8.39c-7.93,2.42-16,4.46-24.16,6.12
					c-8.16,1.68-16.43,2.89-24.77,3.67c-8.34,0.77-16.73,1.16-25.16,0.98c-16.83-0.39-33.78-2.6-50.19-7.28
					c-8.2-2.31-16.28-5.18-24.12-8.59l-5.83-2.68c-1.93-0.93-3.82-1.93-5.73-2.9c-1.92-0.94-3.75-2.06-5.63-3.1l-2.8-1.6l-2.86-1.78
					c-14.25-8.86-27.78-19.92-39.2-33.41c-11.4-13.45-20.4-29.67-25.19-47.09c-2.4-8.69-3.83-17.6-4.37-26.46
					c-0.57-8.87-0.14-17.67,0.89-26.28c1.04-8.62,2.76-17.04,5.01-25.22c2.25-8.18,4.95-16.16,8.08-23.89
					c6.24-15.48,13.91-30.09,22.53-43.98c4.31-6.95,8.88-13.71,13.68-20.32c2.4-3.3,4.87-6.57,7.41-9.8
					c1.27-1.62,2.56-3.22,3.89-4.83l2.02-2.42l1.05-1.22l1.19-1.35l-3.9,15.45c-5.44-23.17-10.65-46.42-14.62-69.9
					c-2.21-11.7-3.87-23.49-5.67-35.26l-0.66-4.42l-0.57-4.43l-1.13-8.86l-1.13-8.86l-0.57-4.43l-0.46-4.44l-1.83-17.76l-0.46-4.44
					l-0.35-4.45l-0.7-8.9l-0.7-8.9l-0.34-4.45l-0.24-4.46l-0.97-17.83c-0.98-23.78-1.56-47.6-1.02-71.4l0.13-8.93
					c0.07-2.97,0.21-5.95,0.31-8.92l0.67-17.84c0.73-11.88,1.26-23.77,2.32-35.62l0.71-8.9l0.36-4.45l0.44-4.44l1.8-17.76
					c0.62-5.92,1.43-11.81,2.13-17.72l1.1-8.85l1.26-8.83c3.24-23.57,7.34-47,12.03-70.31c4.62-23.32,10.12-46.46,16.12-69.44
					c2.95-11.51,6.25-22.92,9.49-34.34l5.13-17.05c0.84-2.85,1.74-5.68,2.65-8.5l2.71-8.48c7.28-22.59,15.14-44.99,23.59-67.16
					c8.47-22.16,17.52-44.08,27.06-65.78l3.6-8.13l3.69-8.08c2.48-5.38,4.92-10.78,7.48-16.12c5.04-10.72,10.3-21.33,15.63-31.91
					c21.41-42.25,45.06-83.33,70.88-122.95c12.97-19.77,26.43-39.22,40.56-58.17c7.08-9.47,14.3-18.82,21.72-28.03
					c3.73-4.59,7.47-9.17,11.32-13.67c3.86-4.51,7.68-8.98,11.79-13.41c2.28-2.46,6.12-2.61,8.58-0.33c2.27,2.1,2.57,5.52,0.83,7.97
					L1706.48,1889.09z"/>
			</g>
		</g>
		<g>
			<g>
				<path class="st2" d="M1490.61,2408.87l337.17,83.49c39.9,9.89,80.67-14.67,90.58-54.63l44.42-179.43
					c8.66-34.98-9.11-70.56-40.49-85.51c-4.43-2.15-9.17-3.82-14.14-5.06l-337.12-83.48c-39.95-9.9-80.73,14.66-90.58,54.63
					l-35.22,142.1l-9.26,37.31C1426.08,2358.24,1450.71,2398.97,1490.61,2408.87z"/>
			</g>
			<g class="st3">
				<path class="st4" d="M1490.61,2408.87l337.17,83.49c39.9,9.89,80.67-14.67,90.58-54.63l44.42-179.43
					c8.66-34.98-9.11-70.56-40.49-85.51c-22.29,7.97-36.47,13.1-36.47,13.1c-52.08,139.96-72.19,248.3-291.99,178.15
					c-75.78-24.19-121.78-59.61-148.6-83.06l-9.26,37.31C1426.08,2358.24,1450.71,2398.97,1490.61,2408.87z"/>
			</g>
			<g>
				<path class="st4" d="M1845.64,2511.31c-7.36,0-14.73-0.9-21.91-2.68l-337.14-83.49c-23.66-5.86-43.66-20.64-56.31-41.64
					c-12.66-20.99-16.4-45.58-10.54-69.24l44.44-179.45c4.93-19.92,16.64-37.81,32.96-50.38c16.04-12.35,35.93-19.15,56.01-19.15
					c7.36,0,14.73,0.9,21.91,2.68l337.14,83.49c23.66,5.86,43.66,20.64,56.31,41.64c12.66,20.99,16.4,45.58,10.54,69.24
					l-44.44,179.45c-4.93,19.92-16.64,37.81-32.96,50.38C1885.61,2504.51,1865.72,2511.31,1845.64,2511.31z M1553.14,2098.79
					c-26.8,0-50.01,18.13-56.44,44.08l-44.44,179.45c-3.71,14.97-1.32,30.55,6.71,43.88c8.04,13.33,20.71,22.71,35.67,26.41
					l337.14,83.49c4.55,1.13,9.21,1.7,13.85,1.7c26.8,0,50.01-18.13,56.44-44.08l44.44-179.45c3.71-14.97,1.32-30.55-6.71-43.88
					c-8.04-13.33-20.71-22.71-35.67-26.41l-337.14-83.49C1562.44,2099.36,1557.78,2098.79,1553.14,2098.79z"/>
			</g>
			<g>
				<path class="st2" d="M1477.41,2404.19c4.14,1.99,8.53,3.55,13.2,4.68l337.17,83.49c29.25,7.23,58.94-3.99,76.62-26.31
					c6.44-8.1,11.29-17.66,13.91-28.33l19.77-79.7l6.52-26.3l18.18-73.42c9.9-39.95-14.72-80.68-54.63-90.58l-72.86-18.02
					c32.01,14.65,50.26,50.58,41.53,85.92l-23.97,96.93l-20.46,82.55c-9.89,39.9-50.67,64.52-90.58,54.63L1477.41,2404.19z"/>
			</g>
			<g class="st3">
				<path class="st5" d="M1477.41,2404.19c4.14,1.99,8.53,3.55,13.2,4.68l337.17,83.49c39.9,9.89,80.67-14.67,90.53-54.64l26.29-106
					c-13.12,16.63-34.05,35.85-59.02,32.23c-13.71-1.96-24.49-14.84-32.73-31.4l-20.46,82.55c-9.89,39.9-50.67,64.52-90.58,54.63
					L1477.41,2404.19z"/>
			</g>
			<g>
				<path class="st4" d="M1845.65,2511.32c-7.36,0-14.73-0.9-21.91-2.68l-337.16-83.51c-5.56-1.34-11.08-3.29-16.34-5.77
					c-7.79-3.67-11.53-12.65-8.64-20.77c2.89-8.12,11.45-12.72,19.81-10.65l264.44,65.51c4.55,1.13,9.2,1.7,13.84,1.7
					c26.8,0,50-18.13,56.41-44.08l44.44-179.46c6.69-27.03-6.85-55.08-32.21-66.7c-7.86-3.6-11.69-12.59-8.83-20.76
					c2.85-8.16,11.44-12.81,19.84-10.74l72.83,18.02c23.67,5.88,43.67,20.67,56.32,41.65c12.66,21,16.4,45.59,10.53,69.24
					l-44.43,179.44c-4.92,19.91-16.62,37.81-32.95,50.39C1885.61,2504.51,1865.72,2511.32,1845.65,2511.32z M1813.05,2471.46
					l18.76,4.65c4.55,1.13,9.2,1.7,13.84,1.7c26.38,0,50.1-18.54,56.41-44.08l44.44-179.46c3.72-14.97,1.34-30.55-6.7-43.87
					c-8.04-13.33-20.71-22.71-35.69-26.43l-16.57-4.1c8.29,18.24,10.63,39.21,5.53,59.81l-44.44,179.44
					c-4.92,19.91-16.62,37.81-32.94,50.39C1814.82,2470.17,1813.94,2470.83,1813.05,2471.46z"/>
			</g>
			<g>
				<g>
					<path class="st6" d="M1687.76,2288.82c-1.47,6.36-4.43,59.75-4.43,59.75s16.26,3.77,36.22,8.39
						c24.94,5.78,51.14-15.36,58.52-47.21c7.38-31.85-6.85-62.36-31.79-68.14c-16.83-3.9-36.22-8.39-36.22-8.39
						S1690.16,2278.46,1687.76,2288.82z"/>
					<path class="st4" d="M1727.88,2360.41L1727.88,2360.41c-2.99,0-5.99-0.34-8.9-1.02l-38.27-8.87l0.12-2.1
						c0.12-2.19,2.98-53.68,4.49-60.17c2.42-10.46,21.63-54.19,22.45-56.05l0.83-1.9l38.24,8.86c26.24,6.08,41.34,37.99,33.66,71.14
						C1773.78,2339.34,1751.65,2360.41,1727.88,2360.41z M1685.95,2346.6l34.17,7.92c2.54,0.59,5.15,0.89,7.76,0.89
						c21.46,0,41.55-19.44,47.76-46.23c7.06-30.46-6.37-59.68-29.92-65.14l-34.2-7.92c-3.78,8.67-19.28,44.44-21.32,53.26
						C1689.08,2294.2,1686.85,2330.49,1685.95,2346.6z"/>
				</g>
				<g class="st3">
					<path class="st4" d="M1687.76,2288.82c-1.47,6.36-4.43,59.75-4.43,59.75s16.26,3.77,36.22,8.39
						c24.94,5.78,51.14-15.36,58.52-47.21c7.38-31.85-6.85-62.36-31.79-68.14c-16.83-3.9-36.22-8.39-36.22-8.39
						S1690.16,2278.46,1687.76,2288.82z"/>
				</g>
				<g>
					<path class="st4" d="M1727.88,2369.02L1727.88,2369.02c-3.65,0-7.29-0.42-10.84-1.24l-36.22-8.39
						c-5.26-1.22-8.88-6.05-8.59-11.44c0.9-16.34,3.17-55.06,4.7-61.64c2.51-10.82,19.56-49.85,22.96-57.57
						c2.15-4.89,7.47-7.56,12.68-6.35l36.22,8.39c30.87,7.15,48.86,43.7,40.11,81.47
						C1781.27,2345.14,1755.61,2369.02,1727.88,2369.02z M1694.96,2339.85l27.1,6.28c1.9,0.44,3.86,0.66,5.82,0.66
						c17.22,0,34.14-17.01,39.37-39.56c5.99-25.83-4.55-50.42-23.48-54.8l-27.21-6.31c-7.37,17.09-16.63,39.42-17.97,45.2
						C1697.87,2294.86,1696.28,2317.33,1694.96,2339.85z"/>
				</g>
				<g>
					
						<ellipse transform="matrix(0.2257 -0.9742 0.9742 0.2257 -918.0595 3426.6658)" class="st6" cx="1696.7" cy="2290.89" rx="59.2" ry="46.35"/>
					<path class="st4" d="M1691.66,2352.01L1691.66,2352.01c-2.99,0-5.99-0.34-8.89-1.02c-26.24-6.08-41.34-37.99-33.66-71.14
						c6.73-29.03,28.86-50.1,52.63-50.1c2.99,0,5.98,0.34,8.89,1.02c12.83,2.97,23.38,12.09,29.72,25.67
						c6.24,13.37,7.64,29.52,3.95,45.47C1737.56,2330.94,1715.43,2352.01,1691.66,2352.01z M1701.73,2234.76
						c-21.47,0-41.55,19.44-47.76,46.23c-7.06,30.46,6.37,59.68,29.92,65.14c2.54,0.59,5.15,0.89,7.76,0.89
						c21.46,0,41.55-19.44,47.76-46.23c3.44-14.86,2.16-29.86-3.61-42.23c-5.67-12.16-15.02-20.3-26.31-22.91
						C1706.96,2235.06,1704.34,2234.76,1701.73,2234.76z"/>
				</g>
				<g class="st3">
					<path class="st4" d="M1741.85,2301.36c-7.36,31.84-33.57,52.99-58.51,47.22c-24.97-5.78-39.2-36.3-31.79-68.17
						c0.98-4.3,2.35-8.43,4.01-12.31c1.35,23.36,14.25,42.78,33.63,47.24c21.54,4.99,44.04-10.08,54.49-34.87
						C1744.07,2287.2,1743.47,2294.24,1741.85,2301.36z"/>
				</g>
				<g>
					<path class="st2" d="M1741.85,2301.36c-0.49,2.17-1.09,4.28-1.79,6.34c0.83-26.1-12.62-48.66-33.69-53.53
						c-23.24-5.36-47.61,12.62-56.72,40.91c0.13-4.83,0.77-9.72,1.9-14.67c7.36-31.84,33.57-52.99,58.51-47.22
						C1734.98,2239.01,1749.22,2269.49,1741.85,2301.36z"/>
				</g>
				<g>
					<path class="st4" d="M1691.66,2360.62L1691.66,2360.62c-3.65,0-7.29-0.42-10.84-1.24c-30.87-7.15-48.86-43.7-40.11-81.47
						c7.62-32.89,33.28-56.77,61.02-56.77c3.64,0,7.29,0.42,10.84,1.24c15.46,3.58,28.1,14.38,35.58,30.42
						c7.05,15.11,8.66,33.24,4.53,51.05C1745.05,2336.75,1719.39,2360.62,1691.66,2360.62z M1701.73,2243.37
						c-17.22,0-34.14,17.01-39.37,39.56c-5.99,25.83,4.55,50.42,23.48,54.81c1.9,0.44,3.86,0.66,5.82,0.66
						c17.22,0,34.14-17.01,39.37-39.56c3.01-13,1.94-26.01-3.02-36.64c-4.53-9.71-11.79-16.16-20.45-18.16
						C1705.65,2243.6,1703.69,2243.37,1701.73,2243.37z"/>
				</g>
				<g>
					<path class="st4" d="M1569.16,2434.33c-0.77,0-1.54-0.08-2.33-0.25c-6-1.28-9.83-7.18-8.55-13.18l24.25-113.9l-42.8-43.61
						c-2.67-2.72-3.76-6.61-2.89-10.32l36.42-155.59c1.4-5.98,7.38-9.68,13.35-8.29c5.97,1.4,9.68,7.38,8.29,13.35l-35.03,149.63
						l42.7,43.51c2.61,2.66,3.71,6.45,2.94,10.1l-25.5,119.73C1578.91,2430.76,1574.3,2434.33,1569.16,2434.33z"/>
				</g>
			</g>
		</g>
		<g>
			<g>
				<path class="st2" d="M2120.63,2411.32c-123.05,2.76-196.64-30.89-200.44-32.67c-20.82-9.76-29.79-34.55-20.03-55.38
					c9.73-20.76,34.4-29.73,55.18-20.12c1.83,0.82,97.21,42.59,251.41,16.3c22.67-3.89,44.18,11.37,48.05,34.04
					c3.86,22.67-11.37,44.18-34.05,48.04C2184.57,2407.73,2151.08,2410.64,2120.63,2411.32z"/>
			</g>
			<g class="st3">
				<path class="st5" d="M2253.85,2350.04c-6.12,7.25-14.58,12.58-24.67,14.3c-36.19,6.17-69.69,9.09-100.13,9.77
					c-123.05,2.76-196.64-30.89-200.44-32.67c-11.66-5.47-19.42-15.7-22.43-27.25c-2.31,2.74-4.42,5.69-6.01,9.09
					c-9.76,20.82-0.8,45.61,20.03,55.38c3.8,1.78,77.38,35.42,200.44,32.67c30.44-0.68,63.94-3.6,100.13-9.77
					c22.67-3.87,37.91-25.38,34.05-48.04C2254.6,2352.3,2254.16,2351.21,2253.85,2350.04z"/>
			</g>
			<g>
				<path class="st4" d="M2106.36,2428.53c-116.48,0-185.86-30.91-193.39-34.44c-29.3-13.74-41.96-48.75-28.23-78.05
					c9.62-20.52,30.49-33.79,53.16-33.79c8.49,0,16.72,1.81,24.47,5.37c1.64,0.71,55.02,23.47,144.45,23.47
					c31.59,0,64.25-2.84,97.08-8.43c3.27-0.56,6.63-0.85,9.95-0.85c28.64,0,52.94,20.53,57.77,48.82
					c5.44,31.9-16.09,62.28-47.98,67.72c-34.53,5.89-69.05,9.26-102.61,10.01C2116.14,2428.47,2111.2,2428.53,2106.36,2428.53z
					 M1937.9,2316.35c-9.51,0-18.26,5.56-22.29,14.16c-5.75,12.28-0.45,26.95,11.83,32.71c2.71,1.27,67.94,31.21,178.92,31.21
					c4.6,0,9.27-0.05,13.9-0.16c31.9-0.71,64.75-3.92,97.65-9.53c13.37-2.28,22.39-15.01,20.11-28.38
					c-2.02-11.85-12.19-20.46-24.17-20.46c-1.39,0-2.8,0.12-4.2,0.36c-34.73,5.92-69.32,8.92-102.83,8.92
					c-98.37,0-156.05-25.39-158.45-26.47c-0.06-0.03-0.12-0.05-0.18-0.08C1944.92,2317.12,1941.46,2316.35,1937.9,2316.35z"/>
			</g>
		</g>
		<g>
			<g>
				<path class="st2" d="M2244.26,1901.68c0,0,122.36,161.1,148.97,367.23s-26.41,539.39-186.06,529.78
					c-159.66-9.62-127.7-178.57-127.7-178.57s-61.75,16.78-82.81-37.73s65.38-151.56,65.38-151.56
					c24.39-236.41-9.24-412.7-9.24-412.7s-14.03-74.18-15.06-83.23c-1.03-9.05-6.77-81.35-6.77-81.35L2244.26,1901.68z"/>
			</g>
			<g class="st3">
				<path class="st4" d="M1709.28,1790.75c0,0,185.89,185.82,552.06,136.94c0,0,125.84,168.52,136.68,419.36
					c10.83,250.84-77.7,522.59-252.58,433.68c0,0-60.15-23.3-68.37-95.69c0,0,82.9,100,173.75,57.69
					c83.74-39,153.48-423.38,55.45-652.82c-27.19-63.63-91.99-102.39-161.1-98.91C2016.37,1997.47,1784.59,1980.85,1709.28,1790.75z
					"/>
			</g>
			<g>
				<path class="st4" d="M2078.95,2233.2l-16.97-29.57c1.42-0.82,35.49-20.22,91.16-35.84c51.21-14.37,131.36-28.13,222.33-12.08
					l-5.92,33.57c-84.19-14.86-158.55-2.2-206.12,11.03C2111.53,2214.75,2079.27,2233.02,2078.95,2233.2z"/>
			</g>
			<g>
				<path class="st4" d="M2056.83,2017.38c2.29,8.43,4.26,16.93,6.08,25.43l1.35,6.38l1.27,6.39c0.84,4.26,1.69,8.53,2.42,12.81
					c1.49,8.56,3.05,17.12,4.28,25.72l1.92,12.9c0.63,4.3,1.13,8.61,1.69,12.92l1.62,12.94c0.53,4.32,0.93,8.64,1.4,12.96
					c0.83,8.65,1.86,17.3,2.45,25.97c0.67,8.67,1.38,17.34,1.95,26.01l1.41,26.05l0.34,6.52l0.21,6.52l0.38,13.04
					c0.23,8.7,0.55,17.4,0.52,26.1c0.06,8.7,0.11,17.41,0.09,26.11l0,3.27l-0.07,3.26l-0.15,6.53l-0.29,13.06
					c-0.22,8.7-0.36,17.42-0.9,26.11c-0.44,8.7-0.9,17.4-1.42,26.09c-0.4,8.7-1.26,17.38-2.01,26.06
					c-0.75,8.68-1.55,17.36-2.39,26.03l-0.01,0.12c-0.36,3.67-1.9,6.94-4.21,9.46l0,0l-2.51,2.91l-2.59,3.09
					c-1.72,2.08-3.43,4.19-5.12,6.32c-3.39,4.26-6.69,8.59-9.92,12.97c-6.45,8.77-12.56,17.74-18.19,26.9
					c-5.61,9.16-10.77,18.51-15.06,27.98c-2.16,4.73-4.09,9.49-5.72,14.24c-1.65,4.74-2.97,9.47-3.89,14.1
					c-0.45,2.31-0.82,4.59-1.03,6.81c-0.25,2.23-0.34,4.4-0.31,6.49c0.05,4.18,0.65,8.01,1.82,11.33l0.22,0.62l0.1,0.31
					c0.05,0.13-0.41-1.01-0.2-0.5l0.03,0.06l0.05,0.12l0.1,0.24l0.83,1.95l0.83,1.95l0.21,0.49c0.06,0.14,0.11,0.21,0.17,0.32
					l0.33,0.59l0.63,1.2c0.21,0.41,0.37,0.79,0.68,1.25l1.63,2.66c2.28,3.42,4.93,6.36,7.94,8.85c3.01,2.5,6.42,4.51,10.2,6.06
					c3.78,1.56,7.92,2.65,12.29,3.32c4.38,0.62,8.98,0.84,13.63,0.61c2.32-0.1,4.66-0.32,6.95-0.63c1.15-0.15,2.28-0.34,3.39-0.53
					l1.6-0.32l0.73-0.16l0.32-0.07c0.08-0.02,0.23-0.06,0.11-0.02l21.22,19.62l-0.3,1.85l-0.31,2.16c-0.2,1.46-0.38,2.95-0.54,4.45
					c-0.32,3-0.58,6.04-0.76,9.09c-0.38,6.09-0.48,12.22-0.34,18.32c0.33,12.19,1.68,24.28,4.35,35.87
					c2.66,11.58,6.61,22.67,12.09,32.66c5.46,10.01,12.4,18.92,20.76,26.3c16.69,14.84,39.06,23.15,62.88,26.32
					c1.48,0.23,3,0.35,4.49,0.54c1.5,0.17,3,0.36,4.52,0.45l4.55,0.35l0.57,0.04c-1.03-0.05-0.11-0.01-0.26-0.02l0.31,0.01
					l1.24,0.03l2.47,0.07l2.47,0.07l0.62,0.02l0.47-0.03l0.94-0.05c1.26-0.07,2.51-0.12,3.77-0.16c1.31-0.09,2.73-0.29,4.08-0.43
					l2.06-0.22c0.68-0.11,1.35-0.24,2.03-0.36l4.06-0.73l4-1.01c1.35-0.28,2.65-0.75,3.96-1.18l1.97-0.63
					c0.66-0.2,1.31-0.42,1.95-0.7l3.86-1.54c1.29-0.5,2.52-1.18,3.79-1.75c2.55-1.11,4.96-2.62,7.44-3.94
					c9.66-5.88,18.74-13.27,26.84-22.02c8.14-8.7,15.55-18.4,22.14-28.84c13.24-20.86,23.75-44.02,32.45-67.96
					c8.68-23.98,15.55-48.81,21.15-73.99c5.61-25.19,9.88-50.75,13.11-76.48c3.24-25.72,5.41-51.62,6.57-77.55
					c1.18-25.93,1.37-51.92,0.44-77.82c-0.46-12.95-1.19-25.88-2.23-38.76c-0.26-3.22-0.52-6.44-0.84-9.65
					c-0.3-3.21-0.6-6.43-0.96-9.63c-0.34-3.21-0.68-6.41-1.09-9.61l-0.58-4.79l-0.07-0.6l-0.04-0.3c0.05,0.4-0.01-0.07-0.01-0.06
					l-0.18-1.22l-0.35-2.45l-1.41-9.8l-0.71-4.9c-0.25-1.61-0.54-3.14-0.81-4.71l-1.64-9.38l-0.82-4.69l-0.96-4.73
					c-1.32-6.3-2.46-12.64-3.99-18.91c-1.46-6.28-2.83-12.57-4.51-18.81c-6.35-25-14.05-49.7-22.86-74.02
					c-8.78-24.33-18.86-48.23-29.82-71.71l-2.05-4.41l-2.12-4.37l-4.24-8.75c-2.94-5.78-5.78-11.6-8.82-17.32
					c-5.96-11.51-12.22-22.87-18.69-34.09c-6.47-11.22-13.17-22.31-20.13-33.19c-3.46-5.46-7.03-10.82-10.62-16.16
					c-1.81-2.65-3.62-5.3-5.46-7.9l-2.76-3.88l-2.68-3.65l-0.21-0.29c-5.57-7.59-3.93-18.26,3.66-23.82
					c7.53-5.52,18.1-3.94,23.7,3.5c1.19,1.59,2.14,2.9,3.18,4.33l2.98,4.19c1.97,2.79,3.88,5.59,5.8,8.39
					c3.78,5.62,7.52,11.24,11.13,16.94c7.26,11.36,14.23,22.88,20.95,34.53c6.72,11.65,13.2,23.43,19.39,35.36
					c3.16,5.93,6.11,11.98,9.15,17.97l4.4,9.07l2.2,4.54l2.13,4.57c11.37,24.37,21.84,49.18,30.99,74.52
					c9.18,25.32,17.21,51.1,23.87,77.28c1.75,6.52,3.2,13.12,4.73,19.7c1.6,6.56,2.81,13.22,4.19,19.84l1.01,4.97l0.89,5.06
					l1.76,10.13c0.28,1.68,0.6,3.39,0.86,5.05l0.71,4.9l1.41,9.8l0.35,2.45l0.18,1.23l0.12,0.87l0.08,0.63l0.61,5.03
					c0.43,3.36,0.78,6.71,1.14,10.07c0.38,3.36,0.69,6.72,1.01,10.07c0.33,3.36,0.61,6.72,0.88,10.08
					c1.09,13.44,1.84,26.87,2.32,40.31c0.96,26.87,0.76,53.74-0.46,80.56c-1.2,26.82-3.44,53.59-6.81,80.26
					c-3.35,26.67-7.79,53.25-13.65,79.61c-5.87,26.36-13.09,52.53-22.38,78.22c-9.33,25.66-20.69,50.91-35.76,74.68
					c-7.51,11.88-16.15,23.29-26.05,33.87c-9.85,10.61-21.35,20.17-34.26,27.98c-3.33,1.82-6.56,3.78-10.05,5.34
					c-1.73,0.8-3.41,1.69-5.2,2.39l-5.33,2.13c-0.88,0.37-1.79,0.68-2.71,0.97l-2.74,0.89c-1.83,0.59-3.65,1.21-5.53,1.64l-5.6,1.4
					c-1.89,0.38-3.78,0.7-5.68,1.04c-0.95,0.16-1.89,0.34-2.84,0.49l-2.86,0.32c-1.92,0.2-3.78,0.44-5.76,0.58l-6.12,0.24
					l-1.53,0.05l-0.76,0.02l-0.62-0.02l-2.47-0.07l-2.47-0.07l-1.24-0.03l-1.19-0.04l-0.67-0.05l-5.32-0.41
					c-1.77-0.11-3.55-0.33-5.33-0.53c-1.78-0.22-3.56-0.36-5.34-0.64c-7.12-0.95-14.25-2.35-21.34-4.1
					c-7.09-1.78-14.13-4.09-21.03-6.88c-13.8-5.57-27.06-13.43-38.5-23.57c-11.46-10.09-20.96-22.35-28.12-35.52
					c-3.59-6.59-6.65-13.4-9.19-20.32c-2.53-6.93-4.57-13.97-6.2-21.04c-3.25-14.16-4.82-28.44-5.2-42.63
					c-0.17-7.1-0.05-14.19,0.39-21.27c0.22-3.54,0.51-7.08,0.89-10.65c0.19-1.78,0.4-3.57,0.65-5.37l0.39-2.74l0.22-1.41l0.28-1.62
					l21.22,19.62l-0.92,0.23l-0.71,0.17l-1.33,0.3c-0.88,0.19-1.71,0.34-2.56,0.51c-1.67,0.3-3.33,0.57-4.98,0.79
					c-3.3,0.45-6.6,0.76-9.93,0.9c-6.64,0.32-13.39,0.04-20.2-0.94c-6.81-1.02-13.68-2.79-20.36-5.55
					c-6.67-2.74-13.12-6.51-18.82-11.23c-5.71-4.7-10.67-10.29-14.66-16.28c-0.96-1.51-1.88-3.04-2.81-4.57
					c-0.47-0.73-0.91-1.62-1.35-2.47l-1.31-2.57l-0.64-1.29l-0.31-0.63l-0.21-0.49l-0.83-1.95l-0.83-1.95l-0.43-1.05l-0.25-0.69
					l-0.49-1.38c-2.56-7.37-3.59-14.88-3.68-21.99c-0.05-3.56,0.12-7.05,0.48-10.44c0.33-3.41,0.87-6.71,1.5-9.95
					c1.29-6.47,3.04-12.65,5.1-18.58c2.04-5.95,4.38-11.67,6.91-17.23c2.53-5.56,5.24-10.97,8.1-16.24
					c2.86-5.27,5.84-10.44,8.95-15.48c6.21-10.11,12.84-19.83,19.79-29.28c3.48-4.72,7.03-9.38,10.69-13.97
					c1.83-2.3,3.67-4.58,5.56-6.85l2.86-3.41l1.46-1.71l1.57-1.8l0.01-0.01l-4.23,9.59c0.7-8.51,1.45-17.01,2.24-25.51l1.18-12.75
					c0.46-4.24,0.73-8.5,1.03-12.76c0.59-8.52,1.23-17.03,1.89-25.54c0.76-8.51,1.02-17.05,1.55-25.57l0.73-12.79l0.37-6.4l0.18-3.2
					l0.11-3.2c0.27-8.54,0.61-17.08,0.96-25.62c0.42-8.54,0.5-17.09,0.66-25.64l0.25-12.83l0.14-6.42l0.02-6.41l0.08-25.67
					l-0.31-25.68c-0.04-8.57-0.36-17.12-0.56-25.69c-0.12-4.28-0.15-8.57-0.32-12.85l-0.47-12.85l-0.46-12.86l-0.6-12.85
					c-0.33-8.58-0.87-17.14-1.31-25.72c-0.2-4.29-0.58-8.56-0.81-12.85l-0.39-6.43l-0.47-6.42c-0.31-4.28-0.58-8.58-0.95-12.85
					c-0.33-4.31-0.68-8.51-1.07-12.82l0-0.03c-0.21-2.27,1.46-4.28,3.73-4.49C2054.5,2014.17,2056.32,2015.48,2056.83,2017.38z"/>
			</g>
		</g>
		<g>
			<g>
				<path class="st2" d="M1489.15,1410.14c18.68,105.9,63.89,207.57,134.97,294.42c14.5,17.7,30.01,34.77,46.6,51.11
					c8.05,7.98,16.44,15.78,25.03,23.49c26.02,23.07,53.37,43.63,81.83,61.71c24.49,15.65,49.82,29.41,75.68,41.37
					c31.23,14.46,63.36,26.2,96,35.33c11.92,3.29,23.88,6.25,35.9,8.89c220.03,47.85,458.73-21.31,618.72-201.79
					c235.74-265.81,211.32-672.38-54.44-908.11c-51.22-45.36-107.66-81.21-167.11-107.37c-6.92-3.12-13.96-6.06-21.05-8.84
					c-18.91-7.57-38.07-14.2-57.43-19.88c-44.78-13.12-90.65-21.2-136.66-24.34c-46-3.19-92.26-1.41-137.81,5.25
					c-14.48,2.11-28.9,4.7-43.26,7.82c-21.51,4.68-42.8,10.4-63.86,17.34c-104.93,34.21-202.43,95.94-280.95,184.51
					C1505.71,1023.94,1456.21,1223.4,1489.15,1410.14z"/>
				<path class="st5" d="M2122.35,1942.88c-0.01,0-0.02,0-0.03,0c-46.22,0-92.49-4.97-137.52-14.76
					c-12.01-2.64-24.11-5.64-35.99-8.92c-33.08-9.25-65.47-21.17-96.26-35.42c-26.31-12.16-51.84-26.12-75.88-41.48
					c-28.72-18.25-56.32-39.07-82.04-61.88c-9.43-8.46-17.64-16.16-25.1-23.55c-16.29-16.05-32.02-33.29-46.72-51.24
					c-69.43-84.83-116.23-186.91-135.33-295.2c-16.52-93.68-12.06-191.53,12.91-282.98c12.77-46.76,30.88-92.1,53.81-134.74
					c23.6-43.87,52.48-85.18,85.85-122.8c75.99-85.72,173.4-149.69,281.7-185c20.51-6.75,42.05-12.6,64.03-17.38
					c14.1-3.06,28.69-5.7,43.37-7.84c30.87-4.52,62.36-6.81,93.59-6.81c14.82,0,29.82,0.52,44.59,1.54
					c46.46,3.17,92.56,11.38,137.03,24.4c19.34,5.67,38.71,12.38,57.58,19.93c7.56,2.97,14.47,5.87,21.11,8.87
					c60.66,26.69,117.04,62.91,167.54,107.65c65.13,57.77,117.01,126.58,154.18,204.5c35.91,75.27,56.66,155.83,61.67,239.44
					c5.02,83.62-5.96,166.08-32.61,245.1c-27.6,81.81-70.88,156.32-128.66,221.47c-62.31,70.28-137.14,124.94-222.42,162.46
					C2300.35,1924.5,2212.75,1942.88,2122.35,1942.88z M2122.73,656.3c-31.06,0-62.38,2.28-93.09,6.77
					c-14.6,2.13-29.12,4.75-43.14,7.79c-21.86,4.76-43.29,10.57-63.69,17.29c-107.73,35.12-204.62,98.76-280.21,184.02
					c-130.72,147.38-186.04,343.35-151.77,537.66c19,107.72,65.55,209.26,134.61,293.63c14.63,17.86,30.27,35.01,46.48,50.98
					c7.42,7.36,15.59,15.02,24.97,23.43c25.57,22.68,53.03,43.39,81.6,61.54c23.91,15.28,49.31,29.16,75.48,41.26
					c30.63,14.17,62.84,26.03,95.74,35.23c11.81,3.26,23.86,6.25,35.8,8.87c44.79,9.74,90.82,14.68,136.79,14.68
					c183.56,0.01,358.62-78.7,480.29-215.94c234.72-264.65,210.36-670.95-54.29-905.7c-50.24-44.5-106.31-80.53-166.67-107.08
					c-6.61-2.98-13.47-5.87-20.98-8.81c-18.78-7.52-38.05-14.19-57.29-19.83c-44.23-12.95-90.08-21.12-136.3-24.27
					C2152.39,656.82,2137.47,656.3,2122.73,656.3z"/>
			</g>
			<g class="st3">
				<path class="st4" d="M1489.16,1410.12c18.68,105.9,63.89,207.57,134.97,294.42c14.5,17.7,30.01,34.77,46.6,51.11
					c8.05,7.98,16.44,15.78,25.03,23.49c26.02,23.07,53.37,43.63,81.83,61.71c24.49,15.65,49.82,29.41,75.68,41.37
					c31.23,14.46,63.36,26.2,96,35.33c11.92,3.29,23.88,6.25,35.9,8.89c220.02,47.85,458.73-21.31,618.72-201.79
					c85.43-96.34,136.72-211.21,154.69-329.71c-23.67,44.95-53.08,87.84-88.31,127.57c-60,67.68-130.01,79.15-207,115.23
					c-128.33,60.12-274.2,116.47-411.72,86.56c-12.01-2.64-23.98-5.6-35.9-8.89c-32.64-9.13-64.76-20.87-96-35.33
					c-25.87-11.96-51.2-25.72-75.68-41.37c-28.45-18.08-55.81-38.64-81.83-61.71c-8.59-7.7-16.98-15.51-25.03-23.49
					c-16.59-16.34-32.1-33.41-46.6-51.11c-71.08-86.84-116.29-188.52-134.97-294.42c-12.16-69.08-13.07-139.92-2.49-209.48
					C1485.54,1126.65,1464.76,1271.86,1489.16,1410.12z"/>
			</g>
			<g>
				<path class="st5" d="M2122.36,1952.75c-0.02,0-0.02,0-0.03,0c-46.92,0-93.9-5.04-139.62-14.99c-12.2-2.68-24.47-5.72-36.52-9.05
					c-33.63-9.41-66.51-21.51-97.78-35.98c-26.71-12.35-52.64-26.52-77.05-42.12c-29.14-18.52-57.17-39.66-83.27-62.81
					c-9.59-8.6-17.92-16.41-25.5-23.92c-16.52-16.27-32.48-33.78-47.41-52c-70.5-86.14-118.02-189.78-137.42-299.74
					c-16.78-95.1-12.24-194.45,13.11-287.29c12.97-47.48,31.35-93.51,54.64-136.81c23.96-44.54,53.29-86.49,87.16-124.67
					c77.15-87.03,176.05-151.98,286.02-187.83c20.8-6.85,42.68-12.79,64.99-17.64c14.33-3.11,29.15-5.79,44.05-7.96
					c31.34-4.59,63.3-6.91,95.01-6.91c15.05,0,30.28,0.53,45.27,1.57c47.16,3.22,93.97,11.55,139.12,24.77
					c19.64,5.76,39.32,12.57,58.48,20.24c7.63,3,14.68,5.96,21.46,9.02c61.59,27.11,118.81,63.87,170.06,109.27
					c66.13,58.66,118.8,128.52,156.54,207.64c36.46,76.42,57.52,158.21,62.61,243.1c5.09,84.9-6.05,168.62-33.11,248.84
					c-28.02,83.07-71.97,158.72-130.63,224.86c-63.26,71.35-139.24,126.85-225.83,164.95
					C2303.07,1934.09,2214.12,1952.75,2122.36,1952.75z M2122.73,666.17c-30.59,0-61.43,2.24-91.67,6.67
					c-14.38,2.1-28.67,4.68-42.48,7.67c-21.52,4.68-42.62,10.41-62.7,17.02c-106.09,34.59-201.49,97.24-275.91,181.19
					c-128.72,145.12-183.18,338.08-149.43,529.4c18.71,106.06,64.54,206.03,132.53,289.1c14.41,17.58,29.81,34.47,45.77,50.2
					c7.33,7.26,15.38,14.82,24.64,23.11c25.14,22.3,52.18,42.69,80.31,60.57c23.56,15.05,48.56,28.72,74.33,40.63
					c30.15,13.96,61.86,25.62,94.26,34.69c11.61,3.21,23.49,6.15,35.26,8.74c44.08,9.59,89.41,14.45,134.68,14.45
					c180.74,0.01,353.11-77.49,472.9-212.62c231.11-260.59,207.13-660.63-53.46-891.77c-49.47-43.81-104.68-79.29-164.09-105.43
					c-0.03-0.02-0.07-0.03-0.1-0.05c-6.44-2.91-13.15-5.73-20.51-8.62c-18.55-7.43-37.52-13.99-56.46-19.55
					c-43.54-12.75-88.69-20.79-134.2-23.89C2151.94,666.67,2137.25,666.17,2122.73,666.17z"/>
			</g>
			<g>
				<path class="st4" d="M2122.35,1958.22c-0.01,0-0.02,0-0.03,0c-47.31,0-94.68-5.09-140.78-15.11c-12.3-2.7-24.67-5.77-36.81-9.12
					c-33.92-9.49-67.09-21.69-98.62-36.29c-26.93-12.45-53.08-26.74-77.7-42.47c-29.38-18.67-57.63-39.98-83.96-63.32
					c-9.68-8.68-18.08-16.55-25.72-24.13c-16.65-16.4-32.74-34.05-47.79-52.42c-71.1-86.86-119.01-191.38-138.57-302.26
					c-16.91-95.9-12.34-196.07,13.22-289.69c13.07-47.88,31.61-94.3,55.1-137.96c24.16-44.91,53.73-87.21,87.88-125.71
					c77.79-87.75,177.53-153.25,288.42-189.4c20.97-6.9,43.03-12.89,65.52-17.79c14.45-3.14,29.4-5.84,44.42-8.03
					c31.59-4.62,63.83-6.97,95.8-6.97c15.17,0,30.53,0.53,45.65,1.58c47.55,3.24,94.75,11.65,140.28,24.98
					c19.79,5.8,39.62,12.66,58.92,20.39c7.76,3.05,14.86,6.03,21.71,9.12c62.1,27.34,119.8,64.41,171.47,110.18
					c66.69,59.15,119.79,129.59,157.86,209.38c36.76,77.06,58,159.53,63.14,245.13c5.13,85.6-6.1,170.03-33.39,250.92
					c-28.26,83.77-72.57,160.05-131.72,226.74c-63.78,71.95-140.4,127.91-227.72,166.33
					C2304.57,1939.41,2214.88,1958.22,2122.35,1958.22z M2122.73,671.64c-30.32,0-60.9,2.22-90.87,6.61
					c-14.27,2.08-28.43,4.64-42.11,7.61c-21.34,4.64-42.25,10.32-62.15,16.87c-105.18,34.29-199.74,96.4-273.52,179.63
					c-127.6,143.86-181.6,335.15-148.14,524.82c18.55,105.14,63.98,204.23,131.38,286.58c14.28,17.43,29.55,34.18,45.38,49.77
					c7.27,7.21,15.26,14.7,24.45,22.94c24.9,22.08,51.71,42.3,79.59,60.02c23.36,14.93,48.14,28.47,73.69,40.28
					c29.89,13.83,61.32,25.4,93.44,34.38c11.5,3.18,23.29,6.09,34.96,8.66c43.69,9.5,88.62,14.32,133.5,14.33
					c179.17,0.01,350.05-76.82,468.8-210.77c229.11-258.33,205.34-654.91-52.99-884.05c-49.04-43.43-103.77-78.6-162.67-104.52
					c-0.05-0.02-0.1-0.04-0.15-0.07c-6.36-2.87-12.98-5.65-20.26-8.51c-0.04-0.01-0.07-0.03-0.11-0.04
					c-18.32-7.33-37.12-13.84-55.89-19.35c-43.16-12.64-87.92-20.61-133.03-23.69C2151.68,672.15,2137.12,671.64,2122.73,671.64z"/>
			</g>
			<g>
				<path class="st4" d="M1538.37,1567.46c274.24,369.02,819.97,353.04,989.4-69.64c115.27-287.56-77.29-622.44-360.57-715.47
					c-206.17-67.7-437.08-43.61-629.63,247.65c0,0-65.33,142.1-58.09,253.62s33.11,218.76,33.11,218.76L1538.37,1567.46z"/>
			</g>
			<g>
				<path class="st7" d="M1479.08,1255.91c-0.35,9.36-0.22,18.65,0.38,27.7c7.25,111.51,33.13,218.81,33.13,218.81l25.8,65.05
					c274.19,369.02,819.93,353.01,989.37-69.63c10.94-27.28,19.09-55.02,24.68-82.92c-273.98,297.74-781.1,252.83-1057.59-119.22
					L1479.08,1255.91z"/>
			</g>
			<g>
				<path class="st4" d="M2043.59,1913.9C2043.58,1913.9,2043.59,1913.9,2043.59,1913.9c-92.98,0-184.75-19.31-272.77-57.38
					c-0.82-0.36-1.62-0.78-2.38-1.26c-29.41-18.69-57.67-40-83.99-63.35c-9.68-8.68-18.08-16.55-25.72-24.13
					c-16.65-16.4-32.74-34.05-47.79-52.42c-71.1-86.86-119.01-191.38-138.57-302.26c-16.91-95.9-12.34-196.07,13.22-289.69
					c13.08-47.88,31.61-94.3,55.1-137.96c24.16-44.91,53.73-87.21,87.88-125.71c77.79-87.75,177.52-153.25,288.42-189.4
					c1.12-0.36,2.27-0.61,3.44-0.74c19.25-2.09,39.04-3.15,58.84-3.15c67.11,0,138.23,12.18,211.36,36.2
					c84.39,27.71,165.36,75.7,234.17,138.77c67.1,61.51,122.76,137.33,160.95,219.29c72.3,155.13,79.63,321.58,20.65,468.69
					c-25.07,62.53-58.13,119.21-98.26,168.46c-38.4,47.13-83.37,87.6-133.64,120.29C2278.14,1880.78,2163.7,1913.9,2043.59,1913.9z
					 M1785.59,1825.76c83.34,35.86,170.14,54.05,257.99,54.05c241.44,0,440.02-135.74,531.19-363.11
					c55.43-138.27,48.36-295.1-19.91-441.6C2480.1,914.69,2339.96,787.56,2180,735.03c-69.7-22.89-137.23-34.49-200.73-34.49
					c-17.96,0-35.92,0.93-53.4,2.76c-104.46,34.39-198.41,96.28-271.79,179.06c-127.6,143.86-181.6,335.15-148.14,524.82
					c18.55,105.14,63.98,204.23,131.38,286.58c14.28,17.43,29.55,34.18,45.38,49.77c7.27,7.21,15.26,14.7,24.45,22.94
					C1731.7,1788.24,1758.12,1808.21,1785.59,1825.76z"/>
			</g>
			<g>
				<path class="st4" d="M2041.16,1847.44c-0.02,0-0.03,0-0.05,0c-94.88-0.01-191.33-23.48-278.92-67.87
					c-45.15-22.89-87.95-51.27-127.22-84.37c-40.7-34.31-77.8-73.86-110.28-117.57c-0.89-1.2-1.62-2.5-2.17-3.89l-25.79-65.07
					c-0.29-0.74-0.54-1.51-0.72-2.28c-1.07-4.44-26.29-109.95-33.55-221.65c-7.44-114.51,56.87-255.88,59.61-261.85
					c0.36-0.79,0.79-1.55,1.27-2.28c66.2-100.13,141.12-175,222.7-222.55c73.11-42.61,153.09-64.21,237.73-64.21
					c59.94,0,123.44,10.87,188.74,32.32c75.33,24.74,147.6,67.56,209.02,123.86c59.88,54.88,109.55,122.55,143.63,195.68
					c64.54,138.48,71.08,287.1,18.42,418.47c-22.37,55.82-51.88,106.41-87.7,150.38c-34.29,42.09-74.43,78.23-119.32,107.41
					C2250.54,1817.88,2148.39,1847.44,2041.16,1847.44z M1553.38,1559.08c119.17,159.24,301.33,254.25,487.73,254.27
					c0.01,0,0.04,0,0.05,0c214,0,389.98-120.32,470.77-321.87c49.12-122.54,42.84-261.53-17.68-391.38
					c-66.29-142.24-190.55-254.97-332.39-301.55c-61.86-20.31-121.78-30.61-178.1-30.61c-167.2,0-312.29,90.96-431.24,270.33
					c-6.02,13.51-62.59,143.54-56.05,244.26c6.67,102.74,29.65,203,32.4,214.73L1553.38,1559.08z"/>
			</g>
			<g>
				<path class="st2" d="M2479.93,1490.02c-0.24,0.88-0.51,1.82-0.7,2.72c-31.31,121.58,15.47,235.36,105.22,254.87
					c90.41,19.7,190.19-63.81,222.92-186.43c25.2-94.6,3.1-184.92-49.93-230.21c-15.62-13.43-33.99-22.93-54.6-27.39
					C2612.43,1283.94,2512.58,1367.44,2479.93,1490.02z"/>
			</g>
			<g class="st3">
				<path class="st4" d="M2479.23,1492.74c-31.31,121.58,15.47,235.36,105.22,254.87c90.41,19.7,190.19-63.81,222.92-186.43
					c5.47-20.54,8.71-40.88,9.89-60.6c5.01-83.86-99.2-126.91-156.16-65.15l-61.29,66.45c0,0-36.94,45.7-87.73,31.63
					C2494.85,1528.73,2484.87,1512.33,2479.23,1492.74z"/>
			</g>
			<g>
				<path class="st4" d="M2611.28,1767.54c-10.29,0-20.54-1.1-30.48-3.26c-39.58-8.6-72.76-33.23-95.96-71.23
					c-16.34-26.76-26.99-59.59-30.79-94.93c-3.94-36.53-0.78-74.38,9.38-112.48c14.96-56.08,44.37-107.23,82.83-144.03
					c39.04-37.35,85.1-57.92,129.71-57.92c10.29,0,20.54,1.1,30.48,3.26c39.58,8.6,72.76,33.23,95.96,71.23
					c16.34,26.76,26.99,59.59,30.79,94.93c3.94,36.53,0.78,74.38-9.38,112.48c-14.96,56.08-44.37,107.23-82.83,144.03
					C2701.96,1746.97,2655.89,1767.54,2611.28,1767.54z M2675.97,1317.79c-35.79,0-73.48,17.21-106.14,48.46
					c-34,32.53-60.09,78.06-73.46,128.18c-17.68,66.28-11.11,133.89,17.57,180.87c18.22,29.85,43.84,49.1,74.1,55.68
					c7.57,1.64,15.38,2.48,23.24,2.48c35.79,0,73.48-17.21,106.14-48.46c34-32.53,60.09-78.06,73.46-128.18
					c17.68-66.28,11.11-133.89-17.57-180.87c-18.22-29.85-43.84-49.1-74.1-55.68C2691.64,1318.62,2683.83,1317.79,2675.97,1317.79z"
					/>
			</g>
			<g>
				
					<ellipse transform="matrix(0.3403 -0.9403 0.9403 0.3403 312.8849 3557.0662)" class="st2" cx="2691.65" cy="1555.53" rx="179.92" ry="136.2"/>
				<path class="st4" d="M2666.3,1732.73c-27.14,0-52.2-9.77-72.49-28.25c-57.94-52.78-61.35-162.52-7.6-244.63
					c33.42-51.04,82.31-81.52,130.79-81.52c27.14,0,52.2,9.77,72.49,28.25c57.94,52.78,61.35,162.52,7.6,244.63
					C2763.67,1702.26,2714.78,1732.73,2666.3,1732.73z M2717,1381.85c-47.29,0-95.09,29.88-127.85,79.93
					c-52.84,80.72-49.69,188.43,7.03,240.1c19.63,17.88,43.88,27.33,70.12,27.33c47.29,0,95.09-29.88,127.85-79.93
					c52.84-80.72,49.69-188.43-7.03-240.1C2767.49,1391.3,2743.24,1381.85,2717,1381.85z"/>
			</g>
			<g class="st3">
				<path class="st4" d="M2546.03,1592.02c0.5-34.59,10.48-69.16,27.04-99.72c5.51,78.96,63.44,126.03,135.05,106.5
					c46.28-12.6,87.6-50.15,113.2-97.44c0.38,4.98,0.49,10.14,0.42,15.38c-1.3,88.08-61.57,186.77-137.71,207.55
					C2607.88,1745.07,2544.74,1680.05,2546.03,1592.02z"/>
			</g>
			<g>
				<path class="st4" d="M2661.88,1753.34c-7.32,0-14.62-0.75-21.7-2.23c-29.53-6.17-54.4-24.54-71.92-53.12
					c-27.47-44.8-33.43-110.12-15.92-174.73c12.62-46.59,36.47-89.24,67.15-120.11c31.58-31.77,68.49-49.27,103.93-49.27
					c7.32,0,14.62,0.75,21.7,2.23c29.53,6.17,54.4,24.54,71.92,53.12c27.47,44.8,33.43,110.12,15.92,174.73
					c-12.62,46.59-36.47,89.24-67.15,120.11C2734.23,1735.85,2697.32,1753.34,2661.88,1753.34z M2723.42,1387.98
					c-26.29,0-54.62,13.93-79.75,39.21c-26.58,26.74-47.33,64.02-58.42,104.99c-15.09,55.72-10.58,111.05,12.08,147.99
					c12.5,20.38,29.73,33.37,49.84,37.57c4.78,1,9.74,1.51,14.72,1.51c26.29,0,54.62-13.93,79.75-39.21
					c26.58-26.74,47.33-64.02,58.42-104.99c15.09-55.72,10.58-111.05-12.08-147.99c-12.5-20.38-29.73-33.37-49.84-37.57
					C2733.36,1388.49,2728.4,1387.98,2723.42,1387.98z"/>
			</g>
			<g class="st8">
				
					<ellipse transform="matrix(0.3403 -0.9403 0.9403 0.3403 300.1078 3037.1194)" class="st2" cx="2314.68" cy="1304.67" rx="100.2" ry="85.99"/>
			</g>
			<g class="st8">
				
					<ellipse transform="matrix(0.4185 -0.9082 0.9082 0.4185 -55.4918 2931.3862)" class="st2" cx="2261.46" cy="1509.03" rx="41.38" ry="35.51"/>
			</g>
			<g class="st8">
				<path class="st2" d="M1555.86,1205.98c0,0,115.88-500.18,621.51-360.84C2177.37,845.15,1786.11,854.23,1555.86,1205.98z"/>
			</g>
		</g>
	</g>
</g>
</svg>
